<?xml version="1.0" standalone="no"?>
<!DOCTYPE svg PUBLIC "-//W3C//DTD SVG 20010904//EN"
 "http://www.w3.org/TR/2001/REC-SVG-20010904/DTD/svg10.dtd">
<svg version="1.0" xmlns="http://www.w3.org/2000/svg"
 width="768.000000pt" height="768.000000pt" viewBox="0 0 768.000000 768.000000"
 preserveAspectRatio="xMidYMid meet">
<metadata>
Created by potrace 1.14, written by Peter Selinger 2001-2017
</metadata>
<g transform="translate(0.000000,768.000000) scale(0.100000,-0.100000)"
fill="#000000" stroke="none">
<path d="M3993 7136 c1 -5 -2 -11 -8 -11 -37 -4 -56 -18 -51 -38 3 -12 3 -16
0 -9 -5 10 -9 10 -20 1 -8 -7 -17 -9 -21 -6 -3 4 -12 -1 -20 -11 -12 -16 -13
-16 -7 1 4 10 3 17 -2 16 -22 -4 -45 2 -39 10 3 5 1 12 -4 15 -5 4 -12 2 -15
-3 -4 -5 -2 -13 4 -16 14 -9 -30 -44 -47 -38 -7 3 -13 0 -13 -6 0 -6 -9 -2
-20 9 -25 25 -45 18 -30 -10 7 -13 7 -21 -2 -26 -6 -4 -8 -3 -5 3 3 5 -3 22
-15 39 -11 16 -18 22 -15 13 3 -8 -1 -26 -9 -40 -7 -13 -13 -18 -14 -11 0 6
-6 11 -12 10 -8 -2 -13 6 -12 19 0 12 -3 20 -8 17 -4 -3 -8 -12 -8 -19 0 -8
-6 -12 -12 -10 -7 3 -18 1 -24 -3 -14 -9 -45 -68 -39 -74 3 -3 -1 -5 -9 -5
-12 0 -12 4 1 23 11 17 12 28 4 41 -8 14 -11 15 -12 3 -1 -8 -1 -20 0 -27 1
-6 -4 -15 -10 -19 -8 -5 -9 -3 -4 5 5 9 -2 12 -27 10 -18 -2 -39 0 -45 4 -6 4
-14 3 -17 -2 -8 -12 4 -19 27 -16 9 2 17 -1 17 -6 0 -6 -8 -9 -17 -7 -10 2
-17 -2 -16 -8 1 -6 -12 -10 -30 -9 -20 1 -38 -5 -49 -17 -9 -11 -19 -15 -22
-9 -3 5 0 12 6 15 7 3 2 5 -12 4 -14 -2 -32 2 -40 6 -8 5 -12 6 -8 1 4 -4 3
-13 -2 -20 -7 -8 -5 -12 5 -12 8 0 12 3 10 7 -2 4 2 7 9 7 8 0 12 -6 9 -12 -4
-12 -62 -16 -61 -5 0 3 0 12 -1 20 -1 12 -3 12 -10 2 -4 -8 -12 -13 -17 -12
-5 1 -10 -4 -13 -11 -2 -8 2 -10 13 -6 9 4 16 2 16 -3 0 -6 -9 -10 -20 -10
-11 0 -20 -5 -20 -12 0 -6 -9 0 -21 13 -19 22 -21 22 -17 4 1 -11 10 -26 18
-33 8 -8 9 -11 3 -7 -7 3 -22 8 -34 10 -12 2 -28 12 -35 22 -13 17 -14 17 -7
-2 6 -17 5 -18 -9 -7 -11 9 -18 10 -23 2 -4 -6 -2 -9 3 -8 11 3 12 -1 11 -34
l0 -23 -9 23 c-5 12 -12 22 -15 22 -4 0 -3 -4 0 -10 3 -5 0 -10 -7 -10 -11 0
-11 -2 0 -9 8 -4 -14 -7 -52 -6 -36 1 -63 -3 -60 -7 3 -5 9 -6 12 -4 4 2 12
-6 18 -19 11 -23 3 -28 -22 -12 -7 4 -18 -1 -25 -10 -12 -15 -12 -16 6 -9 16
6 17 5 8 -5 -9 -9 -16 -9 -26 -1 -8 7 -17 8 -22 4 -4 -4 -2 4 5 17 6 13 8 21
2 17 -5 -3 -15 -19 -21 -34 -15 -35 -58 -40 -54 -7 1 11 0 14 -3 7 -3 -6 -10
-10 -14 -7 -5 3 -12 0 -16 -6 -4 -7 -3 -9 2 -6 6 3 16 -4 24 -16 12 -20 12
-21 -3 -8 -10 7 -17 10 -17 5 0 -5 -7 -1 -15 10 -13 18 -14 18 -12 -2 0 -11 4
-19 7 -17 3 2 12 -1 20 -7 12 -8 12 -9 -2 -4 -10 3 -20 1 -23 -4 -3 -4 0 -10
7 -12 7 -3 5 -7 -6 -11 -11 -5 -15 -3 -10 5 5 8 2 9 -9 5 -9 -3 -19 -2 -22 3
-3 5 -13 6 -22 3 -12 -5 -14 -3 -9 8 4 8 -2 3 -13 -10 -12 -13 -21 -17 -21
-10 0 7 -3 10 -6 6 -3 -3 -3 -11 2 -18 5 -9 11 -7 21 6 8 12 13 14 13 6 0 -11
3 -11 14 -2 11 10 14 9 12 -4 -1 -8 -5 -14 -8 -13 -11 6 -38 -25 -31 -36 3 -6
2 -7 -3 -3 -5 5 -9 14 -9 20 0 7 -9 13 -20 16 -17 3 -18 2 -5 -14 14 -17 13
-17 -7 -6 -15 8 -20 17 -16 28 6 15 5 16 -9 3 -9 -8 -12 -17 -7 -18 6 -2 4
-11 -3 -20 -7 -9 -8 -13 -2 -9 6 3 11 0 11 -8 0 -8 -4 -12 -9 -9 -18 11 -58
14 -58 4 0 -6 -5 -8 -11 -4 -7 4 -6 -2 1 -17 13 -24 13 -24 -9 -5 -11 11 -21
16 -21 11 0 -4 -8 -1 -17 6 -16 13 -17 12 -5 -3 14 -17 1 -35 -17 -23 -5 3
-13 0 -17 -6 -4 -8 -3 -9 4 -5 7 4 12 2 12 -5 0 -8 4 -9 13 0 10 8 14 7 14 -4
0 -8 -4 -12 -8 -9 -4 2 -13 -5 -19 -17 -8 -14 -15 -18 -22 -11 -12 12 -41 4
-33 -8 3 -5 0 -12 -6 -16 -8 -4 -9 -3 -5 4 4 7 2 12 -4 12 -6 0 -8 5 -4 12 4
7 3 8 -5 4 -6 -4 -9 -11 -6 -16 3 -4 -2 -10 -10 -14 -8 -3 -18 2 -23 11 -6 11
-11 12 -16 4 -4 -6 -1 -11 6 -11 10 0 9 -3 -2 -9 -8 -6 -17 -8 -21 -5 -4 2
-10 -3 -13 -12 -3 -8 -10 -13 -14 -10 -9 5 -11 -6 -13 -54 -1 -17 -3 -19 -6
-7 -2 9 -8 15 -13 12 -5 -3 -7 -13 -4 -23 5 -14 4 -15 -5 -2 -10 14 -15 8 -12
-13 1 -4 -8 -2 -18 5 -11 7 -17 16 -15 20 3 4 0 8 -5 8 -18 0 -13 -28 7 -39
11 -7 12 -10 3 -11 -8 0 -11 -6 -6 -17 5 -15 3 -14 -13 2 -13 14 -16 22 -8 27
7 5 7 8 -2 8 -8 0 -10 5 -6 13 4 6 3 8 -1 4 -8 -7 -15 -27 -17 -54 -1 -6 -7
-9 -15 -6 -9 4 -11 0 -7 -13 3 -11 2 -15 -3 -8 -9 12 -49 12 -75 0 -16 -7 -16
-9 -2 -24 15 -14 14 -17 -10 -29 -16 -8 -24 -19 -20 -26 4 -7 4 -9 -1 -5 -4 4
-15 2 -23 -5 -10 -8 -13 -8 -9 -1 14 24 -27 25 -45 2 -9 -13 -22 -24 -27 -24
-6 -1 -13 -2 -16 -3 -3 0 2 -16 11 -33 l16 -33 -27 30 c-15 17 -24 25 -21 18
4 -6 2 -14 -4 -18 -5 -3 -10 0 -10 7 0 10 -2 10 -9 -1 -5 -8 -8 -24 -6 -37 1
-13 -1 -23 -4 -22 -19 2 -24 -4 -11 -12 11 -7 11 -10 2 -10 -7 0 -10 -5 -6
-11 4 -8 0 -8 -15 0 -25 14 -28 23 -3 15 14 -5 15 -4 2 5 -23 16 -32 13 -25
-9 3 -11 2 -20 -4 -20 -5 0 -12 8 -14 18 -4 13 -5 11 -6 -6 0 -12 -4 -21 -8
-21 -5 1 -15 1 -23 0 -12 -1 -11 -4 3 -12 10 -6 24 -7 30 -2 7 4 4 0 -8 -11
-11 -10 -19 -25 -17 -32 2 -8 -1 -14 -6 -14 -12 0 -11 33 2 43 7 6 5 7 -5 4
-9 -3 -22 0 -29 6 -10 9 -11 9 -4 -3 14 -25 13 -39 -4 -33 -10 4 -13 2 -8 -5
4 -7 3 -12 -3 -12 -5 0 -11 6 -14 13 -3 8 -10 6 -23 -7 -15 -16 -16 -17 -2 -7
15 12 18 11 18 -3 0 -10 4 -15 8 -12 5 3 9 -1 9 -9 0 -10 -4 -12 -12 -5 -11 9
-28 8 -58 -5 -17 -7 -17 -8 0 -21 22 -16 10 -18 -19 -3 -12 6 -18 7 -14 1 3
-5 -1 -13 -9 -16 -8 -3 -14 -9 -13 -13 2 -4 -1 -8 -7 -8 -5 0 -9 4 -7 8 1 5
-2 6 -8 2 -8 -5 -7 -11 1 -21 6 -8 9 -15 5 -15 -3 -1 -10 -2 -15 -3 -5 0 -21
-14 -36 -30 -19 -21 -25 -36 -22 -54 l5 -26 -18 24 c-10 14 -16 28 -14 32 2 3
0 9 -5 12 -11 7 -9 -8 6 -44 15 -37 5 -54 -16 -28 -17 20 -18 20 -18 2 0 -10
5 -22 11 -26 6 -4 8 -10 4 -13 -3 -3 -14 2 -23 12 -17 17 -18 16 -13 -14 3
-23 1 -30 -9 -26 -7 3 -11 8 -9 12 2 3 -1 15 -5 26 -9 18 -9 18 -5 -3 3 -15
-2 -26 -15 -33 -11 -5 -16 -15 -13 -21 5 -7 11 -5 20 6 6 9 15 13 18 8 3 -6
-1 -13 -10 -16 -8 -3 -13 -10 -9 -15 3 -5 0 -13 -6 -17 -7 -4 -9 -3 -6 2 3 6
-3 16 -15 23 -11 7 -18 9 -16 4 6 -9 -28 -43 -36 -37 -3 2 -4 1 -1 -3 3 -3 -1
-13 -8 -22 -11 -14 -10 -14 6 -2 21 17 22 1 1 -25 -8 -10 -13 -13 -9 -6 3 6 1
12 -4 12 -10 0 -16 -29 -12 -53 1 -5 -3 -6 -8 -3 -5 4 -11 3 -14 -1 -4 -8 -2
0 5 27 3 8 3 12 1 8 -2 -4 -10 -6 -16 -4 -7 1 -9 1 -4 -1 14 -8 7 -25 -8 -19
-12 4 -12 1 2 -22 l17 -27 -24 20 c-13 11 -20 15 -17 8 4 -7 -1 -14 -12 -18
-11 -3 -25 -12 -31 -21 -10 -12 -8 -18 10 -34 12 -11 27 -17 33 -13 6 3 7 1 3
-5 -5 -9 -15 -8 -38 4 -16 9 -27 11 -24 5 4 -5 -3 -15 -15 -21 -11 -7 -18 -14
-15 -17 3 -3 0 -15 -6 -27 -12 -21 -17 -37 -20 -68 -1 -10 -6 -18 -10 -18 -4
0 -8 -6 -8 -14 0 -7 -16 -67 -35 -132 -19 -66 -40 -135 -45 -154 -5 -19 -21
-71 -35 -115 -13 -44 -27 -95 -30 -114 -3 -19 -8 -38 -11 -43 -3 -5 -17 -48
-30 -96 -14 -48 -41 -141 -60 -207 -19 -66 -36 -127 -38 -135 -2 -8 -12 -41
-21 -74 -9 -32 -18 -64 -19 -70 -1 -6 -5 -17 -9 -23 -5 -7 -6 -13 -2 -13 3 0
1 -8 -4 -18 -6 -11 -12 -30 -15 -43 -3 -13 -12 -49 -21 -79 -21 -70 -47 -162
-49 -175 -2 -5 -12 -41 -24 -80 -22 -73 -28 -104 -37 -176 -3 -24 -7 -55 -10
-69 -2 -14 -7 -50 -10 -80 -7 -59 -12 -99 -20 -140 -3 -14 -7 -41 -10 -60 -29
-176 -59 -298 -91 -359 -8 -14 -14 -33 -14 -41 0 -9 -4 -20 -8 -25 -5 -6 -19
-39 -32 -75 -37 -108 -88 -194 -156 -267 -35 -37 -64 -75 -65 -83 0 -8 -2 -22
-4 -30 -2 -8 -7 -28 -10 -45 -3 -16 -13 -61 -21 -100 -9 -38 -18 -81 -20 -95
-3 -14 -9 -40 -14 -59 -5 -19 -7 -38 -4 -43 3 -4 -1 -8 -8 -8 -9 0 -9 -3 2
-10 10 -6 11 -10 3 -10 -7 0 -13 -8 -13 -17 0 -15 2 -16 10 -3 5 8 10 10 10 4
0 -6 -7 -17 -15 -24 -9 -7 -14 -19 -11 -25 2 -7 0 -17 -6 -23 -6 -6 -6 -12 1
-16 18 -11 13 -26 -7 -19 -18 7 -17 5 12 -17 11 -8 17 -10 14 -5 -4 6 -3 17 1
24 6 9 11 10 15 2 4 -6 2 -11 -3 -11 -15 0 -9 -22 9 -37 13 -11 12 -12 -5 -7
-11 4 -29 14 -40 23 -19 15 -19 15 -3 -4 9 -11 17 -24 18 -30 1 -5 8 -9 16 -7
8 2 14 -3 14 -9 0 -7 3 -10 6 -7 3 4 19 2 35 -2 16 -5 52 -12 81 -15 28 -4 60
-9 72 -11 24 -5 69 -13 106 -19 63 -10 329 -54 360 -59 19 -3 46 -8 60 -10 64
-12 158 -28 185 -31 17 -1 30 -4 30 -5 0 -2 23 -6 75 -13 25 -4 54 -8 65 -10
11 -3 40 -8 64 -12 24 -4 145 -48 270 -97 124 -49 267 -105 316 -125 50 -19
108 -43 130 -53 22 -9 51 -21 65 -25 14 -4 45 -16 70 -27 24 -11 49 -21 55
-23 5 -1 19 -6 30 -10 11 -5 173 -69 360 -142 187 -74 486 -192 665 -263 771
-304 710 -282 744 -266 74 34 145 66 149 66 3 0 38 15 79 34 40 19 107 48 148
66 41 18 91 39 110 48 19 9 37 16 40 17 3 0 31 13 63 28 32 15 60 27 62 27 2
0 28 11 57 24 29 14 87 39 128 56 41 18 102 45 135 60 79 36 98 44 108 42 4
-1 7 3 7 8 0 6 6 10 13 10 12 0 110 42 295 126 29 13 55 24 57 24 2 0 28 11
57 24 162 73 192 86 204 86 8 0 14 5 14 10 0 6 6 10 14 10 7 0 44 14 82 31 38
17 87 39 109 48 22 10 56 25 75 34 19 9 58 26 85 38 28 12 52 23 55 24 45 13
91 25 115 29 17 2 74 12 128 21 95 16 117 19 185 29 18 3 45 7 60 11 15 3 41
7 57 10 17 2 41 6 55 9 67 13 281 46 324 50 26 3 65 8 85 10 20 3 63 8 96 11
33 3 78 8 100 11 22 2 56 6 75 8 182 19 192 20 205 28 6 4 8 114 5 314 l-5
308 -207 104 c-114 58 -206 108 -203 111 2 4 7 43 10 87 3 43 8 90 11 104 2
14 6 52 9 85 3 33 7 78 10 100 2 22 7 72 10 111 6 64 11 101 15 114 1 3 1 19
0 36 -1 23 39 112 140 315 l142 284 0 225 c0 124 -1 234 -1 245 -1 17 -40 71
-124 175 -7 8 -23 31 -37 50 -13 19 -29 40 -35 46 -11 12 -37 44 -93 119 -20
27 -49 63 -64 80 -16 16 -28 33 -28 37 0 4 -6 13 -13 20 -15 15 -135 173 -192
252 -22 31 -48 66 -58 79 -10 12 -26 34 -35 50 -9 15 -20 27 -24 27 -4 0 -8 6
-8 14 0 8 -3 16 -8 18 -4 2 -50 62 -102 133 -52 72 -98 132 -102 133 -4 2 -8
8 -8 13 0 7 -35 57 -83 119 -7 8 -41 56 -77 105 -35 50 -68 95 -72 100 -18 22
-227 309 -303 414 -44 62 -85 117 -90 124 -6 7 -63 84 -127 172 l-117 161
-198 63 c-109 34 -205 65 -213 69 -8 3 -19 7 -25 7 -5 1 -17 5 -25 8 -21 8
-507 164 -603 193 -42 12 -82 26 -87 29 -6 3 -18 8 -27 10 -10 2 -76 22 -146
44 -70 23 -136 41 -145 41 -10 0 -23 5 -30 12 -8 8 -15 8 -28 -3 -10 -8 -15
-9 -11 -3 3 6 -5 16 -19 23 -35 15 -41 14 -18 -5 10 -8 13 -13 7 -9 -7 3 -13
1 -13 -4 0 -6 -5 -11 -11 -11 -5 0 -7 5 -4 10 3 6 3 10 -2 11 -4 0 -17 2 -27
4 -11 2 -24 -2 -30 -9 -15 -18 -44 -27 -51 -15 -4 5 -3 9 2 8 19 -3 31 2 36
14 3 8 -1 14 -8 14 -8 0 -13 -5 -12 -11z m72 -34 c-6 -7 -34 11 -29 19 3 5 11
3 19 -4 7 -6 12 -13 10 -15z m-92 -6 c3 -8 -2 -20 -11 -28 -15 -12 -16 -11 -3
5 9 11 10 17 2 17 -6 0 -11 5 -11 10 0 15 17 12 23 -4z m91 -22 c3 -8 2 -12
-4 -9 -6 3 -10 10 -10 16 0 14 7 11 14 -7z m-219 -14 c3 -5 1 -10 -4 -10 -6 0
-11 5 -11 10 0 6 2 10 4 10 3 0 8 -4 11 -10z m-124 -17 c13 -16 12 -17 -3 -4
-10 7 -18 15 -18 17 0 8 8 3 21 -13z m99 13 c0 -2 -8 -10 -17 -17 -16 -13 -17
-12 -4 4 13 16 21 21 21 13z m-210 -38 c0 -8 -15 -12 -39 -9 -7 2 -10 -2 -7
-7 3 -5 -2 -16 -12 -23 -15 -13 -16 -12 -3 4 7 9 10 17 6 17 -4 0 -2 6 4 14
13 15 51 18 51 4z m20 -18 c0 -5 -5 -10 -11 -10 -5 0 -7 5 -4 10 3 6 8 10 11
10 2 0 4 -4 4 -10z m-157 -35 c-3 -9 -8 -14 -10 -11 -3 3 -2 9 2 15 9 16 15
13 8 -4z m-223 -79 c0 -2 -7 -7 -16 -10 -8 -3 -12 -2 -9 4 6 10 25 14 25 6z
m-133 -48 c-13 -8 -39 10 -31 23 3 5 14 3 24 -3 13 -9 16 -14 7 -20z m-140
-33 c0 -8 -4 -12 -9 -9 -5 3 -6 10 -3 15 9 13 12 11 12 -6z m53 1 c0 -3 -4 -8
-10 -11 -5 -3 -10 -1 -10 4 0 6 5 11 10 11 6 0 10 -2 10 -4z m-410 -181 c7 -9
8 -15 2 -15 -5 0 -12 7 -16 15 -3 8 -4 15 -2 15 2 0 9 -7 16 -15z m-43 -30 c4
-4 3 -5 -4 -1 -6 3 -14 2 -18 -4 -4 -6 -11 -8 -16 -4 -5 3 -7 9 -4 14 6 10 31
7 42 -5z m-67 -37 c0 -5 -5 -8 -11 -8 -5 0 -7 5 -4 10 3 6 1 10 -5 10 -6 0 -8
5 -4 11 6 11 23 -6 24 -23z m-49 -51 c-10 -9 -11 -8 -5 6 3 10 9 15 12 12 3
-3 0 -11 -7 -18z m-85 -29 c5 -7 2 -8 -6 -3 -8 5 -18 1 -27 -10 -7 -11 -13
-14 -13 -7 0 6 -7 9 -15 6 -8 -4 -12 -10 -9 -15 3 -5 -3 -6 -12 -2 -10 4 -15
2 -11 -3 3 -6 2 -16 -3 -24 -7 -11 -9 -9 -7 9 3 39 86 78 103 49z m-216 -152
c0 -2 -8 -10 -17 -17 -16 -13 -17 -12 -4 4 13 16 21 21 21 13z m-84 -29 c2
-14 -1 -15 -17 -6 -11 5 -17 15 -13 20 9 14 27 6 30 -14z m29 3 c3 -5 1 -10
-4 -10 -6 0 -11 5 -11 10 0 6 2 10 4 10 3 0 8 -4 11 -10z m-142 -79 c4 -15 0
-19 -14 -16 -11 2 -19 0 -19 -5 0 -13 -29 -20 -36 -8 -4 6 -3 8 3 5 6 -4 16 0
23 8 7 8 17 12 23 8 6 -4 8 0 4 10 -3 10 -3 17 2 17 5 0 11 -9 14 -19z m-20
-46 c-3 -9 -8 -14 -10 -11 -3 3 -2 9 2 15 9 16 15 13 8 -4z m-66 -19 c-3 -7
-1 -19 4 -25 6 -7 5 -8 -2 -2 -6 5 -17 7 -24 5 -6 -3 -12 2 -12 10 0 8 6 12
14 9 7 -3 13 0 13 6 0 6 3 11 6 11 3 0 4 -6 1 -14z m-227 -212 c6 -6 3 -10
-10 -11 -11 -1 -20 3 -20 8 0 6 -5 7 -12 3 -6 -4 -8 -3 -5 4 8 12 33 10 47 -4z
m-59 -41 c8 -9 9 -14 3 -10 -7 4 -15 0 -18 -9 -3 -8 -10 -13 -14 -10 -5 3 -16
-4 -25 -15 -10 -11 -23 -17 -29 -13 -8 5 -9 2 -5 -10 4 -10 3 -15 -3 -11 -6 3
-13 -1 -16 -9 -3 -9 -10 -16 -15 -16 -5 0 0 13 12 30 12 16 25 27 29 25 4 -3
15 4 25 15 10 11 22 17 26 14 5 -3 9 0 9 5 0 6 -6 11 -12 11 -9 0 -8 4 2 10 8
5 16 10 16 10 1 0 8 -8 15 -17z m-86 -123 c3 -6 -1 -7 -9 -4 -18 7 -21 14 -7
14 6 0 13 -4 16 -10z m-201 -154 c-3 -9 -14 -16 -23 -15 -10 0 -11 2 -3 6 6 2
9 10 6 15 -4 7 -2 8 4 4 7 -4 12 -2 12 5 0 7 2 10 5 7 3 -3 3 -13 -1 -22z
m-20 -55 c3 -5 -1 -11 -9 -14 -9 -4 -12 -1 -8 9 6 16 10 17 17 5z m-104 -81
c0 -5 -7 -10 -16 -10 -8 0 -13 -4 -9 -9 8 -14 -15 -25 -27 -13 -7 7 -1 15 18
26 35 19 34 18 34 6z m35 -9 c-3 -6 -11 -11 -16 -11 -5 0 -4 6 3 14 14 16 24
13 13 -3z m-88 -87 c-9 -9 -28 6 -21 18 4 6 10 6 17 -1 6 -6 8 -13 4 -17z
m-28 -8 c8 -10 8 -16 -2 -24 -10 -9 -13 -6 -13 13 0 29 0 29 15 11z m35 -24
c3 -5 -1 -9 -9 -9 -8 0 -12 4 -9 9 3 4 7 8 9 8 2 0 6 -4 9 -8z m-1078 -3509
c-2 -10 4 -23 12 -29 12 -9 10 -10 -9 -8 -13 1 -25 3 -27 3 -2 1 0 7 5 14 4 6
8 15 9 20 3 14 4 17 8 17 2 0 3 -8 2 -17z"/>
<path d="M3837 7133 c-13 -12 -7 -23 11 -22 10 0 12 3 4 6 -6 2 -10 9 -6 14 6
10 0 12 -9 2z"/>
<path d="M3906 7122 c-3 -2 -2 -10 1 -18 3 -8 1 -14 -5 -14 -6 0 -12 6 -15 13
-3 9 -7 9 -19 0 -8 -7 -17 -12 -19 -10 -2 1 -3 0 -1 -2 1 -3 16 -6 32 -7 20
-2 33 4 44 20 12 19 12 23 0 23 -8 0 -16 -2 -18 -5z"/>
<path d="M3770 7080 c0 -5 -7 -10 -15 -10 -8 0 -15 -4 -15 -8 0 -10 30 -9 48
2 7 4 10 12 7 17 -8 12 -25 12 -25 -1z"/>
<path d="M3627 7047 c-3 -8 0 -14 7 -14 7 0 13 6 13 14 0 7 -4 13 -8 13 -4 0
-9 -6 -12 -13z"/>
<path d="M3360 6992 c0 -5 -7 -17 -16 -28 -14 -18 -15 -18 -9 6 5 22 4 23 -5
7 -10 -15 -14 -16 -28 -5 -13 11 -14 11 -7 -1 6 -11 4 -13 -9 -8 -11 4 -15 3
-11 -4 4 -5 12 -8 18 -6 7 2 20 0 29 -4 10 -6 19 -5 23 1 4 6 10 8 14 5 5 -2
9 7 9 20 0 14 -2 25 -4 25 -2 0 -4 -4 -4 -8z"/>
<path d="M3380 6983 c0 -15 18 -35 23 -27 3 5 -1 15 -9 22 -8 7 -14 9 -14 5z"/>
<path d="M3160 6916 c0 -8 4 -17 9 -20 5 -4 7 3 4 14 -6 23 -13 26 -13 6z"/>
<path d="M3115 6880 c3 -5 8 -10 11 -10 2 0 4 5 4 10 0 6 -5 10 -11 10 -5 0
-7 -4 -4 -10z"/>
<path d="M2995 6840 c3 -5 8 -10 11 -10 2 0 4 5 4 10 0 6 -5 10 -11 10 -5 0
-7 -4 -4 -10z"/>
<path d="M2895 6821 c-3 -5 -1 -13 5 -16 8 -5 7 -12 -1 -23 -9 -11 -6 -11 7 2
13 13 15 20 6 23 -6 3 -10 9 -6 14 3 5 3 9 0 9 -3 0 -7 -4 -11 -9z"/>
<path d="M2836 6778 c3 -5 10 -6 15 -3 13 9 11 12 -6 12 -8 0 -12 -4 -9 -9z"/>
<path d="M2823 6755 c0 -7 6 -11 14 -8 7 3 13 6 13 8 0 2 -6 5 -13 8 -8 3 -14
-1 -14 -8z"/>
<path d="M2727 6711 c-3 -13 -1 -18 9 -14 7 2 10 11 7 19 -7 19 -10 18 -16 -5z"/>
<path d="M2548 6633 c7 -3 16 -2 19 1 4 3 -2 6 -13 5 -11 0 -14 -3 -6 -6z"/>
<path d="M2380 6540 c8 -5 20 -10 25 -10 6 0 3 5 -5 10 -8 5 -19 10 -25 10 -5
0 -3 -5 5 -10z"/>
<path d="M2420 6541 c0 -6 5 -13 12 -17 6 -4 8 -3 4 4 -3 5 0 13 6 15 8 3 6 6
-4 6 -10 1 -18 -3 -18 -8z"/>
<path d="M2235 6449 c5 -16 4 -19 -5 -14 -8 5 -11 4 -6 -3 3 -6 2 -13 -4 -17
-5 -3 -10 -1 -10 4 0 6 -5 11 -11 11 -8 0 -9 -4 0 -13 6 -8 7 -18 3 -23 -4 -5
5 2 20 15 25 22 35 61 15 61 -5 0 -5 -10 -2 -21z"/>
<path d="M2120 6379 c0 -5 -4 -7 -10 -4 -6 3 -7 -1 -4 -9 9 -22 19 -20 21 4 1
11 0 20 -3 20 -2 0 -4 -5 -4 -11z"/>
<path d="M1999 6291 c19 -12 5 -31 -20 -26 -17 4 -19 2 -8 -11 10 -13 14 -12
33 3 12 10 23 19 26 21 6 4 -22 22 -35 22 -5 0 -4 -4 4 -9z"/>
<path d="M1880 6246 c0 -2 8 -10 18 -17 15 -13 16 -12 3 4 -13 16 -21 21 -21
13z"/>
<path d="M1809 6143 c-1 -5 -1 -12 0 -16 1 -5 -9 -6 -21 -2 -21 5 -21 5 -5 -5
10 -7 21 -9 25 -6 7 8 12 36 6 36 -2 0 -5 -3 -5 -7z"/>
<path d="M1715 6089 c-4 -6 -5 -12 -2 -15 2 -3 7 2 10 11 7 17 1 20 -8 4z"/>
<path d="M1650 6041 c0 -6 4 -13 10 -16 6 -3 7 1 4 9 -7 18 -14 21 -14 7z"/>
<path d="M1390 5786 c0 -2 7 -7 16 -10 8 -3 12 -2 9 4 -6 10 -25 14 -25 6z"/>
</g>
</svg>
