<svg xmlns="http://www.w3.org/2000/svg" width="100" height="100" fill="none"><circle cx="50" cy="50" r="50" fill="#FFF4CC"/><path d="M36.126 26.05a22.161 22.161 0 015.037-1.837c6.32-1.515 10.329.834 11.578 3.659 1.278 2.88-.093 5.033-1.576 5.792-.21.107-.421.187-.632.24-1.021.242-2.96.41-4.275-1.669-.13-.199-.319-.241-.507-.145-.233.119-.43.47-.391 1.01.225 2.706 2.685 4.84 6.564 3.904a8.23 8.23 0 001.806-.672c3.388-1.733 5.818-5.937 3.621-12.034a5.189 5.189 0 00-.017-.033l.129.032C71.708 25.39 75.38 43.763 75.38 43.763s3.517.351 3.837 6.137c.24 4.402-2.613 6.085-3.178 6.374l-.1.05c-.848 5.03-3.052 8.503-3.31 8.9-2.542 3.577-5.656 6.58-9.63 8.613-2.291 1.172-4.87 2.03-7.779 2.485-11.116 1.748-21.262-3.453-26.97-15.812-2.782.431-5.611-1.878-6.443-5.335-.764-3.185.432-6.254 2.7-7.415.067-.034.145-.074.217-.097-.372-5.396 1.461-16.528 11.402-21.613zm12.558 29.957l.166-.085c1.035-.543 1.816-1.445 2.28-2.45a.787.787 0 00-.377-1.037.771.771 0 00-.69.017c-.055.029-.093.063-.143.102l-.06.045c-.393.326-.79.586-1.2.795a5.449 5.449 0 01-2.497.607c-1.284.056-2.567-.35-3.748-1.267l-.05-.044a.79.79 0 00-.836-.076.78.78 0 00-.34 1.054c.498.974 1.312 1.857 2.368 2.364.816.42 1.74.618 2.658.61.856-.047 1.705-.244 2.469-.635zm17.512-.466l.166-.085c1.035-.543 1.816-1.446 2.285-2.44a.787.787 0 00-.376-1.036.771.771 0 00-.69.017c-.055.029-.094.062-.144.102l-.06.045c-.392.326-.79.585-1.2.795a5.448 5.448 0 01-2.496.606c-1.284.057-2.567-.349-3.749-1.266l-.05-.044a.791.791 0 00-.835-.076.78.78 0 00-.34 1.054c.498.974 1.312 1.856 2.368 2.364.815.42 1.74.618 2.658.61.85-.058 1.699-.255 2.463-.646zM54.013 60.5a.73.73 0 00.138-.084 1.78 1.78 0 01.293-.192c.2-.102.421-.16.633-.156.294-.025.635.094.937.33a.583.583 0 00.402.13.677.677 0 00.271-.069.61.61 0 00.314-.37.61.61 0 00-.038-.483 1.989 1.989 0 00-.909-.904 2.212 2.212 0 00-1.014-.235c-.328.014-.65.095-.927.236l-.066.035c-.376.192-.69.534-.887.942a.608.608 0 00-.017.484.608.608 0 00.32.353.62.62 0 00.55-.016zm4.233 6.801a4.943 4.943 0 001.518-1.181.536.536 0 00.107-.53.555.555 0 00-.704-.366l-.122.035c-.588.189-1.293.34-1.931.457-.65.095-1.311.168-1.967.168a15.643 15.643 0 01-1.975-.093 16.874 16.874 0 01-1.944-.388l-.117-.038a.586.586 0 00-.4.037.626.626 0 00-.122.09.555.555 0 00-.032.785c.63.683 1.356 1.094 2.154 1.37.797.276 1.638.39 2.472.383a7.377 7.377 0 002.465-.478c.205-.063.399-.149.598-.25zm-23.14-43.245a21.736 21.736 0 00-6.713 5.306c-1.6 1.894-2.92 4.091-3.905 6.536-1.327 3.276-2.053 7.098-2.028 10.506-1.11.861-1.977 2.059-2.515 3.493-.656 1.774-.76 3.81-.291 5.764.509 2.142 1.671 4.033 3.246 5.336 1.205.99 2.583 1.583 3.986 1.732 1.365 2.695 2.966 5.089 4.776 7.152 2.067 2.35 4.415 4.291 6.98 5.73a24.812 24.812 0 008.151 2.884c2.84.474 5.799.47 8.814.002 3.038-.478 5.882-1.388 8.45-2.702 4.051-2.072 7.466-5.118 10.436-9.304l.027-.028.022-.04c.422-.648 2.46-3.926 3.462-8.74 1.414-1.03 3.739-3.42 3.497-7.933-.113-2.079-.684-4.943-2.792-6.797a5.984 5.984 0 00-1.399-.933c-.484-1.792-1.56-5.207-3.567-8.72-3.876-6.787-9.34-10.669-15.85-11.249l-4.126-1.157 1.494 4.095.017.034c.822 2.289.925 4.4.284 6.097-.087.24-.19.475-.316.693.334-1.177.435-2.863-.462-4.89-1.663-3.743-6.673-6.711-14.147-4.913-1.98.496-3.837 1.18-5.53 2.047z" fill="#FFA800"/></svg>