<svg width="100" height="100" fill="none" xmlns="http://www.w3.org/2000/svg"><path d="M50 100c27.614 0 50-22.386 50-50S77.614 0 50 0 0 22.386 0 50s22.386 50 50 50z" fill="#fff"/><path d="M71.767 30.85c-5.25-.183-38.9 7.483-39.284 7.6-.383.117-4.25 2.7-3.3 6.533.95 3.834 1.65 7.45 1.65 7.45l-4.466-.166s1.983-.134 0 1.266c-1.984 1.384-3.967 2.484-2.434 9.117 1.534 6.633.65 7.85 2.434 8.233 1.783.384 3.683.934 3.683.934S31.783 81.1 32.483 83.1c.7 2 4.25 3.783 8.484 2.883 4.233-.9 39.25-6.633 41.033-7.716 1.8-1.084 4.85-2.7 4.133-7.367-.716-4.667-6.816-34.617-7.366-36.433-.534-1.817-1.784-3.434-7-3.617z" fill="#1380FF"/><path d="M42.333 86.417c-3.35 0-6.35-2.383-7-5.8l-1.8-9.484a.831.831 0 011.634-.3l1.8 9.484c.566 2.967 3.433 4.917 6.383 4.35l37.5-7.133c2.967-.567 4.9-3.434 4.35-6.384l-6.733-35.383c-.567-2.967-3.434-4.9-6.384-4.35l-37.5 7.133c-1.433.267-2.666 1.084-3.5 2.3a5.481 5.481 0 00-.85 4.1L32.4 56.3a.832.832 0 01-.667.967.832.832 0 01-.966-.667L28.6 45.25a7.089 7.089 0 011.117-5.35 7.17 7.17 0 014.566-3l37.5-7.133c3.867-.733 7.6 1.817 8.334 5.667l6.733 35.383c.733 3.867-1.817 7.6-5.667 8.333l-37.5 7.133c-.45.1-.9.134-1.35.134zM27.317 58.066a.85.85 0 01-.817-.683l-.967-4.983a.844.844 0 01.667-.983.857.857 0 01.983.666l.967 4.983c.083.45-.2.884-.667.984-.066.017-.116.017-.166.017z" fill="#231F20"/><path d="M38.033 87.233c-3.35 0-6.35-2.383-7-5.8l-1.8-9.5a.831.831 0 011.634-.3l1.8 9.5c.566 2.967 3.433 4.9 6.383 4.35l37.5-7.133a.832.832 0 01.967.667.832.832 0 01-.667.967l-37.5 7.133a7.034 7.034 0 01-1.317.116z" fill="#231F20"/><path d="M28.9 72.633c-2.267 0-4.3-1.617-4.733-3.916L22.317 58.5c-.5-2.6 1.383-5.317 4.033-5.834a.831.831 0 01.3 1.633c-1.733.334-3.033 2.184-2.7 3.884L25.8 68.4c.317 1.7 1.983 2.816 3.683 2.5l18.484-3.534c1.7-.333 2.833-1.983 2.516-3.683l-1.25-6.55a3.143 3.143 0 00-3.683-2.5L26.5 58.25a.831.831 0 01-.3-1.633L45.25 53c2.6-.483 5.133 1.217 5.633 3.833l1.25 6.55a4.814 4.814 0 01-3.833 5.633L29.817 72.55c-.317.05-.617.083-.917.083zm.7-28.383a151.685 151.685 0 00-3.817-1.533c-1.9-.75-5.266-1.3-4.75-3.884.534-2.7 1.934-5.466 2.867-8.05 1.133-3.2 2.283-6.416 3.417-9.616.5-1.384 1-2.784 1.5-4.167.4-1.1.85-3 2.183-2.783 1 .166 2.25 1.083 3.15 1.533 2.017.983 4.033 1.983 6.05 2.967 5.1 2.5 10.183 5 15.283 7.5 4.017 1.966 8.034 4 12.1 5.866.967.45 1.817-1 .834-1.433-9.767-4.467-19.334-9.4-28.967-14.133-1.933-.95-3.867-1.9-5.817-2.85-1.15-.55-2.75-1.667-4.033-1.184-2.05.784-2.833 5.284-3.483 7.117-1.284 3.583-2.55 7.167-3.834 10.75-.65 1.85-1.316 3.7-1.966 5.55-.45 1.267-1.367 2.917-1.217 4.283.2 1.784 1.783 2.334 3.233 2.934 2.134.883 4.3 1.683 6.417 2.6.983.4 1.833-1.034.85-1.467z" fill="#231F20"/><path d="M30.817 51.6c-4.85-.25-9.767-.033-14.584-.6-1.616-.183-1.666-1.217-1.6-2.517.05-.733.1-1.466.134-2.2.116-1.833.216-3.683.316-5.516.234-4.184.434-8.367.534-12.55.016-.95.05-1.884.05-2.834.016-.833-.184-1.933.1-2.716.466-1.267 1.916-1.017 2.966-1l7.434.15c1.066.016 1.066-1.65 0-1.667L18.5 20c-1.083-.017-2.133-.1-3.083.533-1.717 1.167-1.4 3.25-1.417 5.05-.067 4.767-.283 9.55-.55 14.3-.117 2.184-.233 4.367-.367 6.567-.1 1.583-.616 3.65.434 5 1.433 1.867 5.1 1.4 7.183 1.467 3.367.116 6.75.15 10.117.333 1.083.067 1.083-1.6 0-1.65zm19.916-36.383c-1.75 0-3.416-.45-4.766-1.284-1.667-1.033-2.667-2.55-2.817-4.25-.3-3.416 3.017-6.516 7.4-6.9 4.367-.4 8.183 2.084 8.5 5.5.15 1.7-.567 3.367-2.017 4.667-1.383 1.25-3.3 2.05-5.366 2.233-.317.034-.617.034-.934.034zm.75-10.8c-.25 0-.516.016-.766.033-3.467.3-6.1 2.6-5.884 5.1.1 1.167.834 2.217 2.034 2.983 1.283.8 2.933 1.15 4.65 1 1.716-.15 3.283-.8 4.4-1.8 1.05-.95 1.583-2.116 1.483-3.283-.217-2.333-2.8-4.033-5.917-4.033z" fill="#231F20"/><path d="M50.75 17.366c-1.75 0-3.417-.45-4.767-1.283-1.666-1.033-2.666-2.55-2.816-4.25-.017-.233-.1-1.833 0-2.383a.831.831 0 011.633.3c-.05.25-.017 1.483.017 1.916.1 1.167.833 2.217 2.033 2.984 1.283.8 2.933 1.15 4.65 1 3.467-.3 6.1-2.6 5.883-5.1-.016-.1 0-.45 0-.85.017-.467.034-1.017 0-1.217-.116-.45.15-.867.6-.983.45-.134.9.166 1.034.616.066.234.066.567.033 1.634 0 .3-.017.566 0 .683.3 3.417-3.017 6.5-7.4 6.9-.3.033-.6.033-.9.033zm16.75.784c-1.767 0-3.283-.65-4.3-1.85-1.117-1.3-1.483-3.067-1.067-4.983.4-1.834 1.5-3.584 3.084-4.934 1.583-1.35 3.483-2.166 5.35-2.266 1.95-.117 3.633.533 4.75 1.833 1.116 1.3 1.483 3.067 1.066 4.983-.4 1.834-1.5 3.584-3.083 4.934-1.583 1.35-3.483 2.166-5.35 2.266-.15.017-.3.017-.45.017zm3.517-12.367c-.117 0-.217 0-.334.017-1.5.083-3.066.767-4.383 1.883-1.3 1.1-2.217 2.534-2.533 4.017-.3 1.383-.067 2.65.7 3.533.766.9 1.966 1.334 3.383 1.25 1.5-.083 3.067-.766 4.383-1.883 1.317-1.117 2.217-2.55 2.55-4.017.3-1.383.067-2.65-.7-3.533-.716-.833-1.783-1.267-3.066-1.267z" fill="#231F20"/><path d="M68.75 19.9c-1.767 0-3.283-.65-4.3-1.85-.2-.233-1.15-1.45-1.383-1.95a.837.837 0 01.416-1.1.837.837 0 011.1.417c.1.233.85 1.233 1.134 1.55.766.9 1.966 1.333 3.383 1.25 1.5-.083 3.067-.75 4.383-1.883 1.317-1.117 2.217-2.55 2.55-4.034.3-1.383.067-2.65-.7-3.533a12.063 12.063 0 01-.483-.7c-.267-.383-.567-.85-.7-1a.802.802 0 01-.083-1.15c.283-.35.833-.383 1.2-.1.183.15.383.417.983 1.3.167.25.317.483.383.55 1.1 1.3 1.484 3.066 1.05 4.966-.4 1.834-1.5 3.584-3.083 4.934-1.583 1.35-3.5 2.166-5.367 2.267-.183.066-.333.066-.483.066zM88 33c-.833 0-1.683-.183-2.55-.55-1.717-.75-3.233-2.15-4.267-3.967-2.166-3.816-1.5-8.316 1.484-10 1.483-.85 3.3-.883 5.083-.1 1.717.75 3.233 2.15 4.267 3.967 2.166 3.817 1.5 8.317-1.484 10A5.302 5.302 0 0188 33zm-2.8-13.533c-.617 0-1.2.15-1.717.433-2.183 1.233-2.566 4.717-.85 7.733.85 1.5 2.084 2.667 3.467 3.267 1.3.567 2.583.55 3.6-.017 2.183-1.233 2.567-4.716.85-7.733-.85-1.5-2.083-2.667-3.467-3.267-.633-.266-1.283-.416-1.883-.416z" fill="#231F20"/><path d="M86.05 33.9c-.833 0-1.7-.183-2.55-.55-1.717-.75-3.233-2.15-4.267-3.967-2.166-3.816-1.5-8.316 1.484-10 .216-.116 1.616-.85 2.166-.983.45-.1.9.167 1 .617.1.45-.166.9-.616 1-.25.066-1.35.6-1.734.816-2.183 1.234-2.566 4.717-.85 7.734.85 1.5 2.084 2.666 3.467 3.266 1.3.567 2.583.55 3.6-.016.1-.05.4-.2.767-.35.433-.184.95-.4 1.116-.5.35-.3.85-.234 1.15.133.3.35.217.9-.133 1.2-.183.15-.5.3-1.467.717-.283.116-.516.216-.616.266a5.615 5.615 0 01-2.517.617zm-50.8 1.383c-1.983 0-3.6-1.883-3.6-4.2s1.617-4.2 3.6-4.2 3.6 1.883 3.6 4.2-1.617 4.2-3.6 4.2zm0-6.733c-1.067 0-1.933 1.133-1.933 2.533s.866 2.533 1.933 2.533c1.067 0 1.933-1.133 1.933-2.533s-.866-2.533-1.933-2.533zm4.167 9.067h-.067a.814.814 0 01-.75-.9c.5-5.6 4.783-9.817 9.967-9.817 3.866 0 7.416 2.45 9.066 6.25a.844.844 0 01-.433 1.1.845.845 0 01-1.1-.433c-1.383-3.184-4.333-5.25-7.533-5.25-4.317 0-7.884 3.566-8.317 8.3a.859.859 0 01-.833.75z" fill="#231F20"/><path d="M29.967 41.967c-.25 0-.5-.117-.65-.317l-2.367-3.017a4.185 4.185 0 01-.65-3.816l4-12.4a4.22 4.22 0 013.083-2.817l2.417-.533c.967-.217 1.883-.067 3.2.533l25.8 11.683c.417.184.6.684.417 1.1-.184.417-.684.6-1.1.417l-25.8-11.667c-1.1-.5-1.65-.516-2.15-.416l-2.417.533c-.867.2-1.583.833-1.867 1.7l-4 12.4a2.58 2.58 0 00.384 2.3l2.366 3.017a.84.84 0 01-.133 1.166 1.26 1.26 0 01-.533.134zm14.45 23.8a4.282 4.282 0 01-4.284-4.283 4.282 4.282 0 014.284-4.284 4.282 4.282 0 014.283 4.283 4.282 4.282 0 01-4.283 4.284zm0-6.9a2.61 2.61 0 00-2.617 2.617 2.61 2.61 0 002.617 2.616 2.61 2.61 0 002.616-2.616 2.621 2.621 0 00-2.616-2.617z" fill="#231F20"/><path d="M30.05 49.167H30l-6.8-.4c-.833-.05-1.6-.4-2.183-1L19.05 45.7c-.6-.633-.933-1.5-.9-2.383l.533-15.217a3.311 3.311 0 011.384-2.567l2.216-1.583c.55-.4 1.217-.6 1.9-.6h1.184c.466 0 .833.367.833.833a.825.825 0 01-.833.834h-1.2c-.334 0-.667.1-.934.3L21.017 26.9c-.4.283-.667.767-.684 1.267L19.8 43.383c-.017.434.15.85.45 1.167l1.967 2.067c.283.3.666.466 1.066.5l6.8.4a.826.826 0 01.784.883.82.82 0 01-.817.767z" fill="#231F20"/></svg>