<svg width="100" height="100" fill="none" xmlns="http://www.w3.org/2000/svg"><path d="M50 100c27.614 0 50-22.386 50-50S77.614 0 50 0 0 22.386 0 50s22.386 50 50 50z" fill="#fff"/><path d="M22.033 43.683A143.56 143.56 0 0118.3 42.25v.016c-.033.034-.067.034-.1 0a.6.6 0 00-.167-.116c-1.283-.534-2.233-.95-2.9-1.3-.066-.034-.1-.117-.116-.217-.167-.067-.317-.117-.484-.183-.4-.167-.783-.35-1.166-.55-.75-.384-1.467-.8-2.217-1.167a13.242 13.242 0 00-1.117-.483c-.3-.117-.616-.217-.916-.334-.334-.133-.684-.283-.984-.516v.166S5.35 35.933 2.75 34.383a74.507 74.507 0 00-1.4 6C.4 45.516.15 50.8.2 56.016c.017 1.967.1 3.95.217 5.917 1.433.383 5.166 1.35 6.666 1.65 1.884.383 4.1.783 4.1.783s0 .134.017.35c.133.05.283.117.417.167.25.083.516.133.783.167.6.066 1.2.066 1.817.066.616 0 1.216-.016 1.833.034.3.033.617.083.917.166l14.166 1.45s1.184-2.066 1.55-2.566c-.45.133-2.166-.35-3.15-1.184-1.116-.95-3.7-2.366-3.283-2.283.417.1 4.35.05 5.733-.3 1.367-.35 2.3-.633 2.3-.633s1.75-5.417 2.017-7.134c.267-1.716.5-4.3.5-4.3s-11.267-3.383-14.767-4.683z" fill="#1380FF"/><path d="M63.883 39.583C70 36.15 75.933 32.367 82 28.833c2.583-1.5 4.717-3.266 6.3-5.833 1.483-2.417 2.45-5.15 3.267-7.85.3-1.033-1.3-1.467-1.6-.45-.767 2.583-1.684 5.15-3.1 7.45-1.7 2.767-4.15 4.383-6.917 5.933-5.717 3.2-11.183 6.85-16.9 10.05-.95.534-.1 1.967.833 1.45z" fill="#231F20"/><path d="M61.667 40.434c-.3.533.083 1.283.733 1.266.217-.017.35-.067.533-.15.484-.233.934-.517 1.384-.8.65-.4 1.3-.8 1.933-1.217.367-.233.55-.75.3-1.133-.233-.367-.75-.55-1.133-.3-.867.55-1.734 1.1-2.634 1.617-.183.1-.366.217-.55.3a.59.59 0 01-.15.066c-.15.067.25-.083.117-.05h-.017c.15-.033.284-.05.434 0 .5.167.766.75.5 1.217.216-.383.1-.933-.3-1.133-.4-.183-.917-.084-1.15.317zm11.25 10.916c-1.517.616-3.067 1.183-4.567 1.866-.55.25-.917.784-1.333 1.217-.967.967-1.984 1.9-3.05 2.733-1.55 1.234-3.284 2.35-5.15 3.034-1 .366-.567 1.983.45 1.6 3.133-1.15 5.866-3.234 8.266-5.534.367-.35.734-.716 1.084-1.083.1-.1.483-.4.5-.55 0 .033-.534.217-.25.167.133-.034.283-.117.416-.167.484-.2.984-.4 1.467-.6.867-.35 1.75-.717 2.617-1.067.966-.416.55-2.033-.45-1.616z" fill="#231F20"/><path d="M63.233 40.6c-.016-1.15 1.4-1.4 2.267-1.033 1.033.45 1.767 1.45 2.333 2.383 1.267 2.067 2.284 4.35 3.2 6.6a51.45 51.45 0 011.267 3.5c.183.584.367 1.184.517 1.784.066.266.15.533.2.816.016.15-.034.417.016.534.067.133-.416-.2.1-.084.134.033.017-.117.017-.033 0 0-.2-.084-.167-.067-.05-.017-.116-.066-.166-.083.233.15-.084-.084-.2-.2-.434-.434-.75-.934-1.017-1.483-.467-.967-1.9-.117-1.433.833.566 1.166 1.633 2.716 3.133 2.666 2.117-.066 1.267-2.916.933-4.083-.783-2.7-1.833-5.316-3.033-7.85-1.033-2.2-2.117-4.783-4.15-6.25-1.017-.733-2.3-1.05-3.517-.6-1.15.433-1.95 1.417-1.933 2.667-.017 1.05 1.65 1.067 1.633-.017z" fill="#231F20"/><path d="M73.55 56.617c5.017-1.85 10.183-3.15 15.333-4.55 3.667-1 7.2-2.2 10.5-4.134.917-.55.084-1.983-.833-1.433-3.317 1.95-6.867 3.083-10.583 4.083-4.984 1.35-10 2.634-14.85 4.417-1.017.367-.584 1.983.433 1.617zM.95 34.066C11.583 41.55 24.117 45.75 36.567 49.05c1.033.266 1.483-1.334.45-1.6-12.334-3.267-24.7-7.417-35.234-14.817-.866-.633-1.7.817-.833 1.433z" fill="#231F20"/><path d="M35.967 48.25c-.25 3.9-1.217 7.55-2.5 11.217-.35 1.016 1.25 1.45 1.6.45.666-1.884 1.283-3.767 1.733-5.717.45-1.95.7-3.95.833-5.95.067-1.083-1.6-1.067-1.666 0z" fill="#231F20"/><path d="M26.25 61.45a19.72 19.72 0 008.233-.967c.434-.15.7-.566.584-1.033-.117-.417-.6-.733-1.034-.583-2.55.85-5.116 1.15-7.8.916-.45-.033-.833.417-.833.834.017.483.4.8.85.833z" fill="#231F20"/><path d="M25.533 61.3c1.967 1.766 4.484 2.933 7.05 3.483.434.1.9-.133 1.034-.583.116-.417-.134-.934-.584-1.034-2.283-.5-4.566-1.483-6.316-3.05-.334-.3-.85-.333-1.184 0-.316.317-.35.884 0 1.184z" fill="#231F20"/><path d="M33.05 63.383l-.017-.016.3.3s0-.017-.016-.017c.033.067.05.133.083.2v-.017.45-.016c-.033.066-.05.133-.083.2 0-.017.016-.017.016-.034-.05.05-.083.117-.133.167l.017-.017c-.05.05-.117.084-.167.134.017-.017.033-.017.033-.017-.066.033-.133.05-.2.083.017 0 .034-.016.05-.016-.066.016-.15.016-.216.033h.016c-.066-.017-.15-.017-.216-.033h.016c-.066-.034-.133-.05-.2-.084 0 0 .017 0 .017.017-.05-.05-.117-.083-.167-.133l.017.016c-.05-.05-.083-.116-.133-.166 0 .016.016.016.016.033-.033-.067-.05-.133-.083-.2 0 .017 0 .017.017.033-.017-.066-.017-.15-.034-.216v.066c.017-.066.017-.15.034-.216 0 .033-.017.066-.034.116.034-.066.05-.133.084-.2-.117.234-.267.45-.417.667-.1.133-.183.267-.283.4.05-.05.083-.117.133-.167-.167.217-.333.417-.483.617-.217.283-.4.583-.6.883-.234.367-.084.934.3 1.134.416.216.9.1 1.133-.3.2-.334.417-.65.65-.95-.05.05-.083.116-.133.166.3-.383.6-.766.866-1.183.134-.2.267-.4.35-.633.15-.417.017-.984-.4-1.2-.366-.2-.883-.167-1.183.166a.942.942 0 00-.267.634c0 .15.05.3.117.433.083.15.2.233.333.333.167.117.467.134.65.084.2-.05.4-.2.5-.384.1-.2.15-.433.084-.65-.067-.233-.184-.366-.367-.5zm29.767-23.25c-1.7-1.25-4.117-1.15-6.1-.95-2.5.25-4.95.817-7.45 1.117-2.234.267-5.3-.5-5.934 2.417-.15.683-.166 1.416-.216 2.116-.067.9-.184 1.834-.184 2.734 0 1.483 1.217 1.966 2.55 1.783 1.6-.217 2.85-1.333 3.834-2.533.366-.45.533-.567 1.133-.534.533.034 1.083.067 1.617.084 1.083.033 2.166 0 3.25-.067 1.066-.067 1.066-1.733 0-1.667-1.567.1-3.134.1-4.7 0-.517-.033-1-.083-1.484.117-.566.25-.883.767-1.266 1.217-.417.5-.9.966-1.467 1.3-.267.166-1.467.766-1.767.416-.2-.233.067-1.466.084-1.816.05-.767.066-1.534.15-2.3.066-.567.166-1.167.75-1.417.516-.217 1.15-.083 1.683-.083.867.016 1.75-.1 2.617-.217 2.066-.283 4.116-.717 6.183-.967 1.867-.216 4.267-.533 5.867.65.866.684 1.7-.766.85-1.4z" fill="#231F20"/><path d="M55.317 46.3c1.033-.05 1.833.117 2.7.683.966.634 2.033 1.267 2.716 2.217.75 1.033 1.267 2.367 1.634 3.6.183.633.316 1.317.2 1.983-.034.217-.067.317-.2.467-.05.067-.334.2-.25.233-1.034-.316-1.467 1.3-.45 1.6.683.2 1.383-.183 1.866-.65.584-.583.717-1.383.717-2.166 0-1.75-.817-3.6-1.633-5.134-.817-1.516-2.117-2.45-3.517-3.4-1.183-.8-2.367-1.166-3.8-1.1-1.05.05-1.05 1.717.017 1.667z" fill="#231F20"/><path d="M58 52.117c.567.783 1.133 1.583 1.7 2.366.5.684 1.15 1.4 1.45 2.184a1.739 1.739 0 01-.25 1.7c-.2.233-.483.466-.767.583-.3.117-.566.05-.866-.067-.417-.166-.917.184-1.034.584-.133.466.167.866.584 1.033 2.083.783 4.183-1.217 4.116-3.3-.05-1.167-.716-2.067-1.366-2.967-.7-.983-1.417-1.966-2.117-2.95-.267-.366-.733-.533-1.133-.3-.384.2-.584.767-.317 1.134z" fill="#231F20"/><path d="M55.817 56.7c.516.717 1.05 1.45 1.566 2.167.234.333.5.65.684 1 .15.267.2.416.05.65-.167.283-.434.55-.65.783-.234.25-.467.45-.75.634-.15.083.1-.017-.084.033l-.2.05c-.033.016-.183.033-.083.016-.083.017-.183.017-.267.017-.15 0-.3 0-.433-.017.167.017-.367-.133-.183-.033-.417-.183-.9-.117-1.134.3-.2.35-.116.95.3 1.134.784.35 1.784.4 2.584.083.916-.35 1.633-1.2 2.2-1.984.716-.966.416-2.05-.234-2.966-.65-.917-1.316-1.817-1.966-2.717-.267-.367-.717-.55-1.134-.3-.333.233-.533.784-.266 1.15zM40.3 63.8c0-.117.017-.217.017-.317 0-.133-.034.134 0 .017.016-.05.016-.117.033-.167.017-.083.05-.166.067-.25.016-.033.033-.083.05-.116-.067.2 0 0 .016-.034.034-.066.084-.133.134-.216-.084.083.1-.167 0 0 .033-.034.05-.067.083-.084.067-.066.133-.133.2-.183.05-.033.117-.067-.033.017l.15-.1c.066-.034.15-.084.216-.117-.183.1.067-.017.117-.033l.25-.05c-.2 0 .117-.034 0 0h.367c-.15-.034-.034 0 0 0 .083.016.183.05.266.083-.2-.067.067.067.117.083.083.034-.067-.1-.033-.016a.81.81 0 00.116.133c.084.05-.05-.117-.033-.033.017.033.05.083.067.116.066.117-.017-.033-.017-.033.017 0 .033.117.033.117l.034.116c.016 0-.017-.2 0-.016.016.15.016.316.016.466.017.55-.016 1.1.067 1.65 0 .034.067.317.05.184.017.066.017.15.017.216 0 .017-.017.2 0 .1V65.3c-.034.1-.034.1 0 .033 0 .017-.1.15.016.017l-.1.1c.1-.117-.033.017-.066.033-.017.017-.15.067 0 .017-.05.017-.1.033-.134.05a.486.486 0 01-.15.033s-.233.05-.116.034c.1-.017-.067 0-.084 0h-.15c-.066 0-.133 0-.2-.017.117 0 .017 0-.05-.017a8.804 8.804 0 01-.366-.1c-.134-.05.166.1-.05-.016-.05-.034-.117-.067-.167-.1-.05-.034-.117-.067-.167-.1.1.066 0 0-.05-.034-.05-.05-.1-.083-.133-.133-.017-.017-.133-.167-.083-.1.066.083-.084-.117-.067-.1-.033-.05-.067-.117-.1-.167-.017-.033-.083-.183-.033-.05-.017-.066-.05-.116-.067-.183-.017-.067-.033-.117-.05-.183 0-.017-.033-.217-.017-.117.017.117 0-.133 0-.117.017-.133.017-.2.017-.283.017-.433-.4-.85-.833-.833-.467.016-.8.366-.834.833-.083 1.45.834 2.75 2.167 3.25 1.25.467 3.233.1 3.517-1.433.066-.4.033-.817-.067-1.217-.05-.217 0 .167-.017-.067 0-.066-.016-.133-.016-.2v-.55c0-.65.016-1.333-.3-1.916-.6-1.15-2.1-1.417-3.234-1-1.333.5-2.05 1.75-2.066 3.133 0 .433.383.85.833.833.467-.016.85-.366.85-.833z" fill="#231F20"/><path d="M44.233 63.183c0-.016 0-.283.017-.283 0 0-.033.2 0 .017.017-.05.017-.1.033-.134.017-.066.134-.333.034-.116.05-.084.1-.167.133-.25.1-.167-.117.116.017-.017.033-.033.05-.067.083-.083 0 0 .15-.134.05-.067-.1.083.067-.05.067-.05.033-.017.083-.05.116-.067l.1-.05c-.116.034.117-.066.117-.05.083-.033.15-.05.233-.066-.016 0 .267-.05.134-.034-.117.017.1 0 .1 0h-.034c.067.017.134.034.184.05-.184-.066.066.05.133.084.05.033.1.066.133.1-.15-.1.017.016.034.033.083.067.15.133.216.217.017.033.05.05.067.083.117.133-.083-.15-.017-.017.034.05.1.217.05.05-.016-.066-.05-.4-.05-.2v.2c0 .434.034.867.1 1.3.034.217.084.45.134.667l.1.4c.016.05.016.2.066.25-.083-.1-.016-.267-.016-.083v.15c.016.1.05-.234.016-.1 0 .033-.016.05-.016.083-.017.05-.034.083-.034.133-.033.134.1-.15 0-.016-.016.016-.033.066-.05.083-.066.15.117-.117 0 0-.033.033-.05.067-.083.083 0 0-.167.134-.067.067s-.1.05-.1.05a.501.501 0 01-.133.067c-.217.1.133-.034-.117.05a1.642 1.642 0 01-.266.083 1.51 1.51 0 01-.767.033c-.2-.05-.017 0 .017.017-.034-.017-.067-.033-.084-.05.084.067.1.083.067.05-.067-.083-.167-.167-.233-.25.116.133.016.017-.017-.033a.949.949 0 01-.133-.217c-.067-.1-.117-.217-.167-.317-.1-.2.05.15-.017-.05a.812.812 0 00-.066-.183c-.017-.033-.017-.083-.034-.117-.05-.15 0 .2 0-.033 0-.433-.383-.85-.833-.833-.45.016-.833.366-.833.833 0 .633.3 1.283.65 1.783.2.3.433.567.733.767.333.233.783.317 1.183.333 1.384.034 2.95-.8 3.05-2.3.034-.466-.15-.9-.233-1.35a2.665 2.665 0 01-.067-.35c-.016-.066-.016-.116-.033-.183 0 .033.033.233 0 0-.033-.25-.033-.483-.033-.733 0-.3 0-.584-.15-.867a3.1 3.1 0 00-.5-.633c-.467-.467-1.117-.85-1.8-.834-.784.017-1.65.4-2.167 1-.467.55-.667 1.217-.683 1.917 0 .433.383.85.833.833.45-.05.817-.383.833-.85z" fill="#231F20"/><path d="M48.033 63.983c-.016-.483-.116-.983-.15-1.466a4.446 4.446 0 01-.016-.667c0-.017.033-.2 0-.1-.017.1.016-.067.016-.084 0-.016.05-.166.017-.083-.033.1.05-.1.067-.116.05-.084.266-.317.333-.367.1-.067.2-.133.317-.184-.1.034.05 0 .05-.016.016 0 .25-.033.133-.033.217-.017.233 0 .417.1.016 0 .133.083.05.016.05.034.083.084.133.117l.1.1c.017.017.133.15.067.066.633.834.9 2.05.933 3.117 0 .117 0 .234-.017.284-.033.15.05-.067-.016.033-.017.033-.05.066-.067.1-.05.067-.083.083-.167.183-.116.117-.05.05-.016.017-.084.05-.184.1-.267.15-.2.1-.383.166-.633.216-.217.05-.4.017-.65.05-.084.017.15.067.083.017-.017-.017-.083-.033-.117-.033-.116-.017.034.016.067.033-.033-.017-.1-.05-.133-.083-.067-.033-.05-.084.05.033l-.1-.1c-.017-.017-.1-.117-.034-.033.084.1-.033-.067-.05-.067-.25-.383-.366-.883-.45-1.467-.066-.45-.633-.683-1.033-.583-.483.133-.65.584-.583 1.033.166 1.134.633 2.517 1.85 2.85.633.167 1.4.034 1.983-.183.717-.266 1.367-.683 1.733-1.4.384-.75.184-1.767.034-2.567-.15-.75-.4-1.5-.784-2.166-.383-.65-.95-1.233-1.683-1.45-.767-.217-1.583 0-2.217.483-.683.534-1.066 1.234-1.116 2.1-.034.7.133 1.4.166 2.1.017.45.367.833.834.833.466.05.9-.333.866-.783z" fill="#231F20"/><path d="M51.55 61.433c-.017-.033-.05-.25-.033-.117a.808.808 0 010-.283v.033c.016-.033.016-.066.033-.116 0-.017.067-.167.017-.084-.034.084.033-.05.033-.066a.68.68 0 01.117-.184c-.084.084.066-.1 0 0 .016-.033.05-.05.066-.083l.15-.15c.034-.033.134-.083-.016 0 .033-.017.066-.05.116-.067a.777.777 0 01.167-.083c.017-.017.117-.05 0 0-.133.05.033-.017.067-.017.033-.016.083-.016.116-.033 0 0 .134-.017.05-.017h.25c.1.017 0 0-.016 0 .033.017.083.017.116.034.05.016.25.1.15.05.067.033.15.083.217.133-.083-.067.117.117.15.15 0 0 .083.117.05.05-.033-.05.033.067.033.067.05.083.084.15.134.233 0 0 .066.15.016.05.017.05.034.083.05.133l.1.3c.134.45.234.917.334 1.384l.15.7c0 .033.033.2.033.183a.802.802 0 010 .283c.017-.083-.017.05-.05.084.117-.167-.117.083-.033.016.066-.05-.1.05-.134.067-.016.017-.166.067-.066.033.083-.033-.067.017-.084.017-.183.067-.366.1-.566.133-.15.034-.267.05-.517.05-.1 0-.2 0-.3-.016.133.016-.017 0-.033-.017-.05-.017-.117-.033-.167-.05 0 0-.133-.05-.05-.017l-.133-.066s-.117-.084-.05-.034L51.9 64a.856.856 0 00-1.183 0c-.317.316-.317.85 0 1.183.883.883 2.183.9 3.316.617.5-.117 1.017-.35 1.35-.75.517-.6.5-1.334.367-2.067a26.346 26.346 0 00-.433-1.917c-.167-.6-.384-1.166-.784-1.633-.766-.95-2.15-1.183-3.233-.667-1.117.55-1.767 1.867-1.417 3.067a.86.86 0 001.034.583c.483-.066.75-.55.633-.983zm-7.783-20.066a13.236 13.236 0 00-3.934 2.966c-.55.617-1.066 1.3-1.483 2-.167.267-.317.6-.567.8-.266.217-.616.25-.95.267-.45.033-.833.35-.833.833 0 .417.383.867.833.834 1.017-.084 1.884-.35 2.517-1.2.483-.65.85-1.367 1.367-2 1.083-1.3 2.4-2.334 3.916-3.067.4-.2.517-.767.3-1.133-.266-.417-.766-.5-1.166-.3zM32.8 64.817c1.233-.034 2.45-.034 3.683-.05l2.35-.05c.45-.017.834-.384.834-.834 0-.45-.384-.85-.834-.833-1.233.033-2.45.033-3.683.05l-2.35.05c-.45.017-.833.383-.833.833 0 .45.383.834.833.834zM.65 62.8c5.683 1.617 11.467 2.666 17.333 3.35 4.3.5 8.634.7 12.934 1.283 1.05.15 1.5-1.467.45-1.6-4.134-.567-8.3-.783-12.45-1.233C12.9 63.933 6.933 62.867 1.1 61.2c-1.033-.3-1.483 1.316-.45 1.6zM57.783 32a260.9 260.9 0 004.184-8.367c.2-.4.116-.9-.3-1.133-.367-.217-.95-.117-1.134.3a300.85 300.85 0 01-4.183 8.367c-.5.95.933 1.783 1.433.833zm-9.966-1.333a32.757 32.757 0 01-2.75-7.2c-.267-1.034-1.867-.6-1.6.45a34.754 34.754 0 002.916 7.6c.5.933 1.934.1 1.434-.85zM45.45 73.933a97.456 97.456 0 01-4.4 4.684.84.84 0 000 1.183c.333.3.85.333 1.183 0a105.972 105.972 0 004.4-4.683c.284-.334.35-.867 0-1.184-.333-.283-.883-.35-1.183 0zM59.1 70.9c1 2.117 1.717 4.367 2.133 6.667.084.45.617.7 1.034.583.466-.133.666-.583.583-1.033a28.517 28.517 0 00-2.3-7.067c-.2-.4-.783-.516-1.133-.3-.434.25-.5.75-.317 1.15z" fill="#231F20"/></svg>