<svg width="100" height="100" fill="none" xmlns="http://www.w3.org/2000/svg"><path d="M50 100c27.614 0 50-22.386 50-50S77.614 0 50 0 0 22.386 0 50s22.386 50 50 50z" fill="#fff"/><path d="M48.031 24.85c.06-.54-.223-1.015-.635-1.062-.412-.046-.795.354-.855.893-.061.54.223 1.015.635 1.061.411.047.794-.353.855-.893zm7.869.002c.061-.54-.223-1.015-.635-1.061-.412-.047-.795.353-.855.893-.061.54.223 1.015.635 1.061.411.047.794-.353.855-.893z" fill="#231F20"/><path d="M57.95 22.133c.083 3.184.017 6.6-.7 9.717-.45 1.983-1.233 4.017-3.05 5.117-1.717 1.033-3.8 1.15-5.733.983-1.067-.1-1.067 1.567 0 1.667 2.116.183 4.35 0 6.266-1.034 2.05-1.083 3.217-3.1 3.867-5.266.533-1.817.717-3.7.867-5.567.133-1.867.216-3.75.166-5.617-.05-1.083-1.716-1.083-1.683 0z" fill="#231F20"/><path d="M48.5 31.8c.467 1.7 2.867 2.333 4.1 1.067.333-.334.367-.934 0-1.267-.35-.333-.917-.367-1.267 0a.45.45 0 01-.133.117c.067-.05.117-.1.183-.134a.876.876 0 01-.3.167c.067-.033.15-.067.217-.083-.117.05-.25.083-.383.1.083-.017.166-.017.233-.034a1.88 1.88 0 01-.433 0c.083.017.166.017.233.034a1.6 1.6 0 01-.483-.134c.066.034.15.067.216.084a1.744 1.744 0 01-.383-.217c.067.05.117.1.183.133a2.012 2.012 0 01-.266-.266c.05.066.1.116.133.183-.067-.1-.133-.183-.167-.3.034.067.067.15.084.217-.017-.05-.034-.117-.05-.167-.117-.45-.65-.767-1.1-.633-.45.183-.75.65-.617 1.133zm16.833 28.1c1.684 8.2 3.634 16.316 4.6 24.633.117 1.05 1.784 1.067 1.667 0-1-8.483-2.95-16.733-4.667-25.083-.2-1.05-1.816-.6-1.6.45zM52.517 38.833c.333 1.617.383 3.55 1.9 4.567.366.25.933.083 1.133-.3a.852.852 0 00-.3-1.134c-.017-.016-.15-.1-.033-.016.116.083 0 0-.034-.034-.066-.05-.116-.116-.166-.166l-.05-.05c-.034-.05-.017-.017.05.066 0-.033-.05-.066-.067-.1-.05-.066-.083-.133-.133-.216a1.52 1.52 0 00-.117-.234c-.05-.1.067.167.017.034-.017-.034-.034-.084-.05-.117-.067-.183-.117-.367-.167-.55-.183-.717-.25-1.45-.4-2.183-.083-.434-.617-.717-1.033-.584-.417.134-.634.55-.55 1.017zM15.483 53.05a65.235 65.235 0 01-3.283-1.467c-.867-.433-1.7-.9-2.55-1.366-.583-.317-.033.05-.167-.1.017.033.1.116 0 0-.1-.2-.233-.4-.333-.6-.583-1.134-1.983-4.984-3.833-3.167-.684.666-.917 1.8-.984 2.716-.116 1.634.434 3.267 1.15 4.717.634 1.283 1.4 2.667 2.45 3.667.534.5 1.084.733 1.734 1.017 2.85 1.2 5.45 3.1 8.433 3.966 1.033.3 1.467-1.3.45-1.6-2.4-.7-4.633-2.15-6.867-3.25-.5-.233-.983-.483-1.5-.683a14.488 14.488 0 01-.483-.2c-.05-.017-.15-.084.067.033a.717.717 0 00-.2-.133c-.6-.4-1.167-1.084-1.617-1.8-.883-1.4-1.733-2.967-1.95-4.633-.05-.467-.067-.95 0-1.4.05-.217.1-.434.167-.634.066-.233.05-.166.116-.3.067-.133.15-.267.15-.283.017.017-.266.017-.266.017-.117.033-.034-.05-.034-.017.017.117.467.633.6.85.434.783.734 1.65 1.2 2.4.284.45.6.717 1.067.983.9.517 1.817 1 2.75 1.45 1.083.517 2.183.984 3.283 1.45.417.184.917-.183 1.034-.583.133-.5-.184-.867-.584-1.05z" fill="#231F20"/><path d="M30.483 68.266c-2.6-4.4-5.633-8.566-8.533-12.783-.55-.8-1.05-1.6-1.733-2.3-.934-.967-2.034-1.783-3.117-2.583-1.333-.984-5.367-3.867-6.2-.817-.583 2.15 2.333 3.967 3.933 4.783.95.484 1.8-.95.834-1.433-.784-.4-1.534-.933-2.217-1.483-.233-.2-1.583-1.35-.667-1.567.484-.117 1.5.667 1.884.9 2.283 1.383 4.266 3.083 5.766 5.283 2.9 4.25 5.967 8.417 8.584 12.85.583.917 2.016.084 1.466-.85z" fill="#231F20"/><path d="M16.483 61.833c1.134 3.434 2.6 6.717 4.45 9.834 1.617 2.733 3.484 6.033 6.534 7.366 2.633 1.15 5.233.217 6.6-2.3 1.233-2.283 1.366-5.033 1.55-7.566.2-2.784.266-5.567.45-8.35.066-1.067-1.6-1.067-1.667 0-.133 2.033-.183 4.083-.3 6.116-.133 2.317-.183 4.734-.733 6.984-.534 2.2-1.967 4.55-4.567 3.816-2.933-.833-4.7-4.1-6.167-6.516a47.315 47.315 0 01-4.516-9.834c-.367-1.016-1.967-.583-1.634.45zM40.15 36.766c.55.884.583 2.017.1 2.917-.15.283-.25.4-.45.617-.233.233-.45.383-.717.566-.6.384-1.25.684-1.816 1.117-.367.267-.55.717-.3 1.133.2.35.783.567 1.133.3.633-.483 1.367-.816 2.033-1.266.684-.467 1.267-1.034 1.634-1.784.683-1.4.666-3.116-.167-4.45-.583-.9-2.017-.066-1.45.85zM59.3 12.283L58.9 6.2 45.55 7.533l-.167-1.666L59.6 4.45c.233-.017.45.05.617.2.166.15.283.35.3.583l.45 6.934-1.667.116z" fill="#231F20"/><path d="M61.033 42.983c5.017.567 5.7 1.134 7.417 8.784 1.167 5.233 1.167 7.266 1.167 7.266L61.35 60.6s-.433 4.85-.467 10.367c-.033 5.516.984 5.683 2.367 11.6 1.183 5.016.417 2 .417 2l-30.467.466 1.033-3.466c1.717-5.784 1.534-7.167 1.35-11.6-.183-4.367-.983-9.134-.983-9.134l-8.833-1.166s-.317-3.684 1.05-8.85c1.683-6.45 3.05-6.184 5.933-7.117 2.867-.933 5.567-2.467 5.567-2.467s.316 2.35 3.516 4.317c3.184 1.967 11.717.883 13.017-4.5-.017-.017 2.133 1.467 6.183 1.933z" fill="#1380FF"/><path d="M10.117 50.966H8.45V35.7c0-2.15 1.75-3.884 3.883-3.884H35.5v1.667H12.333c-1.216 0-2.216 1-2.216 2.217v15.266zm77.2 34.4H12.333a3.887 3.887 0 01-3.883-3.883v-23.45h1.667v23.45c0 1.217 1 2.217 2.216 2.217h74.984c1.216 0 2.216-1 2.216-2.217V35.7c0-1.217-1-2.217-2.216-2.217H58v-1.667h29.317c2.15 0 3.883 1.75 3.883 3.884v45.783a3.877 3.877 0 01-3.883 3.883z" fill="#231F20"/><path d="M58.05 95.75H41.617a.825.825 0 01-.834-.834V84.55c0-.467.367-.834.834-.834H58.05c.467 0 .833.367.833.834v10.366c0 .45-.366.834-.833.834zm-15.6-1.667h14.767v-8.7H42.45v8.7z" fill="#231F20"/><path d="M65.95 98.45H33.717a.825.825 0 01-.834-.833v-2.7c0-.467.367-.834.834-.834H65.95c.466 0 .833.367.833.834v2.7c0 .45-.367.833-.833.833zm-31.4-1.667h30.567V95.75H34.55v1.033z" fill="#231F20"/><path d="M58.783 14.933c-1.166-1.517-2.45-2.517-4.016-3.083l-.134.133c-.4.383-.816.733-1.266 1.067-.367.266-.734.533-1.1.766-.15.1-.3.184-.45.267-.417.25-.834.534-1.25.8-.817.517-1.684 1.034-2.65 1.184-.5.066-1 .083-1.5.066a12.465 12.465 0 01-1.567-.15c-.467-.067-.917-.2-1.383-.317-.384-.1-.784-.166-1.184-.25-.783-.166-1.633-.333-2.333-.75-.15-.083-.3-.2-.433-.316a1.761 1.761 0 01-.334-.434c-.016-.033-.05-.066-.066-.116-10.05 4.65-10.35 14.166-8.434 18.283C32.967 37 42.15 36.9 42.15 36.9l-1.05-7.083s-2.483 0-2.383-2.567c.116-2.567 1.983-2.65 1.983-2.65s.083-.517 1.65-3.434c1.567-2.916 5.117-4.95 5.117-4.95s1.6 3.734 6.15 4.134c2.6.233 3.983 1.133 4.683 1.85.383.4 1.05.216 1.233-.3.567-1.617 1.134-4.534-.75-6.967z" fill="#1380FF"/><path d="M47.567 17.083c-.084 0-.15 0-.234-.017l-8.433-1.55a1.255 1.255 0 01-1.05-1.05L37.2 11.2l1.633-.317.6 3.05 8.05 1.483 7.117-4.033-.583-2.983 1.633-.317.633 3.267c.1.55-.166 1.1-.633 1.366L48.2 16.95a1.66 1.66 0 01-.633.133z" fill="#231F20"/><path d="M46.9 13.267c-.083 0-.167 0-.25-.017L32.517 10.7c-.567-.1-1-.533-1.117-1.1a1.36 1.36 0 01.617-1.433L44.4.367c.317-.2.7-.267 1.05-.184l14.267 3.284c.566.133.983.583 1.066 1.15a1.406 1.406 0 01-.683 1.416L47.6 13.1a1.54 1.54 0 01-.7.167zM33.517 9.183l13.333 2.4 11.8-6.666L45.2 1.833l-11.683 7.35zm27.75 5.8H59a.84.84 0 01-.717-.417.828.828 0 010-.833l1.134-1.967c.3-.516 1.15-.516 1.45 0L62 13.733c.15.25.15.583 0 .833a.868.868 0 01-.733.417zM50.75 26.233c0 .817.217 1.634.617 2.334.1.183.3.333.5.383.2.05.466.033.65-.083.383-.25.533-.734.3-1.134-.084-.133-.15-.283-.217-.416.033.066.05.133.083.2a3.651 3.651 0 01-.266-.95c.016.066.016.15.033.216a5.946 5.946 0 01-.033-.55.85.85 0 00-.25-.583.881.881 0 00-.584-.25c-.45.017-.833.367-.833.833zm-2.05 5.75c.2.367.583.5.967.633l.8.25c.566.15 1.183.25 1.766.217.434-.017.85-.367.834-.833-.017-.434-.367-.85-.834-.834a4.29 4.29 0 01-.8-.033c.067.017.15.017.217.033a7.533 7.533 0 01-1.883-.516c.066.033.133.05.2.083-.05-.033-.05-.017.016.017.05.033.1.083.134.15-.217-.384-.767-.534-1.134-.3-.383.25-.516.733-.283 1.133zM66.467 29.5a.861.861 0 01-.634-.284.854.854 0 01-.083-1l3.417-5.383a7.14 7.14 0 01-1.867-4.8V11.05c0-3.967 3.233-7.2 7.2-7.2h16.817c3.966 0 7.2 3.233 7.2 7.2v6.966c0 3.967-3.234 7.2-7.2 7.2h-15.3l-9.217 4.2a.759.759 0 01-.333.084zM74.5 5.516a5.541 5.541 0 00-5.533 5.534v6.966c0 1.55.65 3 1.816 4.084.3.266.367.716.15 1.066l-2.266 3.584 6.833-3.117a.87.87 0 01.35-.067h15.467a5.541 5.541 0 005.533-5.533V11.05a5.541 5.541 0 00-5.533-5.534H74.5z" fill="#231F20"/><path d="M75.417 15.716c1.066 0 1.066-1.666 0-1.666-1.084 0-1.084 1.666 0 1.666zm7.116.001h.184a.676.676 0 00.316-.067.56.56 0 00.267-.167.653.653 0 00.167-.266c.05-.1.083-.2.066-.317-.016-.067-.016-.15-.033-.217a.827.827 0 00-.217-.366c-.05-.05-.116-.084-.166-.134a.753.753 0 00-.417-.116h-.183a.676.676 0 00-.317.066c-.1.034-.2.084-.267.167a.652.652 0 00-.166.267.52.52 0 00-.067.316c.017.067.017.15.033.217a.828.828 0 00.217.367c.05.05.117.083.167.133a.865.865 0 00.416.117zm7.3-.001c1.067 0 1.067-1.666 0-1.666-1.083 0-1.083 1.666 0 1.666z" fill="#231F20"/></svg>