<svg width="100" height="100" fill="none" xmlns="http://www.w3.org/2000/svg"><path d="M50 100c27.614 0 50-22.386 50-50S77.614 0 50 0 0 22.386 0 50s22.386 50 50 50z" fill="#fff"/><path d="M78.7 34.683c1.7 4.667 6.317 6.584 10.033 9.4 2.734 2.067 4.084 4.5 4.884 7.8.866 3.567 1.55 7.184 2.15 10.817.65 3.833 1.166 7.7 1.566 11.567.184 1.833.384 3.683.484 5.533.116 2.267-.634 3.633-2.6 4.667C92.25 86.05 88.433 85.833 85.2 85.6c-3.167-.233-6.267-.883-9.433-1.067-1.067-.066-1.067 1.6 0 1.667 6.333.383 13.616 2.75 19.7-.017 2.866-1.3 4.183-3.283 4.016-6.4-.216-4.033-.716-8.066-1.266-12.066-.584-4.2-1.3-8.367-2.167-12.517-.683-3.283-1.2-6.883-3.317-9.617C89.3 41.15 82.333 39.75 80.3 34.217c-.35-.967-1.967-.534-1.6.466z" fill="#231F20"/><path d="M49.1 11.567c1.833-7.5 16.133-12.983 24.017-10.3C82.683 4.517 83.317 9.45 85.2 16.2c1.883 6.75 10.783 16.667 9.333 26.25l-.05.35c-.883 5.384-5.466 9.367-10.9 9.617l-9.166.433c-2.45.117-4.367-1.95-4.25-4.4v-.083c.3-8.117.783-24.167.083-26.633-.95-3.317-4.167-2.967-9.283-5.634-5.117-2.667-6.884-4.8-6.884-4.8s-1.883 1.383-2.55 4.8c-.666 3.417 0 4.317 0 4.317s-4.333-1.05-2.433-8.85z" fill="#1380FF"/><path d="M48.467 45.35c.05.633.2 1.25.4 1.85.133-.2.266-.383.4-.583.366-.584.733-1.167 1.183-1.683.233-.267.467-.517.733-.75.3-.25.634-.45.967-.65.733-.467 1.517-.85 2.317-1.217 1.6-.733 3.266-1.317 4.9-2 .683-.284 1.35-.6 1.966-.983l.084-1.884s-3.534-.917-5.184-2.55c-2.733-2.7-2.733-4-2.733-4s-5.567 6.617-5.033 14.217c-.017.083 0 .166 0 .233z" fill="#1380FF"/><path d="M50.683 21.733c.334 4.534 1.117 9.1 4.134 12.667 2.966 3.517 8.25 5.283 12.583 3.35.95-.433 1.967-1.05 2.617-1.883.65-.834-.517-2.017-1.184-1.184-1.466 1.867-4.216 2.417-6.45 2.117-4.683-.65-7.816-4.4-9.066-8.75-.584-2.033-.817-4.2-.967-6.317-.083-1.066-1.75-1.066-1.667 0z" fill="#231F20"/><path d="M62.983 32.433c.7-.933 1.284-2.033 1.6-3.167.167-.6-.416-1.216-1.033-1.033l-2.9.9c-.133.05-.283.083-.417.133-.416.134-.716.584-.583 1.034.133.416.583.716 1.033.583l2.9-.9c.134-.05.284-.083.417-.133l-1.033-1.034c-.05.184-.117.367-.184.55-.016.05-.033.084-.05.134-.05.15.05-.117 0-.017-.033.1-.083.183-.133.283-.15.317-.317.617-.483.917a11.96 11.96 0 01-.584.9c-.116.167-.133.45-.083.65s.2.4.383.5c.434.233.867.083 1.15-.3zm-9.816 67.534c-.167 0-.334 0-.5-.017-1.667-.1-33.1-1.767-35.884-1.767-3.216 0-3.95-.6-4.366-3.55-.117-.833-.684-3.866-1.334-7.383C9.767 80.183 7.967 70.517 7.8 68.217c-.033-.584-.1-1.084-.15-1.5-.133-1.117-.233-1.933.333-2.534.617-.65 1.65-.633 3.3-.516 3.584.233 31.1 1.05 34.8.95 4.034-.133 4.9.216 5.7 4.466.617 3.284 3.834 22.934 4.65 28.017l13.634-7.95c.4-.233.9-.1 1.133.3.233.4.1.9-.3 1.133L56.217 99.15c-.5.283-1.384.817-3.05.817zm-43.25-34.7c-.417 0-.667.033-.767.083.017.067.083.65.133 1.167.05.45.117.967.15 1.583.15 2.217 1.95 11.834 3.25 18.85.684 3.683 1.234 6.6 1.35 7.45.3 2.084.3 2.117 2.717 2.117 2.933 0 34.3 1.666 35.983 1.767 1.05.066 1.7-.134 2.1-.317-.616-3.8-4.116-25.2-4.75-28.6-.6-3.217-.6-3.2-4-3.1-3.716.133-31.366-.717-34.95-.95-.483-.033-.9-.05-1.216-.05z" fill="#231F20"/><path d="M61.533 37.3c-2.366 3.083-5.866 3.383-9.166 4.883-3.25 1.484-4.3 4.65-5.5 7.784-1.95 5.066-3.85 10.15-5.75 15.25-.367 1 1.233 1.433 1.6.45 1.85-4.984 3.716-9.95 5.616-14.9.7-1.834 1.267-3.934 2.534-5.45 1-1.2 2.466-1.767 3.916-2.234 3.234-1.05 6.034-2.1 8.184-4.9.666-.9-.784-1.733-1.434-.883zM25.917 55.217c-.3 0-.6-.167-.734-.45L21.017 46.8c-3.75-.733-7.167-2.533-9.934-5.183a19.758 19.758 0 01-6.066-13.934 19.727 19.727 0 015.566-14.15 19.758 19.758 0 0113.934-6.066c5.3-.1 10.333 1.883 14.15 5.566 7.883 7.6 8.1 20.2.5 28.084C36.183 44.2 32.4 46.2 28.183 46.9l-1.433 7.633a.832.832 0 01-.7.667.414.414 0 01-.133.017zM24.883 9.15a18.2 18.2 0 00-13.1 5.55c-6.966 7.216-6.75 18.75.467 25.716a17.98 17.98 0 009.467 4.817c.25.05.466.2.6.434l3.233 6.183 1.1-5.867a.832.832 0 01.7-.666c4.083-.567 7.767-2.417 10.617-5.384 6.966-7.216 6.75-18.75-.467-25.716-3.517-3.384-8.067-5.067-12.617-5.067z" fill="#231F20"/><path d="M24.045 26.658c.055-.485-.205-.912-.58-.954-.375-.042-.723.316-.778.801-.055.485.205.912.58.954.375.043.723-.316.778-.8zm7.045-.006c.054-.485-.205-.912-.58-.954-.376-.043-.724.316-.779.8-.054.486.205.913.58.955.375.043.724-.316.779-.8z" fill="#231F20"/><path d="M32.817 24.217c.066 2.85.016 5.9-.617 8.683-.4 1.75-1.083 3.55-2.683 4.533-1.517.917-3.367 1.017-5.084.867-1.066-.1-1.066 1.567 0 1.667 1.917.166 3.934-.017 5.65-.934 1.85-.983 2.917-2.8 3.5-4.766.484-1.634.65-3.334.767-5.017.117-1.667.2-3.35.15-5.033-.05-1.084-1.717-1.084-1.683 0z" fill="#231F20"/><path d="M24.417 32.883c.416 1.55 2.6 2.117 3.716.967.3-.317.334-.867 0-1.183-.333-.3-.85-.334-1.183 0-.033.033-.083.066-.117.1.05-.05.117-.084.167-.134a.845.845 0 01-.267.15c.067-.033.134-.05.2-.083-.116.05-.233.083-.35.1.067-.017.15-.017.217-.033a1.472 1.472 0 01-.383 0c.066.016.15.016.216.033-.15-.017-.3-.067-.433-.117.067.034.133.05.2.084a1.36 1.36 0 01-.333-.2c.05.05.116.083.166.133a1.541 1.541 0 01-.233-.233c.05.05.083.116.133.166a.844.844 0 01-.15-.266c.034.066.05.133.084.2l-.05-.15c-.117-.417-.6-.717-1.034-.584-.416.167-.683.6-.566 1.05zm-6.984-7.133c-.233.016-.483.016-.7.083-.383.117-.733.35-1.016.633-.5.534-.75 1.184-.834 1.9-.066.6.034 1.25.25 1.817.134.333.267.633.517.883.2.2.45.384.717.5.683.317 1.466.434 2.166.084.384-.2.534-.784.3-1.134-.25-.4-.716-.5-1.133-.3-.133.067.2-.083-.017 0-.15.05.2 0 .034 0h-.2c-.167 0 .183.05.016 0-.05-.016-.366-.05-.366-.1.1.05.133.05.066.034-.033-.017-.05-.017-.066-.034-.067-.033-.134-.066-.184-.116-.016-.017-.033-.017-.05-.034-.066-.05-.05-.033.05.034 0 0-.116-.117-.133-.117-.15-.133.067.133 0 0-.017-.033-.05-.083-.067-.117.1.184-.016-.066-.033-.1a.816.816 0 00-.067-.183c-.05-.15-.066-.283-.1-.433-.033-.184 0 .15 0-.034 0-.083-.016-.166-.016-.25v-.183c0-.033.033-.267 0-.133-.017.133.016-.1.033-.134.017-.066.033-.116.05-.183a.31.31 0 00.033-.117.548.548 0 00-.016.034s.083-.15.083-.167a.838.838 0 01.133-.2c-.1.1-.033.05.034-.017l.116-.116c-.033.033-.033.016.034-.034.033-.033.083-.05.116-.066-.1.033-.116.05-.05.016.034-.016.05-.016.084-.033.233-.067-.1-.017.016-.017h.217c.433-.016.85-.366.833-.833-.033-.433-.383-.867-.85-.833zm5.317-6.467c.733.983 1.033 2.133 2.017 2.95.816.667 1.8 1.05 2.816 1.283 1.884.417 4.234.317 5.817 1.55.35.284.833.35 1.183 0 .284-.283.35-.9 0-1.183-1.716-1.333-3.8-1.467-5.866-1.85-.934-.167-1.9-.383-2.684-.917-.933-.666-1.183-1.783-1.85-2.666-.266-.367-.716-.55-1.133-.3-.367.2-.567.766-.3 1.133z" fill="#231F20"/><path d="M34.8 24.683c1.533-3.633-.05-7.867-3.567-9.6-3.5-1.733-8.083-1.567-11.716-.35-1.834.6-3.684 1.583-4.95 3.1-1.167 1.417-1.967 3.117-2.584 4.833-.966 2.717-1.416 5.75-.966 8.617.583 3.7 3.766 5.317 7.183 5.883 1.05.167 1.5-1.433.45-1.6-2.483-.4-5.183-1.283-5.883-3.983-.517-2-.284-4.417.2-6.383.75-3.05 2.083-6.284 4.916-7.917 2.967-1.717 7-2.183 10.334-1.45 1.816.4 3.666 1.25 4.666 2.9.984 1.633 1.017 3.817.284 5.55-.4.95 1.216 1.367 1.633.4z" fill="#231F20"/><path d="M17.033 31.333c.35 1.733.584 3.25.584 5.033 0 .434.383.85.833.834.45-.017.833-.367.833-.834 0-1.833-.266-3.666-.633-5.466-.083-.434-.617-.717-1.033-.584-.467.134-.684.55-.584 1.017zm1.284-4.883c.066-.683.45-1.333.816-1.9.4-.617.867-1.2 1.35-1.767 1.084-1.233 2.317-2.316 3.567-3.35.35-.283.3-.883 0-1.183-.35-.35-.833-.283-1.183 0-1.367 1.117-2.7 2.284-3.834 3.65-1.1 1.317-2.233 2.783-2.4 4.533-.05.45.417.834.834.834.5.017.8-.367.85-.817zm37.35-3.217v-.65a.676.676 0 00-.067-.316.56.56 0 00-.167-.267.652.652 0 00-.266-.167.522.522 0 00-.317-.066c-.067.016-.15.016-.217.033a.826.826 0 00-.366.216c-.05.05-.084.117-.134.167a.752.752 0 00-.116.417v.65c0 .116.016.216.066.317.034.1.084.2.167.266a.654.654 0 00.267.167c.1.05.2.083.316.067.067-.017.15-.017.217-.034a.827.827 0 00.367-.216c.05-.05.083-.117.133-.167a.753.753 0 00.117-.417zm6.616-.983v-.483a.676.676 0 00-.066-.317.561.561 0 00-.167-.267.652.652 0 00-.267-.166.52.52 0 00-.316-.067c-.067.017-.15.017-.217.033a.828.828 0 00-.367.217c-.05.05-.083.117-.133.167a.752.752 0 00-.117.416v.484c0 .116.017.216.067.316.033.1.083.2.167.267a.653.653 0 00.266.167c.1.05.2.083.317.066.067-.016.15-.016.217-.033a.827.827 0 00.366-.217c.05-.05.084-.116.134-.166a.682.682 0 00.116-.417zm-8.65-2.467l.017-.016c-.05.05-.083.116-.133.166.083-.1.183-.2.283-.283-.05.033-.1.083-.167.133.134-.1.267-.183.4-.25-.066.034-.133.05-.2.084.15-.067.3-.1.45-.117-.066.017-.15.017-.216.033.15-.016.3-.016.466 0-.066-.016-.15-.016-.216-.033.05 0 .1.017.15.033.216.05.45.034.65-.083a.89.89 0 00.383-.5.886.886 0 00-.083-.65c-.117-.183-.284-.333-.5-.383-.467-.1-.984-.1-1.434.066a3.207 3.207 0 00-.633.317c-.117.083-.25.183-.35.283-.117.1-.2.234-.3.35-.117.167-.133.467-.083.65.05.2.2.4.383.5.2.1.433.15.65.084.067-.034.133-.05.2-.084.1-.083.2-.183.283-.3zm6.9-.95c.15-.033.317-.066.467-.1.1-.017.083-.017-.017 0 .034 0 .067 0 .1-.017.084-.016.167-.016.234-.016.3-.017.616-.017.916 0 .084 0 .167 0 .234.017-.2-.05.016 0 .05.016.15.034.316.05.466.1.15.034.317.084.467.134.067.016.133.05.2.066.033.017.317.117.117.05.216.1.4.15.65.084.2-.05.4-.2.5-.384.183-.35.133-.95-.3-1.133-1.45-.617-3-.784-4.534-.417-.416.1-.716.6-.583 1.034a.887.887 0 001.033.566zm-3.766 4.55c0 .217-.017.434-.05.65.016-.066.016-.15.033-.216-.067.483-.2.966-.383 1.433.033-.067.05-.133.083-.2a6.69 6.69 0 01-.233.5c-.2.383-.117.917.3 1.133.383.2.916.117 1.133-.3.5-.933.767-1.95.783-3 .017-.433-.383-.85-.833-.833a.847.847 0 00-.833.833zm15.3 51.267c-1.45.417-2.867.25-4.184-.467-1.133-.616-2.15-.983-3.466-.8-1.284.167-2.534.65-3.734 1.1-1.183.434-2.366.934-3.466 1.567-1.367.8-4.217 2.6-3.284 4.567.85 1.75 3.334 1.033 4.684.466.966-.416.55-2.016-.45-1.6-.667.284-1.684.767-2.45.567-.434-.117-.367-.266-.05-.666 1.183-1.517 3.283-2.45 5.033-3.117 1.883-.717 4.15-1.817 6.067-.767 1.8 1 3.7 1.35 5.716.784 1.067-.334.617-1.934-.416-1.634z" fill="#231F20"/><path d="M61.333 77.367a19.412 19.412 0 00-4.516 3.183c-.567.55-1.134 1.15-1.267 1.95-.15.9.25 1.667 1.017 2.15.966.6 2 .033 2.866-.483.95-.567 1.834-1.217 2.717-1.867.467-.35.933-.717 1.4-1.067.05-.033.083-.066.133-.1-.183.15-.033.034 0 0 .067-.05.134-.1.2-.166.084-.067.167-.134.267-.2.367-.25.533-.734.3-1.134-.217-.366-.767-.55-1.133-.3-.167.117-.334.25-.484.367a3.86 3.86 0 01-.316.233c-.034.017-.067.05-.084.067-.15.117.1-.083 0 0-.166.133-.333.267-.5.383-.783.6-1.583 1.2-2.416 1.75-.384.25-.75.5-1.15.717-.167.1-.334.183-.5.267l-.1.05c-.167.083.133-.05.033-.017-.067.033-.15.05-.217.083-.083.034-.283.034.017.017h-.067c-.016.017.067.033 0 0-.116-.067.084.05-.033-.017-.017-.016-.167-.116-.1-.066a.669.669 0 01-.217-.267c.05.1 0 .183.034 0 .033-.15.066-.267.133-.383.133-.217.317-.4.517-.6a17.602 17.602 0 014.366-3.1c.4-.2.517-.767.3-1.134-.3-.416-.8-.516-1.2-.316z" fill="#231F20"/><path d="M63.3 79.333c-.9.684-1.8 1.35-2.7 2.034-.7.533-1.5 1-1.983 1.766-.784 1.267-.4 3.1 1.366 3.134.9.016 1.617-.517 2.35-.967 1.234-.767 2.467-1.55 3.6-2.483l-1.183-1.184c-1.117 1.434-3.967 5.117-1.433 6.617 1.15.683 2.166-.233 2.9-1.033a23.957 23.957 0 002.6-3.45c-.434.05-.867.116-1.317.166 1.3 1.434 3.383 1.184 4.9.267 1.133-.683 2.483-1.7 3.267-2.8.616-.883-.817-1.717-1.434-.833-.416.583-1.383 1.3-2.033 1.783-.967.717-2.5 1.517-3.5.417-.367-.417-1.033-.267-1.317.166-.45.717-.916 1.417-1.45 2.067-.25.317-.516.633-.8.933-.183.2-.533.734-.816.817-.684.2.016-1.517.166-1.817.4-.766.917-1.45 1.434-2.133.65-.833-.334-1.883-1.184-1.183-1.333 1.116-2.866 1.983-4.35 2.883-.083.05-.2.083.084-.017-.117.05-.467.184-.584.084-.233-.217.317-.8.467-.95 1.117-1.067 2.55-1.917 3.783-2.85.85-.634.034-2.084-.833-1.434z" fill="#231F20"/><path d="M71.233 74.367c.634 1.166 1.367 2.45 1.8 3.6.867 2.366 1.8 4.866 1.9 7.416.05 1.067 1.717 1.067 1.667 0-.117-2.716-1.033-5.35-1.967-7.867-.516-1.383-1.25-2.7-1.966-4-.5-.933-1.95-.1-1.434.85z" fill="#231F20"/><path d="M71.95 74.766c4.667 0 9.35-.1 14-.466 1.067-.084 1.067-1.75 0-1.667-4.65.383-9.333.467-14 .467-1.067 0-1.067 1.666 0 1.666z" fill="#231F20"/><path d="M81.567 61.817c.75 3.8 1.266 7.633 1.566 11.5.084 1.067 1.75 1.067 1.667 0-.317-4-.867-8-1.633-11.933-.2-1.05-1.8-.617-1.6.433z" fill="#231F20"/></svg>