<svg width="580" height="520" fill="none" xmlns="http://www.w3.org/2000/svg"><mask id="a" style="mask-type:alpha" maskUnits="userSpaceOnUse" x="0" y="0" width="580" height="520"><path fill="#F5EDFA" d="M0 0h580v520H0z"/></mask><g filter="url(#filter0_f_5231_9115)" mask="url(#a)"><path fill-rule="evenodd" clip-rule="evenodd" d="M486.586-41.558c-8.257 10.055-25.935-15.793-37.454-9.743-12.258 6.438-2.542 40.506-16.139 37.89-84.023-16.158-194.125-159.735-239.173-86.991C149.698-29.155 414.3-45.324 401.472 37.491c-13.642 88.068-206.717 21.165-244.774 101.748-27.578 58.393 127.534 4.089 191.801 10.418 22.093 2.175 55.289-5.459 64.352 14.807 23.783 53.184-36.817 156.495 19.281 172.215 53.6 15.02 26.652-138.106 82.021-143.828 61.552-6.361 91.257 160.775 138.677 121.021 50.695-42.5-95.666-132.463-59.195-187.654 33.778-51.115 128.872 31.574 182.232 1.467 32.365-18.261 40.57-88.595 10.235-110.061C731.41-21.08 652.985 11.596 588.118-5.18c-13.686-3.54-24.099-20.448-23.917-34.583.806-62.578 89.304-182.774 26.737-184.223-70.637-1.635-59.512 127.822-104.352 182.427z" fill="url(#paint0_linear_5231_9115)"/></g><defs><linearGradient id="paint0_linear_5231_9115" x1="850.5" y1="1.5" x2="385" y2="357.5" gradientUnits="userSpaceOnUse"><stop stop-color="#FFC658"/><stop offset="1" stop-color="#FFF4CC"/></linearGradient><filter id="filter0_f_5231_9115" x="49.447" y="-328" width="859.553" height="769.715" filterUnits="userSpaceOnUse" color-interpolation-filters="sRGB"><feFlood flood-opacity="0" result="BackgroundImageFix"/><feBlend in="SourceGraphic" in2="BackgroundImageFix" result="shape"/><feGaussianBlur stdDeviation="52" result="effect1_foregroundBlur_5231_9115"/></filter></defs></svg>