<svg width="580" height="520" fill="none" xmlns="http://www.w3.org/2000/svg"><mask id="a" style="mask-type:alpha" maskUnits="userSpaceOnUse" x="0" y="0" width="580" height="520"><path fill="#F5EDFA" d="M0 0h580v520H0z"/></mask><g filter="url(#filter0_f_5231_9143)" mask="url(#a)"><path fill-rule="evenodd" clip-rule="evenodd" d="M298.036-377.002c-51.788 31.957-19.381 120.139-45.141 175.266-14.927 31.945-43.286 55.932-72.276 76.01-50.368 34.886-123.69 36.87-160.937 85.515C-14.31 4.183-30.832 71.463-10.127 123.393 11.477 177.576 70.118 217.4 127.2 229.453c63.128 13.329 137.817-77.532 188.259-37.312 57.08 45.514-33.738 241.909 33.925 214.471 90.656-36.762 22.54-219.512 105.671-271.078 51.237-31.782 67.874 113.219 126.563 127.025 34.463 8.107 35.958-63.817 66.579-81.59 49.779-28.891 182.362 2.491 163.183-51.762C782.183 46.615 570.202 87.354 584.553.933 603.12-110.883 897.981-79.621 864.01-187.752c-32.609-103.798-204.991 78.776-313.808 79.343-28.22.147-19.558-52.269-32.11-77.539-22.872-46.046-34.296-100.605-73.12-134.313-39.984-34.714-101.867-84.551-146.936-56.741z" fill="url(#paint0_linear_5231_9143)"/></g><defs><linearGradient id="paint0_linear_5231_9143" x1="885.003" y1="-184.435" x2="582.463" y2="240.291" gradientUnits="userSpaceOnUse"><stop stop-color="#7856FF"/><stop offset="1" stop-color="#FCFDFF"/></linearGradient><filter id="filter0_f_5231_9143" x="-123.244" y="-489.115" width="1093.98" height="1002.34" filterUnits="userSpaceOnUse" color-interpolation-filters="sRGB"><feFlood flood-opacity="0" result="BackgroundImageFix"/><feBlend in="SourceGraphic" in2="BackgroundImageFix" result="shape"/><feGaussianBlur stdDeviation="52" result="effect1_foregroundBlur_5231_9143"/></filter></defs></svg>