<svg width="38" height="60" fill="none" xmlns="http://www.w3.org/2000/svg"><path fill-rule="evenodd" clip-rule="evenodd" d="M29.979 29.518c.35-.104.699-.217 1.057-.302a24.04 24.04 0 015.75-.36c.265.007.524.078.755.209a.746.746 0 010 1.321 1.114 1.114 0 01-.547.151c-2.19.16-4.39.001-6.534-.472a2.05 2.05 0 01-.472-.245l-.009-.302zM8.369 15.112l2.426-3.116c.359-.443.727-.887 1.123-1.303.397-.415 1.01-.594 1.417-.236.405.36.377.784 0 1.341a12.973 12.973 0 01-3.352 3.267 1.247 1.247 0 01-1.605 0m.028 28.917c.2.087.39.195.567.32a404.095 404.095 0 013.502 3.145.758.758 0 01.274.358.945.945 0 010 .633.577.577 0 01-.51.132 3.304 3.304 0 01-1.265-.529 35.014 35.014 0 01-2.492-2.53 2.077 2.077 0 01-.35-.944c-.047-.189.152-.368.274-.585zm17.91-28.125c.165-.345.382-.663.642-.944.944-.736 1.992-1.435 3.03-2.086.199-.132.557 0 .85 0 .048.284.048.575 0 .86a2.36 2.36 0 01-.633.802 38.545 38.545 0 01-2.454 1.888 1.094 1.094 0 01-.84.141c-.246-.104-.387-.462-.595-.66zM3.299-1.316a5.865 5.865 0 01-.142.68L2.12 1.894c-.17.425-.435.764-.944.595A.755.755 0 01.712 1.45c.35-1.01.774-1.992 1.161-2.993l.066-.094c.227-.33.538-.67.944-.463.218.151.303.567.416.784zm22.686 43.655c.191.034.378.087.558.16.68.406 1.378.803 2.02 1.275.265.215.454.51.538.84.151.52-.312 1.039-.746.812a4.805 4.805 0 01-2.615-2.087.699.699 0 01-.113-.434 2.89 2.89 0 01.358-.566zm-9.988 8.242c.153.034.297.098.425.19.604.575 1.208 1.16 1.765 1.783a.586.586 0 01-.056.944.944.944 0 01-.945 0 12.73 12.73 0 01-1.756-1.944c-.33-.491-.047-.982.567-.973zM4.545 59.57c-.274.32-.463.717-.746.802a.944.944 0 01-.812-.416 9.27 9.27 0 01-.274-2.54c0-.556.718-.66 1.001-.132.33.742.608 1.505.831 2.285zm11.66-54.127a.774.774 0 01.085-.293 4.72 4.72 0 011.888-1.888c.5-.236.84 0 .83.529a3.776 3.776 0 01-2.03 2.332.633.633 0 01-.773-.68z" fill="#F1F8FF"/></svg>