<svg xmlns="http://www.w3.org/2000/svg" width="45" height="60" fill="none"><path fill-rule="evenodd" clip-rule="evenodd" d="M22.545 7.918l1.888 1.33c.793.558 1.596 1.086 2.36 1.662.354.273.672.59.945.944a.662.662 0 010 .623c-.151.17-.538.35-.67.265-1.766-1.02-3.777-1.785-4.608-3.9-.038-.15.057-.396.085-.924zm5.023 35.516c.17.085.5.151.585.34.085.189-.075.472-.189.69a1.095 1.095 0 01-.415.386 109.44 109.44 0 01-3.408 2.106c-.661.387-1.341.34-1.464 0-.198-.576.198-.945.595-1.247a9.281 9.281 0 013.644-2.096c.19-.047.368-.103.652-.179zM0 29.631a3.93 3.93 0 01.944-.604 9.892 9.892 0 014.107-.274c.266.03.525.106.765.227.179.103.396.32.396.5a.67.67 0 01-.377.49 6.614 6.614 0 01-1.341.303 51.74 51.74 0 01-2.408.217A2.011 2.011 0 010 29.631zM34.072-1.571c.33.236.765.397.945.718.764.995 1.38 2.095 1.831 3.266 0 .076.076.16.057.227a2.324 2.324 0 01-.378.859c-.094.085-.604-.095-.755-.283-.51-.661-.944-1.37-1.416-2.077-.246-.388-.444-.803-.652-1.209a1.076 1.076 0 01.368-1.501zM14.747 19.284a8.497 8.497 0 01-3.172-1.633c-.17-.17-.255-.727-.17-.784.283-.189.736-.406 1-.302.77.334 1.517.715 2.238 1.142a1.6 1.6 0 01.529.435c.16.226.396.576.32.746-.075.17-.48.264-.745.396zM34.62 56.472c-.255.642-.529 1.426-.887 2.172a.652.652 0 01-.944.35 1.002 1.002 0 01-.369-.841c.233-.884.523-1.75.869-2.596a.65.65 0 01.52-.34c.24.069.45.219.594.425.11.265.184.545.217.83zM9.8 43.103c-.576 0-.85-.415-.52-.944a4.06 4.06 0 012.691-1.557c.397-.085.642.245.538.66a1.104 1.104 0 01-.236.51A4.172 4.172 0 019.8 43.103zm9.252-36.139a3.304 3.304 0 01-2.474-2.02.473.473 0 01.623-.558 4.72 4.72 0 012.285 1.643.67.67 0 01.047.623c-.122.19-.406.265-.481.312zM17.985 50.62a.547.547 0 01.52.858 9.44 9.44 0 01-1.662 1.511.613.613 0 01-.595-.132.945.945 0 01-.151-.718 2.83 2.83 0 011.888-1.52z" fill="#F1F8FF"/></svg>