<svg width="386" height="241" fill="none" xmlns="http://www.w3.org/2000/svg"><g clip-path="url(#clip0_5201_5063)"><path d="M184 84.49c-.273-4.227-.46-8.464-.56-12.71-.05-2.12-.07-4.24-.08-6.36v-3.43c0-.42-.22-2.17.14-2.42.52-.36.65 1.91.67 2.14.05 1 .09 2.11.11 3.16 0 2.11 0 4.22-.13 6.32a112.84 112.84 0 01-1.49 13c-.27 1.59 2.17 2.28 2.44.67.68-4 1.21-8.1 1.49-12.18a65.21 65.21 0 000-12.18 3.663 3.663 0 00-2.26-3.34 2.552 2.552 0 00-3.24 1.69c-.53 1.56-.27 3.5-.28 5.13 0 2.12 0 4.24.05 6.36.087 4.726.283 9.453.59 14.18.11 1.61 2.64 1.63 2.53 0l.02-.03zm-22.58-9.63c.645-4.477.946-8.997.9-13.52 0-2.184-.14-4.365-.42-6.53-.29-2.14-.82-4.35-2.6-5.74-3.66-2.87-9.35-.63-13.05 1a31.51 31.51 0 00-11.85 9c-3.53 4.43-5.48 10.25-3.63 15.8.51 1.54 3 .88 2.44-.67-3-9 5-17.08 12.27-20.94a29.852 29.852 0 016-2.4c1.77-.5 3.92-1 5.66-.16 1.74.84 2.09 3.16 2.31 4.92.203 1.84.307 3.689.31 5.54a83.745 83.745 0 01-.81 13c-.23 1.59 2.21 2.28 2.44.67l.03.03z" fill="#7856FF"/><path d="M345.74 183.28H109.57v-1h235.17V7.36H105.43v-1h240.31v176.92z" fill="#313131"/><path d="M335.34 173.59H110.09v-1h224.25V17.06H110.08v-1h225.26v157.53zm-211.99 64.79h-16.62a3.537 3.537 0 01-2.48-1L95.89 229v8.06a.851.851 0 01-.85.84h-3.56a.852.852 0 01-.84-.84c-.21-2.39-.65-7.16-.78-7.87l-.63-3.43a15 15 0 01.29-6.56l.9-3.24h15L114 229.2c.336.418.806.708 1.33.82l6.67 1.44a3.938 3.938 0 013.09 3.87v1.31a1.737 1.737 0 01-1.074 1.607 1.732 1.732 0 01-.666.133zm-28.46-11.8L105 236.65a2.53 2.53 0 001.78.73h16.62a.74.74 0 00.74-.74v-1.31a2.999 2.999 0 00-2.31-2.9l-6.71-1.43a3.352 3.352 0 01-1.93-1.22L104.92 217H91.18l-.69 2.51a13.71 13.71 0 00-.27 6.11l.63 3.43c.16.88.69 7 .78 7.89h3.26v-10.36zm-30.66 13.89h-.12l-16.6-.1a3.483 3.483 0 01-2.44-1.2l-7.75-8.92-.56 8a.857.857 0 01-.91.78l-3.55-.24a.862.862 0 01-.78-.91c0-2.39-.14-7.18-.22-7.9l-.39-3.47a14.75 14.75 0 01.74-6.52l1.56-4 14.59 1.92 1.32 2.4 6.2 10.57c.304.444.753.769 1.27.92l6.63 1.64a3.999 3.999 0 012.84 4.08l-.06 1.34a1.737 1.737 0 01-1.77 1.61zm-27.74-12.7l9.34 10.75a2.478 2.478 0 001.72.85l16.6.1a.763.763 0 00.552-.169.757.757 0 00.268-.511l.09-1.32a3 3 0 00-2.1-3.05l-6.63-1.63a3.421 3.421 0 01-1.86-1.36l-6.22-10.6-1.09-2-13.3-1.75-1.27 3.28a13.68 13.68 0 00-.69 6.06l.39 3.47c.1.89.21 7 .23 7.93l3.25.23.72-10.28z" fill="#313131"/><path d="M73.69 154.72l12 11.69a3.217 3.217 0 011 3.28c-.58 2-.21 6.33-.21 14.23 0 6.93 2.18 33.3 2.18 33.3H108l1.61-31.34.76-14.29c.23-4.09-.32-8.186-1.62-12.07 0-.1-.07-.2-.1-.3-.31-.89-2.93-5.55-6.38-11.51" fill="#7856FF"/><path d="M46.68 161.35l.54 5.59c.06.769-.11 1.538-.49 2.21l-2.12 4.6c-2.3 4.14-3.51 8.47-4.8 13.28-1.29 4.81-9.41 30.19-9.41 30.19l22.44 3L71 175.87a52.504 52.504 0 003.18-13.6l.92-7.9" fill="#7856FF"/><path d="M97.2 4.23A36.87 36.87 0 0083.11 7a4.9 4.9 0 01-5.22-1 22.4 22.4 0 00-34 4.15l-.54.87a10.09 10.09 0 01-6.28 4.4c-3.92.68-6.3-3.41-6.3-3.41v.12a17.07 17.07 0 00-14-6.78A17.13 17.13 0 1031 32.47v-.06c.18-.25.34-.49.5-.75a6.71 6.71 0 015.58-2.29c3.81.06 6.24 4.48 6.24 4.48A22.42 22.42 0 0079.69 37a4.94 4.94 0 017.41-.16l6.12-6.49s-3.68-3.61-1.7-6.38c1.98-2.77 2.93-2.38 2.93-2.38l2.75.7c.247.348.514.682.8 1-.11-.22 2.51-.69 3.28-3.7 1.13-4.44 5.66-9 7.34-9.41 0-.03 1.01-5.95-11.42-5.95z" fill="#1280FF"/><path d="M108.37 10.58c.84.48.92 2.05 1 2.89a24.45 24.45 0 01.19 3.2 34.274 34.274 0 000 4.86 5.93 5.93 0 001.59 3.47c.78.81 2.4 1.72 2.49 2.95.06.92-.92 1.6-1.45 2.22a7.492 7.492 0 00-1 1.65 26.768 26.768 0 00-1.28 4.2c-.56 2-1.34 3.85-3.61 4.13a26.123 26.123 0 01-6.49-.23c-.63-.09-.9.88-.27 1a25.01 25.01 0 007.17.21 4.371 4.371 0 003.43-2.75 47.96 47.96 0 001.57-5.11 7.48 7.48 0 011.7-2.87 4.51 4.51 0 001.18-1.71c.37-1.27-.54-2.33-1.4-3.15-.49-.47-1-.89-1.49-1.4a5.659 5.659 0 01-1.13-3.3c-.15-2.14.16-4.28 0-6.43-.13-1.47-.18-3.78-1.63-4.61a.5.5 0 00-.51.86l-.06-.08z" fill="#313131"/><path d="M102 40.39a39.45 39.45 0 00-2.11 5.27c-.35 1-.68 2.07-.94 3.13a7.309 7.309 0 00-.32 2.32c.06.63 1.06.64 1 0A6.89 6.89 0 01100 49c.25-1 .57-2 .91-3a36.535 36.535 0 012-5c.29-.57-.57-1.07-.87-.5l-.04-.11zm5.42-9.12a4.069 4.069 0 002.07 1.7.51.51 0 00.62-.35.517.517 0 00-.35-.61h-.07l-.12-.06-.26-.14-.23-.14-.12-.09-.06-.05a3.482 3.482 0 01-.39-.38l-.09-.11c-.07-.08.07.1 0 0-.06-.08-.11-.16-.16-.24a.502.502 0 10-.87.5l.03-.03zm.28-8.78V23a.407.407 0 000 .19c.015.063.05.119.1.16a.421.421 0 00.16.11.429.429 0 00.19 0 .53.53 0 00.36-.15.476.476 0 00.14-.35v-.55a.34.34 0 000-.2.424.424 0 00-.26-.26.34.34 0 00-.2 0 .473.473 0 00-.35.14.528.528 0 00-.15.36l.01.04zm-2.02-3.14c.212-.149.436-.28.67-.39l.09-.05.19-.07.37-.11.38-.08c.07 0 .07 0 0 0h.28c.266-.02.534-.02.8 0a.5.5 0 00.5-.5.513.513 0 00-.5-.5 4.88 4.88 0 00-3.34.84.513.513 0 00-.18.69.502.502 0 00.68.18l.06-.01zM98.43 23c-1.27-2.67-5-2.31-6.67-.3a5.35 5.35 0 00-1.24 3.17 5.69 5.69 0 001.4 3.65 5.75 5.75 0 003.67 2.6c.64.09.63-.91 0-1-1.41-.19-2.5-1.59-3.24-2.7a4 4 0 011.45-6.05 2.8 2.8 0 013.77 1.13c.27.59 1.14.08.86-.5z" fill="#313131"/><path d="M94.88 24.13a.731.731 0 01.39.06l.12.06.09.06c.249.193.442.448.56.74.061.127.114.257.16.39.06.18.12.35.17.53.113.4.203.8.27 1.2a.49.49 0 00.61.35.5.5 0 00.35-.61 8 8 0 00-.77-2.52 2.34 2.34 0 00-2-1.3.51.51 0 00-.5.5.5.5 0 00.5.5l.05.04zm-1.27 2.93a2.67 2.67 0 001.93 1.77.498.498 0 00.62-.34.51.51 0 00-.35-.62 2.789 2.789 0 01-.38-.12l.12.05a2.312 2.312 0 01-.48-.28l.11.08a2.522 2.522 0 01-.4-.4l.08.11a2.312 2.312 0 01-.28-.48v.12l-.06-.16a.52.52 0 00-.61-.35.51.51 0 00-.35.62h.05zM121.68 116a5.902 5.902 0 013.81-.76c1.178.321 2.34.701 3.48 1.14 2.16.59 4.38.34 6.59.41 1.06 0 2.13.09 3.2.2.337-.022.676.015 1 .11.89.52 0 1.28-.62 1.58a14.53 14.53 0 01-3.33.83c-.55.12-1.73.15-2 .76a.489.489 0 00.23.56 41.675 41.675 0 015.69 4.57 27.584 27.584 0 013.85 4c.32.47.83 2.06-.34 1.69-.26-.09-.67-.64-.88-.83-.67-.55-1.38-1-2.09-1.54a49.951 49.951 0 01-4.79-3.34.502.502 0 00-.71.7c1.24 1.35 2.65 2.51 4 3.75a24.075 24.075 0 011.88 1.9c.46.462.803 1.028 1 1.65.23 1.21-.54 1.37-1.27 1a20.114 20.114 0 01-3.49-2.7c-1.35-1.12-2.7-2.24-4-3.4a.506.506 0 00-.599-.063.511.511 0 00-.241.553 3.999 3.999 0 001 1.54c.73.9 1.43 1.82 2.17 2.72.49.6 2.07 1.82 2.06 2.6-.09.363-.315.678-.63.88a1.086 1.086 0 01-.83-.21 8.603 8.603 0 01-1.14-1c-1.31-1.18-2.56-2.44-3.95-3.52-.54-.43-1.68-1.46-2.42-.84-.89.75.55 2.3 1 2.89a8.556 8.556 0 011.41 2.37c.54 2-1.37.45-2-.17-2.46-2.61-4.27-6-6.24-8.93-1.5-2.28-3.15-4.47-4.5-6.84-.24-.4-.71-1-.66-1.49.05-.49.72-.69 1.16-.9a30.06 30.06 0 003.24-1.94c.55-.34 0-1.21-.5-.87a32.2 32.2 0 01-3.39 2c-.62.3-1.46.67-1.6 1.44-.14.77.46 1.51.8 2.11.69 1.23 1.49 2.41 2.29 3.58 2.67 3.95 5.13 8.1 8.1 11.83.75.93 2.41 2.81 3.79 2.12 1.72-.87-.27-3.66-.89-4.56-.3-.44-.63-.87-.92-1.33a3.826 3.826 0 00-.28-.49c-.17-.16-.36-.13-.2 0 .66.57 1.5 1 2.17 1.6.67.6 1.51 1.36 2.26 2.06a9.816 9.816 0 002.27 1.85 1.847 1.847 0 002.205-.438 1.849 1.849 0 00.155-2.242 33.212 33.212 0 00-2.65-3.08c-.7-.88-2-2-2.27-3.08l-.84.49c1.81 1.58 3.67 3.09 5.52 4.62 1 .82 2.7 2.63 4.11 1.81 1.92-1.11.4-3.41-.58-4.53-1.76-2-3.94-3.56-5.74-5.51l-.71.7c1.91 1.65 4.17 2.84 6.18 4.34.68.51 1.46 1.64 2.34 1.74a1.75 1.75 0 001.74-1.3c.49-1.8-2.13-3.82-3.27-4.89a56.154 56.154 0 00-7.22-6l.23.56c-.17.45.73.07.84 0 .42-.1.85-.19 1.27-.27a16.154 16.154 0 002.06-.48 3.198 3.198 0 002.11-1.65c.75-2.05-1.67-2.14-3-2.24-2.87-.23-6 .25-8.81-.51a21.576 21.576 0 00-4.07-1.23 7.13 7.13 0 00-4 .94c-.61.43-.1 1.3.46.98zM86.54 36.22a5.91 5.91 0 01-.62 4.36 13.151 13.151 0 01-2.75 3.89c-.47.44.24 1.15.7.7a13.662 13.662 0 003-4.31 6.84 6.84 0 00.64-4.86c-.21-.6-1.18-.34-1 .27l.03-.05zm76.798 37.755l-50.352 9.715.19.981 50.351-9.714-.189-.982zm12.11 12.034l-57.203 11.763.202.979 57.203-11.763-.202-.98zm-76.883 15.832l-77.822 16.003.202.98 77.821-16.003-.2-.98z" fill="#313131"/><path d="M104.74 47.53l-19.25-8.37a3.661 3.661 0 00-3 .49A7.11 7.11 0 0081.08 41 13.21 13.21 0 0079 45.3a15 15 0 00-7.22 4.37 110.77 110.77 0 00-24.55 47.21l46.56-9.11 4.41 14a83.062 83.062 0 009.33 11c4.73 4.76 10.62 11.19 10.62 11.19l10.46-9s-10.19-16.66-11.75-19a12.516 12.516 0 01-2.06-4.17c-1-4.45-3.23-14.28-5-21.51-2.94-11.82-5-14.66-5-14.66s3.84-6.62-.06-8.09zm96.47 48.79a93.278 93.278 0 004.79-8.26 42.947 42.947 0 003.51-8c.61-2.21.82-6-1.62-7.31-2.44-1.31-4.3 1.79-4.84 3.69a37.78 37.78 0 00-.85 8.75 63.255 63.255 0 00.37 9.73c.26 2.16.24 5.83 2.38 7.12 2.39 1.45 5.26-.56 6.87-2.27a38.514 38.514 0 008.86-16.7c.39-1.58-2.05-2.26-2.44-.68A37.48 37.48 0 01213 94.32c-1.2 1.77-2.61 3.88-4.44 5.05-.64.42-1.87 1-2.44.26-.57-.74-.61-2.44-.75-3.38a65.774 65.774 0 01-.37-14.84c.12-1.59 0-4.68 1.3-5.87 1-.93 1.17 1.32 1.14 2a10.087 10.087 0 01-.78 3.28A73.53 73.53 0 01199 95c-.89 1.37 1.3 2.64 2.19 1.28l.02.04z" fill="#7856FF"/><path d="M198.19 93.76l-10.82-6s3.66 5 4.54 9a22.653 22.653 0 01-1 11.79s7.16-9.19 8.19-10.69a2.743 2.743 0 000-3.338 2.745 2.745 0 00-.91-.762zM15.152 148.797c2.089-.398 2.724-6.284 1.418-13.147-1.305-6.863-4.057-12.105-6.146-11.708-2.089.398-2.724 6.283-1.418 13.147 1.305 6.863 4.057 12.105 6.146 11.708z" fill="#7856FF"/><path d="M137.302 138.592L19.256 167.565l.238.972 118.047-28.974-.239-.971z" fill="#313131"/><path d="M173.77 129.638l-37.682 9.248.238.971 37.682-9.248-.238-.971zM93.741 87.4L7.325 104.072l.19.982L93.93 88.382l-.19-.982z" fill="#313131"/><path d="M19.6 169L6.25 154.32l-6.08-32v-.14l7-18.52 14.13 14.46v.14l6.06 31.89-.06.14L19.6 169zM7.18 153.86l12.1 13.26L26.36 150l-6-31.44-12.8-13.09L1.2 122.4l5.98 31.46zm167.25-23.56l-.92-.4 6.8-15.65-5.23-27.5-12.03-11.91.7-.71L176 86.25l.03.16 5.31 27.95-.06.15-6.85 15.79z" fill="#313131"/><path d="M174.36 130.42l-.77-.64 14.26-17.48 10.83-14.74a2.28 2.28 0 00.39-1.848 2.29 2.29 0 00-1.13-1.512l-34.81-19.27.48-.87 34.82 19.27a3.27 3.27 0 011 4.82l-10.84 14.76-14.23 17.51z" fill="#313131"/><path d="M180.723 113.805l-41.843 9.729.226.974 41.844-9.729-.227-.974zm-58.878 13.688L26.771 149.6l.227.974 95.073-22.107-.226-.974zM90.14 78.32c1.1 3.193 2.197 6.386 3.29 9.58.21.61 1.17.35 1-.26l-3.3-9.58c-.21-.61-1.17-.35-1 .26h.01z" fill="#313131"/><path d="M320.99 32.11a3.13 3.13 0 100-6.26 3.13 3.13 0 000 6.26zm-12.83 0a3.13 3.13 0 100-6.26 3.13 3.13 0 000 6.26zm-12.83 0a3.13 3.13 0 100-6.26 3.13 3.13 0 000 6.26z" fill="#7856FF"/><path d="M144.93 202.12l.17-4.7a.504.504 0 00-.146-.354.504.504 0 00-.708 0 .504.504 0 00-.146.354l-.17 4.7c0 .64 1 .64 1 0zm2.07 2.2l5.22.17a.5.5 0 000-1l-5.22-.17c-.64 0-.64 1 0 1zm-3.27 1.85v4.31a.5.5 0 101 0v-4.31a.504.504 0 00-.146-.354.504.504 0 00-.708 0 .504.504 0 00-.146.354zm-6.3-1.51a32.216 32.216 0 014.18-.07.51.51 0 00.5-.5.5.5 0 00-.5-.5 32.216 32.216 0 00-4.18.07.52.52 0 00-.5.5.501.501 0 00.5.5zM245.6 43.49l.18-4.71c0-.64-1-.64-1 0l-.18 4.71c0 .64 1 .64 1 0zm2.04 2.19l5.23.17c.64 0 .64-1 0-1l-5.23-.17c-.64 0-.64 1 0 1zm-3.24 1.85v4.31a.503.503 0 00.5.5.5.5 0 00.5-.5v-4.31a.503.503 0 00-.5-.5.501.501 0 00-.5.5zM238.11 46a30.662 30.662 0 014.18-.07.5.5 0 100-1 30.662 30.662 0 00-4.18.07.5.5 0 100 1zm55.49 38.83a1.851 1.851 0 110-3.702 1.851 1.851 0 010 3.702zm0-2.7a.85.85 0 100 1.7.85.85 0 000-1.7zm-92.14 64.25a1.852 1.852 0 01-1.814-2.211 1.853 1.853 0 012.522-1.348 1.849 1.849 0 011.142 1.709 1.858 1.858 0 01-1.85 1.85zm0-2.7a.853.853 0 00-.834 1.016.855.855 0 00.668.667.85.85 0 001.016-.833.859.859 0 00-.85-.85zM22.2 68.53a1.85 1.85 0 11-.1-3.7 1.85 1.85 0 01.1 3.7zm0-2.7a.85.85 0 10-.02 1.7.85.85 0 00.02-1.7zm325.68 173.92h-30.19a4.801 4.801 0 01-4.8-4.79v-28.58h39.79V235a4.804 4.804 0 01-1.423 3.362 4.804 4.804 0 01-3.377 1.388zm-34-32.37V235a3.797 3.797 0 001.117 2.68 3.797 3.797 0 002.683 1.11h30.19a3.797 3.797 0 002.683-1.11 3.797 3.797 0 001.117-2.68v-27.62h-37.79z" fill="#313131"/><mask id="a" style="mask-type:luminance" maskUnits="userSpaceOnUse" x="287" y="113" width="89" height="95"><path d="M375.42 152a.552.552 0 00-.61.06c-.06.06-3.63 3-9.36 8.5-.07-2.1-.3-7.13-1.05-17.26-1.07-14.5-9.14-29.52-9.22-29.68a.568.568 0 00-.63-.27.547.547 0 00-.41.55 138.989 138.989 0 01-6.62 40.93c-.54 1.627-1.097 3.25-1.67 4.87a143.486 143.486 0 00-5-17.93c-4.11-11.91-14.68-28-14.78-28.19a.559.559 0 00-.68-.2.537.537 0 00-.33.61 192.924 192.924 0 012.86 29.89c.05 4.44 0 8.45-.16 11.92l-.4-.85c-1.36-2.95-7.13-11.24-7.36-11.59a.55.55 0 00-.63-.21.542.542 0 00-.38.53v12.72a229.57 229.57 0 00-3.67-4.84c-3.15-4-5.84-7.19-7.16-8.71-3.24-3.73-3.33-3.69-3.73-3.56-.71.23-.71.23 3.5 17 .49 1.93 1 3.86 1.43 5.71 1.61 6.41 2.85 11.26 3.5 13.79-12.41-12-24.54-14.45-24.67-14.47a.546.546 0 00-.6.29.564.564 0 00.12.66 138.963 138.963 0 0111.44 12 74.7 74.7 0 018.17 12.57v.08a141.692 141.692 0 00-13.69-6.17.58.58 0 00-.65.2.561.561 0 000 .67c.05.06 4.91 6.18 10.25 12.4a105.68 105.68 0 017.88 10.74c.53.947 1.168 1.829 1.9 2.63.096.07.211.108.33.11h17.24a.539.539 0 00.45-.24v.06a.517.517 0 00.41.18h20.65c.127 0 .25-.042.35-.12a60.52 60.52 0 0016.96-25.28 139.773 139.773 0 006.31-29.58.576.576 0 00-.29-.52z" fill="#fff"/></mask><g mask="url(#a)"><path d="M374.62 154.55a2.399 2.399 0 01-.47-.43l-.43-.42c-1.68 1.45-4.74 4.17-8.79 8.11 0 0 0-3.95-1.08-18.49-.75-10.1-4.87-20.37-7.32-25.71a2.406 2.406 0 01-.61.24 2.213 2.213 0 01-.77 0 2.882 2.882 0 01-.43-.09h-.1a139.604 139.604 0 01-6.57 37.24c-.8 2.39-1.59 4.67-2.36 6.82a128.468 128.468 0 00-5.36-19.88c-3-8.61-9.27-19.33-12.59-24.68a6.757 6.757 0 01-1.26.39h-.24a194.884 194.884 0 012.24 26.18c.06 5.44-.07 10.24-.26 14.19l-1.36-2.88c-1.36-2.88-7.33-11.49-7.33-11.49v14.45c-4.46-6.18-9.06-11.74-11.95-15.06l-.11.13a3.777 3.777 0 01-.7.49 3.759 3.759 0 01-1.29.45c1.06 4.44 2.88 11.57 4.41 17.7 2.43 9.7 4 15.75 4 15.75-12.92-13.3-25.82-15.75-25.82-15.75a140.45 140.45 0 0111.49 12c5.38 6.47 8.69 13.86 9.23 14.4l.14.09c-7.22-3.93-14.16-6.35-15.3-7 .93 1 5.35 6.78 10.06 12.26 5.38 6.29 9 12.75 9.69 13.29h38.79a59.286 59.286 0 0016.7-25 141.612 141.612 0 006.05-27.19 2.156 2.156 0 01-.3-.11z" fill="#7856FF"/><path d="M293.46 181.2a.41.41 0 00.18.13c-.14-.15-.2-.2-.18-.13z" fill="#313131"/><path d="M374.93 154.75a5.095 5.095 0 01-.53-.26 142.356 142.356 0 01-6 27.26 59.424 59.424 0 01-16.4 24.58h-19.8c.53-2.36 3.29-11.43 16.26-26.29A271.328 271.328 0 01374 154.21a1.865 1.865 0 01-.31-.25 2.328 2.328 0 01-.42-.57 272.888 272.888 0 00-25.61 25.93c-15.41 17.61-16.66 27.1-16.66 27.5a.542.542 0 00.14.43.513.513 0 00.41.18h20.65c.127 0 .25-.042.35-.12a60.515 60.515 0 0016.85-25.21c2.9-8.844 4.93-17.951 6.06-27.19l-.53-.16z" fill="#7856FF"/><path d="M330.63 207.43h-17.24a.568.568 0 01-.33-.11 14.125 14.125 0 01-1.9-2.63 105.762 105.762 0 00-7.88-10.69c-5.34-6.22-10.2-12.34-10.25-12.4a.561.561 0 01.293-.875.58.58 0 01.357.005 140.98 140.98 0 0115.77 7.27 58.858 58.858 0 0110.23 7c9 7.6 11.33 11.48 11.43 11.64a.562.562 0 010 .56.545.545 0 01-.48.23zm-17-1.1h15.95c-1.13-1.51-4.11-5.05-10.61-10.52a58.27 58.27 0 00-10-6.87 138.523 138.523 0 00-13.72-6.46c1.8 2.24 5.25 6.47 8.92 10.75a107.578 107.578 0 018 10.85c.56.98 1.17 1.92 1.45 2.25h.01z" fill="#7856FF"/><path d="M332.79 203.23a.526.526 0 01-.49-.29 125.794 125.794 0 00-18.23-24.41c-9.8-10.34-19.8-14.31-24-15.62a137.302 137.302 0 019.93 10.58 76.113 76.113 0 018.29 12.76c.41.76.8 1.47.91 1.61a.55.55 0 010 .77.542.542 0 01-.76 0 10.858 10.858 0 01-1.09-1.86 74.74 74.74 0 00-8.17-12.57 138.963 138.963 0 00-11.44-12 .559.559 0 01-.12-.66.549.549 0 01.6-.29c.13 0 13.61 2.7 26.69 16.5a127.028 127.028 0 0118.41 24.65.56.56 0 01-.24.75.57.57 0 01-.29.08z" fill="#7856FF"/><path d="M310.43 161.68c-.46-1.85-.95-3.78-1.43-5.71-1.06-4.18-2.19-8.68-2.95-11.86l-.16.06-.31.06h-.64c.59 2.48 1.54 6.24 3 12 .49 1.93 1 3.86 1.43 5.71 2.4 9.58 4 15.69 4 15.75a.562.562 0 00.68.39.55.55 0 00.39-.67c-.02-.05-1.62-6.15-4.01-15.73zm20.08 13.46c-3.55-7.95-10.22-17.21-15.2-23.58-3.15-4-5.84-7.19-7.16-8.71 0 0-.07.1-.11.14a3.84 3.84 0 01-.71.56c5.55 6.38 17.18 20.83 22.21 32.08 6.55 14.69 6.39 19.7 6.38 19.75a.558.558 0 00.52.58.553.553 0 00.55-.52c.01-.24.23-5.26-6.48-20.3zm33.89-31.86c-.76-10.25-5-20.75-7.46-26.09a3.187 3.187 0 01-.39.25 2.861 2.861 0 01-.62.22c2.42 5.26 6.62 15.61 7.37 25.7 1.06 14.33 1.08 18.41 1.08 18.45a.551.551 0 00.55.56.562.562 0 00.55-.56s-.01-4.14-1.08-18.53z" fill="#7856FF"/><path d="M355.07 117.77a4.654 4.654 0 01-.85-.17h-.15a139.546 139.546 0 01-6.55 37.25c-.76 2.28-1.55 4.58-2.35 6.81a225.485 225.485 0 01-10.82 25.93.558.558 0 00.23.75c.081.04.17.061.26.06a.54.54 0 00.49-.29A225.667 225.667 0 00346.21 162c.81-2.25 1.6-4.55 2.36-6.84a140.73 140.73 0 006.6-37.39h-.1z" fill="#7856FF"/><path d="M340.85 141.75c-3-8.68-9.41-19.58-12.72-24.92l-.09.07a4.557 4.557 0 01-.83.47c3.28 5.3 9.67 16.14 12.63 24.73a128.507 128.507 0 015.34 19.79.561.561 0 001.1-.17 130.404 130.404 0 00-5.43-19.97zm-14.08-24.23a4.376 4.376 0 01-.52.1 5.61 5.61 0 01-.58 0 194.641 194.641 0 012.25 26.22 199.002 199.002 0 01-1.21 26.06.563.563 0 00.48.62h.07a.546.546 0 00.55-.48 199.758 199.758 0 001.19-26.19 194.947 194.947 0 00-2.23-26.33z" fill="#7856FF"/><path d="M319.53 158.65a.55.55 0 01-.55-.55v-14.42a.539.539 0 01.38-.53.552.552 0 01.63.21c.24.35 6 8.68 7.37 11.57l1.36 2.88a.546.546 0 01-.092.607.546.546 0 01-.595.148.55.55 0 01-.313-.285l-1.36-2.88c-1-2.09-4.52-7.35-6.28-9.94v12.64a.55.55 0 01-.55.55z" fill="#7856FF"/><path d="M371.46 174.79c-2 0-3-1.19-3.87-2.24-.87-1.05-1.6-1.88-3.11-1.88-1.51 0-2.25.87-3.11 1.88-.86 1.01-1.89 2.24-3.86 2.24s-3-1.19-3.87-2.24c-.87-1.05-1.59-1.88-3.11-1.88-1.52 0-2.24.87-3.1 1.88-.86 1.01-1.89 2.24-3.86 2.24s-3-1.19-3.87-2.24c-.87-1.05-1.59-1.88-3.1-1.88s-2.25.87-3.1 1.88c-.85 1.01-1.89 2.24-3.86 2.24s-3-1.19-3.87-2.24c-.87-1.05-1.59-1.88-3.1-1.88s-2.25.87-3.1 1.88c-.85 1.01-1.89 2.24-3.87 2.24-1.98 0-3-1.19-3.86-2.24-.86-1.05-1.59-1.88-3.1-1.88s-2.25.87-3.1 1.88c-.85 1.01-1.9 2.24-3.87 2.24-1.97 0-3-1.19-3.87-2.24-.87-1.05-1.59-1.88-3.1-1.88v-1c2 0 3 1.19 3.87 2.23.87 1.04 1.59 1.89 3.1 1.89s2.25-.88 3.1-1.89c.85-1.01 1.9-2.23 3.87-2.23 1.97 0 3 1.19 3.86 2.23.86 1.04 1.59 1.89 3.1 1.89s2.25-.88 3.1-1.89c.85-1.01 1.9-2.23 3.87-2.23 1.97 0 3 1.19 3.86 2.23.86 1.04 1.6 1.89 3.11 1.89 1.51 0 2.24-.88 3.1-1.89.86-1.01 1.89-2.23 3.86-2.23s3 1.19 3.87 2.23c.87 1.04 1.59 1.89 3.1 1.89s2.25-.88 3.1-1.89c.85-1.01 1.89-2.23 3.86-2.23s3 1.19 3.87 2.23c.87 1.04 1.59 1.89 3.11 1.89 1.52 0 2.25-.88 3.1-1.89.85-1.01 1.9-2.23 3.87-2.23 1.97 0 3 1.19 3.87 2.23.87 1.04 1.59 1.89 3.11 1.89v1zm3.02-13.11c-1.91 0-2.88-1.14-3.74-2.15-.86-1.01-1.52-1.8-3-1.8s-2.15.83-3 1.8c-.85.97-1.82 2.15-3.73 2.15s-2.87-1.14-3.73-2.15c-.86-1.01-1.52-1.8-3-1.8s-2.15.83-3 1.8c-.85.97-1.83 2.15-3.73 2.15s-2.87-1.14-3.73-2.15c-.86-1.01-1.52-1.8-3-1.8s-2.15.83-3 1.8c-.85.97-1.83 2.15-3.73 2.15s-2.87-1.14-3.73-2.15c-.86-1.01-1.52-1.8-3-1.8s-2.14.83-3 1.8c-.86.97-1.82 2.15-3.73 2.15s-2.87-1.14-3.72-2.15c-.85-1.01-1.52-1.8-3-1.8s-2.14.83-3 1.8a4.875 4.875 0 01-3.23 2.12l-.11-1a3.939 3.939 0 002.58-1.78c.85-1 1.82-2.15 3.72-2.15 1.9 0 2.88 1.14 3.73 2.15.85 1.01 1.52 1.8 3 1.8s2.15-.83 3-1.8c.85-.97 1.83-2.15 3.73-2.15s2.87 1.14 3.73 2.15c.86 1.01 1.52 1.8 3 1.8s2.15-.83 3-1.8c.85-.97 1.82-2.15 3.73-2.15s2.87 1.14 3.73 2.15c.86 1.01 1.52 1.8 3 1.8s2.15-.83 3-1.8c.85-.97 1.82-2.15 3.73-2.15s2.87 1.14 3.73 2.15c.86 1.01 1.52 1.8 3 1.8s2.15-.83 3-1.8c.85-.97 1.82-2.15 3.73-2.15s2.87 1.14 3.73 2.15c.86 1.01 1.52 1.8 3 1.8l.04 1.01zm-3.97-13.08a4.516 4.516 0 01-3.63-2.1c-.79-.93-1.48-1.74-2.87-1.74-1.39 0-2.08.81-2.87 1.74a4.516 4.516 0 01-3.63 2.1c-1.85 0-2.79-1.11-3.63-2.1-.84-.99-1.47-1.74-2.86-1.74s-2.07.81-2.86 1.74a4.516 4.516 0 01-3.63 2.1c-1.85 0-2.79-1.11-3.63-2.1-.84-.99-1.47-1.74-2.86-1.74s-2.07.81-2.86 1.74a4.17 4.17 0 01-1.531 1.536 4.174 4.174 0 01-4.188 0 4.17 4.17 0 01-1.531-1.536c-.79-.93-1.48-1.74-2.87-1.74-1.39 0-2.07.81-2.86 1.74a4.17 4.17 0 01-1.531 1.536 4.174 4.174 0 01-4.188 0 4.17 4.17 0 01-1.531-1.536c-.79-.93-1.47-1.74-2.86-1.74s-2.08.81-2.86 1.74a5.85 5.85 0 01-3.56 2.08l-.12-1a4.832 4.832 0 002.91-1.73c.83-1 1.77-2.1 3.63-2.1 1.86 0 2.79 1.12 3.62 2.1.83.98 1.48 1.74 2.86 1.74s2.08-.81 2.87-1.74c.79-.93 1.77-2.1 3.62-2.1s2.8 1.12 3.63 2.1c.83.98 1.47 1.74 2.86 1.74s2.07-.81 2.86-1.74c.79-.93 1.78-2.1 3.63-2.1 1.85 0 2.8 1.12 3.63 2.1.83.98 1.47 1.74 2.86 1.74s2.07-.81 2.86-1.74a4.19 4.19 0 017.26 0c.79.93 1.47 1.74 2.86 1.74s2.08-.81 2.87-1.74c.79-.93 1.77-2.1 3.63-2.1 1.86 0 2.8 1.12 3.63 2.1.83.98 1.47 1.74 2.87 1.74v1.01zm0-13.02c-1.86 0-2.8-1.12-3.63-2.1-.83-.98-1.48-1.74-2.87-1.74-1.39 0-2.08.81-2.87 1.74-.79.93-1.77 2.1-3.63 2.1-1.86 0-2.79-1.12-3.63-2.1-.84-.98-1.47-1.74-2.86-1.74s-2.07.81-2.86 1.74c-.79.93-1.77 2.1-3.63 2.1-1.86 0-2.79-1.12-3.63-2.1-.84-.98-1.47-1.74-2.86-1.74s-2.07.81-2.86 1.74c-.79.93-1.77 2.1-3.63 2.1-1.86 0-2.79-1.12-3.62-2.1-.83-.98-1.48-1.74-2.87-1.74-1.39 0-2.07.81-2.86 1.74-.79.93-1.77 2.1-3.63 2.1-1.86 0-2.79-1.12-3.62-2.1-.83-.98-1.47-1.74-2.86-1.74s-2.07.81-2.86 1.74a4.778 4.778 0 01-3.15 2.07l-.11-1a3.773 3.773 0 002.49-1.73 4.177 4.177 0 015.719-1.536 4.177 4.177 0 011.531 1.536c.79.93 1.48 1.74 2.86 1.74s2.08-.81 2.87-1.74a4.177 4.177 0 015.719-1.536 4.177 4.177 0 011.531 1.536c.79.93 1.47 1.74 2.86 1.74s2.07-.81 2.86-1.74c.79-.93 1.78-2.1 3.63-2.1a4.509 4.509 0 013.63 2.1c.79.93 1.47 1.74 2.86 1.74s2.07-.81 2.86-1.74a4.198 4.198 0 013.63-2.097 4.19 4.19 0 013.63 2.097c.79.93 1.47 1.74 2.86 1.74s2.08-.81 2.87-1.75a4.198 4.198 0 013.63-2.097 4.19 4.19 0 013.63 2.097c.79.93 1.47 1.74 2.87 1.74v1.03zm-13.27 52.26c-2 0-3-1.2-3.93-2.27-.93-1.07-1.62-1.91-3.16-1.91s-2.29.88-3.16 1.91c-.87 1.03-1.92 2.27-3.92 2.27s-3-1.2-3.93-2.27c-.93-1.07-1.62-1.91-3.16-1.91s-2.29.88-3.16 1.91c-.87 1.03-1.93 2.27-3.93 2.27s-3-1.2-3.93-2.27c-.93-1.07-1.62-1.91-3.16-1.91s-2.29.88-3.16 1.91c-.87 1.03-1.92 2.27-3.92 2.27s-3-1.2-3.93-2.27c-.93-1.07-1.62-1.91-3.16-1.91s-2.29.88-3.16 1.91c-.87 1.03-1.92 2.27-3.93 2.27-2.01 0-3-1.2-3.92-2.27-.92-1.07-1.62-1.91-3.16-1.91v-1c2 0 3 1.2 3.92 2.27.92 1.07 1.63 1.91 3.16 1.91 1.53 0 2.3-.88 3.17-1.91.87-1.03 1.92-2.27 3.92-2.27s3 1.2 3.93 2.27c.93 1.07 1.62 1.91 3.16 1.91s2.29-.88 3.16-1.91c.87-1.03 1.92-2.27 3.92-2.27s3 1.2 3.93 2.27c.93 1.07 1.62 1.91 3.16 1.91s2.29-.88 3.16-1.91c.87-1.03 1.92-2.27 3.93-2.27 2.01 0 3 1.2 3.92 2.27.92 1.07 1.63 1.91 3.17 1.91s2.29-.88 3.16-1.91c.87-1.03 1.92-2.27 3.92-2.27s3 1.2 3.93 2.27c.93 1.07 1.62 1.91 3.16 1.91s2.3-.88 3.17-1.91c.87-1.03 1.92-2.27 3.93-2.27 2.01 0 3 1.2 3.93 2.27.18.21.35.42.54.62l-.73.68c-.2-.21-.39-.43-.58-.66-.87-1-1.62-1.91-3.16-1.91s-2.3.88-3.17 1.91c-.87 1.03-1.92 2.27-3.93 2.27zm.7 12.86a4.55 4.55 0 01-3.64-2.1c-.8-.94-1.49-1.76-2.89-1.76-1.4 0-2.08.82-2.88 1.76a4.55 4.55 0 01-3.64 2.1c-1.87 0-2.81-1.12-3.65-2.1-.84-.98-1.48-1.76-2.88-1.76s-2.09.82-2.89 1.76a4.55 4.55 0 01-3.64 2.1c-1.87 0-2.81-1.12-3.65-2.1-.84-.98-1.48-1.76-2.88-1.76s-2.09.82-2.88 1.76c-.79.94-1.78 2.1-3.65 2.1a4.55 4.55 0 01-3.64-2.1c-.8-.94-1.48-1.76-2.88-1.76s-2.09.82-2.88 1.76a6.845 6.845 0 01-1.71 1.59l-.51-.86a6.097 6.097 0 001.45-1.33c.84-1 1.78-2.11 3.65-2.11a4.546 4.546 0 013.64 2.11c.8.94 1.48 1.75 2.88 1.75s2.09-.81 2.89-1.75a4.534 4.534 0 013.64-2.11c1.87 0 2.81 1.12 3.65 2.11.84.99 1.48 1.75 2.88 1.75s2.09-.81 2.88-1.75 1.78-2.11 3.65-2.11A4.546 4.546 0 01342 198c.8.94 1.49 1.75 2.89 1.75 1.4 0 2.08-.81 2.88-1.75a4.534 4.534 0 013.64-2.11c1.87 0 2.81 1.12 3.65 2.11.84.99 1.48 1.75 2.88 1.75s2.09-.81 2.89-1.75l.24-.28.75.65-.23.28a4.564 4.564 0 01-3.65 2.05z" fill="#313131"/></g><path d="M246 216.31h-63.14v-34H246v34zm-62.13-1H245v-32h-61.14l.01 32z" fill="#313131"/><path d="M261.88 227.67H167v-12.36h94.92l-.04 12.36zm-93.92-1h92.92v-10.36H168l-.04 10.36z" fill="#313131"/><path d="M270.81 125.15h-.13a.375.375 0 00-.22 0l-.7.07c-.38.02-.76.02-1.14 0a7.596 7.596 0 01-4.15-1.66 7.001 7.001 0 01-2.19-3.65 14.816 14.816 0 01-.33-3.12v-1.12c0-.65-1-.65-1 0v.75a15.732 15.732 0 01-.23 4 5.801 5.801 0 01-2 3.35 7.168 7.168 0 01-3.92 1.47h-.36a9.02 9.02 0 01-2.44-.23c-.63-.16-.9.82-.27 1 .981.24 1.993.324 3 .25a5.563 5.563 0 014.62 2.55 8.21 8.21 0 011.21 2.66c.117.417.181.847.19 1.28.09 1.79.11 3.59.14 5.38a.492.492 0 00.147.357.48.48 0 00.363.133.467.467 0 00.363-.13.463.463 0 00.137-.36v-4.64a7.172 7.172 0 014.21-6.45 14.706 14.706 0 013.54-.72 9.36 9.36 0 001.4-.1c.67-.22.39-1.17-.24-1.07z" fill="#1280FF"/><path d="M51.83 8.9a8.32 8.32 0 018.56-3 .517.517 0 00.26-1A9.31 9.31 0 0051 8.4c-.38.52.49 1 .86.5h-.03zm21.56 24.29a12.48 12.48 0 01-8.93 5.45c-.63.07-.64 1.07 0 1a13.51 13.51 0 009.79-6c.36-.54-.51-1-.86-.5v.05zM4.54 18.91a12.46 12.46 0 002.62 12.44c.43.47 1.14-.24.7-.71A11.47 11.47 0 015.5 19.18c.22-.61-.75-.87-1-.27h.04z" fill="#313131"/><path d="M283.83 213.53a15.174 15.174 0 00-2.58-6.39 9.39 9.39 0 00-5.67-3.75 12.08 12.08 0 00-4.47.24V197a.997.997 0 00-1-1h-34.04a.997.997 0 00-1 1v6l-24.39-9.77a1.399 1.399 0 01-.51-.36l-2-2.25a.382.382 0 00-.394-.111.38.38 0 00-.266.311l-.92 8.19a.368.368 0 00.329.411.368.368 0 00.191-.031l2.2-1c.189-.085.395-.124.602-.113.207.01.409.069.588.173l24.52 13.93v18.42a8.355 8.355 0 005.152 7.723 8.34 8.34 0 003.198.637h19.29a8.358 8.358 0 008.36-8.36v-.77a6.77 6.77 0 006.58-.55 13.235 13.235 0 005.57-7 18.003 18.003 0 00.66-8.95zm-7.63 9.68c-.328.479-.76.878-1.264 1.168a3.872 3.872 0 01-1.646.502 3.332 3.332 0 01-2.18-1.11v-14.69a3.867 3.867 0 011.65-1.2 3.174 3.174 0 012.63.48 5.325 5.325 0 011.62 2.23c.649 1.745.957 3.598.91 5.46.08 2.5-.2 5.17-1.72 7.16z" fill="#1280FF"/><path d="M250.11 227.46a3.41 3.41 0 01-1.39-.29 3.49 3.49 0 01-2.15-3.18 2.484 2.484 0 00-1.79-2.37 3.524 3.524 0 01-2.476-2.938 3.519 3.519 0 011.686-3.452 2.53 2.53 0 001.16-2.74 3.52 3.52 0 015.13-3.88 2.5 2.5 0 002.95-.37 3.519 3.519 0 015.93 2.51 2.506 2.506 0 001.79 2.37 3.524 3.524 0 012.476 2.938 3.519 3.519 0 01-1.686 3.452 2.496 2.496 0 00-1.15 2.74 3.519 3.519 0 01-5.14 3.88 2.512 2.512 0 00-2.95.36 3.44 3.44 0 01-2.39.97zm-1.55-18.3a2.517 2.517 0 00-2.448 1.977 2.52 2.52 0 00.008 1.123 3.52 3.52 0 01-1.62 3.83 2.523 2.523 0 00-.626 3.782c.314.373.73.647 1.196.788a3.49 3.49 0 012.5 3.31 2.53 2.53 0 004.25 1.8 3.512 3.512 0 014.12-.52 2.506 2.506 0 002.74-.186 2.512 2.512 0 00.93-2.584 3.52 3.52 0 011.62-3.83 2.512 2.512 0 00.636-3.788 2.516 2.516 0 00-1.206-.782 3.495 3.495 0 01-2.5-3.31 2.517 2.517 0 00-2.958-2.44 2.52 2.52 0 00-1.282.64 3.491 3.491 0 01-4.13.51 2.594 2.594 0 00-1.23-.32zM76.05 55.4a.51.51 0 000-1 .51.51 0 000 1zm7.49 4.35a.51.51 0 000-1 .51.51 0 000 1zm1.04-11.14a.51.51 0 000-1 .51.51 0 000 1zm7.32 4a.51.51 0 000-1 .51.51 0 000 1zm1.91 8.71a.51.51 0 000-1 .51.51 0 000 1zm5.92-10.63a.51.51 0 000-1 .511.511 0 000 1zM73.61 63.75a.51.51 0 000-1 .51.51 0 000 1zm31.17 1.75a.51.51 0 000-1 .51.51 0 000 1zm-17.93 3.83a.51.51 0 000-1 .51.51 0 000 1zm-10.63 2.78a.51.51 0 000-1 .51.51 0 000 1zm-13.4 1.74a.51.51 0 000-1 .51.51 0 000 1zm6.96 6.62a.51.51 0 000-1 .51.51 0 000 1zM84.76 82a.51.51 0 000-1 .51.51 0 000 1zm12.18-8.15a.51.51 0 000-1 .51.51 0 000 1zm9.93 2.62a.51.51 0 000-1 .51.51 0 000 1zm-7.66 9.05a.51.51 0 000-1 .51.51 0 000 1zm11.47 6.11v-.17a.34.34 0 000-.2.392.392 0 00-.1-.16.37.37 0 00-.36-.1H110a.502.502 0 00-.22.13l-.08.1a.591.591 0 00-.07.26v.17a.358.358 0 000 .2.423.423 0 00.26.26.35.35 0 00.2 0h.13a.53.53 0 00.23-.13l.08-.1c.04-.081.06-.17.06-.26h.09zm-7.99 8.87a.51.51 0 000-1 .51.51 0 000 1zm13.93 2.26a.51.51 0 000-1 .507.507 0 000 1zm-3.13 9.58a.51.51 0 000-1 .51.51 0 000 1zm9.23.87a.51.51 0 000-1 .51.51 0 000 1zM57.94 87.09a.51.51 0 000-1 .511.511 0 000 1zM75 89a.51.51 0 000-1 .51.51 0 000 1zm-9.57-29.6a.51.51 0 000-1 .51.51 0 000 1zm4.87 100.65a.51.51 0 000-1 .51.51 0 000 1zM68.37 170v-.17a.45.45 0 000-.2.527.527 0 00-.27-.27.435.435 0 00-.19 0h-.14a.446.446 0 00-.22.13l-.08.1a.478.478 0 00-.07.26v.15a.45.45 0 000 .2.421.421 0 00.11.16.341.341 0 00.16.1c.062.031.13.048.2.05H68a.542.542 0 00.22-.13l.08-.1a.48.48 0 00.07-.26V170zm-9.21-5.77a.51.51 0 000-1 .51.51 0 000 1zm-9.23 8.88a.51.51 0 000-1 .51.51 0 000 1zm9.07 2.61a.51.51 0 000-1 .505.505 0 00-.41.5.51.51 0 00.41.5zm5.73 8.18a.51.51 0 000-1 .51.51 0 000 1zM51 181.29a.515.515 0 00.41-.5.509.509 0 00-.41-.5.509.509 0 000 1zm-7 8.19a.51.51 0 000-1 .51.51 0 000 1zm12.72-.35a.51.51 0 000-1 .51.51 0 000 1zm1.39 8.71a.51.51 0 000-1 .51.51 0 000 1zM47.84 197a.51.51 0 000-1 .51.51 0 000 1zm-8.71 6.23a.51.51 0 000-1 .51.51 0 000 1zm13.06 1.22a.515.515 0 00.41-.5.51.51 0 00-.41-.5.505.505 0 00-.41.5.51.51 0 00.41.5zm-8.19 4.7a.51.51 0 000-1 .51.51 0 000 1zm-8.35 4.01a.515.515 0 00.41-.5.51.51 0 00-.41-.5.505.505 0 00-.41.5.511.511 0 00.41.5zm15.5 1.04a.515.515 0 00.41-.5.51.51 0 00-.41-.5.505.505 0 00-.41.5.51.51 0 00.41.5zm33.61-55.72a.51.51 0 000-1 .51.51 0 000 1zm10.97-3.13a.515.515 0 00.41-.5.509.509 0 00-.41-.5.509.509 0 000 1zM92.77 163a.51.51 0 000-1 .51.51 0 000 1zm11.49-1.21a.514.514 0 00.409-.5.511.511 0 00-.409-.5.508.508 0 00-.294.823.514.514 0 00.294.177zm-5.44 6.57a.51.51 0 000-1 .51.51 0 000 1zm7.7 3.64a.51.51 0 000-1 .51.51 0 000 1zm-14.76 1.46a.51.51 0 000-1 .51.51 0 000 1zm7.45 5.09a.51.51 0 000-1 .51.51 0 000 1zM90.33 183a.51.51 0 000-1 .51.51 0 000 1zm16.06.25a.51.51 0 000-1 .51.51 0 000 1zM98 189.13a.51.51 0 000-1 .51.51 0 000 1zm8 4.18a.514.514 0 00.41-.5.512.512 0 00-.41-.5.508.508 0 00-.294.823.514.514 0 00.294.177zm-14.63-.79a.515.515 0 00.41-.5.509.509 0 00-.41-.5.509.509 0 000 1zm7.45 5.78h-.13a.45.45 0 00-.2 0 .334.334 0 00-.16.1.414.414 0 00-.11.16.45.45 0 000 .2v.13a.535.535 0 00.13.23l.1.08c.08.044.169.068.26.07h.13a.435.435 0 00.19 0 .35.35 0 00.16-.1.392.392 0 00.11-.17.31.31 0 000-.19v-.14a.42.42 0 00-.13-.22l-.1-.08a.549.549 0 00-.25-.07zm7.18 4.26l.13-.13a.346.346 0 00.1-.16.34.34 0 000-.2.308.308 0 000-.19.336.336 0 00-.1-.16l-.11-.08a.425.425 0 00-.25-.07h-.14a.412.412 0 00-.22.13l-.13.13a.635.635 0 00-.15.35.353.353 0 00.05.2.346.346 0 00.1.16l.1.08a.484.484 0 00.26.07h.13a.457.457 0 00.23-.13zm-15 1.33a.515.515 0 00.41-.5.509.509 0 00-.41-.5.509.509 0 000 1zm4.29 5.11a.51.51 0 000-1 .51.51 0 000 1zm9.27 2.72a.51.51 0 000-1 .507.507 0 000 1zm-13.19 4.18a.51.51 0 000-1 .51.51 0 000 1zm205.69-76.68a1.571 1.571 0 01-1.08-.36 1.204 1.204 0 01-.17-1.51c.09-.18.08-.28.06-.31-.02-.03-.1-.09-.3-.11a1.219 1.219 0 01-1.2-.94c-.16-.85.63-1.89 1.93-2.53a2.574 2.574 0 001.39-1.33 3.875 3.875 0 014.18-2.34 2.563 2.563 0 001.86-.49c1.22-.77 2.52-.91 3.17-.33a1.242 1.242 0 01.17 1.52c-.09.17-.09.28-.07.31a.441.441 0 00.3.1 1.212 1.212 0 011.2.94c.16.85-.63 1.89-1.93 2.53a2.609 2.609 0 00-1.39 1.33A3.877 3.877 0 01301 138a2.617 2.617 0 00-1.86.49 4.077 4.077 0 01-2.08.73zm4.17-8.53a2.991 2.991 0 00-1.37.42c-.534.25-.958.688-1.19 1.23a3.443 3.443 0 01-1.93 2c-1 .5-1.44 1.2-1.39 1.45 0 .07.16.11.31.12a1.319 1.319 0 011.08.62 1.28 1.28 0 010 1.24c-.06.13-.1.28-.05.33.05.05 1 .17 2-.43a3.382 3.382 0 012.72-.59 2.382 2.382 0 001.68-.38 2.441 2.441 0 001.2-1.23 3.428 3.428 0 011.92-2c1-.5 1.44-1.2 1.39-1.45 0-.07-.16-.11-.31-.12a1.305 1.305 0 01-1.08-.61 1.323 1.323 0 010-1.25c.06-.13.11-.28.06-.33-.05-.05-1-.17-2 .44a3.417 3.417 0 01-2.72.58.99.99 0 00-.32-.04z" fill="#313131"/><path d="M304.77 144.75l-.44-.74a7.78 7.78 0 00-4.53-3.82l-3.43-1.09.3-1 3.43 1.1a8.698 8.698 0 015.1 4.28l.12.19a3.662 3.662 0 002.41-1.35l-.3-.53a8.8 8.8 0 01-.8-6l.73-3.33 1 .21-.74 3.34a7.802 7.802 0 00.71 5.28l.61 1.08-.28.39a4.687 4.687 0 01-3.57 1.92l-.32.07z" fill="#313131"/><path d="M301.93 132.21c-.015.822.055 1.643.21 2.45a.475.475 0 00.085.175.475.475 0 00.331.19.489.489 0 00.194-.015.52.52 0 00.35-.62c0-.09 0-.19-.05-.29a.752.752 0 010-.15c0-.16 0 0 0 0l-.06-.56c-.02-.38-.02-.76 0-1.14a.513.513 0 00-.5-.5.504.504 0 00-.354.146.504.504 0 00-.146.354l-.06-.04zm-2.86 2.17c.472.269.923.574 1.35.91l-.1-.08.21.16a.479.479 0 00.7 0 .487.487 0 00.15-.35.447.447 0 00-.15-.36 12.814 12.814 0 00-1.66-1.15.497.497 0 00-.68.18.513.513 0 00.18.69zm54.65-23.26a2.636 2.636 0 01-1.65-.47 2.485 2.485 0 00-1.81-.16c-1.36.3-2.59 0-3-.73a1.189 1.189 0 01.34-1.45c.14-.13.16-.22.16-.24 0-.02 0-.1-.23-.18a1.175 1.175 0 01-.79-1.25c.13-.83 1.19-1.52 2.58-1.68a2.405 2.405 0 001.66-.74 3.775 3.775 0 014.57-.77 2.393 2.393 0 001.81.16c1.37-.3 2.6 0 3 .74a1.185 1.185 0 01-.34 1.45c-.14.13-.16.22-.15.24.01.02.05.1.22.18.257.083.476.254.62.482.144.229.204.5.17.768-.13.83-1.19 1.52-2.58 1.67a2.504 2.504 0 00-1.66.74 3.173 3.173 0 01-2.15 1.18 5.223 5.223 0 01-.77.06zm-2.67-1.72a2.699 2.699 0 011.65.47c.495.269 1.074.34 1.62.2a2.304 2.304 0 001.47-.71 3.262 3.262 0 012.4-1.21c1.07-.12 1.67-.6 1.71-.84 0 0-.09-.12-.23-.19a1.29 1.29 0 01-.79-.92 1.261 1.261 0 01.45-1.13c.11-.1.17-.21.15-.25-.11-.21-.84-.47-1.89-.23a3.31 3.31 0 01-2.66-.36 2.865 2.865 0 00-3.09.52 3.31 3.31 0 01-2.4 1.21c-1.06.12-1.67.6-1.7.83 0 0 .09.13.22.19a1.175 1.175 0 01.745.9 1.185 1.185 0 01-.395 1.1c-.11.1-.18.21-.16.25.12.21.84.47 1.89.24a4.386 4.386 0 011.01-.07z" fill="#313131"/><path d="M354.91 118.21a4.714 4.714 0 01-1.33-.2l-.28-.09-.16-.82a7.447 7.447 0 00-2.85-4.9l-2.74-2.1.61-.79 2.74 2.1a8.35 8.35 0 013.22 5.52v.2a3.594 3.594 0 002.58-.43l-.1-.57a8.525 8.525 0 011.21-5.66l1.74-2.77.85.53-1.7 2.77a7.453 7.453 0 00-1.07 5l.2 1.19-.39.26a4.544 4.544 0 01-2.53.76z" fill="#313131"/><path d="M354.78 105.7a11.575 11.575 0 00-.58 2.15.591.591 0 00.05.39.527.527 0 00.3.23.522.522 0 00.62-.35 10.77 10.77 0 01.58-2.16.511.511 0 00-.35-.61.517.517 0 00-.62.35zm-3.24 1.05l.33.4-.08-.1c.26.34.51.7.74 1.07a.501.501 0 00.68.18.513.513 0 00.18-.69 12.54 12.54 0 00-1.14-1.57.486.486 0 00-.163-.109.488.488 0 00-.384 0 .486.486 0 00-.303.459.545.545 0 00.14.36zm-32.43 4.45a1.923 1.923 0 01-1.63-.65 1.222 1.222 0 01.17-1.52c.12-.15.14-.25.13-.28-.01-.03-.08-.11-.27-.17a1.207 1.207 0 01-1-1.18c0-.86 1-1.7 2.44-2a2.514 2.514 0 001.63-1 3.865 3.865 0 014.62-1.4 2.57 2.57 0 001.91-.07c1.36-.49 2.66-.34 3.16.37a1.207 1.207 0 01-.16 1.51.49.49 0 00-.14.29s.08.11.27.17a1.205 1.205 0 011 1.17c0 .86-1 1.7-2.43 2a2.543 2.543 0 00-1.64 1 3.91 3.91 0 01-4.59 1.37 2.566 2.566 0 00-1.91.07 4.63 4.63 0 01-1.56.32zm4.84-7.51c-.34.002-.677.056-1 .16a2.392 2.392 0 00-1.44.94 3.425 3.425 0 01-2.31 1.54c-1.09.27-1.66.86-1.67 1.11 0 .07.14.14.27.18a1.334 1.334 0 01.93.84 1.308 1.308 0 01-.32 1.2c-.09.12-.16.25-.12.31.14.21.94.38 2 0a3.382 3.382 0 012.78 0 2.454 2.454 0 001.71 0 2.416 2.416 0 001.44-.94 3.395 3.395 0 012.31-1.55c1.1-.26 1.66-.85 1.67-1.11 0-.06-.13-.14-.27-.18a1.195 1.195 0 01-.889-.822 1.202 1.202 0 01.279-1.178c.09-.11.16-.25.13-.3-.15-.21-.95-.39-2 0a3.446 3.446 0 01-2.78 0 1.315 1.315 0 00-.67-.2h-.05z" fill="#313131"/><path d="M325.86 118.32a4.483 4.483 0 01-.81-.07h-.29l-.27-.82a7.677 7.677 0 00-3.58-4.7l-3.1-1.82.51-.86 3.1 1.81a8.698 8.698 0 014 5.29l.07.2a3.655 3.655 0 002.64-.78l-.17-.59a8.771 8.771 0 01.51-6l1.45-3.09.9.43-1.44 3.09a7.731 7.731 0 00-.46 5.29l.36 1.19-.36.31a4.674 4.674 0 01-3.06 1.12z" fill="#313131"/><path d="M324.73 105.34a13.278 13.278 0 00-.34 2.43.5.5 0 101 0v-1.04c.06-.38.13-.75.22-1.12a.519.519 0 00-1-.27h.12zm-3.27 1.5c.462.429.89.894 1.28 1.39a.522.522 0 00.71 0 .53.53 0 00.15-.36v-.13a.54.54 0 00-.13-.22 12.034 12.034 0 00-1.29-1.39.508.508 0 00-.7 0 .492.492 0 00-.148.355.497.497 0 00.148.355h-.02zm61.39 43.28a3.753 3.753 0 01-1.77-.51 2.226 2.226 0 00-1.62-.33 3.49 3.49 0 01-3.89-1.9 2.202 2.202 0 00-1.26-1.06c-1.21-.51-2-1.41-1.88-2.2a1.13 1.13 0 011.06-.94.354.354 0 00.22-.08.504.504 0 00-.07-.22 1.126 1.126 0 01.08-1.41c.56-.57 1.74-.52 2.88.12a2.256 2.256 0 001.62.33 3.5 3.5 0 013.9 1.89c.266.506.717.889 1.26 1.07 1.21.51 2 1.41 1.88 2.2a1.137 1.137 0 01-1.07.94c-.15 0-.21.06-.21.07 0 .01 0 .09.07.22a1.14 1.14 0 01-.08 1.42c-.307.272-.71.412-1.12.39zm-3.06-1.89a3.72 3.72 0 011.78.51c.93.51 1.61.39 1.69.28a.583.583 0 00-.08-.21 1.124 1.124 0 01.297-1.602 1.12 1.12 0 01.573-.178.522.522 0 00.22-.08c0-.12-.29-.73-1.28-1.15a3.092 3.092 0 01-1.83-1.72 2.048 2.048 0 00-1.1-1 1.997 1.997 0 00-1.45-.25 3.112 3.112 0 01-2.49-.38c-.93-.52-1.61-.4-1.69-.29a.439.439 0 00.08.22 1.23 1.23 0 01.1 1.15 1.214 1.214 0 01-1 .63c-.15 0-.21.06-.22.08-.01.02.29.73 1.27 1.14a3.086 3.086 0 011.84 1.73 2.1 2.1 0 001.09 1 2.16 2.16 0 001.46.25c.234-.096.487-.141.74-.13z" fill="#313131"/><path d="M376.47 155.41H376a4.28 4.28 0 01-3.25-1.65l-.18-.24.33-.73a6.775 6.775 0 00.49-5.18l-.94-3.06 1-.29.94 3.05a7.767 7.767 0 01-.54 5.92l-.06.14a3.252 3.252 0 002.1 1l.22-.46a7.867 7.867 0 014-3.63l2.8-1.15.38.92-2.79 1.15a6.877 6.877 0 00-3.46 3.16l-.57 1.05z" fill="#313131"/><path d="M380.34 145c-.609.405-1.175.87-1.69 1.39a.498.498 0 00.355.827.5.5 0 00.345-.117 9.49 9.49 0 011-.89l-.1.07c.19-.14.38-.28.58-.41a.505.505 0 00.056-.833.514.514 0 00-.556-.037h.01zm-3.09-.93a10.47 10.47 0 010 1.68.501.501 0 001 0 10.47 10.47 0 000-1.68.572.572 0 00-.14-.35.528.528 0 00-.36-.15.51.51 0 00-.5.5z" fill="#313131"/></g><defs><clipPath id="clip0_5201_5063"><path fill="#fff" d="M0 0h385.27v240.47H0z"/></clipPath></defs></svg>