<svg width="429" height="243" fill="none" xmlns="http://www.w3.org/2000/svg"><g clip-path="url(#clip0_5201_5437)"><path d="M303.52 15.2a41.172 41.172 0 0118.06 3.53 6.29 6.29 0 006.69-1.27 28.706 28.706 0 0134.719-3.34 28.71 28.71 0 018.861 8.67c.24.36.47.73.69 1.11 1.19 1.73 3.9 4.94 8.05 5.65 5 .86 8.08-4.37 8.08-4.37v.15a21.95 21.95 0 11-.35 26.05.268.268 0 000-.08c-.22-.31-.43-.63-.64-1a8.565 8.565 0 00-7.14-3c-4.89.09-8 5.75-8 5.75a28.73 28.73 0 01-46.55 4c-2.47-2.9-9.7-6.6-12.29-3.8l-5.05-4.72s4.57-5.31 2-8.86c-2.57-3.55-3.94-3.24-3.94-3.24l-3.79.55s-1.65 2.91-1.5 2.62c.15-.29-4.51.29-5.5-3.57-1.46-5.69-11.74-6.29-13.9-6.83-.02.08-.02-12.92 21.5-14z" fill="#1280FF"/><path d="M281.66 28.93c-1.29 1.34-.67 3.68-.37 5.3a56.332 56.332 0 002.19 7.2c.8 2.46 1.11 4.8-.21 7.11-.72 1.27-1.76 2.69-1.67 4.22.11 1.84 1.94 2.47 3.27 3.32 1.77 1.13 2.87 3 4 4.72a15.52 15.52 0 003.57 4.43 6.318 6.318 0 005 1c4-.74 7.52-4.34 8.62-8.22a.527.527 0 00-.051-.393.517.517 0 00-.949.123 11.001 11.001 0 01-7.25 7.37 5.48 5.48 0 01-5.53-1.32 23.272 23.272 0 01-3-4.22 15.228 15.228 0 00-2.91-3.63c-1.15-1-3.75-1.63-3.71-3.41 0-1.48 1.26-2.85 1.9-4.11a7.33 7.33 0 00.64-4.4c-.34-2.4-1.4-4.61-2.1-6.91a27.574 27.574 0 01-.82-3.34c-.2-1.09-.74-3.18.15-4.11.44-.46-.26-1.17-.71-.7l-.06-.03z" fill="#313131"/><path d="M290.57 54.34c0 .12-.06.23-.1.35l-.06.18v.15l-.08.16c-.05.11-.12.21-.18.32l-.21.29a.277.277 0 01-.07.08c-.033.05-.07.096-.11.14-.174.18-.357.35-.55.51a.477.477 0 00-.112.541c.026.06.064.114.112.16a.499.499 0 00.7 0 4.89 4.89 0 001.72-2.7.522.522 0 00-.35-.62.51.51 0 00-.61.35l-.1.09zm-3.74-10.02l.22.68a.56.56 0 00.23.3.642.642 0 00.18.06.441.441 0 00.2 0 .497.497 0 00.366-.423.5.5 0 00-.016-.197l-.21-.68a.512.512 0 00-.23-.29.33.33 0 00-.19-.06.28.28 0 00-.2 0 .467.467 0 00-.3.23.506.506 0 00-.05.38zm2.62-6.05a6.201 6.201 0 00-4.46.3.495.495 0 00-.18.68.51.51 0 00.68.18 5.25 5.25 0 013.7-.2c.61.19.88-.77.26-1v.04zM301.86 40a3.692 3.692 0 014.14-3 5.246 5.246 0 013.94 2.45 5.645 5.645 0 01.33 5.11c-.55 1.61-1.3 3.39-2.93 4.16-.58.27-.07 1.13.51.86a6.312 6.312 0 002.92-3.53 8.53 8.53 0 00.83-5.24 6.252 6.252 0 00-6.88-4.74 4.481 4.481 0 00-3.8 3.66c-.08.63.88.9 1 .27h-.06z" fill="#313131"/><path d="M305.19 38.64a2.796 2.796 0 00-1.87 2.19 10.265 10.265 0 000 3.54.519.519 0 001-.27 9.59 9.59 0 01-.07-2.83 1.9 1.9 0 011.21-1.66.515.515 0 00.365-.635.515.515 0 00-.433-.378.52.52 0 00-.202.013v.03zm1.88 4.2V43a.165.165 0 000 .07c0-.08 0 .11 0 0a2.925 2.925 0 01-.07.32c0 .06 0 .12-.05.17v.08a.61.61 0 00-.07.14c0 .06 0 .11-.08.16l-.09.13c-.037.048-.07.098-.1.15 0 0 .05-.07 0 0l-.06.07-.12.13a1.364 1.364 0 01-.25.22c.05 0 .06 0 0 0l-.08.05a.557.557 0 01-.15.1.501.501 0 00.128.92.501.501 0 00.382-.06 3.33 3.33 0 001.63-2.79.503.503 0 00-.5-.5.512.512 0 00-.5.5l-.02-.02zm6.11 10.62a21.85 21.85 0 002.2 5.74c.38.7.79 1.4 1.19 2.09.15.26.31.51.45.78s.23.44.26.52c.23.59 1.2.33 1-.27a32.165 32.165 0 00-1.88-3.4 21.421 21.421 0 01-2.23-5.73c-.13-.62-1.1-.36-1 .27h.01zM199.43 10.45a7.48 7.48 0 006.28-1.18 5.632 5.632 0 002-3.1c.255-1.23.335-2.488.24-3.74a.503.503 0 00-.5-.5.5.5 0 00-.5.5c.09 1.12.03 2.247-.18 3.35a4.664 4.664 0 01-1.64 2.7 6.39 6.39 0 01-5.4 1c-.62-.15-.89.81-.27 1l-.03-.03z" fill="#313131"/><path d="M206.91 1.93a16.778 16.778 0 00.39 3.94 6.32 6.32 0 002.06 3.24 7.69 7.69 0 005.94 1.51c.64-.1.37-1.07-.26-1h-.43a7.711 7.711 0 01-1.27 0 6 6 0 01-3.34-1.3 5.607 5.607 0 01-1.77-2.93 16.73 16.73 0 01-.29-3.46c0-.64-1-.64-1 0h-.03zm-5.19 8.73a4.389 4.389 0 013.91 2 6.35 6.35 0 011 2.15c.047.16.084.324.11.49.1.48 0-.07 0 .14v.39c.07 1.46.09 2.93.11 4.39a.503.503 0 00.5.5.5.5 0 00.5-.5c0-1.57 0-3.17-.13-4.74-.27-3-2.82-6.11-6-5.85-.64.05-.64 1.05 0 1v.03z" fill="#313131"/><path d="M207.88 20.25v-3.78c-.01-.92.221-1.826.67-2.63a5.279 5.279 0 012.71-2.56 14.086 14.086 0 013.53-.64c.63-.07.64-1.07 0-1-1.316.06-2.618.3-3.87.71a6.09 6.09 0 00-3.04 2.65 6.083 6.083 0 00-1 3c-.09 1.4 0 2.82 0 4.22a.503.503 0 00.5.5.501.501 0 00.5-.5v.03zm-55.25 139.24a5.752 5.752 0 004.86-.92 4.288 4.288 0 001.51-2.39c.198-.939.262-1.902.19-2.86 0-.64-1-.64-1 0a9.97 9.97 0 01-.13 2.5 3.347 3.347 0 01-1.21 2 4.712 4.712 0 01-3.95.73c-.63-.15-.89.81-.27 1v-.06z" fill="#313131"/><path d="M158.18 153a13.09 13.09 0 00.3 3 4.908 4.908 0 001.58 2.5 5.929 5.929 0 004.61 1.17.493.493 0 00.366-.463A.49.49 0 00165 159a.512.512 0 00-.62-.35h-.32a7.584 7.584 0 01-1 0 4.345 4.345 0 01-2.42-1 3.995 3.995 0 01-1.3-2.16 12.24 12.24 0 01-.22-2.57c0-.64-1-.64-1 0l.06.08zm-3.79 6.65a3.247 3.247 0 012.85 1.48c.334.483.578 1.021.72 1.59 0 .12.06.24.08.37.08.37 0-.09 0 .07v.3c.06 1.1.07 2.21.09 3.31a.5.5 0 101 0c0-1.19 0-2.39-.1-3.57-.2-2.32-2.18-4.75-4.67-4.55-.64.06-.64 1.06 0 1h.03z" fill="#313131"/><path d="M159.16 166.77v-2.86a3.779 3.779 0 01.49-1.91 3.84 3.84 0 012-1.88 10.201 10.201 0 012.62-.48c.64-.06.65-1.06 0-1-1 .044-1.99.225-2.94.54a4.743 4.743 0 00-2.38 2.08 4.855 4.855 0 00-.75 2.33c-.06 1 0 2.12 0 3.18a.5.5 0 101 0h-.04zM.36 59.34a5.73 5.73 0 004.85-.92A4.31 4.31 0 006.73 56a11 11 0 00.19-2.86c0-.64-1-.64-1 0a9.51 9.51 0 01-.14 2.5 3.39 3.39 0 01-1.2 2 4.73 4.73 0 01-4 .73c-.62-.16-.89.81-.26 1l.04-.03z" fill="#313131"/><path d="M5.9 52.8a13.11 13.11 0 00.3 3 4.93 4.93 0 001.59 2.5 5.91 5.91 0 004.6 1.17.492.492 0 00.35-.61.5.5 0 00-.61-.35s.16 0 0 0h-.32a7.689 7.689 0 01-1 0 4.41 4.41 0 01-2.42-1 4.16 4.16 0 01-1.3-2.16 13.72 13.72 0 01-.19-2.55c0-.64-1-.64-1 0zm-3.79 6.7A3.22 3.22 0 015 61a4.89 4.89 0 01.73 1.59c0 .12 0 .24.08.37.08.37 0-.09 0 .07v.3c0 1.1.07 2.21.08 3.31 0 .64 1 .64 1 0 0-1.19 0-2.39-.1-3.57-.2-2.32-2.18-4.75-4.67-4.55-.63.06-.64 1.06 0 1l-.01-.02z" fill="#313131"/><path d="M6.88 66.62v-2.86a3.88 3.88 0 01.49-1.91 3.84 3.84 0 012-1.88 10.173 10.173 0 012.63-.48c.63-.06.64-1.06 0-1A11 11 0 009 59a4.78 4.78 0 00-2.38 2.08 4.74 4.74 0 00-.74 2.33c-.07 1 0 2.12 0 3.18a.5.5 0 101 0v.03zM408.81 101a7.418 7.418 0 006.28-1.18c1-.776 1.706-1.87 2-3.1.25-1.23.331-2.488.24-3.74 0-.64-1-.64-1 0a13.005 13.005 0 01-.18 3.36 4.596 4.596 0 01-1.67 2.66 6.395 6.395 0 01-5.4 1c-.63-.15-.89.81-.27 1z" fill="#313131"/><path d="M416.28 92.44a17.33 17.33 0 00.39 3.94 6.43 6.43 0 002.06 3.24 7.73 7.73 0 005.95 1.51c.63-.1.36-1.07-.27-1h-.47c-.423.03-.847.03-1.27 0a6.108 6.108 0 01-3.33-1.33 5.62 5.62 0 01-1.76-2.94 17.283 17.283 0 01-.3-3.45c0-.64-1-.65-1 0v.03zm-5.18 8.72a4.413 4.413 0 013.91 2c.455.65.794 1.374 1 2.14 0 .17.07.33.11.49.09.49 0-.06 0 .15v.39c.08 1.46.09 2.93.12 4.39a.5.5 0 101 0c0-1.58 0-3.17-.14-4.74-.26-3-2.81-6.12-6-5.86-.64 0-.64 1 0 1v.04z" fill="#313131"/><path d="M417.26 110.76v-3.79a5.793 5.793 0 013.38-5.18 14.438 14.438 0 013.52-.65c.64-.06.64-1.06 0-1-1.312.066-2.61.305-3.86.71a6.781 6.781 0 00-4 5.69c-.09 1.4 0 2.81 0 4.22a.5.5 0 101 0h-.04zm-34.64 40.55a6.07 6.07 0 005.15-1 4.49 4.49 0 001.61-2.53c.202-.986.27-1.995.2-3 0-.64-1-.65-1 0a10.51 10.51 0 01-.14 2.68 3.636 3.636 0 01-1.3 2.12 5.008 5.008 0 01-4.25.79c-.63-.16-.89.81-.27 1v-.06z" fill="#313131"/><path d="M388.57 144.36a13.71 13.71 0 00.32 3.2 5.2 5.2 0 001.68 2.65 6.298 6.298 0 004.88 1.24.5.5 0 00.35-.62.522.522 0 00-.62-.35s.16 0 0 0h-.34a8.78 8.78 0 01-1 0 4.732 4.732 0 01-2.6-1 4.405 4.405 0 01-1.4-2.32 13.37 13.37 0 01-.23-2.76c0-.64-1-.64-1 0l-.04-.04zm-4.08 7.12a3.48 3.48 0 013.07 1.59 5.4 5.4 0 01.78 1.71c0 .13.05.26.08.39.08.4 0-.08 0 .09v.32c.06 1.17.08 2.35.1 3.53a.5.5 0 101 0c0-1.27 0-2.55-.11-3.81-.22-2.46-2.31-5-4.95-4.82-.64.05-.64 1.05 0 1h.03z" fill="#313131"/><path d="M389.55 159.11v-3.05a4.244 4.244 0 01.53-2.06 4.17 4.17 0 012.12-2 11.22 11.22 0 012.82-.51c.63-.06.64-1.07 0-1a11.94 11.94 0 00-3.14.57 5.566 5.566 0 00-3.31 4.67c-.07 1.13 0 2.27 0 3.4a.5.5 0 001 0l-.02-.02zM71 26.76a7.43 7.43 0 006.27-1.19 5.57 5.57 0 002-3.09 13.5 13.5 0 00.25-3.75c0-.64-1-.64-1 0 .08 1.123.02 2.252-.18 3.36a4.76 4.76 0 01-1.64 2.7 6.41 6.41 0 01-5.41 1 .516.516 0 10-.26 1l-.03-.03z" fill="#313131"/><path d="M78.49 18.24c-.02 1.324.11 2.646.39 3.94a6.43 6.43 0 002.06 3.24 7.71 7.71 0 006 1.51c.63-.1.36-1.07-.27-1h-.47c-.426.03-.854.03-1.28 0a6 6 0 01-3.32-1.33 5.57 5.57 0 01-1.76-2.93c-.22-1.14-.32-2.3-.3-3.46 0-.64-1-.64-1 0l-.05.03zM73.31 27a4.41 4.41 0 013.91 2 6.76 6.76 0 011 2.15c0 .16.07.32.1.48.1.49 0-.06 0 .15v.39c.07 1.46.09 2.93.12 4.39a.5.5 0 001 0c0-1.57 0-3.17-.14-4.74-.26-3-2.82-6.12-6-5.86-.64.06-.65 1.06 0 1l.01.04z" fill="#313131"/><path d="M79.47 36.56v-3.78a5.471 5.471 0 01.67-2.63 5.32 5.32 0 012.71-2.56 14.56 14.56 0 013.53-.65c.63-.06.64-1.06 0-1a15.21 15.21 0 00-3.86.71 6.781 6.781 0 00-4 5.69c-.09 1.4 0 2.82 0 4.22a.5.5 0 101 0h-.05zM190.42 25.8a6.711 6.711 0 005.68-1.07 5.062 5.062 0 001.78-2.8c.233-1.107.307-2.242.22-3.37a.503.503 0 00-.5-.5.5.5 0 00-.5.5 11.604 11.604 0 01-.16 3 4.108 4.108 0 01-1.46 2.44 5.696 5.696 0 01-4.79.89c-.63-.16-.9.81-.27 1v-.09z" fill="#313131"/><path d="M197.09 18.11a15.075 15.075 0 00.35 3.55 5.791 5.791 0 001.86 2.93 7.003 7.003 0 005.38 1.41.508.508 0 00.35-.62.507.507 0 00-.61-.35L204 25c-.379.03-.761.03-1.14 0a5.372 5.372 0 01-3-1.18 4.999 4.999 0 01-1.57-2.61 15.177 15.177 0 01-.26-3.09c0-.64-1-.64-1 0l.06-.01zm-4.6 7.89a3.92 3.92 0 013.46 1.8c.407.582.705 1.233.88 1.92l.09.43c.09.44 0-.07 0 .12v.35c.07 1.31.08 2.63.1 3.94 0 .64 1 .64 1 0 0-1.41 0-2.84-.12-4.25-.24-2.71-2.55-5.54-5.45-5.31-.64.05-.65 1.05 0 1h.04z" fill="#313131"/><path d="M198.06 34.55v-3.4a5.186 5.186 0 013-4.6 12.79 12.79 0 013.15-.58c.63-.06.64-1.06 0-1a13.615 13.615 0 00-3.48.64A5.522 5.522 0 00198 28a5.539 5.539 0 00-.88 2.72c-.08 1.26 0 2.53 0 3.79a.503.503 0 00.5.5.5.5 0 00.5-.5l-.06.04zm134.81 24.79a29.73 29.73 0 0035-5.74c.44-.47-.27-1.18-.71-.71a28.69 28.69 0 01-33.75 5.59c-.57-.3-1.08.56-.51.86h-.03z" fill="#313131"/><path d="M334.58 55a15.762 15.762 0 008.41 2.5.5.5 0 100-1 14.761 14.761 0 01-7.9-2.36c-.55-.35-1 .51-.51.86zm-7.77-19.14A27.478 27.478 0 00339 31.2c.53-.36 0-1.23-.5-.86a26.54 26.54 0 01-11.71 4.52c-.63.08-.63 1.08 0 1h.02zM367.15 26l3.57 3.73c.45.47 1.15-.24.71-.71l-3.57-3.72c-.44-.47-1.15.24-.71.7zm-77.44 109.64c-5.16-.75-10.35-1.35-15.53-1.89a209.543 209.543 0 00-27.77-1.55c-3.15.09-6.58.18-9.57 1.29-3.16 1.16-6.15 3.49-8.7 5.62-4.09 3.41-7.54 7.48-11.38 11.16-3.58 3.42-7.28 6.73-11 10-3.72 3.27-7.52 6.57-11.32 9.82-2.15 1.84-4.53 3.55-6.53 5.55l-.34.28.61-.08c-1.37-1-2.37 3.09-2.43 3.68-.46 4.28 2.39 8.48 5.41 11.23a19.746 19.746 0 0010.27 4.87c1.18.18 2.82.57 3.93 0 2-1.09 3.93-2.42 5.88-3.62l7.6-4.67c2.4-1.48 4.8-3 7.12-4.6a96.17 96.17 0 007-5.35 20.203 20.203 0 002.87-2.59L246 162.46l-.48.13c4.82 1.473 9.653 2.917 14.5 4.33 7.37 2.15 14.76 4.36 22.29 5.89a59.893 59.893 0 0016.93 1.43 43.383 43.383 0 0016.18-4.79 35.215 35.215 0 0012.27-10 46.903 46.903 0 006.31-12.66 69.589 69.589 0 003.55-19.18c.436-8.398.124-16.817-.93-25.16A108.904 108.904 0 00331.44 79c-2.15-6-5.28-11.58-10.17-15.79a3.997 3.997 0 00-4.13-.94 33.557 33.557 0 00-11.67 6 16.676 16.676 0 00-4 5c-2.45 4.48-4 9.39-6.2 14A19.557 19.557 0 00293 95a16.167 16.167 0 001.82 7.1 71.586 71.586 0 004.06 7.06c.34.55 1.2 0 .86-.5-2.67-4.33-6.39-9.4-5.64-14.78.4-2.86 1.83-5.39 3-8 1-2.16 1.82-4.38 2.74-6.57a48.245 48.245 0 013.32-6.82 15.426 15.426 0 014.44-4.59 34.285 34.285 0 015.9-3.26c.94-.413 1.902-.777 2.88-1.09a7.842 7.842 0 012.55-.56c.93.07 1.78 1 2.4 1.61.62.61 1.46 1.59 2.19 2.38a24.59 24.59 0 012.45 2.94 38.145 38.145 0 014.05 8 99.798 99.798 0 015.29 21.83A146.233 146.233 0 01336.7 124c-.18 6.72-.73 13.66-2.82 20.09A65.439 65.439 0 01330 154a32.003 32.003 0 01-10.72 12 43.59 43.59 0 01-15.28 6.54 46.678 46.678 0 01-16.75.13 186.756 186.756 0 01-22.85-5.55c-5.847-1.68-11.683-3.41-17.51-5.19l-1-.32a.48.48 0 00-.48.13l-8.57 10.39-1.7 2.06a21.125 21.125 0 01-3 2.62 108.814 108.814 0 01-11.74 8.39c-4 2.467-8 4.923-12 7.37l-2.73 1.68c-.25.15-.5.29-.73.45-.07.05-.52.27-.23.18.29-.09-.18 0-.28 0h-1.22a19.908 19.908 0 01-4-.73 18.376 18.376 0 01-11.34-9.37 9 9 0 01-1-5.8 5.175 5.175 0 01.61-1.6c.07-.11.3-.33.33-.45.09-.33.33.16-.12-.17a.509.509 0 00.61-.07c4.98-4.18 9.923-8.413 14.83-12.7 3.85-3.37 7.69-6.76 11.45-10.24 3.47-3.2 6.65-6.63 10-9.95a52.233 52.233 0 0111-8.52c2.51-1.42 5.38-1.72 8.22-1.91 9-.59 18.06.23 27 1.08 6.16.59 12.28 1.42 18.41 2.16h.3c.63.09.9-.87.26-1l-.06.03zM335.32 224c-1.58 0-3.07-1.17-5.17-3.14a16.152 16.152 0 01-2.69-3.28c-1.07-1.6-2.18-3.26-6.58-6.33-8.4-5.85-26.1-13.94-26.28-14l.42-.91c.17.08 18 8.21 26.43 14.11 4.56 3.18 5.72 4.92 6.84 6.6a14.98 14.98 0 002.55 3.1c3.31 3.1 4.45 3.48 6.41 2.14 4.24-2.9 1.92-10.47-1.09-14.93a33.89 33.89 0 00-4.92-5.51 21.548 21.548 0 01-3.23-3.55 17.73 17.73 0 01-1.61-4.75c-.65-2.6-1.38-5.55-2.92-7.26-1.1-1.22-5-5-9.39-2.93-5.49 2.64-13 .12-13.29 0l.33-.95c.07 0 7.41 2.5 12.52 0 5.11-2.5 9.36 1.81 10.57 3.16 1.71 1.9 2.48 5 3.15 7.69.289 1.549.79 3.049 1.49 4.46a20.493 20.493 0 003.07 3.35 34.425 34.425 0 015.06 5.69c3.24 4.79 5.63 13 .82 16.31a4.374 4.374 0 01-2.49.93z" fill="#313131"/><path d="M159.31 223c-3.89 0-7.52-1.2-8.72-4.53-1.13-3.12.45-4.55 4.07-6.86a16.246 16.246 0 013.85-1.8c1.82-.63 3.7-1.29 7.76-4.79 7.76-6.68 20-21.81 20.12-22l.78.63c-.12.15-12.42 15.35-20.25 22.09-4.2 3.62-6.18 4.31-8.08 5a14.841 14.841 0 00-3.64 1.7c-3.83 2.43-4.48 3.44-3.67 5.67 1.75 4.83 9.66 4.47 14.73 2.67a34.402 34.402 0 006.57-3.4 20.914 20.914 0 014.23-2.24 17.358 17.358 0 015-.38c2.68 0 5.72 0 7.77-1 1.45-.76 6.12-3.6 5.17-8.36-1.2-6 2.32-11.22 2.47-11.44l.83.56c0 .05-3.43 5.13-2.32 10.68 1.11 5.55-4.08 8.61-5.69 9.45-2.27 1.18-5.44 1.15-8.24 1.14a16.754 16.754 0 00-4.68.33 20.24 20.24 0 00-4 2.14 34.586 34.586 0 01-6.76 3.49 22.513 22.513 0 01-7.3 1.25zm77.45-49.74a84.016 84.016 0 009.83 4.78c2.48 1 4.92 2 7.33 3.09 6.43 3 12.75 6.18 19 9.43 4.667 2.413 9.333 4.857 14 7.33a4.63 4.63 0 002.07.72 9.997 9.997 0 007.11-2.38c6.24-5.25 6.5-15.74 3.35-22.73-.27-.59-1.13-.08-.87.5 2.89 6.41 2.66 15.71-2.5 20.89a8.995 8.995 0 01-7.21 2.71 3.056 3.056 0 01-.53-.08h-.06c-.39-.17-.76-.41-1.14-.61-10.41-5.56-20.87-11.08-31.55-16.08-2.54-1.19-5.1-2.34-7.72-3.34a85.001 85.001 0 01-10.6-5.06c-.56-.31-1.07.55-.5.86l-.01-.03zM58 69.57a1.85 1.85 0 111.85-1.85A1.838 1.838 0 0158 69.57zm0-2.69a.85.85 0 10.184 1.69.85.85 0 00-.184-1.69zM318.46 3.69a1.851 1.851 0 01-1.825-2.208 1.852 1.852 0 012.528-1.349A1.848 1.848 0 01320.3 1.85a1.85 1.85 0 01-1.84 1.84zm0-2.69a.849.849 0 10-.02 1.698.849.849 0 00.02-1.698zm49.13 85.39a1.852 1.852 0 01-1.814-2.214 1.853 1.853 0 012.529-1.342 1.85 1.85 0 011.135 1.716 1.842 1.842 0 01-1.85 1.84zm0-2.69a.85.85 0 100 1.7.85.85 0 000-1.7zM123 4.21a1.85 1.85 0 110-3.7 1.85 1.85 0 010 3.7zm0-2.69a.848.848 0 00-.833 1.02.853.853 0 001.165.613A.851.851 0 00123 1.52zm178.91 61.54a21.751 21.751 0 011.23 7.71.503.503 0 00.5.5.5.5 0 00.5-.5 22.498 22.498 0 00-1.27-8c-.21-.61-1.18-.35-1 .26l.04.03zm22.22 15.6c2.94 5.67 3.48 12.62 4.07 18.87.59 6.25 1 12.5-.49 18.53-2.83 11.41-13.25 18.94-24.61 20.32a34.179 34.179 0 01-16.74-1.87c-4.72-1.94-8.72-6.23-7-11.64a8.526 8.526 0 014.62-5.26c2.45-1 5.22-1 7.7-2.09a18.885 18.885 0 009.82-9.52c2.74-6.12 1.44-12.92 1.78-19.38.32-6.08 3.1-13.94 10.31-14.3.64 0 .64-1 0-1-5.42.27-9.2 4.92-10.52 9.85-1.76 6.57 0 13.42-1.18 20.06a17.833 17.833 0 01-10 13.14c-2.65 1.24-5.64 1.2-8.3 2.35a9.425 9.425 0 00-4.67 4.7c-2.1 4.55-.33 9.33 3.63 12.15 4.53 3.22 10.73 4.08 16.15 4.08 11.5 0 23.19-5.67 28.26-16.39 3.13-6.62 3-14.15 2.48-21.3-.3-3.9-.76-7.8-1.4-11.66a33.737 33.737 0 00-3-10.13c-.3-.57-1.16-.07-.87.5l-.04-.01z" fill="#313131"/><path d="M292.67 137.25c5.78 4.35 12.63 6.57 19.58 8.29a139.794 139.794 0 0017.37 3.16c1.08.13 2.16.25 3.25.32.64 0 .64-1 0-1a109.855 109.855 0 01-14.2-2.07c-8.89-1.79-18.12-4-25.5-9.57-.51-.38-1 .48-.5.87zm-37.32-20.63L226.07 74.2l-12 8.46 29.45 31.72-.74.68L213 82.92a.495.495 0 01-.14-.39.528.528 0 01.21-.35l12.89-9.09a.509.509 0 01.38-.09.538.538 0 01.32.21l29.56 42.84-.87.57zm1.81 13.71a.456.456 0 01-.37-.16l-2.82-3 .74-.68 2.24 2.42.28-.83.94.31-.54 1.64a.481.481 0 01-.37.33l-.1-.03z" fill="#313131"/><path d="M252.49 115a12.16 12.16 0 01-2-2.42 5.335 5.335 0 00-2.51-1.8c-1.88-.7-3.08-2.41-4.08-4.06a4 4 0 00-1.43-1.72 2.633 2.633 0 00-2.26.07c-1.49.83-1 2.78-.61 4.08a16.442 16.442 0 003.24 5.95c.43.48 1.14-.23.7-.7a14.77 14.77 0 01-2.74-4.86c-.34-.91-1.32-3.19.07-3.66a1.382 1.382 0 011.76.67c.36.57.69 1.15 1.06 1.7a8.595 8.595 0 003.73 3.39 5.062 5.062 0 011.56.77c.394.36.746.762 1.05 1.2a9.75 9.75 0 002 2.25c.52.38 1-.48.5-.86h-.04z" fill="#313131"/><path d="M234.12 106c-1.17 4.09.26 8.11 2.86 11.32 1.82 2.25 4.07 3.5 6.59 4.85A133.755 133.755 0 00269 132.66a75.623 75.623 0 0018.32 3.24c.65 0 .65-1 0-1-10.74-.41-21.34-3.77-31.19-7.89a128.592 128.592 0 01-9.82-4.58c-2.39-1.24-5.16-2.37-7.12-4.24-3.22-3.08-5.38-7.5-4.1-12a.524.524 0 00-.055-.392.505.505 0 00-.315-.238.524.524 0 00-.392.055.519.519 0 00-.238.315l.03.07z" fill="#313131"/><path d="M252.33 116c9 2.53 18.54 3.09 27.8 4.43.63.1.9-.87.26-1-9.26-1.35-18.75-1.91-27.79-4.43a.529.529 0 00-.393.051.51.51 0 00-.242.314.522.522 0 00.365.635zm101.78 85.34h-23v-1h23a1.004 1.004 0 00.985-.64c.05-.13.072-.27.065-.41v-21.81a.994.994 0 00-.31-.725 1.002 1.002 0 00-.74-.275v-1a2.05 2.05 0 012.05 2v21.81c0 .544-.216 1.065-.6 1.45-.385.384-.906.6-1.45.6zm-50.87 0h-92.01V191.1h1v9.24h91.01v1zm-60.84-25.91h-8.45v1h8.45v-1z" fill="#313131"/><path d="M353.27 204.44H334v-1h19.24a7.54 7.54 0 007.53-7.54v-15a7.542 7.542 0 00-7.53-7.53H305.2v-1h48.07a8.541 8.541 0 018.53 8.53v15a8.548 8.548 0 01-8.53 8.54zm-43.95 0h-98.73a2.053 2.053 0 01-1.45-.6 2.053 2.053 0 010-2.899 2.05 2.05 0 011.45-.601h89.78a.5.5 0 010 1h-89.78a1.048 1.048 0 00-1.05 1.05 1.05 1.05 0 001.05 1.05h98.73a.5.5 0 01.5.5.513.513 0 01-.5.5z" fill="#313131"/><path d="M354.11 201.34H330.9v-1h23.21a1.004 1.004 0 00.985-.64c.05-.13.072-.27.065-.41v-21.81a.994.994 0 00-.31-.725 1.002 1.002 0 00-.74-.275H300v-1h54.11a2.05 2.05 0 012.05 2v21.81c0 .544-.216 1.065-.6 1.45-.385.384-.906.6-1.45.6z" fill="#313131"/><path d="M355.57 177.5h-54.71v1h54.71v-1zm-107.21 0h-16.92v1h16.92v-1zm107.21 2.31h-54.88v1h54.88v-1zm-102.23 0h-24.89v1h24.89v-1zm102.22 2.32h-36.24v1h36.24v-1zm-40.99 0h-13.72v1h13.72v-1zm-56.66 0h-32.7v1h32.7v-1zm97.65 2.31h-32.73v1h32.73v-1zm-92.57 0h-41.27v1h41.27v-1zm92.58 2.32h-30.8v1h30.8v-1zm-87.97 0h-49.7v1h49.7v-1zm87.97 2.32H325.8v1h29.77v-1zm-83.43 0h-57.63v1h57.63v-1zm83.42 2.31h-29.07v1h29.07v-1zm-78.95 0h-64.88v1h64.88v-1zm78.96 2.32h-28.49v1h28.49v-1zm-74.54 0h-69.3v1h69.3v-1zm74.53 2.32h-27.73v1h27.73v-1zm-70.16 0h-73.67v1h73.67v-1zm70.16 2.31h-26.55v1h26.55v-1zm-56.42 0h-87.41v1h87.41v-1zm67.38 38.74H200.08v-30h115.63v1H201.08v28h165.44a1.311 1.311 0 001.31-1.31v-25.42a1.313 1.313 0 00-1.31-1.3h-27.79v-1h27.79a2.31 2.31 0 012.31 2.3v25.42a2.321 2.321 0 01-2.31 2.31z" fill="#313131"/><path d="M365.54 240.69H199.25a2.317 2.317 0 01-1.731-.618 2.326 2.326 0 01-.731-1.687 2.31 2.31 0 012.462-2.305h167.27a1.311 1.311 0 001.31-1.31v-25.42a1.311 1.311 0 00-1.31-1.3h-29.44v-1h29.44a2.31 2.31 0 012.31 2.3v25.42a2.317 2.317 0 01-2.31 2.31H199.25a1.302 1.302 0 00-1.313.778 1.295 1.295 0 000 1.055 1.301 1.301 0 00.778.713c.172.058.354.08.535.064h166.29a8.88 8.88 0 008.86-8.86V213.3a8.871 8.871 0 00-8.86-8.86h-29.22v-1h29.22a9.873 9.873 0 019.86 9.86v17.53a9.88 9.88 0 01-9.86 9.86zm-49.83-32.64H199.25a2.3 2.3 0 01-1.731-.619 2.322 2.322 0 01-.731-1.686 2.307 2.307 0 011.532-2.175 2.3 2.3 0 01.93-.13h110.07v1H199.25a1.296 1.296 0 00-.535.065 1.3 1.3 0 00-.778.712 1.3 1.3 0 000 1.056 1.311 1.311 0 001.313.777h116.46v1z" fill="#313131"/><path d="M368.22 209.45h-29.79v1h29.79v-1zm-48.49 0H200.58v1h119.15v-1zm48.49 2.7h-28.74v1h28.74v-1zm-44.77 0H200.58v1h122.87v-1zm44.77 2.7h-28.24v1h28.24v-1zm-41.86 0H200.58v1h125.78v-1zm41.86 2.7h-28.04v1h28.04v-1zm-39.88 0H200.58v1h127.76v-1zm39.88 2.7h-29.07v1h29.07v-1zm-37.61 0H200.58v1h130.03v-1zm37.61 2.7h-32.16v1h32.16v-1zm-33.47 0H200.58v1h134.17v-1zm33.47 2.7H200.58v1h167.64v-1zm0 2.7H200.58v1h167.64v-1zm0 2.7H200.58v1h167.64v-1zm0 2.7H200.58v1h167.64v-1z" fill="#313131"/><path d="M174 105.86a67.157 67.157 0 00-79.18 44.31c-3.32 9.82-4.53 20.22-4.94 30.54h3.38c.66-16.7 3.85-33.45 13.9-47.2a63.868 63.868 0 0166-24.43c2.06.52 2.96-2.73.84-3.22z" fill="#1280FF"/><path d="M173 85.6s-12.27-4-23.43 2.1-2.14 6.49-3.84 18.14c-1.7 11.65-13.22 19.36-6.73 25.56 6.49 6.2 15.35 3.51 15.35 3.51l3.51-7.56s1.21 9.76 9.19 9c7.98-.76 17.4-7.56 17.4-7.56s-14.91-12.24-10.53-15.59c4.38-3.35 14.53 13.27 14.53 13.27s9.87-5.46 9.61-14.78c-.26-9.32-14.93-21.71-16.12-22-1.19-.29-17.94 7.18-19.81 3.57C160.26 89.65 173 85.6 173 85.6zm-70.19 78.5c-.13 5.51-.26 11 0 16.53 1.104-.09 2.213-.12 3.32-.09-.49-12.89 1-25.85-.47-38.7-1.63-13.82-7-27.63-19.26-35.25a28.203 28.203 0 00-20.54-4c-2.12.44-1.22 3.68.89 3.24 12.39-2.57 24.25 6.11 29.86 16.59 6.76 12.66 6.54 27.67 6.2 41.68z" fill="#1280FF"/><path d="M83.72 106.12c-1.1-.55-2.65-5.91-9.52-10.21a27.33 27.33 0 00-13.65-4.18s11 6.09 9.14 10.17c-1.86 4.08-19.92-9.81-19.92-9.81s-20.12-.82-21.73 12c-1.61 12.82 5 16.27 5 16.27s16.65-15.09 22.49-13.07c5.84 2.02 7.47 6.83-1.27 8.15-8.74 1.32-18.49 7.73-18.49 7.73s2.74 5.4 13.57 9.77c10.83 4.37 16.07 1.36 18.3-2.73 2.23-4.09 3.27-15.86 6.25-14.59 2.98 1.27-6.08 21.1-6.08 21.1a15.206 15.206 0 0014-.4c5.68-2.95 5.36-6.31 5.36-6.31s.78-2.46-1.28-9.63c-2.06-7.17-.07-4.45 3 1.38s1.87 10.8 3.84 8.33c1.97-2.47 5.44-16.82-9.01-23.97zm43.71-63.93C116.71 57.24 112.85 75.81 112.07 94c-.88 20.46 2.25 40.77 3 61.17.371 8.472.1 16.96-.81 25.39 1.12 0 2.25 0 3.37.07 2-17.38.36-35-1-52.42-1.49-18.83-2.58-38.06 1.7-56.63a76.993 76.993 0 0112-27.66c1.27-1.8-1.65-3.48-2.9-1.73z" fill="#1280FF"/><path d="M113.27 80.39s1.75 10.39 18 8.87c16.25-1.52 18.9-7 18.9-7s-24.38-1.46-24.11-7c.27-5.54 6.46-2 15.16-.92s15.38 1.32 18-.15c2.62-1.47 10.62-16.11 9.06-16.05-1.56.06-13.87 6.46-19.48.83-5.61-5.63 13.76-3 19.05-7.26 5.29-4.26 10.32-13.35 4.63-19.86S149.35 27 149.35 27s-7.95 23.75-11.64 22c-3.69-1.75 3.71-18.89 3.71-18.89s-11 3.76-16.65 5.85a23.412 23.412 0 00-9.18 6.43s5.4 20.11.73 20.36-4.48-6.09-4.19-11.37c.29-5.28 2.07-11.38.87-11.25-1.2.13-17.49 13.27-13.21 25.63 4.28 12.36 13.48 14.63 13.48 14.63z" fill="#1280FF"/><path d="M108.32 242.16h-6.9a26.869 26.869 0 01-26.83-26.83v-30.72a4.24 4.24 0 014.24-4.24h52.07c1.125 0 2.205.447 3.002 1.241a4.256 4.256 0 011.248 2.999v30.72a26.872 26.872 0 01-26.83 26.83zm-29.49-60.79a3.252 3.252 0 00-3.24 3.24v30.72a25.86 25.86 0 0025.83 25.83h6.9a25.863 25.863 0 0025.83-25.83v-30.72a3.254 3.254 0 00-.955-2.292 3.254 3.254 0 00-2.295-.948H78.83z" fill="#313131"/></g><defs><clipPath id="clip0_5201_5437"><path fill="#fff" d="M0 0h428.09v242.16H0z"/></clipPath></defs></svg>