<svg width="386" height="245" fill="none" xmlns="http://www.w3.org/2000/svg"><g clip-path="url(#clip0_5201_4581)"><path d="M135.36 83.02c16.602 0 30.06-13.458 30.06-30.06 0-16.602-13.458-30.06-30.06-30.06-16.602 0-30.06 13.458-30.06 30.06 0 16.602 13.458 30.06 30.06 30.06z" fill="#FFA800"/><path d="M147.21 32.82a7.319 7.319 0 006.19-1.17 5.523 5.523 0 001.95-3.06c.25-1.213.331-2.455.24-3.69 0-.64-1-.64-1 0 .08 1.106.02 2.219-.18 3.31a4.59 4.59 0 01-1.62 2.65 6.31 6.31 0 01-5.32 1 .518.518 0 00-.63.37.516.516 0 00.37.63v-.04z" fill="#313131"/><path d="M154.57 24.41a16.862 16.862 0 00.43 3.89 6.272 6.272 0 002 3.2 7.643 7.643 0 005.86 1.5c.63-.1.36-1.07-.27-1h-.42c-.42.025-.84.025-1.26 0a5.929 5.929 0 01-3.27-1.31 5.47 5.47 0 01-1.73-2.89 16.191 16.191 0 01-.3-3.41c0-.64-1-.64-1 0l-.04.02zm-5.1 8.59a4.333 4.333 0 013.85 2 6.497 6.497 0 011 2.11c0 .16.08.32.11.48.09.48 0-.06 0 .14v.39c.08 1.44.09 2.89.12 4.33a.503.503 0 00.5.5.501.501 0 00.5-.5c0-1.55 0-3.13-.14-4.67-.26-3-2.78-6-5.94-5.79-.64 0-.65 1 0 1V33z" fill="#313131"/><path d="M155.55 42.48v-3.73a5.325 5.325 0 01.65-2.59 5.239 5.239 0 012.67-2.52 14.15 14.15 0 013.48-.64c.63-.06.64-1.06 0-1a14.895 14.895 0 00-3.81.7 6.677 6.677 0 00-4 5.61c-.09 1.39 0 2.78 0 4.17a.503.503 0 00.5.5.5.5 0 00.5-.5h.01zM75.61 78.5a7.37 7.37 0 006.2-1.16 5.45 5.45 0 001.94-3.06c.253-1.213.337-2.454.25-3.69a.5.5 0 00-1 0 12.677 12.677 0 01-.17 3.31 4.64 4.64 0 01-1.62 2.65 6.322 6.322 0 01-5.32 1c-.62-.15-.89.81-.27 1l-.01-.05z" fill="#313131"/><path d="M83 70.1c-.03 1.31.09 2.618.36 3.9a6.35 6.35 0 002 3.19 7.581 7.581 0 005.87 1.49c.64-.1.37-1.06-.26-1h-.42a7.475 7.475 0 01-1.25 0A6 6 0 0186 76.4a5.48 5.48 0 01-1.74-2.9 16.115 16.115 0 01-.26-3.4c0-.64-1-.65-1 0zm-5.13 8.61a4.32 4.32 0 013.85 2 6.47 6.47 0 011 2.12c0 .16.07.32.1.48.1.48 0-.06 0 .14v.39c.07 1.44.09 2.88.11 4.32a.5.5 0 001 0c0-1.55 0-3.12-.13-4.67-.26-2.95-2.78-6-5.95-5.78-.64.05-.64 1.05 0 1h.02z" fill="#313131"/><path d="M84 88.16v-3.73a5.3 5.3 0 01.66-2.58 5.17 5.17 0 012.67-2.52 13.621 13.621 0 013.47-.64c.64-.06.64-1.06 0-1a14.48 14.48 0 00-3.81.7A6.74 6.74 0 0083 84c-.08 1.38 0 2.78 0 4.16a.5.5 0 001 0zM138.32 48a6.652 6.652 0 005.61-1.06 4.996 4.996 0 001.76-2.77 12.01 12.01 0 00.21-3.32.503.503 0 00-.5-.5.501.501 0 00-.5.5c.075.986.025 1.977-.15 2.95a4.11 4.11 0 01-1.44 2.36 5.57 5.57 0 01-4.72.87.517.517 0 10-.27 1V48z" fill="#313131"/><path d="M144.89 40.37a14.708 14.708 0 00.35 3.5 5.623 5.623 0 001.83 2.89 6.85 6.85 0 005.32 1.35.508.508 0 00.35-.62.52.52 0 00-.62-.35s.15 0 0 0h-.38c-.376.03-.754.03-1.13 0A5.269 5.269 0 01147.7 46a4.861 4.861 0 01-1.55-2.57 14.727 14.727 0 01-.26-3c0-.64-1-.65-1 0v-.06zm-4.53 7.77a3.848 3.848 0 013.41 1.78c.398.57.69 1.207.86 1.88 0 .15.07.29.1.43.08.44 0-.07 0 .12v.34c.07 1.3.09 2.59.11 3.89a.503.503 0 00.5.5.501.501 0 00.5-.5c0-1.4 0-2.81-.12-4.2-.24-2.67-2.52-5.47-5.39-5.24-.64.06-.64 1.06 0 1h.03z" fill="#313131"/><path d="M145.87 56.58v-3.35a5.091 5.091 0 012.95-4.53 12.195 12.195 0 013.11-.57c.63-.06.64-1.06 0-1-1.17.053-2.327.265-3.44.63a5.422 5.422 0 00-2.73 2.4 5.493 5.493 0 00-.87 2.68c-.07 1.24 0 2.49 0 3.74a.503.503 0 00.5.5.5.5 0 00.5-.5h-.02zm51.76 84.68c-.23-.16-23.11-17.19-41.68-83C148.65 32.42 143.53.81 143.48.49l1-.16c.05.32 5.16 31.88 12.44 57.69 18.45 65.37 41.08 82.27 41.3 82.43l-.59.81zM51.71 126l-.92-.38c7.14-17.47 12.31-39.76 15.38-66.25C69.26 32.7 69.27.73 69.27.41h1c0 .32 0 32.35-3.11 59.05-3.11 26.7-8.27 48.96-15.45 66.54zm159.74-63.88c-1.46-2.19-2.87-4.33-4.23-6.44C187 24.39 176.8 1.53 177.26 0l1 .29-.48-.14.49.06c0 1.28 8.7 22.24 29.83 54.93 1.36 2.1 2.76 4.24 4.22 6.43l-.87.55zm-6.06-35.61a105.593 105.593 0 01-6.86-13c-4-8.63-5.36-11.78-5.71-13l1-.29c.33 1.13 1.76 4.37 5.66 12.85A105.27 105.27 0 00206.22 26l-.83.51z" fill="#313131"/><path d="M197.92 100.22h-91.28a1.646 1.646 0 01-1.288-.611 1.637 1.637 0 01-.322-1.389c.43-2 2.16-5.6 8.93-8.06a43.468 43.468 0 0111.83-2.63 3.782 3.782 0 003.47-3.21c.72-4.4 3.18-10.81 10.81-16.36a34.421 34.421 0 0120.12-6.86 3.729 3.729 0 003.6-2.73c1.06-3.82 4.13-11.3 12.88-18.4 13.59-11 26.75-10.65 33.38-9.44a4.19 4.19 0 004.64-2.65c1.73-4.53 6.12-10.73 17.17-14.53l.32.94c-10.68 3.68-14.9 9.62-16.56 14a5.196 5.196 0 01-5.75 3.28c-6.47-1.19-19.29-1.56-32.57 9.23-8.53 6.93-11.52 14.18-12.55 17.88a4.73 4.73 0 01-4.56 3.47 33.501 33.501 0 00-19.54 6.67c-7.35 5.35-9.71 11.49-10.4 15.71a4.78 4.78 0 01-4.39 4.05 42.208 42.208 0 00-11.56 2.57c-6.32 2.3-7.91 5.58-8.3 7.34a.63.63 0 00.13.53.661.661 0 00.51.24h91.28v.96z" fill="#313131"/><path d="M83.44 204.65a9.524 9.524 0 01-5.44-1.59 6.327 6.327 0 00-6.92 0 10.147 10.147 0 01-10.91 0 6.31 6.31 0 00-6.91 0 10.138 10.138 0 01-10.9 0 5.78 5.78 0 00-3.46-1v-3.94a9.517 9.517 0 015.45 1.59 6.327 6.327 0 006.92 0 10.138 10.138 0 0110.9 0 6.31 6.31 0 006.91 0 10.148 10.148 0 0110.91 0 5.78 5.78 0 003.46 1l-.01 3.94z" fill="#1280FF"/><path d="M72.06 235.16H50.28a11.902 11.902 0 01-11.89-11.88V194.7a3.12 3.12 0 013.12-3.12h39.31a3.12 3.12 0 013.12 3.12v28.58a11.893 11.893 0 01-11.88 11.88zm-30.55-42.58a2.118 2.118 0 00-2.12 2.12v28.58a10.889 10.889 0 0010.89 10.88h21.78a10.891 10.891 0 0010.88-10.88V194.7a2.121 2.121 0 00-2.12-2.12H41.51z" fill="#313131"/><path d="M61.33 192.21A57.13 57.13 0 0186 162.59 51.484 51.484 0 0196.08 158c.61-.2.35-1.16-.26-1a57.146 57.146 0 00-30.56 24.62 55.672 55.672 0 00-4.89 10.25c-.22.61.75.87 1 .27l-.04.07z" fill="#313131"/><path d="M71.7 174.39c14.44 1.33 28.3-5.39 37.3-16.5a55.91 55.91 0 006.34-9.74.52.52 0 00-.3-.74c-8.28-2.17-17.16-3.61-25.5-.93A24.407 24.407 0 0074.29 161a37.855 37.855 0 00-2.56 12.08c0 .64 1 .64 1 0 .39-6.89 2.4-14 7.08-19.28 5.2-5.81 13.06-8 20.65-7.79a63.276 63.276 0 0114.33 2.36l-.3-.74a50.01 50.01 0 01-16.95 19.3 41.006 41.006 0 01-25.84 6.45c-.64-.06-.64.94 0 1v.01zm-11.5 17.69a131.02 131.02 0 0111-52.26c2.01-4.537 4.28-8.955 6.8-13.23a.5.5 0 00-.86-.5 131.999 131.999 0 00-17 50.73 127.564 127.564 0 00-.92 15.26.501.501 0 101 0h-.02z" fill="#313131"/><path d="M62.26 168.72a18.142 18.142 0 0013.88-9.58c.24-.48-.48-.91-.73-.43a17.302 17.302 0 01-13.15 9.17c-.53.05-.54.9 0 .84z" fill="#313131"/><path d="M88.76 147.69c5.76-12.46 6-27.69 0-40.13a.507.507 0 00-.57-.23c-5.5 1.43-10.17 4.74-14.58 8.2-4.66 3.66-9.11 7.49-12.67 12.26-6.63 8.9-11.38 21.37-7.13 32.27 1 2.66 2.53 5.79 4.84 7.58a4.32 4.32 0 003.44 1.06c.63-.15.36-1.11-.27-1-1.19.29-2.53-.76-3.28-1.54a20.22 20.22 0 01-4.06-7.2 26.69 26.69 0 010-16.23 45.75 45.75 0 017.06-14.14 60.67 60.67 0 0111.39-11.3c4.7-3.74 9.61-7.5 15.52-9l-.57-.23c5.8 12.08 5.62 27 0 39.12-.27.58.59 1.09.86.5l.02.01zm-31.2 44.25A229.7 229.7 0 0043 137.74c-1.96-4.86-4.087-9.64-6.38-14.34-.28-.58-1.14-.07-.86.5a229.273 229.273 0 0118.13 53c1.08 5.08 1.977 10.19 2.69 15.33.09.63 1 .36 1-.27l-.02-.02z" fill="#313131"/><path d="M57 135.84c-.5-5.68-4.6-10.2-8.87-13.6A37.617 37.617 0 0032.75 115a.51.51 0 00-.433.085.501.501 0 00-.197.395l.33 12.93c.11 4.28.07 8.61.55 12.88.79 7.14 3.53 14.21 8.8 19.25a23.548 23.548 0 009.87 5.68.515.515 0 00.635-.365.517.517 0 00-.365-.635c-9-2.52-15-10.51-17.13-19.31-1.19-4.86-1.17-9.89-1.3-14.86l-.39-15.61-.64.48a36.73 36.73 0 0114.38 6.61c4.25 3.23 8.61 7.71 9.11 13.3.06.64 1.06.64 1 0l.03.01z" fill="#313131"/><path d="M52 165.16a9.665 9.665 0 001.68-1.93 9.989 9.989 0 001.09-2.32c.18-.52-.64-.74-.81-.22a9.342 9.342 0 01-1 2.12 9.585 9.585 0 01-1.55 1.76c-.4.36.19 1 .59.59zm.71 26.66a274.89 274.89 0 00-23.26-37.52c-.37-.52-1.24 0-.86.5a274.503 274.503 0 0123.25 37.53c.3.57 1.16.07.87-.51z" fill="#313131"/><path d="M46.16 180.64a13.62 13.62 0 001.11-9.77 36 36 0 00-4.21-10.29.421.421 0 00-.72.43 36.445 36.445 0 014 9.39 13.11 13.11 0 01-.86 9.82.42.42 0 00.72.42h-.04z" fill="#313131"/><path d="M37.4 153.57a24.89 24.89 0 00-15.51-2.64.5.5 0 00-.37.48 40.12 40.12 0 007.94 24.39 19.817 19.817 0 008.54 6.74c2.48.91 7.12 1.64 8.18-1.65.2-.61-.76-.87-1-.26-.61 1.9-3.23 1.8-4.81 1.52a13.298 13.298 0 01-4.54-1.74 22.713 22.713 0 01-7.12-7.31 40 40 0 01-6.26-21.69l-.36.48a23.789 23.789 0 0114.74 2.55c.56.3 1.07-.56.5-.87h.07zM86.09 37.33a1.83 1.83 0 110-3.66 1.83 1.83 0 010 3.66zm0-2.66a.83.83 0 100 1.66.83.83 0 000-1.66z" fill="#313131"/><path d="M263 118.75a8.633 8.633 0 012.22-1.71 7.544 7.544 0 012.25-.3 22.17 22.17 0 00-4.81-7.17L235 80.91a3.1 3.1 0 01-.47.55 14.903 14.903 0 01-1.163 18.913 14.904 14.904 0 01-18.787 2.477 3.155 3.155 0 01-2.278 1.75 3.152 3.152 0 01-2.755-.818 3.167 3.167 0 01-.953-2.71 3.17 3.17 0 011.636-2.362 14.898 14.898 0 019.929-23.215 14.9 14.9 0 019.691 1.775c.174-.228.376-.432.6-.61a22.33 22.33 0 00-29.09 33.72l17.4 18c.191-.044.385-.077.58-.1a16.313 16.313 0 006.73-1.77 72.112 72.112 0 017.59-3.68c.77-.76 1.37-.6 2.93-.45 1.83.19 4.4.41 6.7.53l-.17-.28c-3.18-.61-7.29-1.75-9.3-1.89a2.465 2.465 0 01-1.62-.54 1.686 1.686 0 01.02-1.949c.136-.187.31-.344.51-.461a4.817 4.817 0 012.72-.51c3.12 0 8 1.26 11.07 1.46-3.18-.57-8.47-2.4-11.68-2.66-1-.08-1.21-1.53-.48-2.35.42-.47 1.58-.54 2.22-.55 2.81 0 3.06.27 5.6.56a53.67 53.67 0 019 1.88l1.24.4c-.54-1.31-1.38-3-2-4.24-.62-1.24-1.11-3-.41-3.9 1-1.29 1.91-.22 2.27.15a69.229 69.229 0 015.92 7 16.171 16.171 0 005.4 4.39 7.28 7.28 0 013.15 4c-.52-2.42-3.75-4.67-3.75-4.67z" fill="#FFA800"/><path d="M109.83 121.91a5.635 5.635 0 004.79-.91 4.286 4.286 0 001.5-2.36c.19-.927.25-1.876.18-2.82 0-.64-1-.64-1 0a9.225 9.225 0 01-.13 2.46 3.29 3.29 0 01-1.18 2 4.711 4.711 0 01-3.9.72c-.62-.16-.89.81-.26 1v-.09z" fill="#313131"/><path d="M115.29 115.45a12.877 12.877 0 00.3 3c.257.96.802 1.818 1.56 2.46.643.484 1.379.83 2.162 1.017a5.86 5.86 0 002.388.073.506.506 0 00.35-.62.52.52 0 00-.62-.35h-.31a7.584 7.584 0 01-1 0 4.378 4.378 0 01-2.38-.95 4.06 4.06 0 01-1.28-2.13 12.024 12.024 0 01-.22-2.54c0-.64-1-.64-1 0l.05.04zm-3.73 6.62a3.133 3.133 0 012.8 1.45c.332.476.576 1.008.72 1.57 0 .12 0 .24.08.36.08.37 0-.09 0 .07v.3c0 1.08.06 2.17.08 3.26a.501.501 0 001 0c0-1.17 0-2.36-.1-3.52-.2-2.29-2.15-4.69-4.61-4.49-.63.05-.64 1.05 0 1h.03z" fill="#313131"/><path d="M116.27 129.08v-2.81a3.765 3.765 0 01.48-1.89 3.838 3.838 0 011.94-1.85c.84-.266 1.71-.424 2.59-.47.63-.07.64-1.07 0-1-.989.045-1.968.223-2.91.53a4.66 4.66 0 00-2.35 2 4.728 4.728 0 00-.73 2.3c-.07 1 0 2.1 0 3.14 0 .133.053.26.146.354a.504.504 0 00.708 0 .504.504 0 00.146-.354l-.02.05zM.36 121.91a5.637 5.637 0 004.79-.91 4.29 4.29 0 001.5-2.36c.19-.927.25-1.876.18-2.82 0-.64-1-.64-1 0a9.201 9.201 0 01-.13 2.46 3.29 3.29 0 01-1.18 2 4.71 4.71 0 01-3.9.72c-.62-.16-.89.81-.26 1v-.09z" fill="#313131"/><path d="M5.82 115.45a12.912 12.912 0 00.3 3c.257.96.802 1.818 1.56 2.46a5.878 5.878 0 004.55 1.09.508.508 0 00.35-.62.521.521 0 00-.62-.35h-.32a7.37 7.37 0 01-.94 0 4.376 4.376 0 01-2.38-.95A4.062 4.062 0 017 118a11.998 11.998 0 01-.22-2.54c0-.64-1-.64-1 0l.04-.01zm-3.73 6.62a3.133 3.133 0 012.8 1.45 5.08 5.08 0 01.72 1.57c0 .12 0 .24.08.36.07.37 0-.09 0 .07v.3c0 1.08.06 2.17.08 3.26a.498.498 0 00.854.353.498.498 0 00.146-.353c0-1.17 0-2.36-.1-3.52-.2-2.29-2.15-4.69-4.61-4.49-.63.05-.64 1.05 0 1h.03z" fill="#313131"/><path d="M6.8 129.08v-2.81a3.77 3.77 0 01.48-1.89 3.84 3.84 0 011.94-1.85c.84-.266 1.71-.424 2.59-.47.63-.07.64-1.07 0-1-.99.045-1.968.223-2.91.53a4.664 4.664 0 00-2.35 2 4.85 4.85 0 00-.74 2.3c-.06 1 0 2.1 0 3.14a.5.5 0 101 0l-.01.05zm361.2-24.6a7.385 7.385 0 006.2-1.16 5.548 5.548 0 001.94-3.06c.25-1.213.33-2.455.24-3.69a.503.503 0 00-.5-.5.5.5 0 00-.5.5c.085 1.106.025 2.22-.18 3.31a4.631 4.631 0 01-1.61 2.65 6.318 6.318 0 01-5.32 1c-.63-.15-.89.81-.27 1v-.05z" fill="#313131"/><path d="M375.32 96.08c-.02 1.308.111 2.613.39 3.89a6.352 6.352 0 002 3.19 7.574 7.574 0 005.87 1.49c.64-.1.37-1.06-.26-1h-.47a7.454 7.454 0 01-1.25 0 6.002 6.002 0 01-3.28-1.3 5.524 5.524 0 01-1.73-2.9 16.79 16.79 0 01-.3-3.4c0-.64-1-.65-1 0l.03.03zm-5.1 8.61a4.33 4.33 0 013.85 2c.455.642.794 1.36 1 2.12 0 .16.07.32.1.48.1.48 0-.06 0 .14v.39c.07 1.44.09 2.88.11 4.32 0 .133.053.26.146.354a.504.504 0 00.708 0 .504.504 0 00.146-.354c0-1.55 0-3.12-.13-4.67-.27-3-2.78-6-5.95-5.78-.64 0-.64 1 0 1h.02z" fill="#313131"/><path d="M376.3 114.14v-3.73a5.71 5.71 0 013.32-5.1 13.784 13.784 0 013.48-.64c.64-.06.64-1.06 0-1a14.49 14.49 0 00-3.81.7 6.675 6.675 0 00-4 5.61c-.09 1.38 0 2.78 0 4.16 0 .133.053.26.146.354a.504.504 0 00.708 0 .504.504 0 00.146-.354h.01zm-34.16 40a6.001 6.001 0 005.08-1 4.465 4.465 0 001.59-2.5 10.79 10.79 0 00.2-3c0-.64-1-.64-1 0 .064.883.017 1.769-.14 2.64a3.588 3.588 0 01-1.28 2.09 5.004 5.004 0 01-4.19.77.517.517 0 00-.26 1z" fill="#313131"/><path d="M348 147.28a13.837 13.837 0 00.32 3.15 5.217 5.217 0 001.66 2.62 6.204 6.204 0 004.82 1.22.475.475 0 00.175-.085.475.475 0 00.19-.331.489.489 0 00-.015-.194.52.52 0 00-.62-.35h-.33a5.758 5.758 0 01-1 0 4.656 4.656 0 01-2.57-1 4.343 4.343 0 01-1.37-2.29c-.17-.893-.25-1.801-.24-2.71 0-.64-1-.65-1 0l-.02-.03zm-4 7.03a3.382 3.382 0 013 1.56c.35.512.611 1.08.77 1.68 0 .13.05.26.08.39.08.39 0-.09 0 .09.005.103.005.207 0 .31.06 1.16.08 2.32.1 3.48a.501.501 0 001 0c0-1.25 0-2.51-.11-3.76-.22-2.42-2.28-5-4.89-4.75-.64.05-.64 1.05 0 1h.05z" fill="#313131"/><path d="M349 161.82v-3a4.52 4.52 0 012.61-4 11.402 11.402 0 012.77-.51c.64-.06.64-1.06 0-1a11.57 11.57 0 00-3.09.57 5.001 5.001 0 00-2.49 2.18 4.994 4.994 0 00-.78 2.43c-.07 1.11 0 2.24 0 3.35a.5.5 0 101 0l-.02-.02zM34.88 31.32a7.32 7.32 0 006.19-1.17A5.45 5.45 0 0043 27.09c.255-1.212.336-2.455.24-3.69 0-.64-1-.64-1 0a12.651 12.651 0 01-.17 3.31 4.53 4.53 0 01-1.62 2.65 6.24 6.24 0 01-5.32 1 .517.517 0 00-.26 1l.01-.04z" fill="#313131"/><path d="M42.24 22.91a17.46 17.46 0 00.38 3.89 6.28 6.28 0 002 3.2 7.602 7.602 0 005.87 1.49c.63-.1.36-1.07-.27-1h-.42a8.75 8.75 0 01-1.25 0 5.93 5.93 0 01-3.27-1.31 5.45 5.45 0 01-1.74-2.89 16.89 16.89 0 01-.29-3.41c0-.64-1-.64-1 0l-.01.03zm-5.11 8.61a4.35 4.35 0 013.85 2c.46.636.798 1.351 1 2.11 0 .16.07.32.1.48.1.48 0-.06 0 .14v.39c.07 1.44.09 2.89.11 4.33a.5.5 0 001 0c0-1.55 0-3.13-.13-4.67-.26-3-2.78-6-5.95-5.79-.63.05-.64 1.06 0 1l.02.01z" fill="#313131"/><path d="M43.21 41v-3.73a5.34 5.34 0 01.66-2.59 5.21 5.21 0 012.67-2.52A14.064 14.064 0 0150 31.5c.64-.06.65-1.06 0-1a14.895 14.895 0 00-3.81.7 6.73 6.73 0 00-4 5.62c-.08 1.38 0 2.77 0 4.16a.5.5 0 001 0l.02.02zm165.15 179.11H83.52v1h124.84v-1zm133.38 23.42h-4.41l-29.81-62.57.91-.43 29.53 62h2.2l-29.78-62.58.9-.43 30.46 64.01zm-27.35-13.04h-4.42l-.13-.29-23.59-49.24.9-.43 23.45 48.96h2.2l-23.13-48.34.9-.43 23.82 49.77zm-67.86-49.778l-5.073 10.654.903.43 5.073-10.654-.903-.43zm3.425-.198l-7.119 14.952.903.43 7.119-14.952-.903-.43z" fill="#313131"/><path d="M207.5 230.49h-4.42l13.8-28.89.9.43-13.11 27.46h2.2l11.83-24.77.9.43-12.1 25.34z" fill="#313131"/><path d="M305.54 220.11h-94.03v1h94.03v-1zm21.78 0h-18.21v1h18.21v-1zm39.85 0h-36.89v1h36.89v-1z" fill="#313131"/><path d="M247.6 213.77s5.13 9.88 6 17c.87 7.12-3.53 9.88-24.6 12.6-5.92.77-12.78 1.4-17.3.73-3.69-.54-7.43-1.18-7.43-5.11 0-5.8 15.42-8.47 19-11.95 6-5.8 3.87-10.64 3.87-10.64l20.46-2.63z" fill="#1280FF"/><path d="M260.56 70.92c.41 1.2 1.1 2.39.54 3.66s-1.84 1.55-3 2a66.564 66.564 0 00-6.38 3 31.821 31.821 0 00-10.51 8.7c-.39.51.48 1 .86.5 3.09-4.18 7.58-7.09 12.17-9.39 1.15-.58 2.33-1.12 3.51-1.63a13.94 13.94 0 003.25-1.39 3.652 3.652 0 001.33-2.29 7.185 7.185 0 00-.75-3.42c-.21-.61-1.18-.35-1 .26h-.02zm-34.78 145.86a4.454 4.454 0 01-3.9-1.65 2.897 2.897 0 01-.44-2.31 3.881 3.881 0 011-1.78c-1.72-2.83-13-21.43-18.68-29.82-6.05-9-7.32-13.4-8.34-16.93l-.08-.27a16.635 16.635 0 012.39-14.29c2.41-3.34 7.29-7.39 16.84-7.75l1.43.02v1l-1.38-.05c-9.11.34-13.75 4.18-16 7.34a15.626 15.626 0 00-2.23 13.42l.08.27c1 3.47 2.24 7.78 8.21 16.65 6.11 9.07 18.8 30 18.92 30.23l.27.43-.44.26a2.687 2.687 0 00-.88 1.46 1.848 1.848 0 00.29 1.53c.86 1.25 2.56 1.23 3.47 1.2h2.58c4.557-.109 9.096-.6 13.57-1.47l1.46-.24 3.71-.78a2.312 2.312 0 001.87-2.6c-.1-2.52-1.94-2.6-2.17-2.6h-.37l-.12-.35-5.77-17.48a110.05 110.05 0 00-7.07-16.11l-1.58-3 51.06 2.92c1.162.081 2.328.081 3.49 0a22.271 22.271 0 0015.61-7.79 22.874 22.874 0 004.87-17.24l-.86-8.05 1-.1.86 8.05a23.795 23.795 0 01-5.08 18 23.162 23.162 0 01-16.3 8.1 25.428 25.428 0 01-3.62 0l-49.3-2.82.75 1.42a108.773 108.773 0 017 16.29l5.68 17.17c.82.13 2.7.73 2.81 3.53a3.283 3.283 0 01-2.66 3.62L244 215l-1.48.25a81.703 81.703 0 01-13.73 1.48h-3l-.01.05z" fill="#313131"/><path d="M266.49 129.4c.07-.159.131-.323.18-.49-.06.16-.11.32-.18.49zm-.06.14s-.05.09-.07.14l.05-.09s.01-.04.02-.05zm-2.07 2.97a2.372 2.372 0 001.36-1.65l.08-.14a7.774 7.774 0 01-1.44 1.79zm-.57 2.87a2.302 2.302 0 01-1.33-2 25.913 25.913 0 01-10.68-.65 68.035 68.035 0 00-8.82-1.5c-3-.42-4.53-.7-6.31-1-2.28-.39-2.37-1.51-2.26-2a1.507 1.507 0 01.82-1c2.49-1.2 7.57.47 10.56 0a75.585 75.585 0 01-10.38-1.4 8.294 8.294 0 01-1 .92c-1.1.89-2.17 1.66-3.2 2.64l.09.45.83.1c3 .41 5.72 1 8.73 1.53 1.821.37 3.665.614 5.52.73a2 2 0 011.84 1.27 1.499 1.499 0 01-1.4 1.94 42.103 42.103 0 01-11.7-1c2.92 1.1 6.55 1.49 8.4 1.89 1 .22 4.16 0 4.67.79a1.802 1.802 0 01.143 1.392 1.818 1.818 0 01-.893 1.078 38.24 38.24 0 01-4.81.18 51.08 51.08 0 01-7.13-.5c1.25.2 3.8.63 5.72 1 1.63.35 5.14.24 5.53 1.25a1.721 1.721 0 01-.2 1.59c-.73.84-1.74.84-3.49.78a28.46 28.46 0 01-9.44-1.36c3.58 1.48 5.66 1.35 8.34 1.49a1.526 1.526 0 011.298 1.3 1.52 1.52 0 01-.048.65c-.17.46-.42.62-1 .92a1.715 1.715 0 01-.46.13 22.25 22.25 0 0024.67-11 20.09 20.09 0 01-2.61-.61z" fill="#FFA800"/><path d="M241.34 35.63c-1.31 9.53-2.77 20 2.45 28.67a14.122 14.122 0 006.89 6.26 16.701 16.701 0 008.93.88 12.456 12.456 0 008.68-6.09.504.504 0 00-.204-.638.502.502 0 00-.656.138c-3.2 5.54-10 7-15.79 5-7.06-2.38-9.93-10.87-10.46-17.64-.42-5.46.38-10.92 1.13-16.31.08-.63-.88-.9-1-.27h.03z" fill="#313131"/><path d="M273.48 56.31a88.481 88.481 0 006 11.73C282.42 72.38 285 71 291 73a61.17 61.17 0 0021.09 3.62c7.86-.11 15.26-17.85 15.26-17.85l-25.5-21.45-28.37 18.99z" fill="#1280FF"/><path d="M310.83 76.63c17.204 0 31.15-13.946 31.15-31.15s-13.946-31.15-31.15-31.15-31.15 13.946-31.15 31.15 13.946 31.15 31.15 31.15zm54.67-8.59c11.256 0 20.38-9.125 20.38-20.38 0-11.256-9.124-20.38-20.38-20.38-11.256 0-20.38 9.124-20.38 20.38 0 11.255 9.124 20.38 20.38 20.38z" fill="#1280FF"/><path d="M239.77 33.11c.89-3.48 5.79-9.9 16.18-11.18 12.59-1.54 15.27 2.36 21.75 4.88 3.95 1.55 7.75.42 10.89-3.14l37.83-4.56s8.16 3.4 12.84 13.62c2.61 5.7 7.49 6.06 10.87 1.54 0 0-.82 25.78-.77 25.84.05.06-1.48-2.4-6.37-2-2 .19-4.24 1.54-6.91 5.57s-52.21-2.63-52.21-2.63a5.891 5.891 0 00-4.19-2.68 7.43 7.43 0 00-4.63.75l-2-3.62s3.59-1.06 2.49-5.78c-1.1-4.72-5.53-.63-5.53-.63a141.212 141.212 0 01-13.45-7.68c-7.85-5.05-9.55-7.54-9.55-7.54a69.762 69.762 0 01-5.41 6c-.29.22-.69.12-1-.31-.31-.43-1.9-2.27-.83-6.45z" fill="#1280FF"/><path d="M247.41 61.53a3.84 3.84 0 006.9-.68.497.497 0 00-.35-.61.508.508 0 00-.62.34 2.819 2.819 0 01-5.06.44c-.34-.54-1.21 0-.87.51zm.89-11.59l-1.56 3.64-.22.52a.517.517 0 00.18.68.511.511 0 00.69-.18l1.55-3.6.22-.52a.504.504 0 00-.204-.638.501.501 0 00-.656.138v-.04zm6.62.39a2.4 2.4 0 011.68-.51h.39c.156.036.31.083.46.14h.05a.339.339 0 01.12.06c.071.033.138.073.2.12l.09.06c.074.052.141.112.2.18.46.45 1.17-.26.71-.71a3.528 3.528 0 00-4.45-.33.53.53 0 00-.18.69.519.519 0 00.69.18l.04.12zm-9.14-1.09a3.73 3.73 0 00-4 .6.491.491 0 00-.148.355.491.491 0 00.148.355.51.51 0 00.7 0s.15-.12.1-.09l.19-.13c.111-.073.228-.136.35-.19h.14l.19-.06.42-.1c-.07 0 .08 0 0 0h.3a2.06 2.06 0 01.43 0h.29l.22.07h.1c-.11 0 .08 0 0 0a.51.51 0 00.68-.18.482.482 0 00.054-.378.496.496 0 00-.234-.302l.07.05zm24.68.15a2.602 2.602 0 013.13-1 2.863 2.863 0 011.63 3.07 5 5 0 01-4.58 4.4c-.64 0-.64 1 0 1a6.062 6.062 0 005.25-3.93 4.82 4.82 0 000-3.71 3.557 3.557 0 00-3.039-2.004 3.559 3.559 0 00-3.211 1.714c-.34.55.52 1 .86.51l-.04-.05zm-12.11 28.15a10.64 10.64 0 008.35 7.37 15.999 15.999 0 009.3-1.78 18.637 18.637 0 007.83-6.66 12.434 12.434 0 001.93-4.63c.09-.63-.87-.9-1-.27-.59 3.93-3.75 7.41-7 9.43-4.63 2.9-11.2 4.74-15.7.61a9.601 9.601 0 01-2.77-4.33.515.515 0 00-.945-.132.516.516 0 00-.055.392h.06z" fill="#313131"/><path d="M262.35 133.93c.2 1.78 1.87 2.32 3.42 2.64 1.55.32 3.12.4 4.68.64a29.08 29.08 0 013.9 1 34.44 34.44 0 004.47 1.16c1.47.24 3 .28 4.45.42 3.69.34 7.37.74 11.07 1 3.9.31 7.82.52 11.74.48a33.997 33.997 0 009.33-.95 17.05 17.05 0 0010.59-8.43c2.38-4.74 2.27-10.26.78-15.25-1.59-5.31-4.27-10.45-6.72-15.4a129.658 129.658 0 00-9.69-16.48 24.658 24.658 0 00-5.49-6.24 33.003 33.003 0 00-7.24-3.83 64.84 64.84 0 00-8-2.6c-2.68-.7-5.57-1-7.86-2.65s-3.24-4-4.36-6.37c-1-2.09-1.94-4.18-2.89-6.28-.18-.39-.36-.78-.53-1.17-.27-.59-1.13-.08-.87.5 1.47 3.28 2.94 6.56 4.55 9.77a11.35 11.35 0 005.13 5.34c2.16 1 4.71 1.33 7 1.94 5.1 1.36 10.43 3.11 14.7 6.31 2.42 1.81 4 4.33 5.71 6.81 1.71 2.48 3.33 5 4.84 7.65a165.396 165.396 0 017.95 15.8c2.15 4.85 4.19 9.88 3.82 15.29a15.821 15.821 0 01-6.87 12.21c-5.06 3.37-11.31 3.23-17.15 3.09-7.7-.18-15.48-.93-23.13-1.8-3.15-.37-6-1.87-9.14-2.32-1.58-.22-3.17-.32-4.73-.67-.92-.2-2.27-.49-2.4-1.61-.07-.64-1.07-.64-1 0h-.06z" fill="#313131"/><path d="M300.12 115.33c-2.34-5.12-4.57-10.48-5.27-16.11a20.571 20.571 0 014.39-16c.4-.49-.3-1.2-.71-.71a21.421 21.421 0 00-4.72 16.31c.64 6 3 11.59 5.45 17 .27.59 1.13.08.86-.5v.01zm-66.74 7.09c-2.75 1.15-5.34 2.54-8 3.89a15.324 15.324 0 01-5.2 1.4 9.076 9.076 0 00-4.12 1.23 8.878 8.878 0 00-4 6.5c-.22 2.16.13 4.73 1.9 6.18 3.85 3.16 9.23 3.88 14 4.67 2.41.4 4.83.79 7.25 1.1 2.062.366 4.164.454 6.25.26a2.588 2.588 0 002.32-1.48 2.07 2.07 0 00-.94-2.36c-1-.54-2.55-.27-3.66-.36a18.585 18.585 0 01-5.34-1.33c-.6-.24-.86.73-.27 1a20.667 20.667 0 006.71 1.44c.481-.01.962.01 1.44.06.9.15 1.72 1.13.62 1.78a5.782 5.782 0 01-2.8.42 74.375 74.375 0 01-11.6-1.5c-4.29-.71-8.65-1.44-12.41-3.79-2-1.23-2.54-3-2.49-5.32a7.895 7.895 0 014.06-6.66c1.43-.76 3-.75 4.57-1a14.357 14.357 0 004.26-1.33c2.57-1.32 5.08-2.68 7.74-3.8.59-.24.33-1.21-.26-1h-.03z" fill="#313131"/><path d="M231.33 130c.71-.68 1.5-1.28 2.28-1.89a12.98 12.98 0 002-1.73.512.512 0 000-.71.497.497 0 00-.7 0 12.98 12.98 0 01-2 1.73c-.78.61-1.56 1.21-2.28 1.89-.47.45.24 1.15.71.71h-.01z" fill="#313131"/><path d="M235 135c2.32.537 4.682.871 7.06 1 1.181.083 2.366.107 3.55.07a4 4 0 002.51-.61c1.76-1.46 0-3.59-1.82-3.69a66.28 66.28 0 01-8.28-1.25 87.085 87.085 0 00-11-1.51c-.65 0-.64 1 0 1 3.543.261 7.066.738 10.55 1.43a63.818 63.818 0 008.35 1.32c.72 0 1.57.08 1.85.92.28.84-.61 1.27-1.33 1.35-1.149.08-2.301.08-3.45 0a39.976 39.976 0 01-7.71-1c-.62-.15-.89.81-.27 1L235 135z" fill="#313131"/><path d="M235 135a40.436 40.436 0 007.12 1.65c.746.162 1.5.279 2.26.35.89.007 1.779.073 2.66.2.26.024.51.11.73.25.36.36.12 1.18-.16 1.5-.4.47-1.24.35-1.79.37-1.74.06-3.49.06-5.22 0a42.044 42.044 0 01-5.72-.56c-.63-.11-.9.85-.26 1 3.84.621 7.737.819 11.62.59a2.78 2.78 0 002-.58 2.336 2.336 0 00.38-2.77c-.43-.67-1.41-.74-2.11-.82-.92-.1-1.86 0-2.77-.18a44.724 44.724 0 01-8.49-1.91c-.6-.22-.87.74-.27 1l.02-.09z" fill="#313131"/><path d="M234.66 139.66c2.87.45 5.72 1.15 8.61 1.43a14.34 14.34 0 012.36.33c.244.038.475.138.67.29a1.074 1.074 0 01-.09 1.15 2.457 2.457 0 01-2.05.62c-.9 0-1.81 0-2.72-.06a24.37 24.37 0 01-7.63-1.3c-.61-.22-.87.74-.27 1a24.68 24.68 0 007.62 1.33c1.06 0 2.13.1 3.19.07a3.678 3.678 0 002.31-.66 2.147 2.147 0 00.64-2.37 2.002 2.002 0 00-1.53-1 19.6 19.6 0 00-2.75-.37c-.92-.09-1.81-.25-2.72-.43-1.78-.35-3.58-.65-5.38-.93-.63-.1-.9.86-.26 1v-.1zm28.81-20.78c.27-.75 1.76-.94 2.41-1.07a25.875 25.875 0 013.61-.38 73.68 73.68 0 007.84-.55 87.386 87.386 0 0111.22-.41c3.74 0 7.48-.15 11.22-.21a.5.5 0 000-1c-4 .07-8.09.17-12.14.23h-6.17a48.7 48.7 0 00-5.89.62c-2.74.38-5.51.16-8.26.47-1.48.16-4.2.32-4.8 2-.22.61.74.87 1 .26l-.04.04zm-41.02-13.27a15.343 15.343 0 01-7.72-2.07 3.606 3.606 0 01-3 1.6 3.68 3.68 0 01-3.67-3.67 3.638 3.638 0 011.46-2.9 15.401 15.401 0 0120.2-21.94 3.611 3.611 0 012.66-1.15 3.66 3.66 0 013.62 3.66 3.6 3.6 0 01-.88 2.37 15.256 15.256 0 012.7 8.7 15.416 15.416 0 01-15.37 15.4zm-8.1-3.48l.47.3a14.399 14.399 0 0019.28-20.68l-.26-.36.33-.3a2.598 2.598 0 00.86-2 2.662 2.662 0 00-3.467-2.535c-.534.17-1 .505-1.333.955l-.26.36-.39-.22a14.4 14.4 0 00-19 20.72l.31.46-.48.27a2.659 2.659 0 00-.579 4.274 2.67 2.67 0 002.322.687 2.66 2.66 0 001.917-1.481l.28-.45z" fill="#313131"/><path d="M218.68 91.06a.547.547 0 000-.14 1.422 1.422 0 00-1.695-1.403 1.42 1.42 0 00.285 2.813h.14a1.409 1.409 0 011.27-1.27zm10.05-10.37v-.15a1.421 1.421 0 00-2.376-.926 1.421 1.421 0 00-.454.926 1.431 1.431 0 001.43 1.46h.14a1.4 1.4 0 011.26-1.31zM223 86.26c0-.05.06-.08 0 0v-.06l.06-.12.09-.1.1-.09h.05l.23-.14h.06c-.12 0 .05 0 0 0h.32c-.13 0 .06 0 0 0h.42a.521.521 0 00.545-.184.515.515 0 00-.094-.726.515.515 0 00-.181-.09 2 2 0 00-1.49.15 1.999 1.999 0 00-1 1.11.5.5 0 00.35.62.52.52 0 00.61-.35l-.07-.02zm2.12 5.47a3.55 3.55 0 003.37-.68 3.496 3.496 0 001.1-3.26.5.5 0 00-.61-.35.522.522 0 00-.35.62c.064.42.022.85-.12 1.25a2.442 2.442 0 01-3.12 1.46c-.62-.19-.88.77-.27 1v-.04zm-17.93 24.59c7.09 5.67 17.59 8.85 26.58 7 .63-.12.36-1.09-.26-1a29.304 29.304 0 01-13.42-.8 33.792 33.792 0 01-12.19-5.95c-.5-.4-1.21.3-.71.7v.05zm43.3-18.01c2.68 2.47 4.18 6.34 5.12 9.78.342 1.243.609 2.505.8 3.78.109.489.162.989.16 1.49l.85-.35c-.43-.48-1.13.23-.7.7a.498.498 0 00.85-.35 7.484 7.484 0 00-.19-1.7 32.325 32.325 0 00-.86-4c-1-3.54-2.57-7.49-5.32-10-.47-.44-1.18.27-.71.71v-.06zM306 181.44h-67.81v-1H306c5.06 0 8.56-4 11-12.45.13-.44 12.92-43 14.39-48.15a7.48 7.48 0 00-1.1-6.71 6.401 6.401 0 00-4.92-2.66h-1.77v-1h1.79a7.438 7.438 0 015.72 3.06 8.477 8.477 0 011.26 7.59c-1.47 5.12-14.26 47.72-14.39 48.15-2.62 8.98-6.43 13.17-11.98 13.17zM214.44 142c-3.06-2.25-7.12-5.94-7.12-12a16.057 16.057 0 013.35-9.87l.8.61a15.001 15.001 0 00-3.15 9.26c0 4.29 2.07 7.73 6.72 11.16l-.6.84zm35.43-108l8.13 3.87c.58.28 1.09-.58.5-.86l-8.08-3.89c-.58-.28-1.08.59-.5.87l-.05.01zm45.18 31.42a29.32 29.32 0 0034.49-5.66c.44-.47-.27-1.18-.71-.71a28.31 28.31 0 01-33.28 5.51c-.56-.31-1.07.56-.5.86zM354 57.2a13.594 13.594 0 0016.776 1.69A13.59 13.59 0 00375 54.61c.35-.54-.52-1-.86-.5a12.58 12.58 0 01-9.141 5.832 12.571 12.571 0 01-10.279-3.452c-.47-.44-1.18.26-.71.71H354z" fill="#313131"/><path d="M359.2 54.57a5.9 5.9 0 008.33 0c.44-.46-.27-1.17-.71-.7a4.89 4.89 0 01-6.91 0c-.44-.47-1.15.24-.71.71v-.01zm-62.46 6.53a15.53 15.53 0 008.26 2.47.5.5 0 100-1 14.562 14.562 0 01-7.79-2.33c-.54-.35-1 .51-.5.86h.03zM281.9 46.14l6.68.49c.64 0 .64-1 0-1l-6.68-.49c-.64 0-.64 1 0 1zm7.18-3.87a26.997 26.997 0 0012-4.6c.53-.36 0-1.23-.5-.86a26.07 26.07 0 01-11.54 4.46c-.63.08-.64 1.08 0 1h.04zm60.52.03a10.215 10.215 0 017.33-3.45c.64 0 .65-1 0-1a11.227 11.227 0 00-8 3.75c-.42.48.28 1.19.71.7h-.04zm-20.75-9.8l3.52 3.67a.495.495 0 00.547.11.495.495 0 00.307-.465.511.511 0 00-.144-.355l-3.52-3.67a.51.51 0 00-.71 0 .52.52 0 000 .71zm-42.64 44.55A21.727 21.727 0 01271 87.93c-.63.1-.37 1.07.26 1a22.644 22.644 0 0015.85-11.34c.31-.56-.55-1.07-.86-.5l-.04-.04zm-29.34-44.39l4.22 2a.53.53 0 00.69-.18.52.52 0 00-.18-.69l-4.23-2a.51.51 0 00-.68.18.483.483 0 00-.054.378.496.496 0 00.234.302v.01zm3.28 52.98a8.78 8.78 0 005.19 3.14.52.52 0 00.62-.35.497.497 0 00-.35-.61 8.09 8.09 0 01-4.76-2.89.499.499 0 00-.7 0 .511.511 0 000 .71zM299 116.27a21.398 21.398 0 0110 2.46c.56.31 1.06-.55.5-.86a22.363 22.363 0 00-10.5-2.59.504.504 0 00-.354.146.504.504 0 000 .707.5.5 0 00.354.147v-.01zm-30.63 2.82h3.39a.514.514 0 00.351-.149.514.514 0 00.149-.351.504.504 0 00-.146-.354.504.504 0 00-.354-.146h-3.39a.504.504 0 00-.354.146.504.504 0 000 .707.5.5 0 00.354.147zm2.06 5.73h3.33a.5.5 0 000-1h-3.33a.504.504 0 00-.354.146.504.504 0 000 .707.5.5 0 00.354.147zm-.17 2.72l3.5.09a.513.513 0 00.5-.5.504.504 0 00-.146-.354.504.504 0 00-.354-.146l-3.5-.09a.513.513 0 00-.5.5c0 .133.053.26.146.354a.504.504 0 00.354.146zm-.43 3.71h2.4c.133 0 .26-.053.354-.146a.504.504 0 000-.708.504.504 0 00-.354-.146h-2.4a.504.504 0 00-.354.146.504.504 0 000 .708.504.504 0 00.354.146zm-13.35-50.64a6.228 6.228 0 001.45 2.39.495.495 0 00.547.11.495.495 0 00.163-.11.511.511 0 000-.7l-.41-.47-.1-.14c-.06-.08-.11-.17-.17-.26a5.306 5.306 0 01-.28-.53 1.023 1.023 0 01-.07-.15v-.06l-.12-.3a.515.515 0 00-.945-.132.516.516 0 00-.055.392l-.01-.04zm43.65 60.79a22.065 22.065 0 01.83 8.12c0 .64 1 .64 1 0a22.824 22.824 0 00-.86-8.38.517.517 0 00-1 .26h.03zM231.84 169l-6.47-6.58a.498.498 0 00-.679.021.503.503 0 00-.031.679l6.47 6.58a.498.498 0 00.679-.021.503.503 0 00.031-.679zm-1.35 1.7h-4.27a.5.5 0 000 1h4.27a.5.5 0 100-1zm45-32.02a4.063 4.063 0 01-.64 3 .51.51 0 00-.085.397.508.508 0 00.238.329.483.483 0 00.197.065.491.491 0 00.51-.291 4.991 4.991 0 00.74-3.76.513.513 0 00-.242-.314.522.522 0 00-.393-.051.513.513 0 00-.314.242.522.522 0 00-.051.393l.04-.01zm-2.57-1.23c.005.093.005.187 0 .28a.165.165 0 000 .07c0-.12 0 .06 0 0v.17c-.042.25-.099.497-.17.74-.07.23-.15.47-.24.7v.07a.611.611 0 00-.07.14c0 .08-.09.16-.14.24a.502.502 0 00.18.68.502.502 0 00.68-.18 6.798 6.798 0 00.84-2.88.513.513 0 00-.5-.5.513.513 0 00-.5.5l-.08-.03zm-43.42 73.29a25.769 25.769 0 008.47-3.16.507.507 0 00.18-.69.503.503 0 00-.69-.18 24.76 24.76 0 01-8.23 3.07c-.63.11-.36 1.08.27 1v-.04zm-.66-5.3a45.193 45.193 0 008.47-1.85c.61-.19.35-1.16-.26-1a44.177 44.177 0 01-8.21 1.81c-.63.07-.63 1.07 0 1v.04z" fill="#313131"/><path d="M181 220.45s-4.59 4.87-4.61 10.74c0 4.44-1.63 7.05-7.84 8.68-1.93.5-4.24-.05-7.15.29-2.91.34-5.54 1.1-10.46 1.8a53.444 53.444 0 01-17.3-.54c-3.64-.81-7.33-1.72-7-5.64.2-2.77 3.08-4.49 7.19-6.07 4.5-1.73 11.87-4.07 14.18-5.31a41.088 41.088 0 0013.83-12.14l9 4.47 10.16 3.72z" fill="#1280FF"/><path d="M182.57 221.12c-2.87 0-6.93-1.75-13.06-4.39-8.18-3.52-11.24-6-10.57-8.55a2.888 2.888 0 011.47-1.84 3.741 3.741 0 012-.44c1.44-3.48 12.63-30.71 15.32-40.59 2.86-10.47 5.36-14.3 7.37-17.38l.14-.23c4.73-7.26 9.81-7.44 22.08-7.88 1.81-.07 3.78-.14 5.93-.24l.05 1c-2.16.1-4.13.17-5.94.24-12.25.44-16.84.6-21.28 7.42l-.15.23c-2 3-4.42 6.78-7.23 17.1-2.88 10.57-15.39 40.77-15.51 41.08l-.18.43-.45-.15a2.677 2.677 0 00-1.68.29 1.872 1.872 0 00-1 1.22c-.34 1.28.49 3.29 10 7.38 9 3.87 13.07 5.49 15.35 3.3 1.84-1.76.69-3.2.55-3.35l-.24-.28.19-.31 9.45-15.8a108.565 108.565 0 007.7-15.78l.91-2.32.93.36-.91 2.33a110.506 110.506 0 01-7.77 15.92l-9.29 15.53c.43.7 1.19 2.49-.83 4.42a4.577 4.577 0 01-3.35 1.28z" fill="#313131"/><path d="M168.69 209.35a28.57 28.57 0 007.67 4.72.508.508 0 00.532-.174.486.486 0 00.088-.176.517.517 0 00-.35-.61 27.554 27.554 0 01-7.24-4.46c-.48-.42-1.19.29-.7.7zm3.11-2.65a51.828 51.828 0 006.72 5.38c.54.36 1-.51.51-.86a50.524 50.524 0 01-6.52-5.22c-.47-.44-1.18.26-.71.7zm81.05-90.81c-.5-1.2-1.06-2.36-1.65-3.52a14.349 14.349 0 01-.86-1.92c-.19-.62-.64-3.35 1.09-2.46a11.425 11.425 0 012.44 2.56c.93 1.06 1.84 2.15 2.71 3.26a28.21 28.21 0 002.49 3.06c.97.911 2.04 1.709 3.19 2.38a9.007 9.007 0 013.13 2.63 8.111 8.111 0 011.25 4.37c0 2.32-1.32 5.73-3.75 6.49a17.992 17.992 0 01-7.3.19c-3-.37-5.83-1.3-8.79-1.72-2.78-.39-5.55-.74-8.31-1.21-1-.17-3-.17-3.49-1.17-.68-1.35 2-1.52 2.77-1.52 2.68 0 5.36.8 8 .44.63-.08.63-1.09 0-1-3 .4-6-.69-9-.4-1 .1-2.3.38-2.77 1.42a1.737 1.737 0 00.3 1.89c.8.91 2.17 1 3.29 1.21 1.51.26 3 .5 4.53.72 2 .29 4.06.51 6.08.85 2.02.34 3.74.9 5.63 1.24 2.87.51 6.16.86 9 .09 2.53-.67 4.1-3.5 4.58-5.91a8.699 8.699 0 00-2.88-8.29c-1.35-1.07-2.95-1.76-4.27-2.88a26.128 26.128 0 01-3.3-3.89c-1.27-1.6-2.6-3.16-4-4.64-.72-.75-1.62-1.8-2.77-1.23-1.43.7-1.29 2.53-.89 3.79.6 1.89 1.74 3.61 2.51 5.43.24.59 1.21.33 1-.26h.04z" fill="#313131"/><path d="M246.64 118.27c-2.68-.5-5.28-1.35-7.93-2-1.2-.29-2.43-.43-3.63-.68-1.2-.25-.68-1.48.16-1.77a6.424 6.424 0 012.1-.15c1.144.038 2.284.162 3.41.37 1.66.26 3.33.43 5 .75a63.038 63.038 0 0110.14 3c.6.23.86-.74.26-1a59.17 59.17 0 00-12.6-3.39c-1.5-.21-3-.47-4.52-.65a9.207 9.207 0 00-4.43.22 2.08 2.08 0 00-1 2.63c.49 1.2 2 1 3 1.22 3.3.63 6.48 1.77 9.78 2.38.63.12.89-.84.26-1v.07z" fill="#313131"/><path d="M246.51 118.25c-2.49-.18-4.94-.73-7.41-1.1a29.411 29.411 0 00-3.39-.35 5.06 5.06 0 00-3.49.75 2.278 2.278 0 00-.71 2.52c.44 1 1.56 1.1 2.53 1.2 1.935.272 3.851.659 5.74 1.16a28.82 28.82 0 006.44 1.09c.133 0 .26-.053.354-.146a.504.504 0 000-.707.5.5 0 00-.354-.147 21.837 21.837 0 01-4.74-.73c-1.82-.4-3.62-.85-5.45-1.21-.7-.13-1.4-.26-2.11-.32-.51-.05-1.27-.06-1.51-.61a1.329 1.329 0 01.56-1.42c.88-.63 2.28-.47 3.3-.41s2.16.23 3.23.4c2.33.37 4.65.86 7 1 .64 0 .64-1 0-1l.01.03z" fill="#313131"/><path d="M246.22 122.52c-2 0-4.06-.15-6.07-.31-1-.07-1.94-.16-2.9-.25a11.09 11.09 0 00-2.63-.16 2.43 2.43 0 00-1.75 1.25 2.07 2.07 0 00.12 2 2.659 2.659 0 001.73 1.2c1 .26 2 .42 3 .59 2.678.469 5.378.803 8.09 1 .64 0 .64-1 0-1a78.84 78.84 0 01-6.27-.67c-.94-.14-1.88-.3-2.81-.47a7.348 7.348 0 01-2.46-.65 1.283 1.283 0 01-.54-1.41 1.548 1.548 0 011.67-.77c1.69.1 3.37.33 5.06.46 1.91.14 3.83.27 5.76.28.133 0 .26-.053.354-.146a.504.504 0 000-.707.5.5 0 00-.354-.147v-.09zm-72 54.26H47.28v1h126.94v-1zm192.96 0H313.6v1h53.58v-1z" fill="#313131"/><path d="M149.37 177h-13.74a7.558 7.558 0 01-7.56-7.55V142.6h28.86v6.34h-1v-5.34h-26.86v25.86a6.561 6.561 0 006.56 6.55h13.74a6.56 6.56 0 006.56-6.55h1a7.556 7.556 0 01-4.668 6.978c-.917.379-1.9.573-2.892.572V177z" fill="#313131"/><path d="M156.93 153.68h-1v10.23h1v-10.23z" fill="#313131"/><path d="M156.56 149.42a6.52 6.52 0 016.64 1.75c2 2.08 2.8 5.21 2.82 8a11.186 11.186 0 01-2.64 7.62c-1.74 2-4.24 3.2-6.82 2.14-.59-.24-.85.73-.26 1 2.78 1.14 5.61-.09 7.57-2.16a12.21 12.21 0 003.15-8.57c0-3.15-.92-6.6-3.22-8.86a7.552 7.552 0 00-7.5-1.9c-.61.2-.35 1.16.26 1v-.02z" fill="#313131"/><path d="M156.93 154c.06-1.74 2.15-1.58 3-.49 1.12 1.4 1.23 3.45 1.25 5.16a9 9 0 01-.87 4.59 3.202 3.202 0 01-1.69 1.55 1.221 1.221 0 01-1.7-1.08c0-.65-1-.65-1 0-.09 1.64 1.74 2.52 3.15 2a5.307 5.307 0 002.86-4 15.28 15.28 0 000-5.68c-.28-1.65-1-3.6-2.72-4.23a2.73 2.73 0 00-2.35.24 2.148 2.148 0 00-1 2c0 .64 1 .64 1 0l.07-.06z" fill="#313131"/><path d="M130.79 151.42h23.43V169a4.286 4.286 0 01-1.257 3.033 4.286 4.286 0 01-3.033 1.257h-14.85a4.29 4.29 0 01-4.29-4.29v-17.58z" fill="#FFA800"/><path d="M22 73.54a1.83 1.83 0 110-3.66 1.83 1.83 0 010 3.66zm0-2.66a.83.83 0 100 1.66.83.83 0 000-1.66zm137.07 46.4a1.835 1.835 0 01-1.698-1.123 1.825 1.825 0 01.39-1.997 1.83 1.83 0 111.308 3.12zm0-2.66a.834.834 0 00-.83.83.83.83 0 10.83-.83zM278.87 8.58a1.829 1.829 0 11-.02-3.658 1.829 1.829 0 01.02 3.658zm0-2.66a.83.83 0 10-.02 1.66.83.83 0 00.02-1.66zm48.45 84.21a1.83 1.83 0 110-3.661 1.83 1.83 0 010 3.661zm0-2.66a.831.831 0 00-.587 1.417.83.83 0 10.587-1.417zm-182.38 47.16l-.81-.57c-.06 0-6.25-4.46-3.73-10a19.649 19.649 0 001.46-10.17l-.24-1.45 1.08 1c.24.23 5.9 5.61 3.94 11a27.99 27.99 0 00-1.72 9.21l.02.98zm-1.94-19.4a20.348 20.348 0 01-1.68 9.24c-1.7 3.73 1.17 6.88 2.63 8.16a30.03 30.03 0 011.76-8.54c1.29-3.46-1.24-7.09-2.71-8.86z" fill="#313131"/></g><defs><clipPath id="clip0_5201_4581"><path fill="#fff" d="M0 0h385.88v244.4H0z"/></clipPath></defs></svg>