<svg width="388" height="218" fill="none" xmlns="http://www.w3.org/2000/svg"><g clip-path="url(#clip0_5201_1792)"><path d="M137 136a5.872 5.872 0 005-.94 4.441 4.441 0 001.56-2.45 10.67 10.67 0 00.19-2.93c0-.64-1-.65-1 0 .063.859.016 1.723-.14 2.57a3.49 3.49 0 01-1.24 2 4.87 4.87 0 01-4.08.75c-.62-.15-.89.81-.26 1H137z" fill="#313131"/><path d="M142.71 129.28a13.824 13.824 0 00.3 3.09 5.096 5.096 0 001.63 2.56 6.138 6.138 0 004.72 1.2.513.513 0 00.314-.242.522.522 0 00.051-.393.513.513 0 00-.242-.314.522.522 0 00-.393-.051h-.33a7.944 7.944 0 01-1 0 4.67 4.67 0 01-2.5-1 4.252 4.252 0 01-1.34-2.23 13.006 13.006 0 01-.22-2.65c0-.64-1-.64-1 0l.01.03zm-3.91 6.88a3.31 3.31 0 012.94 1.52 4.99 4.99 0 01.74 1.64c0 .12.06.25.09.38.08.38 0-.09 0 .08v.3c.06 1.13.07 2.27.09 3.4a.5.5 0 101 0c0-1.22 0-2.45-.11-3.67-.21-2.37-2.23-4.86-4.78-4.65-.64.05-.64 1.05 0 1h.03z" fill="#313131"/><path d="M143.69 143.48v-2.93a3.942 3.942 0 01.5-2 4.006 4.006 0 012-1.93 10.83 10.83 0 012.7-.5c.64-.06.65-1.06 0-1-1.02.053-2.029.241-3 .56a5.391 5.391 0 00-3.2 4.51c-.07 1.09 0 2.18 0 3.27a.5.5 0 101 0v.02z" fill="#313131"/><path d="M86.35 109.95h-7v8.71h7v-8.71zm10.75 0h-7v8.71h7v-8.71zm10.71 0h-7v8.71h7v-8.71zm6.95.03h-2.92v8.68h2.92v-8.68z" fill="#FCDA00"/><path d="M68.45 203.83a1.878 1.878 0 01-1.84-2.265 1.882 1.882 0 012.595-1.337A1.88 1.88 0 0170.33 202a1.893 1.893 0 01-1.88 1.83zm0-2.76a.878.878 0 00-.813.544.877.877 0 00.641 1.199.877.877 0 00.904-.374.879.879 0 00-.732-1.369zm152.39 16.68a1.89 1.89 0 111.88-1.88 1.88 1.88 0 01-1.88 1.88zm0-2.77a.896.896 0 00-.829.543.89.89 0 101.709.347.891.891 0 00-.88-.87v-.02zM190.77 8.59a7.101 7.101 0 006-1.13 5.29 5.29 0 001.87-2.95c.23-1.155.301-2.336.21-3.51 0-.64-1-.64-1 0a11.655 11.655 0 01-.17 3.18 4.4 4.4 0 01-1.55 2.54 6 6 0 01-5.1 1 .518.518 0 00-.26 1v-.13z" fill="#313131"/><path d="M197.84.48c-.023 1.26.101 2.519.37 3.75a6.089 6.089 0 002 3.08 7.359 7.359 0 005.67 1.44c.63-.1.36-1.06-.27-1h-.4c-.403.03-.807.03-1.21 0a5.758 5.758 0 01-3.13-1.25 5.24 5.24 0 01-1.67-2.78 15.596 15.596 0 01-.28-3.27c0-.64-1-.64-1 0l-.08.03zm-4.9 8.3a4.138 4.138 0 013.69 1.93 6.1 6.1 0 01.93 2c0 .16.07.31.1.47.1.46 0-.07 0 .13v.37c.07 1.39.08 2.78.1 4.16a.503.503 0 00.5.5.5.5 0 00.5-.5c0-1.49 0-3-.12-4.49-.26-2.85-2.69-5.83-5.75-5.59-.63.06-.64 1.06 0 1l.05.02z" fill="#313131"/><path d="M198.81 17.86v-3.59a5.067 5.067 0 01.63-2.47A5 5 0 01202 9.38a13.002 13.002 0 013.34-.61c.63-.06.64-1.07 0-1a13.817 13.817 0 00-3.67.67 5.83 5.83 0 00-2.91 2.56 6 6 0 00-.92 2.86c-.08 1.33 0 2.67 0 4a.503.503 0 00.5.5.5.5 0 00.5-.5h-.03zm-27.75 20.08a6.002 6.002 0 005.05-1 4.48 4.48 0 001.58-2.49c.2-.986.264-1.996.19-3 0-.64-1-.64-1 0a9.553 9.553 0 01-.14 2.62 3.574 3.574 0 01-1.26 2.08 5.002 5.002 0 01-4.15.76.518.518 0 10-.27 1v.03z" fill="#313131"/><path d="M176.87 31.13a13.72 13.72 0 00.31 3.13 5.181 5.181 0 001.65 2.6 6.166 6.166 0 004.79 1.21.517.517 0 00-.27-1h-.33a5.7 5.7 0 01-1 0 4.651 4.651 0 01-2.54-1 4.372 4.372 0 01-1.36-2.27 12.845 12.845 0 01-.23-2.69c0-.65-1-.65-1 0l-.02.02zm-3.98 6.97a3.38 3.38 0 013 1.56c.353.502.611 1.065.76 1.66 0 .13.06.26.09.39.08.38 0-.09 0 .08v.31c.06 1.15.07 2.31.09 3.46a.503.503 0 00.5.5.5.5 0 00.5-.5c0-1.24 0-2.5-.11-3.73-.21-2.41-2.26-4.93-4.85-4.73-.64.06-.64 1.06 0 1h.02z" fill="#313131"/><path d="M177.85 45.56v-3a4.432 4.432 0 012.58-4c.89-.29 1.815-.46 2.75-.51.64-.06.64-1.06 0-1-1.044.05-2.076.239-3.07.56a5.456 5.456 0 00-3.25 4.58c-.07 1.11 0 2.22 0 3.33a.503.503 0 00.5.5.5.5 0 00.5-.5l-.01.04zm12.82 31.59a1.781 1.781 0 110-3.562 1.781 1.781 0 010 3.562zm0-2.55a.777.777 0 00-.722.484.785.785 0 00.174.851.779.779 0 10.548-1.335zm-62.42-48.55a1.78 1.78 0 11-.06-3.56 1.78 1.78 0 01.06 3.56zm0-2.55a.779.779 0 100 1.558.779.779 0 000-1.558zM75 9.36a1.78 1.78 0 110-3.56 1.78 1.78 0 010 3.56zm0-2.56a.78.78 0 100 1.56.78.78 0 000-1.56zm223.56.93a1.781 1.781 0 01-1.24-3.056 1.781 1.781 0 111.24 3.056zm0-2.56a.782.782 0 00-.78.78.78.78 0 10.78-.78z" fill="#313131"/><path d="M212.21 199.83h-86.54a11.373 11.373 0 01-11.33-11.39V51.24A11.313 11.313 0 01125.67 40h86.54a11.343 11.343 0 0111.32 11.3v31.2h-1V51.3A10.328 10.328 0 00212.21 41h-86.54a10.297 10.297 0 00-10.33 10.26v137.2a10.37 10.37 0 0010.33 10.39h86.54a10.33 10.33 0 0010.32-10.32v-77.4h1v77.38a11.342 11.342 0 01-11.32 11.32z" fill="#313131"/><path d="M190.56 97.93L167 73.5c-.117.17-.251.328-.4.47a12.696 12.696 0 01-.997 16.112A12.698 12.698 0 01149.6 92.2a2.693 2.693 0 01-4.278.782 2.684 2.684 0 01-.363-3.471c.24-.35.559-.638.931-.84a12.697 12.697 0 011.079-15.782A12.704 12.704 0 01162.59 70.4a2.79 2.79 0 01.52-.51 19 19 0 00-24.79 1.81 18.993 18.993 0 00-5.59 13.46 19.005 19.005 0 005.59 13.46l25.32 26.23a18.99 18.99 0 0013.46 5.59 18.99 18.99 0 0013.46-5.59 18.985 18.985 0 005.59-13.46 19.004 19.004 0 00-5.59-13.46z" fill="#FCDA00"/><path d="M166.58 74a2.694 2.694 0 00.563-3.048 2.683 2.683 0 00-1.596-1.428 2.688 2.688 0 00-2.967.896 12.702 12.702 0 00-18.951 10.18 12.703 12.703 0 002.231 8.09 2.693 2.693 0 00-1.25 3.259 2.7 2.7 0 001.768 1.681 2.688 2.688 0 003.192-1.41 12.691 12.691 0 0017-18.22h.01z" stroke="#313131" stroke-miterlimit="10"/><path d="M153.1 82.16v-.12a1.212 1.212 0 00-2.066-.865 1.212 1.212 0 00.19 1.865c.201.133.436.202.676.2h.1a1.178 1.178 0 011.1-1.08zm8.55-8.84a.565.565 0 000-.13 1.21 1.21 0 10-1.21 1.21h.12a1.188 1.188 0 011.09-1.08zm-4.77 4.76l-.05.11c.04-.089.091-.172.15-.25l-.07.1c.067-.09.148-.167.24-.23l-.11.07c.1-.072.207-.132.32-.18h-.12c.11-.04.224-.07.34-.09h-.13a1 1 0 01.34 0h-.14.19a.518.518 0 00.26-1 1.818 1.818 0 00-2.2 1.13.504.504 0 00.449.624.5.5 0 00.281-.064.529.529 0 00.23-.3l.02.08zm1.68 4.72a3.12 3.12 0 002.95-.6 3.055 3.055 0 001-2.85.5.5 0 00-.61-.35.511.511 0 00-.35.61v.74c0 .1 0 .19-.08.29-.08.1-.06.15 0 .07l-.06.13-.15.27s-.09.12 0 .06l-.09.11a2.161 2.161 0 01-.22.21c-.07.07 0 0-.06.05l-.12.08c-.09.06-.18.1-.27.15-.09.05 0 0-.06 0h-.15l-.29.07h-.71a2.834 2.834 0 01-.31-.09.52.52 0 00-.27 1l-.15.05zm-15.31 20.9a27.922 27.922 0 0021.3 5.83 47.96 47.96 0 0012-3.45c3.26-1.36 6.64-2.81 9.22-5.29.47-.44-.24-1.15-.7-.7-2.54 2.43-5.92 3.84-9.13 5.17a47.759 47.759 0 01-10.93 3.2A27 27 0 01144 103c-.5-.4-1.21.31-.71.71l-.04-.01z" fill="#313131"/><path d="M180.15 88.38c4.3 4.08 5.41 11.05 4.84 16.68a35.37 35.37 0 01-6.53 16.66 34.109 34.109 0 01-6.83 7.21c-.51.4.21 1.1.71.71 9.38-7.35 15.88-20.78 13.22-32.76-.73-3.28-2.23-6.86-4.7-9.2-.47-.45-1.18.26-.71.7zM78.62 130.84h-2.94a1.2 1.2 0 01-1.2-1.2V82.08a1.2 1.2 0 011.2-1.19h2.94a1.19 1.19 0 011.19 1.19v47.56a1.195 1.195 0 01-.732 1.109c-.145.06-.3.091-.458.091zm-2.94-48.95a.2.2 0 00-.2.19v47.56a.2.2 0 00.059.142.202.202 0 00.141.058h2.94a.199.199 0 00.19-.2V82.08a.2.2 0 00-.19-.19h-2.94z" fill="#313131"/><path d="M114.65 92.06H78.81v-5.32l35.84-.05v1l-34.84.04v3.33h34.84v1zm0 31.42H78.81v-5.32h36.03v1H79.81v3.32h34.84v1z" fill="#313131"/><path d="M90.29 119.16h-4.48v-28.1h4.48v28.1zm-3.48-1h2.48v-26.1h-2.48v26.1zm14.39 1h-4.49v-28.1h4.49v28.1zm-3.49-1h2.49v-26.1h-2.49v26.1zm14.39 1h-4.48v-28.1h4.48v28.1zm-3.48-1h2.48v-26.1h-2.48v26.1z" fill="#313131"/><path d="M90.021 109.533l-.004.85 6.96.033.004-.85-6.96-.033zm-3.861-.013h-6.85v.85h6.85v-.85zm.78-21.78h-4.45V68.22a10 10 0 0119.93 0v1.44H98v-1.52a5.51 5.51 0 10-11 0l-.06 19.6zm-3.45-1h2.45v-18.6a6.509 6.509 0 1113 0v.52h2.46v-.44a9.001 9.001 0 00-17.93 0l.02 18.52z" fill="#313131"/><path d="M107.65 72.6H93a1 1 0 01-1-1v-1.78a1 1 0 011-1h14.7a1 1 0 011 1v1.78a.992.992 0 01-.31.726 1.011 1.011 0 01-.74.274zm0-2.78H93v1.78h14.7l-.05-1.78z" fill="#313131"/><path d="M96.38 76l1.05 2.12 2.34.34a.2.2 0 01.11.35l-1.69 1.65.4 2.33a.2.2 0 01-.3.21l-2.09-1.1-2.1 1.1a.2.2 0 01-.29-.21l.4-2.33-1.69-1.65a.2.2 0 01.11-.35l2.37-.39L96 76a.2.2 0 01.38 0z" fill="#1280FF"/><path d="M96.7 72.37h-1v3.88h1v-3.88z" fill="#313131"/><path d="M104.63 76.21a.1.1 0 00-.083.067.095.095 0 00-.004.055.101.101 0 00.027.048 3.47 3.47 0 01-1.93 6 .1.1 0 00-.056.09.1.1 0 00.056.09 3.478 3.478 0 005.356-1.767 3.493 3.493 0 00.116-1.624 3.486 3.486 0 00-3.472-2.908l-.01-.05z" fill="#1280FF"/><path d="M105.2 72.33h-1v3.88h1v-3.88zm104.32 68.91h-81.16V55.75h81.16v31.01h-1V56.75h-79.16v83.49h79.16v-44.6h1v45.6zM31.2 43.58a5.401 5.401 0 004.69-.68 4.18 4.18 0 001.52-2.17 9.6 9.6 0 00.32-2.73.5.5 0 00-1 0c0 1.49-.13 3.12-1.43 4.09a4.422 4.422 0 01-3.83.51.518.518 0 10-.27 1v-.02z" fill="#313131"/><path d="M36.74 37.65c-.064.96-.017 1.922.14 2.87A4.72 4.72 0 0038.27 43a5.58 5.58 0 004.2 1.34.51.51 0 00.5-.5.5.5 0 00-.5-.5A4.621 4.621 0 0139 42.26a3.85 3.85 0 01-1.16-2.11 12.279 12.279 0 01-.08-2.5.5.5 0 00-1 0h-.02zm-3.87 6.16c1.94-.05 3.24 2 3.24 3.78 0 1 0 2.1-.08 3.15 0 .64 1 .64 1 0 0-1.13.13-2.28.08-3.4-.1-2.23-1.87-4.59-4.24-4.53a.5.5 0 000 1z" fill="#313131"/><path d="M37 50.74c0-.9.07-1.8.15-2.7a3.55 3.55 0 01.53-1.73 3.71 3.71 0 011.95-1.69c.832-.22 1.69-.33 2.55-.33.64 0 .64-1 0-1-.967-.002-1.929.13-2.86.39A4.59 4.59 0 0037 45.61a4.47 4.47 0 00-.77 2.13c-.12 1-.13 2-.18 3 0 .64 1 .64 1 0H37zm172.02 108.9h-80.16v1h80.16v-1zm0 17.52h-80.16v1h80.16v-1zm-94.14-22.4H63.86v1h51.02v-1zm-.12 15.54h-50.9v1h50.9v-1z" fill="#313131"/><path d="M114.92 190.54H60.47a10.455 10.455 0 01-9.67-6.448 10.457 10.457 0 01-.8-4.002V59a10.46 10.46 0 0110.47-10.43h54.29v1H60.47A9.45 9.45 0 0051 59v121.09a9.461 9.461 0 009.45 9.45h54.45l.02 1z" fill="#313131"/><path d="M95.79 62.56h-6.44v1h6.44v-1zm18.97 0h-14.35v1h14.35v-1zm0 75.98h-51.4V62.56h21.27v1H64.36v73.98h50.4v1zm-64.24 12.98H12.15v1h38.37v-1zm0 13.57H12.15v1h38.37v-1z" fill="#313131"/><path d="M50.79 182.89H9.19A9.191 9.191 0 010 173.71V68a9.2 9.2 0 019.19-9.19h41.33v1H9.19A8.2 8.2 0 001 68v105.71a8.192 8.192 0 008.19 8.18h41.6v1z" fill="#313131"/><path d="M50.52 137.49H11.65V71.01h38.87v1H12.65v64.48h37.87v1z" fill="#313131"/><path d="M100.81 109.95h7.42m3.61.03h3.12" stroke="#313131" stroke-width=".85" stroke-miterlimit="10"/><path d="M20.84 97.43l.31-9.35 9.14-1.19v.26c-.08 2.64-.15 5.29-.24 7.93 0 1.14-.09 2.29-.19 3.42a1.81 1.81 0 01-.37.88 4.708 4.708 0 01-4.57 1.41 1.292 1.292 0 01-.7-2.17c.085-.114.179-.22.28-.32a4.7 4.7 0 013.44-1.3c.407.033.811.093 1.21.18l.26-8-.77.09-4.33.58-2.25.3c-.18 0-.19.13-.19.27l-.06 2.08c-.07 1.92-.16 3.83-.21 5.75a2.15 2.15 0 01-1 1.74 4.76 4.76 0 01-3.49 1 2.732 2.732 0 01-1.05-.39 1.091 1.091 0 01-.44-1.4 2.39 2.39 0 01.94-1.14 4.722 4.722 0 013.64-.87c.218.067.432.147.64.24zm22.63-22a3.26 3.26 0 01.53-1.79 3.62 3.62 0 00.54-1.64 1.81 1.81 0 00-.63-1.55 3.92 3.92 0 01-1-1.18c-.09.42-.17.84-.27 1.26-.59 2.73-1.19 5.45-1.78 8.17a1.62 1.62 0 01-.71 1 4.81 4.81 0 01-3.4.8 3 3 0 01-1.45-.5 1.2 1.2 0 01-.3-1.86 3.14 3.14 0 011.67-1 4.73 4.73 0 013 0c.21.08.4.19.63.3l2.08-9.77a.85.85 0 01.11.13 11.25 11.25 0 002.22 2.45 2 2 0 01-.08 3.23 2.691 2.691 0 00-1.16 1.95z" fill="#1280FF"/><path d="M36.57 97.28a16 16 0 01-18.83 19.42c-.639-.14-1.27-.314-1.89-.52a16.003 16.003 0 0010.868 11.542 15.997 15.997 0 0019.907-10.373A15.997 15.997 0 0036.57 97.28z" fill="#FCDA00"/><path d="M282.84 84.58a28.994 28.994 0 00-8.94 5.34 55.381 55.381 0 00-8.26 8.71c-.4.51.47 1 .86.5a54.021 54.021 0 017.89-8.31 27.602 27.602 0 018.71-5.28c.61-.21.35-1.18-.26-1v.04zm1.22-4.7l.27.92c.1.32.22.63.29 1a.338.338 0 010 .11v.79a.405.405 0 010 .11.516.516 0 001 .26 3.38 3.38 0 00.07-1.45 8.473 8.473 0 00-.29-1c-.1-.33-.2-.67-.29-1a.519.519 0 00-1 .27l-.05-.01z" fill="#313131"/><path d="M272.36 78.94c6.55 3.32 15.16 2.39 19.36-4.1.35-.54-.52-1-.86-.5-3.89 6-11.95 6.8-18 3.73-.58-.29-1.08.58-.51.87h.01zm-7.92-31.62c-1.71 9.63-2.35 20.31 4.07 28.45.4.5 1.11-.21.71-.71-6.17-7.82-5.46-18.25-3.82-27.48.11-.63-.85-.9-1-.26h.04z" fill="#313131"/><path d="M297.63 65.76a58.752 58.752 0 002.64 6.88 3.817 3.817 0 013.25 0A10.558 10.558 0 01308 78.8c.251.705.32 1.462.2 2.2a29.434 29.434 0 016.7 2c6.1 2.39 12.82 5.65 21.74 6 8.19.32 16.86-17.73 16.86-17.73l-25.34-23.71-30.53 18.2z" fill="#1280FF"/><path d="M337.08 89.02c17.927 0 32.46-14.533 32.46-32.46S355.007 24.1 337.08 24.1s-32.46 14.533-32.46 32.46 14.533 32.46 32.46 32.46z" fill="#1280FF"/><path d="M344.73 76.27c-8.64-.46-18.46 2.54-22.16 9.78.2.13 2.5 2 2.68 2.2a18.24 18.24 0 014.65 6.46 18.83 18.83 0 011.35 3.77 25.71 25.71 0 01.58 4c.14 2.749.11 5.505-.09 8.25a37.197 37.197 0 01-.39 4.08 21.236 21.236 0 0027.108-2.144 21.231 21.231 0 006.223-17.928 21.247 21.247 0 00-10.592-15.746 21.244 21.244 0 00-9.359-2.732v.01z" fill="#1280FF"/><path d="M331.82 101.33c.037.891.003 1.784-.1 2.67-.07 1.42 0 2.85.06 4.27.05 1.544-.03 3.09-.24 4.62-.24 1.56-.49 3.11-.78 4.65-.573 3.06-1.263 6.09-2.07 9.09-.21.77-.43 1.53-.65 2.29-.22.76-.47 1.5-.65 2.27a30.741 30.741 0 01-1.16 4.53c-.18.45-.38.89-.57 1.34a18.133 18.133 0 0014.047-4.029 18.144 18.144 0 006.387-11.598 18.144 18.144 0 00-14.274-20.103zm35.55-56.45C363.07 34 354.76 30 354.76 30l-39.61 2.64c-3.46 3.54-7.48 4.5-11.51 2.67-6.59-3-11-7-22.35-6.28-10.89.69-16.34 7.16-17.46 10.73-.06.21-.11.4-.17.6.444.185.866.416 1.26.69.509.37.981.79 1.41 1.25.45.47.87 1 1.3 1.44.18.2.36.4.55.59 1.59-1.61 3.16-3.32 3.16-3.32s1.64 2.68 9.53 8.37a144.063 144.063 0 0013.56 8.73s4.83-4 5.72 1c.89 5-2.91 5.89-2.91 5.89l1.86 3.87a7.75 7.75 0 014.9-.57 6.111 6.111 0 014.21 3s51.14 9.7 54.13 5.7c2.99-4 7.43-26.06 5.03-32.12z" fill="#1280FF"/><path d="M277.47 72.33a2.773 2.773 0 002.15.13 3.879 3.879 0 001.68-1.1 4.156 4.156 0 00.9-3.43.508.508 0 00-.62-.35.499.499 0 00-.34.61c.01.09.01.18 0 .27.01.107.01.214 0 .32a2.88 2.88 0 01-.09.64c-.038.197-.088.39-.15.58a3.81 3.81 0 01-.19.35l-.09.13-.06.09a2.371 2.371 0 01-2.66.86.51.51 0 00-.68.18.502.502 0 00.18.68l-.03.04zm1.21-14.1a2.62 2.62 0 013.37.4.519.519 0 00.71 0 .511.511 0 000-.71 3.639 3.639 0 00-4.59-.55.51.51 0 00-.18.68.495.495 0 00.504.246.499.499 0 00.186-.066zm16.18.13a2.709 2.709 0 013.43-.85 2.995 2.995 0 011.44 3.19 5.241 5.241 0 01-5.06 4.4.501.501 0 100 1 6.24 6.24 0 005.67-3.89 4.998 4.998 0 00.14-3.69 3.718 3.718 0 00-2.75-2.25 3.768 3.768 0 00-3.73 1.58c-.37.53.49 1 .86.51zm11.91 70.27a100.016 100.016 0 012.56-15c.95-3.48 2.2-6.86 3.19-10.33a.515.515 0 00-.37-.63.515.515 0 00-.63.37c-1 3.53-2.29 7-3.25 10.52a103.74 103.74 0 00-2.54 15.07c-.07.64.93.63 1 0h.04z" fill="#313131"/><path d="M275.51 119.88c9.71 4.32 20 8.78 30.76 9.25.64 0 .64-1 0-1-10.58-.46-20.71-4.87-30.25-9.11-.58-.26-1.09.6-.51.86zm-1.18-78.66l8.19 4.49c.56.31 1.07-.55.5-.86l-8.19-4.49c-.56-.31-1.07.55-.5.86zM321.59 72a16.21 16.21 0 008.48 3c.65 0 .64-1 0-1a15.258 15.258 0 01-8-2.88c-.52-.37-1 .49-.5.87l.02.01zM307 55.63l6.93.88c.27 0 .49-.26.5-.5a.513.513 0 00-.5-.5l-6.93-.88c-.27 0-.5.25-.5.5a.519.519 0 00.5.5zm7.66-3.63a28.415 28.415 0 0012.77-4.13c.55-.34.05-1.21-.5-.87a27.312 27.312 0 01-12.27 4c-.64 0-.64 1 0 1zm41.93-7.94l3.46 4a.48.48 0 00.7 0 .48.48 0 00.147-.35.494.494 0 00-.147-.35l-3.45-4a.502.502 0 00-.71.71v-.01zm-74.91-3.83l4.32 2.32c.56.31 1.07-.56.5-.86l-4.28-2.32c-.57-.31-1.08.56-.51.86h-.03z" fill="#313131"/><path d="M305.5 129.06a20.12 20.12 0 019.36 2.84c.5.31.95-.48.46-.79a21.164 21.164 0 00-9.82-3c-.58 0-.58.87 0 .91v.04z" fill="#313131"/><path d="M265.88 48.11c-.28-.32-.59-.62-.9-.91-.65-.59-1.34-1.12-2-1.65a9.047 9.047 0 00-1.05-.63 9.18 9.18 0 01-.68-.39c-.07.2-.14.41-.19.6a13.003 13.003 0 00-.38 3.82c.06 1.37.05 2.51-.72 3.06-1.44 1-3.69-.36-3.69-.36a3.357 3.357 0 001.52 3.25c2.55 1.76 5.86.86 7.46-4 .25-.79.44-1.78.69-2.74l-.06-.05z" fill="#1280FF"/><path d="M308.15 81.45c1.87 1.18 4.46 1.46 6.54 2.1a35.088 35.088 0 018.19 3.52 16.811 16.811 0 016.12 6.25 20.992 20.992 0 012.15 7.56c.71 6.21-.12 12.58-1.35 18.66a182.952 182.952 0 01-4.95 18.11c-1.25 4-2.54 8.57-5.59 11.61-3.05 3.04-7.86 3.49-12.08 3.21-13.28-.89-22.5-10.95-33-17.8-3.68-2.39-7.68-4.19-11.36-6.57a65.489 65.489 0 01-7.31-5.38 18.178 18.178 0 01-3.15-3.29 8.48 8.48 0 01-1.39-2.71c-.29-1.21.16-1.8 1.35-2 .63-.07.64-1.08 0-1-.88.11-1.84.23-2.25 1.12-.54 1.17 0 2.57.56 3.63 1.41 2.73 3.84 4.73 6.22 6.57a82.643 82.643 0 0011.74 7.46c5.29 2.84 9.93 6.48 14.72 10.08 5.33 4 11 7.9 17.53 9.74 4.83 1.37 10.83 2 15.58 0 3.78-1.59 5.9-5 7.4-8.68 1-2.52 1.82-5.14 2.62-7.75 1-3.23 2-6.46 2.85-9.73a83.067 83.067 0 003.11-20.48c0-5.44-.74-11.3-4.38-15.6-4-4.75-10.27-6.81-16.08-8.38a11.777 11.777 0 01-3.29-1.14c-.55-.35-1.05.52-.51.86l.01.03zm-11.39-16.37c1.12 2.73 2.25 5.46 3.48 8.14.27.59 1.13.08.87-.5-1.2-2.6-2.29-5.26-3.39-7.9a.507.507 0 00-.785-.265.487.487 0 00-.175.525z" fill="#313131"/><path d="M267.68 109.56a28.789 28.789 0 01.26-7.48 2.503 2.503 0 011.36-2c1.58-.69 1.82.88 1.84 2.13-.04 1.509.08 3.018.36 4.5.34 1.312.813 2.585 1.41 3.8.7 1.53 1.51 3 2.19 4.53a6.382 6.382 0 01.18 4.29c-.13.63.83.89 1 .26a8.883 8.883 0 00.31-3.24 14.5 14.5 0 00-1.64-3.92c-1.34-2.75-2.72-5.5-2.8-8.61 0-1.53.34-5.1-2.13-5a3.4 3.4 0 00-3 3 29.474 29.474 0 00-.3 7.74.5.5 0 101 0h-.04z" fill="#313131"/><path d="M258.66 108.27a4.258 4.258 0 01-.52-3.81 2.492 2.492 0 011.91-1.46 2.075 2.075 0 011.65.17c.35.23.35.54.31.92-.09.465-.13.937-.12 1.41.056.655.306 1.279.72 1.79 1.15 1.44 2.8 2.35 4.18 3.53.49.41 1.2-.29.71-.71-.67-.57-1.39-1.07-2.09-1.6a9.587 9.587 0 01-2.13-2 2.423 2.423 0 01-.36-1.76 3.983 3.983 0 000-1.5c-.39-1.41-2.14-1.46-3.29-1.2a3.377 3.377 0 00-2.35 1.82 5.175 5.175 0 00.47 4.9.503.503 0 00.923-.128.501.501 0 00-.053-.382l.04.01z" fill="#313131"/><path d="M261.93 113.27c-.8-1.06-1.5-2.21-2.22-3.33l-1-1.61a4.21 4.21 0 00-.48-.75 2.614 2.614 0 00-1.83-.65 2.5 2.5 0 00-2.07 1.66 3.697 3.697 0 00.33 2.76c.383.929.859 1.817 1.42 2.65a20.067 20.067 0 002.43 3.08.499.499 0 00.71-.7 17.734 17.734 0 01-1.67-2 12.44 12.44 0 01-2.36-4.6 1.58 1.58 0 011.21-1.84c.317-.019.631.062.9.23.06 0 .21.16.27.17.06.01-.12-.18-.11-.12.128.292.296.565.5.81.31.49.62 1 .94 1.47.7 1.11 1.39 2.24 2.19 3.28.38.51 1.25 0 .86-.5l-.02-.01z" fill="#313131"/><path d="M258.58 115.71c-.76-1-1.42-2.08-2.09-3.14a4.562 4.562 0 00-1.37-1.78 2.38 2.38 0 00-2.18-.16 2.683 2.683 0 00-1.41 1.87 4.726 4.726 0 00.47 2.5 14.57 14.57 0 001.07 2.17 11.197 11.197 0 001.71 2.23c.46.45 1.17-.25.71-.7a11.696 11.696 0 01-2.91-5.13 1.706 1.706 0 01.47-1.87 1.352 1.352 0 011.67 0s.13.12.16.11c.03-.01-.16-.23-.12-.12.042.088.092.172.15.25l.72 1.16c.66 1 1.31 2.11 2.07 3.09.38.51 1.25 0 .86-.5l.02.02zm-27.96-19.28a108.92 108.92 0 007.08 9.23c3.84 4.53 8.41 8.3 12.41 12.67 1.29 1.41 2.57 2.84 3.81 4.3.41.5 1.12-.21.7-.7-1.45-1.72-3-3.4-4.48-5.05-2.49-2.68-5.26-5-7.83-7.62-4-4.115-7.624-8.58-10.83-13.34-.36-.53-1.23 0-.86.51zm38.26 37.01c-2.5 2.41-4.94 4.9-7.57 7.17a15.457 15.457 0 01-5.84 3.62 9.33 9.33 0 01-6.42-.93 43.894 43.894 0 01-6.47-3.86c-9.65-6.73-13.81-18.23-19-28.3-.5-1-1-1.92-1.51-2.87a8.454 8.454 0 00-1.3-2.26 14.626 14.626 0 00-1.36-1 20.836 20.836 0 01-6.36-7.17c-.29-.58-1.15-.07-.86.5a20.557 20.557 0 005.64 6.7c.67.54 1.39 1 2.06 1.54.88.7 1.31 2.12 1.84 3.14 3.34 6.34 6.16 13 9.9 19.09a37.118 37.118 0 009.88 11.07 47.808 47.808 0 006.59 4 11.483 11.483 0 006.39 1.47 12.732 12.732 0 006.3-3.1c3.12-2.49 5.9-5.42 8.78-8.18.47-.45-.24-1.15-.71-.71l.02.08zm-.167-72.803c.055-1.031-.544-1.902-1.339-1.944-.794-.042-1.482.76-1.537 1.79-.055 1.032.544 1.902 1.338 1.945.795.042 1.483-.76 1.538-1.791z" fill="#313131"/><path d="M267.16 110.68a.49.49 0 01-.48-.42l-2.95-23.43.39-.16c7.22-2.78 11.53-12.92 10.5-24.64a31.998 31.998 0 00-5.76-16.26c-3.35-4.47-7.57-6.71-11.88-6.35-4.31.36-8.07 3.34-10.59 8.33a31.996 31.996 0 00-2.84 17c1.1 12.47 8 22.19 16.14 22.63h.89l.13.42 1.86 14.59a.502.502 0 01-.012.189.49.49 0 01-.228.293.482.482 0 01-.18.058.468.468 0 01-.54-.42l-1.81-14.15h-.17c-8.58-.46-15.91-10.57-17-23.52a33.096 33.096 0 012.94-17.53c2.68-5.3 6.72-8.45 11.37-8.86 4.65-.41 9.19 2 12.75 6.74a33.116 33.116 0 015.95 16.75c1.05 12-3.35 22.36-10.75 25.49l2.8 22.71a.468.468 0 01-.42.54h-.11zm-6.9-26.81c-3 0-6-1.91-8.45-5.44a29.152 29.152 0 01-4.75-14 28.507 28.507 0 012.48-15.11c2-3.86 4.7-6.14 7.75-6.4a6.371 6.371 0 011 0c2.76.15 5.44 1.86 7.77 5a28.474 28.474 0 015.07 14.45c1 11.09-3.71 20.94-10.23 21.52-.22-.02-.43-.02-.64-.02zM248 64.36a28.008 28.008 0 004.58 13.51c2.44 3.48 5.36 5.26 8.19 5 6-.53 10.27-9.9 9.34-20.46-.312-5.026-2-9.869-4.88-14-2.12-2.83-4.62-4.45-7-4.58a5.998 5.998 0 00-.85 0c-2.7.24-5.17 2.33-7 5.87A27.6 27.6 0 00248 64.36zm-16.47 31.95c.59-3 1.06-6.13 1.36-9.22.22-2.35.1-5.28-2.19-6.64-2.29-1.36-5.33.21-7.45 1.34-1.7.92-4.3 2.82-2.84 5.07.72 1.09 2.14 1.06 3.26.76a22.917 22.917 0 004.57-1.92c.57-.3.07-1.17-.5-.87-1.31.711-2.682 1.3-4.1 1.76a2.54 2.54 0 01-2.09 0 1.386 1.386 0 01-.43-1.6c.36-1.26 1.82-1.92 2.88-2.48a12.661 12.661 0 014.17-1.58 3.149 3.149 0 013.29 1.81 7.784 7.784 0 01.44 4.2c-.28 3-.75 6.08-1.33 9.09-.12.63.84.9 1 .27l-.04.01z" fill="#313131"/><path d="M223.24 82.19c-1-1.81-1.89-3.66-2.71-5.56-.42-1-.82-2-1.2-3a9.813 9.813 0 00-1.2-2.46c-.79-1-2.52-2.46-3.51-.83a5.184 5.184 0 00-.53 2.55 10.828 10.828 0 00.41 3.1c.63 2.28 1.49 4.49 2.18 6.75.19.61 1.16.35 1-.27-.66-2.14-1.46-4.25-2.09-6.4a10.156 10.156 0 01-.44-3.67 3.467 3.467 0 01.32-1.49c.35-.6.83-.2 1.24.15.724.7 1.26 1.57 1.56 2.53.4 1 .81 2.08 1.25 3.11.86 2 1.83 4 2.89 6 .3.57 1.17.06.86-.51h-.03z" fill="#313131"/><path d="M217.57 82.47a5.247 5.247 0 00-4.77-1.76c-2 .36-1.87 3-1.65 4.54a10.225 10.225 0 002.33 5 4.721 4.721 0 002.12 1.6 1.85 1.85 0 002.19-.77 3.239 3.239 0 00-.24-3.06 19.938 19.938 0 00-1.86-3.15c-.37-.52-1.23 0-.86.5.46.643.884 1.31 1.27 2a6.542 6.542 0 011 2.33c.09.73-.35 1.41-1.15 1.2a3.666 3.666 0 01-1.69-1.3 9.433 9.433 0 01-2-3.81 8.485 8.485 0 01-.23-2.07c0-.61 0-1.72.64-2a3.42 3.42 0 012.21.08 4.383 4.383 0 012 1.32c.42.49 1.13-.22.71-.7l-.02.05z" fill="#313131"/><path d="M211.83 84.7a2.27 2.27 0 00-3.18 1.41c-.54 1.57.29 3.17.9 4.59.35.82.68 1.66 1.06 2.47a3.139 3.139 0 001.38 1.6 2.313 2.313 0 002.702-.714c.206-.264.352-.57.428-.896a4.4 4.4 0 00-.63-3.21.5.5 0 00-.86.5c.472.72.661 1.59.53 2.44a1.519 1.519 0 01-1.28 1.11c-.72 0-1.13-.77-1.4-1.34-.36-.76-.67-1.54-1-2.31a17.655 17.655 0 01-.87-2.23 2.691 2.691 0 01.13-2 1.212 1.212 0 011.59-.56.5.5 0 00.5-.86z" fill="#313131"/><path d="M209.46 88.71a2.46 2.46 0 00-2.36 2.43c-.13 1.5.73 3 1.3 4.31.57 1.31 1 2.89 2.33 3.4a2.29 2.29 0 002.8-1.58 3.904 3.904 0 00-.49-3 .502.502 0 00-.909.135.502.502 0 00.049.375 2.888 2.888 0 01.38 2.25 1.481 1.481 0 01-1.2 1c-.65 0-1-.67-1.29-1.19-.29-.52-.59-1.34-.88-2-.29-.66-.63-1.39-.87-2.11-.34-1-.42-3 1.14-3a.5.5 0 100-1v-.02zm92.09-15.06c-2.31 3.94-5.34 8.25-9.55 10.35-1.56.78-3.7 1.27-5.33.44a2.065 2.065 0 01-1.13-1.54.503.503 0 00-.5-.5.5.5 0 00-.5.5c0 3.27 4.72 3.24 6.85 2.45a15.927 15.927 0 005.74-4.08 37.526 37.526 0 005.26-7.13.502.502 0 00-.179-.677.501.501 0 00-.681.167l.02.02zm3.45 8.92c-2.18 5.18-7.42 8.85-12.61 10.58-.61.2-.35 1.17.26 1 5.57-1.85 11-5.74 13.31-11.27.25-.6-.71-.86-1-.27l.04-.04zm-22.53 2.49a29.405 29.405 0 00-.12 5.47 4.51 4.51 0 003.92 4.34c.567.13 1.15.173 1.73.13.63-.08.64-1.08 0-1a4.576 4.576 0 01-3.49-.91c-1.61-1.39-1.31-3.92-1.22-5.82 0-.72.07-1.44.14-2.16.07-.72-.94-.64-1 0l.04-.05zm34.31-43.84a35.92 35.92 0 004-3.53 12.21 12.21 0 014.69-2.55.517.517 0 10-.27-1 13.138 13.138 0 00-4.79 2.52c-1.42 1.16-2.55 2.65-4.1 3.66-.54.35 0 1.21.5.86l-.03.04zm-20.09 86.68a27.55 27.55 0 01-6.2 18.82c-.4.5.3 1.21.71.71a28.63 28.63 0 006.49-19.53c0-.64-1-.65-1 0zm-28.09 4.36c.37 5 4 9 4.87 13.81.363 2.846.417 5.723.16 8.58l-.32 9c0 .64 1 .64 1 0l.31-8.77a46.689 46.689 0 00-.07-8.36c-.72-5.06-4.57-9.15-4.95-14.27-.05-.64-1.05-.65-1 0v.01zm52.98 14.36c1.27 2.25 2.59 4.47 3.77 6.78a55.63 55.63 0 013.12 7.58c.2.6 1.17.34 1-.27a58.637 58.637 0 00-3.13-7.65c-1.2-2.36-2.56-4.64-3.86-6.95-.31-.56-1.18-.05-.86.51h-.04z" fill="#313131"/><path d="M274 164.28c18.3 3.79 37.1 1 55.12-3 .63-.13.37-1.1-.26-1-17.84 3.89-36.48 6.7-54.6 3-.62-.13-.89.83-.26 1z" fill="#313131"/><path d="M273.34 162.83c-1.45 4.82-2.67 9.72-3.72 14.64-1.66 7.79-3.37 15.89-3.3 23.89a.5.5 0 101 0 68.834 68.834 0 011.14-12.23c.68-4 1.37-7.93 2.22-11.85 1-4.77 2.22-9.52 3.63-14.18.19-.62-.78-.88-1-.27h.03zm55.13-1.83c5.11 14.29 7.15 30.37 4.34 45.38-.12.63.84.9 1 .27 2.85-15.18.84-31.45-4.34-45.92-.21-.6-1.18-.34-1 .27zm-29.91-81.22a7.895 7.895 0 013 5.43.52.52 0 00.5.5.501.501 0 00.5-.5 8.99 8.99 0 00-3.48-6.3.52.52 0 00-.69.18.527.527 0 00.18.69h-.01zm-2.85 2.57l.07.09s.09.12.13.19l.24.4c.08.14.15.29.22.44l.16.41c.111.304.201.614.27.93.062.276.092.558.09.84a.503.503 0 00.5.5.5.5 0 00.5-.5 5.989 5.989 0 00-.42-2.09 6.227 6.227 0 00-1.06-1.92.495.495 0 00-.547-.11.495.495 0 00-.163.11.48.48 0 00-.147.35.494.494 0 00.147.35l.01.01zm7.01-3.78a9.355 9.355 0 011.89 4.77.513.513 0 00.5.5.501.501 0 00.5-.5 10.587 10.587 0 00-2.18-5.48.502.502 0 00-.71.71zm19.6 10.59a45.502 45.502 0 00-4.72 4 17.994 17.994 0 00-4.44 6.32c-.22.6.74.86 1 .27a17.067 17.067 0 014.28-6 45.392 45.392 0 014.38-3.75c.51-.38 0-1.25-.5-.86v.02zM296.6 137.1c1.3-.019 2.59.229 3.79.73a.497.497 0 00.61-.35.512.512 0 00-.35-.62 10.384 10.384 0 00-4-.76.5.5 0 000 1h-.05zm-2.03 5.09a15.321 15.321 0 004.38 2.44.507.507 0 00.62-.35.497.497 0 00-.35-.61 13.986 13.986 0 01-4-2.19.522.522 0 00-.7 0 .497.497 0 00-.109.547.486.486 0 00.109.163h.05zm-46.48-26.29a19.242 19.242 0 01-3 10.55c-2 3.09-5.48 6.93-9.62 6.35-.63-.08-.9.88-.26 1 4.32.6 7.94-2.8 10.23-6.05a20.33 20.33 0 003.69-11.82.501.501 0 00-1 0l-.04-.03zm29.57 49.16a25.464 25.464 0 00-1.16 8.35c0 .63 1 .64 1 0a24.342 24.342 0 011.12-8.08.52.52 0 00-.758-.584.522.522 0 00-.242.314h.04zm2.68.47a19.86 19.86 0 01-.5 7.75.519.519 0 001 .27c.697-2.606.877-5.324.53-8a.501.501 0 00-1 0l-.03-.02zm29.33-.72c-.19 2.592.15 5.195 1 7.65.21.6 1.18.34 1-.27a18.493 18.493 0 01-1-7.38c.05-.64-.95-.64-1 0zm3.07-.69l1.68 8.3c.13.63 1.09.36 1-.26l-1.68-8.31c-.13-.63-1.1-.36-1 .27z" fill="#313131"/><path d="M314.55 172.79a23.14 23.14 0 0018.86 6.21c.63-.08.63-1.08 0-1-6.39.82-13.59-1.31-18.15-5.94a.503.503 0 00-.679.021.503.503 0 00-.031.679v.03zm-44.1 5.04a17.772 17.772 0 006.9-4.07c.47-.44-.23-1.14-.71-.71a18.006 18.006 0 01-6.45 3.82c-.61.2-.35 1.17.26 1v-.04zm13.55-7.24c2.389.5 4.82.771 7.26.81a.5.5 0 100-1 37.432 37.432 0 01-7-.77c-.62-.13-.89.83-.26 1v-.04zm14.39.87l7.85-.41c.64 0 .65-1 0-1l-7.85.41c-.64 0-.64 1 0 1zm20.46-1.96l6.84-1.53c.63-.14.36-1.1-.27-1l-6.84 1.53c-.62.14-.36 1.1.27 1zm-46.72-.81l3.15 1.93a.502.502 0 00.5-.87l-3.14-1.93a.522.522 0 00-.69.18.513.513 0 00.18.69zm94.92-41.89a6.88 6.88 0 005.95-.8 5.306 5.306 0 001.91-2.74 12.68 12.68 0 00.41-3.48.501.501 0 00-1 0c0 2-.19 4.15-1.93 5.43a5.905 5.905 0 01-5.08.68.517.517 0 00-.26 1v-.09z" fill="#313131"/><path d="M374.33 119.27a16.134 16.134 0 00.17 3.68 6 6 0 001.76 3.1 7.127 7.127 0 005.35 1.7c.63-.07.64-1.07 0-1a6.192 6.192 0 01-4.64-1.4 5.181 5.181 0 01-1.53-2.8 14.996 14.996 0 01-.11-3.28.504.504 0 00-.146-.354.504.504 0 00-.708 0 .504.504 0 00-.146.354zm-5.17 7.83c2.59-.07 4.36 2.67 4.35 5 0 1.36-.06 2.72-.11 4.08 0 .133.053.26.146.354a.504.504 0 00.708 0 .504.504 0 00.146-.354c.06-1.46.17-2.94.11-4.4-.12-2.81-2.35-5.8-5.35-5.72-.64 0-.64 1 0 1v.04z" fill="#313131"/><path d="M374.4 136.22c.07-1.16.09-2.33.2-3.49a4.744 4.744 0 01.71-2.31 4.88 4.88 0 012.62-2.26 12.86 12.86 0 013.33-.43c.64 0 .65-1 0-1a13.274 13.274 0 00-3.66.49 6.316 6.316 0 00-4 5.12c-.14 1.29-.16 2.59-.23 3.88 0 .65 1 .64 1 0h.03zm-19.94 40.1a5.387 5.387 0 004.68-.68 4.142 4.142 0 001.53-2.17 9.982 9.982 0 00.32-2.72.504.504 0 00-.146-.354.504.504 0 00-.708 0 .504.504 0 00-.146.354c0 1.49-.13 3.12-1.43 4.09a4.46 4.46 0 01-3.84.51c-.61-.19-.88.78-.26 1v-.03z" fill="#313131"/><path d="M360 170.39c-.067.959-.023 1.922.13 2.87a4.79 4.79 0 001.39 2.45 5.637 5.637 0 004.21 1.34.51.51 0 00.5-.5.501.501 0 00-.5-.5 4.643 4.643 0 01-3.5-1.05 3.865 3.865 0 01-1.15-2.11 11.004 11.004 0 01-.08-2.5.501.501 0 00-1 0zm-3.88 6.16c1.94-.05 3.25 2 3.25 3.78 0 1-.05 2.1-.09 3.15 0 .64 1 .64 1 0 0-1.13.13-2.28.08-3.4-.09-2.23-1.86-4.59-4.24-4.53-.64 0-.64 1 0 1z" fill="#313131"/><path d="M360.28 183.48c.05-.9.07-1.8.15-2.7a3.569 3.569 0 01.54-1.73 3.67 3.67 0 011.95-1.69 9.946 9.946 0 012.54-.33c.64 0 .65-1 0-1-.967 0-1.929.131-2.86.39a4.592 4.592 0 00-2.37 1.93 4.478 4.478 0 00-.77 2.13c-.11 1-.12 2-.18 3 0 .64 1 .64 1 0zm25.01-145.71h-.1a1.882 1.882 0 11.917-3.578 1.874 1.874 0 011.063 1.817 1.911 1.911 0 01-.62 1.301 1.89 1.89 0 01-1.26.46zm0-2.77a.888.888 0 00-.901.78.891.891 0 001.491.76.837.837 0 00.29-.61.902.902 0 00-.22-.63.921.921 0 00-.61-.3h-.05zm-31.68 53.54a11.756 11.756 0 01.42 15.91c-.43.47.27 1.18.71.71a12.788 12.788 0 00-.42-17.33.502.502 0 10-.71.71zm-14.24 30.22a7.995 7.995 0 01-2.271 5.923 8.012 8.012 0 01-5.869 2.407c-.64 0-.64 1 0 1a8.998 8.998 0 009.14-9.33c-.05-.64-1.05-.64-1 0zm11.14-41.12c4.18-.34 7.34-3.8 9.32-7.23a21.175 21.175 0 002.75-12.31c-.05-.63-1.05-.64-1 0a20.199 20.199 0 01-2.31 11.26c-1.77 3.29-4.77 7-8.76 7.28-.64 0-.65 1 0 1zM215.69 96.5a12.332 12.332 0 015.74-4c.6-.2.34-1.16-.27-1a13.242 13.242 0 00-6.16 4.3.498.498 0 00.71.7h-.02z" fill="#313131"/></g><defs><clipPath id="clip0_5201_1792"><path fill="#fff" d="M0 0h387.17v217.75H0z"/></clipPath></defs></svg>