<svg width="443" height="241" fill="none" xmlns="http://www.w3.org/2000/svg"><path d="M52.888 23.444c2.452.602 5.33.212 7.323-1.38a6.494 6.494 0 002.3-3.62c.341-1.427.341-2.913.282-4.363-.035-.755-1.214-.767-1.179 0 .047 1.297.083 2.63-.212 3.915-.283 1.274-.896 2.311-1.91 3.137-1.675 1.368-4.21 1.674-6.286 1.167-.743-.177-1.061.967-.319 1.144z" fill="#231F20"/><path d="M61.579 13.515c.059 1.533.047 3.101.46 4.587.4 1.462 1.226 2.807 2.405 3.774 1.875 1.545 4.552 2.134 6.934 1.757.743-.118.437-1.25-.318-1.144-.023 0 .153-.012-.059 0l-.495.035c-.496.024-.99.012-1.486-.047-1.392-.141-2.795-.625-3.868-1.544-1.05-.909-1.722-2.076-2.052-3.42-.33-1.31-.295-2.69-.354-4.022-.012-.73-1.19-.73-1.167.024zm-6.026 10.177c1.863-.154 3.514.872 4.552 2.37.53.755.92 1.604 1.144 2.5.047.189.082.377.117.566.118.566 0-.07.024.165.012.154.024.307.024.46.082 1.698.106 3.408.13 5.118.011.755 1.19.767 1.179 0-.036-1.828 0-3.691-.154-5.519-.306-3.479-3.29-7.134-7.028-6.84-.743.06-.755 1.239.012 1.18z" fill="#231F20"/><path d="M62.734 34.86c0-1.475-.035-2.937.012-4.411.036-1.144.212-2.04.779-3.055.742-1.32 1.71-2.44 3.148-2.983 1.321-.484 2.724-.625 4.104-.755.755-.07.755-1.25 0-1.18-1.51.142-3.078.284-4.505.826-1.58.602-2.677 1.698-3.561 3.125-.696 1.132-1.05 2.194-1.132 3.503-.106 1.639-.036 3.278-.036 4.917.012.779 1.191.779 1.191.012zm360.162 85.721c2.453.601 5.331.212 7.324-1.38a6.495 6.495 0 002.299-3.62c.342-1.427.342-2.913.283-4.364-.035-.754-1.215-.766-1.179 0 .047 1.298.082 2.63-.212 3.916-.283 1.273-.897 2.311-1.911 3.137-1.674 1.367-4.21 1.674-6.285 1.167-.743-.165-1.062.967-.319 1.144z" fill="#231F20"/><path d="M431.599 110.651c.059 1.533.047 3.102.46 4.587.401 1.463 1.227 2.807 2.406 3.774 1.875 1.545 4.552 2.135 6.934 1.757.743-.118.436-1.25-.318-1.144-.024 0 .153-.011-.059 0l-.496.036c-.495.023-.99.012-1.485-.047-1.392-.142-2.795-.625-3.869-1.545-1.049-.908-1.721-2.076-2.051-3.42-.331-1.309-.295-2.689-.354-4.022-.024-.731-1.203-.731-1.168.024zm-6.038 10.177c1.864-.153 3.515.873 4.552 2.371a7.503 7.503 0 011.262 3.066c.118.566 0-.071.024.165.012.153.023.306.023.46.083 1.698.107 3.408.13 5.118.012.755 1.191.766 1.179 0-.035-1.828 0-3.691-.153-5.519-.307-3.479-3.29-7.135-7.028-6.84-.743.059-.743 1.238.011 1.179z" fill="#231F20"/><path d="M432.743 132.008c0-1.474-.035-2.936.012-4.41.035-1.144.212-2.041.778-3.055.743-1.321 1.71-2.441 3.149-2.983 1.321-.484 2.724-.625 4.104-.755.755-.071.755-1.25 0-1.179-1.51.141-3.078.283-4.505.825-1.58.602-2.677 1.698-3.561 3.125-.696 1.132-1.05 2.194-1.132 3.503-.107 1.639-.036 3.278-.036 4.917.012.767 1.191.767 1.191.012zM227.538 5.943a2.184 2.184 0 01-2.182-2.182c0-1.203.979-2.181 2.182-2.181 1.203 0 2.182.978 2.182 2.181a2.184 2.184 0 01-2.182 2.182zm0-3.184a1.002 1.002 0 10-.002 2.004 1.002 1.002 0 00.002-2.004zm95.568 229.971a2.185 2.185 0 01-2.182-2.182c0-1.203.979-2.182 2.182-2.182 1.203 0 2.182.979 2.182 2.182a2.185 2.185 0 01-2.182 2.182zm0-3.185a1.002 1.002 0 100 2.004 1.002 1.002 0 000-2.004zM13.335 64.27a2.184 2.184 0 01-2.182-2.182c0-1.203.979-2.181 2.182-2.181 1.203 0 2.181.979 2.181 2.181a2.184 2.184 0 01-2.181 2.182zm0-3.184a1.002 1.002 0 10-.002 2.003 1.002 1.002 0 00.002-2.003z" fill="#231F20"/><path d="M145.048 170.252c-.755-2.194-1.439-4.387-1.981-6.64-.555-2.335-1.003-4.681-1.439-7.04-.212-1.132-.413-2.276-.684-3.396a46.398 46.398 0 00-.908-3.326 40.088 40.088 0 00-2.052-5.307l-7.654.272-.424-.012-39.235 50.614-9.422-8.773-31.864 1.002-.212-.012L8.936 239.44H44.42l23.244-30.886 7.842 6.404h.024l-.012.023 34.847 1.215 34.706-45.909c-.023-.024-.023-.035-.023-.035zM407.554 15.507l-33.881 15.52 19.647 13.962-64.494 90.769-48.704-42.442-32.041 1.014-.024-.012-20.177 27.583c.153.189.306.39.424.59.26.425.484.873.696 1.321.484 1.026.979 2.04 1.545 3.019.366.625.778 1.25 1.274 1.769.483.507 1.073.908 1.651 1.309a11.238 11.238 0 012.618 2.559c1.462 2.016 2.276 4.434 2.842 6.84.589 2.535.978 5.129 1.226 7.712.071.743.13 1.486.189 2.229l24.941-33.94 44.836 39.07 38.669-1.215 65.98-92.927L434.418 74.2l3.502-37.1L441.423 0l-33.869 15.507zM228.918 163.329a33.594 33.594 0 01-4.222-.519c-.672-.129-1.333-.271-1.981-.495-.602-.2-1.191-.46-1.757-.731-1.144-.554-2.265-1.179-3.42-1.698l-.213.766c-.554 1.946-1.202 3.845-2.358 5.531-.319.46-.672.885-1.014 1.321a28.236 28.236 0 00-1.144 1.533c-.696 1.026-1.333 2.099-1.993 3.149-.33.53-.672 1.061-1.026 1.568-.307.436-.613.849-1.003 1.226-.353.331-.731.625-1.073.967-.306.295-.589.637-.695 1.062-.059.259-.024.53.035.79.059.295.141.578.236.861.177.566.389 1.132.507 1.721.236 1.274.436 2.548.613 3.833.259 1.97.448 3.951.519 5.944l1.427-.047 19.635-26.723c-.366-.023-.72-.035-1.073-.059z" fill="#00DFFF"/><path d="M122.889 61.994a19.636 19.636 0 01-10.047 4.281c-.826.094-.838 1.403 0 1.31a21.302 21.302 0 0010.967-4.66c.649-.541-.271-1.461-.92-.93zm-12.04 24.812c-2.312 1.934-3.267 4.564-4.01 7.394-.707 2.7-2.948 4.859-2.948 7.772 0 .837 1.309.837 1.309 0-.012-2.63 2.123-4.776 2.842-7.217.377-1.286.613-2.571 1.215-3.786a9.717 9.717 0 012.512-3.231c.648-.543-.283-1.462-.92-.932z" fill="#231F20"/><path d="M102.676 93.894c1.923-3.385-.695-5.224-1.934-9.022-.802-2.476-2.653-9.988-1.061-15.177 1.734-5.649 4.929-8.632 7.229-10.083a17.68 17.68 0 001.38-.955c2.016-1.521 3.49-3.715 3.832-6.215a8.97 8.97 0 00.071-1.603c-.271-5.626-3.019-16.097 5.814-27.525 4.847-6.273 10.873-9.351 15.118-11.014 3.172-1.238 6.156-2.901 9.022-4.753 4.033-2.618 8.962-4.8 16.627-5.802C171.239.106 179.4 5.283 182.761 9.481c.354.177.719.354 1.097.578 2.677 1.545 5.141 1.852 8.903 6.133 7.312 8.313 3.75 17.5 1.58 21.45-1.592 2.901-.637 3.68.319 4.894 1.026 1.274 1.662 2.795 2.04 4.093 1.828 6.403-.33 9.681-3.338 12.877l-.035.036a7.044 7.044 0 00-1.875 5.613c.672 5.92 3.066 14.505-1.533 18.856-1.403 1.321-2.465 1.05-4.965.036-4.953-1.45-4.634-1.285-6.332-1.71-2.253-.566-3.043-13.81-3.008-15.755.012-.413 4.529-1.486 7.159-4.823.471-.59 2.358-2.406 2.865-2.842 1.852-4.328 2.96-7.913 2.984-8.102.519-3.172.035-6.521 1.167-9.529.26-.695.507-.766-.377-3.184-.012-.106.047-.825-.448-5.86-.271-2.807-.554-4.435-1.203-6.58-.649-2.135-1.58-4.235-2.995-5.98-1.286-1.58-2.996-2.806-4.788-3.738-.92-.484-1.899-.896-2.913-1.12-1.061-.236-2.512-.248-2.512-.248s2.182 7.37-8.538 14.21c-11.061 7.052-16.746 13.526-16.746 13.526s-7.193-3.903-7.075 2.677c.118 6.58 5.212 6.793 5.212 6.793l3.915.142c.507 1.179.779 5.825.779 5.825-.283 6.191-1.297 14.163-8.715 18.75-.554.366-1.25 1.44-1.781 1.84-1.262.955-2.936 3.231-3.821 4.552-2.358 3.55-2.323 3.054-3.054 6.073-.66 2.748-1.38 3.02-1.498 4.588-.129 1.898-1.462 8.432-1.497 9.186-.177 3.703-.177 6.168-.177 7.335 0 4.081 0 6.156.778 9.812.33 1.568 1.25 3.75 1.038 5.342-.106.778 2.205 7.5 1.745 8.113-7.04 9.34-20.566 2.902-20.566 2.902s-5.484 1.686-9.482-.189c-3.408-1.592-4.328-3.455-4.717-5.967-.578-3.668.613-5.531.448-8.809-.271-5.519-4.21-16.64 1.875-27.383z" fill="#1380FF"/><path d="M189.896 35.78c-.048 0-.048-.06-.012-.06.047-.012.059.06.012.06z" fill="#1380FF"/><path d="M188.657 37.252c.413 6.84.342 13.916-3.066 20.072-3.986 7.193-12.146 10.967-20.224 9.068-1.911-.448-3.892-1.143-5.531-2.252-.696-.472-1.356.66-.661 1.132 4.788 3.243 11.545 3.715 16.899 1.84 7.76-2.713 12.336-9.989 13.609-17.854.637-3.94.519-8.02.283-11.994-.059-.849-1.356-.86-1.309-.012z" fill="#231F20"/><path d="M173.834 53.928c-.59 1.097-1.922 1.44-3.102 1.298-1.238-.154-2.441-1.156-2.948-2.265-.141-.318-.613-.4-.896-.235-.33.188-.378.566-.236.896.708 1.533 2.406 2.748 4.08 2.913 1.628.165 3.408-.448 4.222-1.946.401-.743-.719-1.404-1.12-.66zm-24.093-12.087c-1.25-1.18-3.066-1.674-4.74-1.203-1.581.449-2.843 1.781-3.291 3.35-.908 3.184 1.474 6.52 4.222 7.9 1.58.79 3.361 1.074 5.095.72.825-.165.471-1.427-.342-1.262-2.394.495-4.883-.59-6.427-2.417-1.64-1.946-2.147-5.272.401-6.722 1.332-.767 3.066-.472 4.162.578.602.566 1.522-.354.92-.944zm20.142-27.183a6513.45 6513.45 0 00-9.363 7.819c-.649.542.283 1.462.92.92 3.125-2.607 6.25-5.213 9.363-7.82.649-.542-.271-1.461-.92-.919zm-9.67.59c-1.639 1.344-3.266 2.7-4.906 4.045-.271.224-.236.695 0 .92.272.27.649.223.92 0 1.639-1.345 3.267-2.701 4.906-4.046.271-.224.236-.695 0-.92-.259-.27-.649-.223-.92 0zm22.19 23.832c.865-.22 1.336-1.307 1.052-2.431-.284-1.124-1.215-1.858-2.08-1.64-.865.219-1.336 1.307-1.052 2.43.283 1.125 1.215 1.859 2.08 1.64zm-16.581 2.25c.866-.218 1.337-1.306 1.053-2.43-.284-1.124-1.216-1.858-2.081-1.64-.865.219-1.336 1.307-1.052 2.43.284 1.125 1.215 1.859 2.08 1.64zm9.179-1.188c.495 1.982 1.003 3.963 1.498 5.932.2.814 1.462.472 1.262-.342-.496-1.981-1.003-3.962-1.498-5.932-.212-.813-1.474-.471-1.262.342zm48.574 38.882c-1.273-2.441-3.337-4.387-5.507-6.038a34.155 34.155 0 00-3.349-2.288c-1.12-.672-2.406-1.32-3.75-1.144-1.356.177-2.465 1.227-3.479 2.076-1.061.884-2.252 1.828-3.031 2.984-.566.837-.896 2.087-.165 2.948.625.743 1.663.613 2.406.141.708-.448.059-1.58-.66-1.132-.26.165-.649.307-.849-.059-.236-.436.389-1.25.648-1.556.649-.767 1.439-1.427 2.194-2.076.79-.672 1.686-1.592 2.688-1.934 1.168-.39 2.383.307 3.35.884 3.219 1.946 6.592 4.47 8.372 7.866.39.731 1.522.07 1.132-.672z" fill="#231F20"/><path d="M225.05 84.79c.389-1.203.235-2.913-.437-4.01-.648-1.073-1.757-1.78-2.759-2.464-2.559-1.734-5.248-3.774-8.279-4.6-1.32-.365-2.747-.412-4.009.178-1.439.66-2.713 1.934-3.892 2.96-.92.813-1.875 1.886-1.781 3.207.059.896.838 1.675 1.416 2.3.566.625 1.497-.307.919-.92-.401-.436-1.073-1.026-1.037-1.651.07-1.18 1.58-2.135 2.394-2.807.978-.813 1.981-1.851 3.254-2.134 1.286-.283 2.654.141 3.821.66 2.158.967 4.151 2.323 6.097 3.656.814.554 1.675 1.061 2.347 1.792.802.873 1.049 2.359.684 3.491-.26.802 1.002 1.144 1.262.342z" fill="#231F20"/><path d="M233.057 128.27c-3.29-4.552-6.651-9.068-9.706-13.774-2.063-3.184-3.915-6.533-5.177-10.118-.589-1.663-1.427-3.656-1.427-5.436 0-2.005 1.746-3.774 2.984-5.19 1.84-2.11 4.823-4.575 5.342-7.476.342-1.945-.837-3.655-2.24-4.87-1.758-1.521-3.904-2.56-6.062-3.361-2.417-.896-5.13-1.533-7.465-.047-1.25.802-2.193 1.957-3.066 3.137-.755 1.026-1.686 2.134-.696 3.325 1.97 2.37 5.272.496 7.123-.908.661-.507.012-1.639-.66-1.132-1.062.802-2.217 1.722-3.597 1.828-.483.035-1.38 0-1.71-.448-.566-.778.649-2.005 1.085-2.56.743-.943 1.616-1.886 2.712-2.417 1.533-.73 3.255-.365 4.8.118 2.807.873 9.057 3.267 8.479 7.1-.212 1.426-1.415 2.735-2.311 3.785-.979 1.167-2.029 2.252-3.008 3.408-1.662 1.934-3.337 3.927-2.948 6.628.401 2.794 1.58 5.648 2.736 8.207 1.274 2.795 2.842 5.449 4.54 7.996 2.925 4.375 6.038 8.632 9.128 12.901.507.637 1.639-.012 1.144-.696zm-12.795-53.185a18.751 18.751 0 002.335-5.307c.495-1.852.79-3.939.247-5.814-.259-.908-.719-1.769-1.261-2.535-.472-.672-.991-1.522-1.864-1.651-2.111-.307-2.5 2.417-2.688 3.891a20.708 20.708 0 00-.142 3.833c.024.39.035.708-.212 1.038-.177.236-.378.471-.578.707l-1.227 1.51c-.53.648.39 1.58.92.92.708-.873 1.628-1.746 2.182-2.725.495-.884.165-2.193.189-3.172.035-1.19.153-2.417.448-3.573.106-.4.365-1.25.955-1.132.377.07.837.932 1.026 1.215 1.309 1.957 1.427 4.104.943 6.356-.448 2.052-1.25 4.033-2.394 5.79-.471.696.661 1.356 1.121.649z" fill="#231F20"/><path d="M203.964 76.76c-2.5 5.058-5.366 10.707-4.988 16.509.247 3.797 1.674 7.512 2.924 11.085 2.819 8.007 5.767 15.967 8.444 24.034 1.25 3.773 2.547 7.582 3.349 11.474.165.825 1.427.472 1.262-.342-1.545-7.465-4.41-14.753-6.946-21.923-2.358-6.663-5.094-13.29-6.934-20.118-.967-3.55-.991-6.864.012-10.413.955-3.361 2.476-6.522 4.009-9.647.366-.754-.754-1.415-1.132-.66zm7.901 6.486c1.05.837 2.123 1.674 3.055 2.641v-.92l-3.444 3.762c-.99 1.085-2.24 2.135-2.417 3.68-.036.353.33.648.648.648.389 0 .614-.306.649-.648.071-.602.519-1.097.908-1.522.495-.554 1.002-1.096 1.509-1.65l3.067-3.35c.235-.26.259-.66 0-.92-.932-.967-2.005-1.804-3.055-2.641-.283-.224-.648-.271-.92 0-.235.224-.283.707 0 .92zm-3.172 6.439c.307-1.663.071-3.361-.731-4.859-.165-.307-.601-.4-.896-.236-.319.189-.401.578-.236.896.613 1.168.837 2.583.59 3.857-.059.33.094.719.459.801.331.071.755-.106.814-.46z" fill="#231F20"/><path d="M231.866 128.777c.648 4.128-1.262 8.467-4.741 10.79-3.774 2.512-8.856 2.206-12.465-.436-.684-.495-1.332.637-.66 1.132 4.033 2.96 9.87 3.184 14.01.283 3.879-2.712 5.849-7.465 5.129-12.111-.141-.837-1.403-.483-1.273.342z" fill="#231F20"/><path d="M230.828 127.385c1.368 2.264 3.609 3.727 5.153 5.849 1.687 2.335 2.218 5.26 2.701 8.031.884 5.13 1.71 11.05-.755 15.885-1.427 2.795-3.844 4.941-7.075 5.177-2.359.177-4.788-.401-7.029-1.085-4.163-1.262-8.196-3.219-11.698-5.814-3.727-2.759-7.229-6.639-7.489-11.486-.047-.837-1.344-.837-1.309 0 .496 9.458 11.027 15.484 18.963 18.184 4.965 1.687 10.932 2.784 14.871-1.556 3.986-4.399 4.021-10.72 3.302-16.262-.413-3.196-.838-6.593-2.135-9.552-1.438-3.279-4.552-5.036-6.368-8.02-.448-.731-1.568-.07-1.132.649zM150.461 52.16c.495 2.889.813 5.801.684 8.738-.095 2.146-.283 4.61-1.215 6.58-.767 1.627-1.875 3.137-2.948 4.587-.908 1.227-1.864 2.512-3.031 3.515-2.111 1.816-4.186 3.42-5.849 5.695-1.533 2.1-2.748 4.446-3.739 6.852-2.04 4.953-3.042 10.272-3.349 15.614-.908 15.601 3.562 30.673 8.019 45.413 3.008 9.954 5.437 20.036 7.43 30.237.165.826 1.415.472 1.262-.342-1.828-9.352-4.01-18.632-6.699-27.772-1.792-6.073-3.797-12.087-5.318-18.231-2.099-8.456-3.55-17.253-3.491-25.992.036-5.578.767-11.18 2.606-16.462.956-2.736 2.206-5.401 3.821-7.807 1.71-2.56 3.939-4.28 6.239-6.262 1.25-1.073 2.264-2.453 3.243-3.774 1.143-1.533 2.323-3.148 3.089-4.905.92-2.1 1.144-4.658 1.239-6.911.129-3.042-.225-6.085-.732-9.08-.141-.873-1.403-.52-1.261.306zm4.245 33.267c4.729 3.266 8.962 7.264 12.441 11.851 3.585 4.717 6.18 10.012 8.526 15.425 3.408 7.854 6.486 15.897 10.284 23.586 2.181 4.434 4.611 8.738 7.005 13.054.412.731 1.533.083 1.132-.66-3.809-6.864-7.489-13.715-10.578-20.932-2.1-4.906-4.187-9.812-6.286-14.718-2.37-5.53-4.929-10.967-8.514-15.825-3.703-5.024-8.22-9.364-13.35-12.902-.695-.495-1.356.637-.66 1.12z" fill="#231F20"/><path d="M216.559 159.296c-.036 3.962-1.899 6.946-4.458 9.823-2.311 2.594-4.481 5.342-6.922 7.83-5.154 5.236-12.276 8.586-19.163 4.446-2.913-1.745-5.567-4.033-8.149-6.226a129.899 129.899 0 01-20.295-21.652c-4.387-5.908-8.244-12.193-11.581-18.75-.377-.755-1.509-.094-1.132.66 6.462 12.736 14.989 24.399 25.189 34.388a128.77 128.77 0 008.008 7.217c2.688 2.229 5.46 4.658 8.608 6.215 6.415 3.172 13.208.401 18.149-4.139 3.125-2.866 5.779-6.286 8.562-9.47 2.641-3.007 4.446-6.238 4.469-10.342.036-.838-1.273-.838-1.285 0zm-16.628-65.238c-1.804-1.167-2.877-3.125-4.422-4.587-1.451-1.368-3.125-2.512-4.882-3.455-3.644-1.946-7.654-3.102-11.616-4.21-.814-.224-1.156 1.038-.342 1.262 3.95 1.108 7.972 2.24 11.592 4.233 1.745.967 3.396 2.123 4.8 3.55 1.438 1.45 2.464 3.207 4.221 4.328.696.46 1.345-.672.649-1.12z" fill="#231F20"/><path d="M178.162 82.785c.648.708 1.273 1.486 1.71 2.347.943 1.828-.39 2.913-2.194 3.137-3.75.448-7.653-1.864-10.755-3.68-6.84-4.01-13.75-7.264-21.545-8.974-.814-.177-1.168 1.085-.342 1.262 5.012 1.097 9.87 2.76 14.47 5.035 4.009 1.982 7.653 4.706 11.804 6.404 2.653 1.085 7.453 2.523 9.67-.224 1.639-2.04-.472-4.682-1.887-6.203-.578-.637-1.497.283-.931.896zm15.354 20.944a46.157 46.157 0 019.587 19.54c1.722 7.807.779 15.543-.094 23.397-.094.837 1.215.825 1.309 0 .908-8.149 1.816-16.132-.059-24.222-1.675-7.217-5.071-13.951-9.812-19.635-.542-.661-1.462.271-.931.92z" fill="#231F20"/><path d="M203.658 146.006c-1.769.07-3.538.283-5.26.719s-3.384 1.061-5.047 1.651c-.79.283-.448 1.545.342 1.262 1.615-.578 3.243-1.191 4.905-1.616 1.663-.436 3.35-.637 5.06-.707.837-.036.837-1.345 0-1.309zm-20.98 33.657c-11.698 1.615-23.833 1.167-35.413-1.085-.826-.165-1.168 1.097-.342 1.262 11.828 2.299 24.163 2.736 36.097 1.085.838-.118.484-1.38-.342-1.262zm23.315-3.102c2.11 7.394 2.523 15.401 3.148 23.031.767 9.505 1.262 19.034 1.569 28.55.118 3.762.224 7.524.2 11.274 0 .838 1.297.838 1.309 0 .035-7.842-.318-15.708-.719-23.538-.496-9.552-1.109-19.128-2.288-28.621-.46-3.703-.943-7.453-1.969-11.05-.225-.802-1.475-.46-1.25.354z" fill="#231F20"/><path d="M146.534 178.873c-8.126 12.288-12.112 26.911-13.869 41.404-.766 6.356-1.085 12.748-1.096 19.151 0 .838 1.309.838 1.309 0 .023-17.665 2.382-35.968 10.271-51.994a72.508 72.508 0 014.517-7.901c.46-.708-.673-1.356-1.132-.66zM121.887 63.174c-2.394 1.698-3.915 4.505-3.856 7.465.058 2.948 1.662 5.707 4.115 7.323.708.46 1.356-.672.661-1.132-2.064-1.356-3.432-3.715-3.479-6.191-.047-2.477 1.191-4.906 3.207-6.333.696-.484.036-1.616-.648-1.132zm3.585-34.801c-5.095 3.762-6.781 11.144-3.75 16.722.401.743 1.533.083 1.132-.66-2.665-4.906-1.227-11.604 3.278-14.942.672-.483.024-1.615-.66-1.12zm-16.581 70.698c-2.406 5.732-1.391 12.501 2.43 17.359.518.661 1.438-.271.919-.92-3.549-4.516-4.304-10.825-2.099-16.097.342-.766-.92-1.108-1.25-.342zm4.234 12.571a16.272 16.272 0 005.896 7.418c.295.2.719.059.896-.236.189-.319.059-.696-.236-.896a14.787 14.787 0 01-5.294-6.64c-.13-.33-.437-.554-.802-.46-.307.095-.59.484-.46.814zm6.828-30.602c-1.722-2.064-2.866-4.552-3.373-7.182-.153-.826-1.415-.472-1.262.342a17.232 17.232 0 003.715 7.76c.224.27.696.235.92 0 .271-.272.224-.65 0-.92z" fill="#231F20"/><path d="M297.858 76.876c-20.909.07-37.902-16.864-37.902-37.772 0-20.814 16.84-37.713 37.654-37.772 20.909-.071 37.902 16.863 37.902 37.772 0 20.814-16.84 37.701-37.654 37.772z" fill="#fff"/><path d="M297.728 77.466c-10.224 0-19.835-3.974-27.076-11.191-7.276-7.253-11.286-16.9-11.286-27.17 0-21.086 17.159-38.292 38.244-38.362h.13c10.224 0 19.835 3.974 27.076 11.191 7.276 7.252 11.286 16.899 11.286 27.17 0 21.086-17.159 38.291-38.244 38.362h-.13zm.13-1.18c20.437-.07 37.064-16.745 37.064-37.182 0-9.953-3.879-19.304-10.931-26.333-7.017-6.993-16.345-10.85-26.251-10.85l-.13.001c-20.437.07-37.064 16.746-37.064 37.182 0 9.953 3.88 19.305 10.932 26.334 7.016 7.004 16.344 10.849 26.25 10.849h.13z" fill="#231F20"/><path d="M302.634 60.014h-9.611a1.948 1.948 0 01-1.946-1.946v-4.21c0-1.981-.802-3.963-2.264-5.578-2.406-2.642-3.514-6.215-3.043-9.788.708-5.46 5.189-9.859 10.661-10.472 3.514-.401 6.899.672 9.529 3.019a12.215 12.215 0 014.068 9.08 12.12 12.12 0 01-3.361 8.397c-1.332 1.391-2.052 3.302-2.052 5.389v4.163c-.035 1.073-.908 1.946-1.981 1.946zm-4.788-30.898c-.424 0-.861.024-1.297.071-4.941.554-8.986 4.529-9.623 9.458a11.001 11.001 0 002.748 8.845c1.663 1.828 2.571 4.092 2.571 6.368v4.21c0 .424.342.766.766.766h9.611a.765.765 0 00.767-.766v-4.163c0-2.394.849-4.6 2.382-6.203a10.932 10.932 0 003.042-7.571c0-3.125-1.332-6.12-3.667-8.208a10.799 10.799 0 00-7.3-2.806z" fill="#231F20"/><path d="M303.117 61.923h-10.578v-3.078h10.578v3.078zm-9.398-1.18h8.219v-.718h-8.219v.719z" fill="#231F20"/><path d="M296.042 59.86a.612.612 0 01-.413-.165.611.611 0 01-.165-.566c.047-.496.024-4.01.012-7.395-.012-2.181-.024-4.504-.024-6.474 0-5.106-2.818-6.58-2.936-6.639a.589.589 0 01-.271-.79.59.59 0 01.79-.271c.153.07 3.597 1.816 3.597 7.7 0 1.982.011 4.293.023 6.474.047 7.725.047 7.725-.189 7.96a.637.637 0 01-.424.166zm3.561 0a.582.582 0 01-.495-.272c-.153-.236-.177-.271-.106-10.625.012-1.533.012-2.878.023-3.715.012-5.884 3.456-7.63 3.597-7.7a.59.59 0 01.79.27.589.589 0 01-.271.79c-.118.06-2.925 1.534-2.936 6.64 0 .85-.012 2.194-.024 3.727-.023 3.573-.059 9.528 0 10.165a.585.585 0 01-.259.637.588.588 0 01-.319.082z" fill="#231F20"/><path d="M292.48 38.586c.684.519 1.64.425 2.418.2.884-.259 1.946-1.155 2.889-.86.425.13.755.495 1.156.684a2.4 2.4 0 001.238.236c.436-.036.849-.154 1.274-.26.377-.094.837-.236 1.214-.07.684.306 1.286-.72.59-1.015-.837-.365-1.616-.177-2.476.035-.378.095-.814.213-1.192.071-.436-.165-.778-.53-1.202-.72-1.003-.447-2.017-.035-2.937.402-.672.318-1.698.79-2.382.271-.601-.448-1.191.578-.59 1.026zm19.895-1.322c2.122-.566 4.245-1.144 6.368-1.71.306-.082.613-.165.908-.247.731-.2.424-1.333-.319-1.132-2.122.566-4.245 1.144-6.368 1.71-.306.082-.613.165-.908.247-.731.2-.424 1.333.319 1.132zm-3.514-7.9l4.799-4.446c.224-.212.448-.413.672-.625.555-.52-.283-1.345-.837-.837-1.592 1.485-3.196 2.96-4.788 4.445-.224.213-.448.413-.672.625-.566.52.271 1.357.826.838zm-9.847-5.177l-.071-7.406c0-.354-.012-.708-.012-1.062-.012-.754-1.191-.754-1.179 0l.071 7.406c0 .354.011.708.011 1.062.012.766 1.191.766 1.18 0zm-10.39 2.853l-3.184-4.315c-.153-.2-.295-.401-.448-.602-.189-.26-.507-.389-.802-.212-.247.153-.401.554-.212.802l3.184 4.316c.153.2.295.401.448.602.189.259.507.389.802.212.248-.142.401-.543.212-.802zm-12.064 6.416c1.84.637 3.68 1.273 5.519 1.922.26.094.519.177.779.271.719.248 1.025-.884.318-1.132-1.84-.637-3.679-1.273-5.519-1.922-.259-.094-.519-.177-.778-.271-.732-.248-1.038.884-.319 1.132zm3.703 18.232c1.321-.99 2.642-1.97 3.962-2.96l.567-.425c.259-.188.389-.507.212-.801-.142-.248-.554-.401-.802-.213-1.321.99-2.642 1.97-3.962 2.96l-.567.425c-.259.188-.389.507-.212.802.142.26.543.413.802.212zm29.553-2.018c1.497.838 3.007 1.675 4.505 2.512.212.118.424.236.648.354.661.366 1.262-.648.59-1.014-1.498-.837-3.007-1.675-4.505-2.512a31.709 31.709 0 00-.649-.354c-.648-.365-1.25.649-.589 1.014zm-44.565 153.802c-4.163 0-7.559-3.385-7.559-7.559 0-4.163 3.384-7.559 7.559-7.559a7.559 7.559 0 017.559 7.559 7.593 7.593 0 01-1.875 4.988 7.625 7.625 0 01-5.684 2.571zm0-13.939a6.385 6.385 0 00-6.38 6.38 6.385 6.385 0 006.38 6.38 6.368 6.368 0 006.368-6.38c0-3.515-2.854-6.38-6.368-6.38z" fill="#231F20"/><path d="M278.176 208.129a.59.59 0 01-.401-.153l-7.689-7.028a.595.595 0 01-.035-.838.594.594 0 01.837-.035l7.689 7.028c.236.224.259.59.035.838a.592.592 0 01-.436.188z" fill="#231F20"/><path d="M268.223 225.371c-14.953 0-27.124-12.17-27.124-27.123 0-14.953 12.171-27.123 27.124-27.123s27.123 12.17 27.123 27.123c0 14.953-12.158 27.123-27.123 27.123zm0-53.067c-14.305 0-25.944 11.639-25.944 25.944 0 14.304 11.639 25.944 25.944 25.944 14.304 0 25.944-11.64 25.944-25.944 0-14.305-11.64-25.944-25.944-25.944z" fill="#231F20"/><path d="M400.254 239.428c22.743 0 41.18-18.437 41.18-41.18 0-22.744-18.437-41.181-41.18-41.181s-41.18 18.437-41.18 41.181c0 22.743 18.437 41.18 41.18 41.18z" fill="#fff"/><path d="M400.254 240.017c-23.031 0-41.77-18.738-41.77-41.77 0-23.031 18.739-41.769 41.77-41.769 23.031 0 41.77 18.738 41.77 41.769 0 23.032-18.739 41.77-41.77 41.77zm0-82.36c-22.382 0-40.59 18.208-40.59 40.59 0 22.383 18.208 40.591 40.59 40.591 22.383 0 40.591-18.208 40.591-40.591 0-22.382-18.208-40.59-40.591-40.59z" fill="#231F20"/><path d="M399.747 216.114c-9.8 0-17.772-7.972-17.772-17.772 0-9.799 7.972-17.759 17.772-17.759 9.8 0 17.76 7.971 17.76 17.759s-7.96 17.772-17.76 17.772zm0-34.352c-9.151 0-16.592 7.441-16.592 16.58 0 9.152 7.441 16.593 16.592 16.593 9.14 0 16.581-7.441 16.581-16.593.012-9.139-7.43-16.58-16.581-16.58z" fill="#231F20"/><path d="M399.747 212.764c-7.948 0-14.411-6.462-14.411-14.41 0-7.949 6.463-14.411 14.411-14.411 7.948 0 14.411 6.462 14.411 14.411 0 7.948-6.463 14.41-14.411 14.41zm0-27.654c-7.3 0-13.231 5.944-13.231 13.232 0 7.288 5.943 13.231 13.231 13.231s13.232-5.943 13.232-13.231-5.932-13.232-13.232-13.232z" fill="#231F20"/><path d="M399.747 209.38c-6.085 0-11.038-4.953-11.038-11.038s4.953-11.038 11.038-11.038 11.038 4.953 11.038 11.038-4.953 11.038-11.038 11.038zm0-20.897c-5.436 0-9.859 4.423-9.859 9.859 0 5.437 4.423 9.859 9.859 9.859 5.437 0 9.859-4.422 9.859-9.859 0-5.436-4.422-9.859-9.859-9.859z" fill="#231F20"/><path d="M399.747 200.736a2.396 2.396 0 01-2.394-2.394 2.395 2.395 0 012.394-2.394 2.395 2.395 0 012.394 2.394 2.396 2.396 0 01-2.394 2.394zm0-3.609c-.672 0-1.215.542-1.215 1.215 0 .672.543 1.214 1.215 1.214s1.215-.542 1.215-1.214c0-.673-.543-1.215-1.215-1.215z" fill="#231F20"/><path d="M399.865 198.849a.554.554 0 01-.413-.177.605.605 0 010-.837l24.541-24.434a.593.593 0 01.837 0 .605.605 0 010 .837l-24.54 24.434a.554.554 0 01-.425.177z" fill="#231F20"/><path d="M420.467 177.775l1.333-6.109c.07-.318.377-.507.707-.448a.593.593 0 01.448.708l-.943 4.304 4.304-.943a.602.602 0 01.708.448.593.593 0 01-.448.707l-6.109 1.333z" fill="#231F20"/><path d="M417.46 180.783l1.332-6.109a.588.588 0 01.708-.448.594.594 0 01.448.708l-.943 4.304 4.304-.943a.593.593 0 01.708.448.593.593 0 01-.449.707l-6.108 1.333z" fill="#231F20"/><path d="M414.465 183.79l1.332-6.109a.588.588 0 01.708-.448.594.594 0 01.448.708l-.944 4.304 4.305-.944a.593.593 0 01.259 1.156l-6.108 1.333z" fill="#231F20"/><path d="M35.14 166.937c-18.527.059-33.574-14.941-33.574-33.468 0-18.443 14.917-33.408 33.361-33.467 18.527-.06 33.574 14.941 33.574 33.467 0 18.444-14.918 33.409-33.362 33.468z" fill="#fff"/><path d="M35.033 167.527c-9.08 0-17.606-3.526-24.045-9.941C4.526 151.159.976 142.585.976 133.47c0-18.716 15.224-33.999 33.951-34.058h.118c9.08 0 17.607 3.526 24.045 9.941 6.463 6.439 10.013 15.001 10.013 24.128 0 18.715-15.225 33.999-33.952 34.058-.047-.012-.082-.012-.118-.012zm0-66.936h-.106c-18.066.059-32.772 14.812-32.772 32.879 0 8.797 3.432 17.075 9.67 23.29 6.203 6.191 14.446 9.588 23.208 9.588h.106c18.079-.059 32.772-14.8 32.772-32.878 0-8.798-3.431-17.076-9.67-23.291-6.203-6.18-14.446-9.588-23.208-9.588z" fill="#231F20"/><path d="M45.505 140.427c-5.295 0-9.446-1.946-9.446-4.422 0-2.477 4.151-4.422 9.446-4.422s9.446 1.945 9.446 4.422c0 2.476-4.151 4.422-9.446 4.422zm0-7.665c-4.87 0-8.267 1.71-8.267 3.243s3.397 3.243 8.267 3.243c4.87 0 8.267-1.71 8.267-3.243s-3.397-3.243-8.267-3.243z" fill="#231F20"/><path d="M45.505 142.515c-5.295 0-9.446-1.946-9.446-4.422v-.449c0-.495-.011-1.179 0-1.615v-.012c0-.047.012-.106.024-.153a.775.775 0 01.023-.272c.012-.035.024-.094.048-.129.424-2.194 4.375-3.868 9.363-3.868 4.67 0 8.49 1.474 9.293 3.597.023.035.07.165.106.306.023.094.047.189.047.295 0 .035.012.2.012.224 0 .035-.012.142-.012.165l.012 1.911c-.024 2.476-4.175 4.422-9.47 4.422zm-8.267-6.498a24.29 24.29 0 000 1.604v.46c0 1.533 3.397 3.243 8.267 3.243 4.87 0 8.267-1.71 8.267-3.243l-.012-1.958c0-.023.012-.094.012-.13 0-.047-.012-.106-.012-.129a.503.503 0 00-.023-.13 2.26 2.26 0 01-.06-.153c-.518-1.392-3.726-2.831-8.184-2.831-4.717 0-7.96 1.569-8.243 3.031-.011.036-.023.083-.035.118.023 0 .023.047.023.118z" fill="#231F20"/><path d="M45.505 144.413c-5.294 0-9.446-1.946-9.446-4.422 0-.389.095-.779.295-1.144a.61.61 0 01.802-.248.598.598 0 01.248.802 1.224 1.224 0 00-.154.59c0 1.533 3.397 3.243 8.267 3.243 4.87 0 8.267-1.71 8.267-3.243 0-.213-.06-.437-.189-.649a.582.582 0 01.212-.802.585.585 0 01.802.212c.236.401.354.826.354 1.251-.012 2.464-4.163 4.41-9.458 4.41z" fill="#231F20"/><path d="M45.505 146.5c-5.295 0-9.446-1.945-9.446-4.422v-.448c0-.495-.011-1.179 0-1.616v-.082a5.02 5.02 0 01.036-.354c.011-.035.023-.094.035-.13.094-.306.413-.46.731-.377a.615.615 0 01.39.755.125.125 0 01-.024.059c.023-.047.012.047.012.118v.023a23.18 23.18 0 000 1.569v.471c0 1.533 3.396 3.243 8.266 3.243s8.267-1.71 8.267-3.243l-.012-1.957c0-.036.012-.118.012-.154l-.012-.153c0-.012-.023-.118-.023-.13-.154-.283-.06-.66.224-.813.283-.154.636-.071.79.212.059.118.106.236.141.377.024.095.047.177.047.295 0 .036.012.201.012.224 0 .059-.011.106-.011.165l.011 1.911c0 2.512-4.15 4.457-9.446 4.457zm-20.932-14.269c-5.295 0-9.446-1.946-9.446-4.422 0-2.477 4.151-4.423 9.446-4.423s9.446 1.946 9.446 4.423c0 2.476-4.151 4.422-9.446 4.422zm0-7.677c-4.87 0-8.267 1.71-8.267 3.243s3.397 3.243 8.267 3.243c4.87 0 8.267-1.71 8.267-3.243s-3.397-3.243-8.267-3.243z" fill="#231F20"/><path d="M24.573 134.307c-5.295 0-9.446-1.945-9.446-4.422v-.46c0-.507-.012-1.214 0-1.639 0-.035.012-.094.024-.142a.765.765 0 01.023-.271c.012-.035.024-.094.048-.129.424-2.194 4.375-3.869 9.363-3.869 4.67 0 8.49 1.475 9.293 3.597.023.036.07.165.106.307.023.094.047.177.047.295 0 .035.012.2.012.224 0 .035-.012.141-.012.165l.012 1.91c-.024 2.489-4.175 4.434-9.47 4.434zm-8.278-6.604c.011 0 .011.059 0 .118a23.854 23.854 0 000 1.592v.472c0 1.533 3.396 3.243 8.266 3.243s8.267-1.71 8.267-3.243l-.012-1.958c0-.023.012-.094.012-.129 0-.047-.012-.106-.012-.13a.503.503 0 00-.023-.13c-.012-.023-.047-.129-.06-.153-.518-1.392-3.726-2.83-8.183-2.83-4.718 0-7.96 1.568-8.244 3.03-.011.036-.023.095-.047.13l.036-.012z" fill="#231F20"/><path d="M24.573 136.205c-5.295 0-9.446-1.945-9.446-4.422 0-.389.094-.778.295-1.144a.601.601 0 01.802-.247c.283.153.4.507.247.802a1.22 1.22 0 00-.153.589c0 1.533 3.396 3.243 8.267 3.243 4.87 0 8.266-1.71 8.266-3.243a1.24 1.24 0 00-.188-.648.582.582 0 01.212-.802.582.582 0 01.802.212c.236.401.354.825.354 1.25-.012 2.465-4.163 4.41-9.458 4.41z" fill="#231F20"/><path d="M24.573 138.292c-5.295 0-9.446-1.945-9.446-4.422v-.46c0-.507-.012-1.214 0-1.639 0-.035.012-.094.024-.142a.767.767 0 01.023-.271c.012-.035.024-.094.048-.129.094-.319.412-.46.719-.366.306.094.483.448.389.766 0 .024-.024.059-.024.083.024-.047.024.012.012.094a23.854 23.854 0 000 1.592v.472c0 1.533 3.396 3.243 8.267 3.243 4.87 0 8.267-1.71 8.267-3.243l-.012-1.958c0-.035.012-.117.012-.153l-.012-.153c0-.012-.024-.13-.024-.142a.61.61 0 01.236-.813c.295-.154.637-.059.79.224.06.118.106.236.13.377.023.094.047.189.047.295 0 .035.012.2.012.224 0 .059-.012.118-.012.165l.012 1.911c-.012 2.5-4.163 4.445-9.458 4.445z" fill="#231F20"/><path d="M24.573 140.297c-5.295 0-9.446-1.946-9.446-4.422 0-.389.095-.778.295-1.144a.613.613 0 01.802-.248c.283.154.4.508.247.802-.106.201-.153.39-.153.59 0 1.533 3.396 3.243 8.267 3.243 4.87 0 8.267-1.71 8.267-3.243 0-.212-.06-.436-.19-.649a.582.582 0 01.213-.802.585.585 0 01.802.213c.236.401.354.825.354 1.25-.012 2.464-4.163 4.41-9.458 4.41z" fill="#231F20"/><path d="M24.573 142.373c-5.295 0-9.446-1.946-9.446-4.422v-.46c0-.507-.012-1.215 0-1.639a.7.7 0 01.024-.142.765.765 0 01.023-.271c.012-.036.024-.094.048-.13a.586.586 0 01.754-.318.594.594 0 01.33.79c.024-.059.024.023.012.094a23.854 23.854 0 000 1.592v.472c0 1.533 3.396 3.243 8.267 3.243 4.87 0 8.267-1.71 8.267-3.243l-.012-1.958c0-.035.012-.118.012-.153l-.012-.153c0-.012-.024-.13-.024-.142-.153-.283-.059-.66.236-.813a.579.579 0 01.79.224c.06.118.106.235.142.377.023.094.047.189.047.295 0 .035.012.2.012.224 0 .059-.012.118-.012.165l.012 1.91c-.024 2.512-4.175 4.458-9.47 4.458z" fill="#231F20"/><path d="M24.573 144.413c-5.295 0-9.446-1.946-9.446-4.422 0-.389.095-.779.295-1.144a.613.613 0 01.802-.248.6.6 0 01.248.802 1.224 1.224 0 00-.154.59c0 1.533 3.397 3.243 8.267 3.243 4.87 0 8.267-1.71 8.267-3.243a1.24 1.24 0 00-.189-.649.582.582 0 01.212-.802.585.585 0 01.802.212c.236.401.354.826.354 1.251-.012 2.464-4.163 4.41-9.458 4.41z" fill="#231F20"/><path d="M24.573 146.5c-5.295 0-9.446-1.945-9.446-4.422v-.46c0-.507-.012-1.214 0-1.639v-.047c.012-.153.024-.283.035-.354.012-.035.024-.094.036-.13.094-.306.413-.46.731-.377a.615.615 0 01.39.755c0 .023-.024.059-.024.071.023-.059.023.023.011.106v.047a33.715 33.715 0 000 1.545v.471c0 1.533 3.397 3.243 8.267 3.243 4.87 0 8.267-1.71 8.267-3.243l-.012-1.957c0-.036.012-.118.012-.154l-.012-.153c0-.012-.024-.13-.024-.141-.153-.283-.059-.661.236-.814a.58.58 0 01.79.224c.06.118.107.236.142.377.023.095.047.177.047.295 0 .036.012.201.012.224 0 .059-.012.106-.012.165l.012 1.911c-.012 2.512-4.163 4.457-9.458 4.457z" fill="#231F20"/></svg>