<svg width="447" height="287" fill="none" xmlns="http://www.w3.org/2000/svg"><path d="M128.849 231.556c-16.311 0-29.085-4.562-29.085-10.392 0-5.83 12.774-10.391 29.085-10.391s29.086 4.561 29.086 10.391-12.775 10.392-29.086 10.392zm0-19.502c-16.631 0-27.804 4.715-27.804 9.11s11.173 9.11 27.804 9.11c16.632 0 27.805-4.715 27.805-9.11s-11.173-9.11-27.805-9.11z" fill="#231F20"/><path d="M128.849 235.771c-16.042 0-29.085-6.56-29.085-14.607h1.281c0 7.355 12.467 13.326 27.804 13.326 15.338 0 27.805-5.984 27.805-13.326h1.281c0 8.059-13.044 14.607-29.086 14.607z" fill="#231F20"/><path d="M128.849 231.555c-13.364 0-27.176-3.331-27.176-8.905 0-5.573 13.812-8.905 27.176-8.905 13.364 0 27.177 3.332 27.177 8.905 0 5.574-13.813 8.905-27.177 8.905zm0-16.529c-15.491 0-25.895 3.947-25.895 7.624 0 3.678 10.404 7.624 25.895 7.624s25.896-3.946 25.896-7.624c0-3.677-10.405-7.624-25.896-7.624z" fill="#231F20"/><path d="M399.807 120.838c-.461 4.113-9.238 83.464-9.866 87.218-.615 3.755-2.383 2.294-6.124 2.537-3.742.244-126.619 8.354-126.619 8.354s-.077-5.625-2.55-8.162c-2.486-2.536-4.28-1.921-4.28-1.921l-2.716.743s1.038-1.717-1.781-2.87c-2.819-1.154-6.432-1.922-6.432-1.922s-8.431-10.443-9.905-11.993c-1.473-1.551 1.013-2.371 3.729-2.589l2.704-.217 16.17-1.295s3.895-60.81 4.625-63.578c.743-2.768 2.512-2.383 10.123-2.652 7.598-.269 129.232-4.229 130.847-4.511 1.614-.307 2.293.91 2.075 2.858z" fill="#1380FF"/><path d="M248.126 215.322l3.127 3.677s.525-.858.499-.973c-.013-.116-.768-2.115-.871-2.204-.09-.09-1.281-.795-1.281-.795h-1.499v.295h.025z" fill="#0BEE7B"/><path d="M166.648 40.218c1.768.435 3.831.14 5.279-1.013a4.65 4.65 0 001.64-2.6c.243-1 .243-2.05.205-3.076-.038-.82-1.32-.82-1.281 0 .038.871.051 1.781-.141 2.64-.192.832-.59 1.512-1.256 2.063-.73.589-1.64.832-2.563.87-.589.026-1.037 0-1.55-.127-.794-.193-1.14 1.038-.333 1.242z" fill="#231F20"/><path d="M172.478 33.133c.038 1.076.038 2.178.32 3.229.282 1.05.871 2.011 1.717 2.703 1.358 1.128 3.28 1.55 5.01 1.269.346-.052.525-.487.449-.795-.103-.358-.449-.5-.795-.448-.051.013.218-.026.026 0-.116.013-.231.026-.346.026-.346.012-.679 0-1.025-.026-.897-.103-1.82-.41-2.499-1a4.292 4.292 0 01-1.358-2.255c-.218-.884-.192-1.806-.231-2.716-.025-.807-1.307-.807-1.268.013zm-3.934 7.252c1.205-.103 2.268.55 2.934 1.524.359.513.615 1.064.769 1.666.039.128.051.256.09.397.09.385.013-.115.013.051 0 .103.013.218.025.32.064 1.18.077 2.358.09 3.524.013.82 1.294.82 1.281 0-.025-1.268 0-2.55-.115-3.805-.218-2.524-2.37-5.164-5.087-4.946-.82.051-.82 1.346 0 1.269z" fill="#231F20"/><path d="M173.734 47.868c0-1.013-.026-2.025.012-3.037.026-.743.128-1.32.5-1.986.487-.859 1.102-1.602 2.037-1.948.884-.333 1.833-.423 2.768-.512.346-.039.641-.27.641-.64 0-.321-.295-.68-.641-.642-1.064.103-2.165.193-3.165.577-1.153.436-1.96 1.23-2.601 2.268-.5.807-.756 1.589-.807 2.537-.064 1.127-.026 2.268-.026 3.395 0 .808 1.282.808 1.282-.012zm259.298 49.305c1.768.436 3.831.141 5.278-1.012a4.657 4.657 0 001.641-2.601c.243-1 .243-2.05.205-3.075-.039-.82-1.32-.82-1.282 0 .039.87.051 1.78-.141 2.64-.192.832-.589 1.511-1.255 2.062-.731.59-1.64.833-2.563.871-.589.026-1.038 0-1.55-.128-.795-.192-1.141 1.038-.333 1.243z" fill="#231F20"/><path d="M438.861 90.087c.039 1.077.039 2.179.321 3.23.282 1.05.871 2.01 1.717 2.703 1.358 1.127 3.28 1.55 5.01 1.268.346-.051.525-.487.448-.794-.102-.359-.448-.5-.794-.449-.052.013.217-.025.025 0-.115.013-.23.026-.346.026-.346.013-.679 0-1.025-.026-.897-.102-1.819-.41-2.498-.999a4.286 4.286 0 01-1.358-2.255c-.218-.884-.193-1.807-.231-2.716-.026-.808-1.307-.808-1.269.012zm-3.933 7.253c1.204-.102 2.268.551 2.934 1.525.359.513.615 1.063.769 1.666.038.128.051.256.09.397.089.384.012-.115.012.051 0 .103.013.218.026.32.064 1.179.077 2.358.09 3.524.012.82 1.294.82 1.281 0-.026-1.268 0-2.55-.115-3.805-.218-2.525-2.371-5.164-5.087-4.946-.82.064-.82 1.345 0 1.268z" fill="#231F20"/><path d="M440.117 104.823c0-1.013-.026-2.025.013-3.037.026-.743.128-1.32.5-1.986.487-.859 1.102-1.602 2.037-1.948.884-.333 1.832-.422 2.768-.512.345-.039.64-.27.64-.64 0-.321-.295-.68-.64-.642-1.064.103-2.166.193-3.165.577-1.153.436-1.961 1.23-2.601 2.268-.5.807-.756 1.589-.808 2.537-.064 1.128-.025 2.268-.025 3.395 0 .808 1.281.808 1.281-.012zM68.577 43.96c.038-1.153.09-2.306.128-3.46.013-.397-.359-.781-.756-.756a.766.766 0 00-.756.756c-.038 1.154-.09 2.307-.128 3.46-.013.397.359.782.756.756a.766.766 0 00.756-.756zm1.115 2.011h3.075c.397 0 .781-.345.756-.756a.766.766 0 00-.756-.756h-3.075c-.398 0-.782.346-.756.756.012.41.333.756.755.756zm-2.781.961v3.165c0 .398.346.782.756.756a.766.766 0 00.756-.756v-3.165c0-.397-.346-.781-.756-.756-.397.026-.756.334-.756.756zm-4.228-.705a22.39 22.39 0 013.075-.051c.397.025.781-.36.756-.756a.766.766 0 00-.756-.756 22.392 22.392 0 00-3.075.051c-.398.038-.782.32-.756.756.013.372.333.782.756.756zm-56.147 86.63c.038-1.128.09-2.255.128-3.383.013-.397-.359-.782-.756-.756a.766.766 0 00-.756.756c-.038 1.128-.09 2.255-.128 3.383-.013.397.359.781.756.756.423-.026.743-.334.756-.756zm1.076 1.973h2.896c.397 0 .782-.346.756-.756a.766.766 0 00-.756-.756H7.612c-.397 0-.781.346-.756.756.013.41.32.756.756.756zm-2.729.935v3.101c0 .397.346.782.756.756a.766.766 0 00.756-.756v-3.101c0-.397-.346-.781-.756-.755-.41.012-.756.32-.756.755zm-4.126-.692c1-.089 1.999-.102 2.998-.051.398.026.782-.359.756-.756a.766.766 0 00-.756-.756 23.444 23.444 0 00-2.998.051c-.397.039-.781.321-.756.756.013.385.333.795.756.756zM384.56 51.276a2.759 2.759 0 01-2.755-2.755 2.767 2.767 0 012.755-2.754 2.767 2.767 0 012.755 2.754 2.76 2.76 0 01-2.755 2.755zm0-3.998c-.692 0-1.243.552-1.243 1.243a1.244 1.244 0 002.486 0c0-.691-.564-1.242-1.243-1.242zm-197.911 68.96a2.759 2.759 0 01-2.755-2.755 2.766 2.766 0 012.755-2.754 2.766 2.766 0 012.755 2.754 2.759 2.759 0 01-2.755 2.755zm0-3.998c-.692 0-1.243.551-1.243 1.243 0 .692.551 1.243 1.243 1.243.692 0 1.243-.551 1.243-1.243 0-.692-.564-1.243-1.243-1.243zM22.821 207.57a2.759 2.759 0 01-2.755-2.755 2.767 2.767 0 012.755-2.755 2.767 2.767 0 012.755 2.755 2.759 2.759 0 01-2.755 2.755zm0-3.998c-.692 0-1.243.551-1.243 1.243 0 .692.551 1.243 1.243 1.243.692 0 1.243-.551 1.243-1.243 0-.692-.55-1.243-1.243-1.243zm408.814-10.43a2.759 2.759 0 01-2.755-2.755 2.767 2.767 0 012.755-2.755 2.767 2.767 0 012.755 2.755 2.759 2.759 0 01-2.755 2.755zm0-3.998c-.692 0-1.243.551-1.243 1.243 0 .692.551 1.243 1.243 1.243.692 0 1.243-.564 1.243-1.243 0-.679-.551-1.243-1.243-1.243zm-202.28 86.13c-46.524 0-90.268-5.049-123.172-14.197-33.16-9.226-51.419-21.603-51.419-34.839 0-5.612 3.268-11.096 9.712-16.298l.808.999c-6.138 4.946-9.239 10.084-9.239 15.299 0 26.331 77.75 47.767 173.323 47.767 95.572 0 173.322-21.423 173.322-47.767 0-6.202-4.356-12.262-12.967-18.028l.705-1.064c8.969 6.01 13.531 12.429 13.531 19.092 0 13.236-18.259 25.613-51.419 34.839-32.917 9.161-76.661 14.197-123.185 14.197z" fill="#231F20"/><path d="M394.234 242.652l-.808-.986c6.138-4.946 9.239-10.097 9.239-15.299 0-6.215-4.383-12.288-13.019-18.067l.705-1.063c9.008 6.022 13.582 12.454 13.582 19.117.013 5.625-3.254 11.109-9.699 16.298zm-199.641-63.091l-.077-1.269c11.43-.692 21.526-.974 34.839-.974 2.037 0 4.075.013 6.099.026l-.013 1.268c-2.024-.025-4.049-.025-6.086-.025-13.3.013-23.371.295-34.762.974zm-34.531 3.036l-.154-1.269c1.307-.153 2.627-.307 3.959-.461l.141 1.269c-1.319.141-2.639.307-3.946.461zm-80.287 69.191c-16.362-7.598-25.01-16.388-25.01-25.421 0-6.65 4.548-13.069 13.517-19.079 2.883-1.935 6.253-3.831 10.007-5.65l.551 1.153c-3.703 1.794-7.022 3.652-9.853 5.561-8.598 5.753-12.954 11.813-12.954 18.015 0 8.508 8.392 16.9 24.28 24.268l-.538 1.153z" fill="#231F20"/><path d="M230.329 286.153c-44.372 0-86.962-4.869-119.918-13.698-32.852-8.802-52.572-20.603-55.519-33.198-.166-.692-.205-3.972-.128-11.353l.013-1.191h1.269l-.013 1.191c-.026 2.525-.09 10.225.102 11.045 5.92 25.319 84.067 45.922 174.194 45.922 83.003 0 156.242-17.823 170.362-41.463 1.307-2.178 1.986-4.753 1.986-7.444v-9.725h1.269v9.725c0 2.921-.743 5.714-2.166 8.098-14.325 23.999-88.038 42.091-171.451 42.091z" fill="#231F20"/><path d="M64.477 242.652c-6.445-5.202-9.713-10.673-9.713-16.298 0-13.236 18.259-25.613 51.419-34.839 32.917-9.161 76.661-14.197 123.172-14.197 2.037 0 4.075.013 6.099.026l-.013 1.268c-2.024-.025-4.049-.025-6.086-.025-95.573 0-173.322 21.423-173.322 47.767 0 5.215 3.113 10.353 9.238 15.299l-.794.999zm325.951 2.793l-.705-1.063c8.598-5.766 12.967-11.827 12.967-18.028 0-6.189-4.356-12.249-12.928-18.002l.705-1.064c8.956 6.009 13.492 12.416 13.492 19.066-.013 6.663-4.562 13.082-13.531 19.091zm-63.899-178.87c7.778 3.792 13.979 10.084 18.413 17.464 2.28 3.793 3.972 7.829 5.509 11.98 1.23 3.331 2.435 6.688 3.152 10.174.884 4.343.987 8.815 1.089 13.236.026.82 1.307.82 1.282 0-.103-4.049-.205-8.137-.872-12.147-.602-3.562-1.742-6.996-2.972-10.392-3.05-8.367-6.881-16.272-13.134-22.756-3.408-3.536-7.393-6.496-11.813-8.661-.743-.359-1.397.743-.654 1.102zm-57.364 19.873c1.922 4.305 5.087 8.392 8.444 11.673 3.293 3.216 8.149 5.074 12.749 5.009.82-.012.82-1.294 0-1.281-4.51.064-9.072-1.832-12.224-5.023-3.113-3.152-6.047-6.957-7.867-11.032-.32-.743-1.435-.102-1.102.654z" fill="#231F20"/><path d="M246.794 23.33c3.088-15.618 33.275-26.766 49.535-21.23 19.732 6.714 21.039 16.874 24.908 30.815 3.87 13.94 22.244 34.378 19.246 54.135l-.077.513c-1.781 11.16-11.224 19.501-22.526 20.027l-30.777 1.435s2.896-3.972 3.114-9.815c.615-16.76 1.627-49.856.167-54.917-1.974-6.83-8.598-6.137-19.156-11.634-10.558-5.497-14.184-9.892-14.184-9.892s-3.882 2.857-5.279 9.892c-1.397 7.034-.935 9.981-.935 9.981s-6.996-4.382-4.036-19.31z" fill="#1380FF"/><path d="M255.827 63.218s-11.468 13.659-10.379 29.316l.039.462c.743 9.136 9.494 17.092 18.655 16.836l10.597-.935-1.807-2.64c-1.486-2.306-1.755-5.381-1.845-7.008l-.986-23.064s-5.228-1.384-8.624-4.74c-5.65-5.549-5.65-8.227-5.65-8.227z" fill="#1380FF"/><path d="M251.124 44.28c.68 9.021 2.179 18.208 8.188 25.345 5.804 6.893 16.196 10.57 24.729 6.74 1.858-.833 3.831-2.063 5.113-3.703.499-.641-.398-1.55-.91-.91-3.357 4.28-9.738 5.394-14.786 4.561-9.802-1.627-16.375-9.558-19.028-18.758-1.243-4.292-1.704-8.841-2.037-13.274-.051-.808-1.333-.82-1.269 0z" fill="#231F20"/><path d="M264.04 62.846c2.14 2.921 5.971 3.613 9.354 2.742 3.331-.858 6.316-3.908 7.303-7.162.141-.475-.32-.91-.794-.795-4.511 1.243-9.034 2.499-13.544 3.742-.64.179-1.294.358-1.935.538-.794.217-.461 1.46.346 1.23 4.511-1.243 9.034-2.499 13.544-3.742.64-.18 1.294-.358 1.935-.538l-.795-.794c-.846 2.78-3.395 5.394-6.201 6.214-2.781.82-6.304.372-8.111-2.089-.474-.653-1.589-.012-1.102.654zm-5.086-19.788c.156-1.378-.573-2.592-1.628-2.711-1.055-.12-2.036.902-2.192 2.28-.155 1.378.574 2.592 1.629 2.711 1.055.119 2.036-.902 2.191-2.28zm20.02.006c.155-1.379-.574-2.592-1.628-2.711-1.055-.12-2.036.902-2.192 2.28-.155 1.378.574 2.592 1.629 2.71 1.054.12 2.035-.901 2.191-2.28zm-14.665 2.242c-.269 2.421-.551 4.856-.82 7.278-.038.345.32.64.641.64.384 0 .602-.294.64-.64.269-2.422.551-4.857.82-7.278.039-.346-.32-.641-.64-.641-.372 0-.602.295-.641.64zm-8.662 17.297c-6.995 1.115-12.274 5.997-16.17 11.647-6.329 9.174-9.955 20.168-13.236 30.726-3.139 10.122-5.829 20.424-7.944 30.815a123.32 123.32 0 00-2.306 18.759c-.231 5.074 1.281 10.084 4.446 14.081 1.884 2.383 4.216 4.126 6.817 5.651a276.491 276.491 0 009.097 5.138c4.856 2.614 9.904 5.484 15.248 6.983.794.231 1.14-1.012.345-1.23-4.561-1.294-8.892-3.652-13.069-5.856a288.299 288.299 0 01-7.547-4.151c-2.473-1.41-5.112-2.729-7.278-4.6-4.036-3.472-6.547-8.559-6.791-13.889-.269-5.958.744-12.263 1.794-18.105 1.73-9.636 4.241-19.233 7.009-28.612 3.203-10.865 6.663-21.987 12.442-31.789 3.933-6.676 9.443-13.03 17.477-14.312.82-.154.474-1.384-.334-1.256z" fill="#231F20"/><path d="M247.934 105.949c-.564 7.317-1.051 14.684-.115 22.001 1.063 8.29 3.664 16.323 6.201 24.255.256.781 1.486.448 1.23-.346-2.55-7.919-5.176-15.978-6.201-24.268-.897-7.188-.397-14.441.153-21.642.077-.82-1.204-.82-1.268 0zm-28.227 24.32c2.883 3.831 7.547 6.189 11.967 7.765 4.6 1.64 9.956 2.729 14.774 1.486.794-.205.461-1.435-.346-1.23-4.498 1.153-9.456.115-13.749-1.358-4.177-1.448-8.815-3.678-11.544-7.291-.487-.666-1.602-.026-1.102.628z" fill="#231F20"/><path d="M247.934 130c-1.653 6.137-3.19 12.301-4.779 18.451-.192.743-.385 1.473-.564 2.216-.205.795 1.025 1.141 1.23.346 1.435-5.586 2.87-11.173 4.318-16.759.333-1.307.679-2.601 1.025-3.908.218-.807-1.012-1.153-1.23-.346zm76.609-20.642c.141 3.549.397 7.098.859 10.622.051.346.256.64.64.64.308 0 .692-.294.641-.64-.461-3.524-.73-7.073-.858-10.622-.039-.82-1.32-.82-1.282 0zm-73.05 76.403l-1.759 23.048 1.278.098 1.759-23.048-1.278-.098zm.17 34.058c-1.576-.359-2.627-1.819-2.512-3.485l.103-1.269 1.281.103-.102 1.268c-.077 1.025.551 1.922 1.512 2.127l-.282 1.256z" fill="#231F20"/><path d="M257.249 219.589l-.09-1.282 130.348-8.597a1.943 1.943 0 001.806-1.717l9.866-87.219a1.927 1.927 0 00-.499-1.537 1.92 1.92 0 00-1.499-.628l-137.895 4.779a1.95 1.95 0 00-1.87 1.794l-4.639 60.67-1.281-.103 4.638-60.682a3.216 3.216 0 013.101-2.973l137.894-4.779a3.281 3.281 0 012.486 1.038c.641.691.948 1.614.833 2.549l-9.866 87.219a3.23 3.23 0 01-2.998 2.857l-130.335 8.611z" fill="#231F20"/><path d="M253.815 209.607l-1.281-.09 6.227-82.759a2.717 2.717 0 012.614-2.512l138.381-4.817.051 1.281-138.381 4.818c-.73.025-1.32.589-1.384 1.319l-6.227 82.76zm-14.863-4.382l-9.904-11.993a2.08 2.08 0 01-.308-2.153 2.09 2.09 0 011.755-1.268l21.59-1.743.103 1.282-21.59 1.742a.786.786 0 00-.679.487.817.817 0 00.115.833l9.905 11.993-.987.82zm9.054 8.926l-.988.816 2.423 2.935.988-.816-2.423-2.935zm-18.971-61.306c4.113-1.55 8.738-2.806 13.095-1.588 2.332.653 4.254 2.075 6.086 3.587 1.781 1.474 3.536 2.96 5.304 4.446.628.526 1.538-.371.91-.909-1.999-1.666-3.959-3.383-5.996-5.01-1.807-1.448-3.729-2.729-5.971-3.357-4.587-1.294-9.456-.039-13.787 1.589-.756.294-.423 1.537.359 1.242z" fill="#231F20"/><path d="M227.497 214.643c-10.097 0-20.834-2.025-20.834-5.792s10.737-5.791 20.834-5.791 20.834 2.024 20.834 5.791c0 3.767-10.737 5.792-20.834 5.792zm0-10.289c-12.108 0-19.553 2.626-19.553 4.51 0 1.883 7.432 4.51 19.553 4.51s19.553-2.627 19.553-4.51c0-1.884-7.444-4.51-19.553-4.51zm.103 50.279c-15.069 0-26.882-4.229-26.882-9.61 0-2.563 2.511-4.856 7.252-6.637l.448 1.204c-4.087 1.538-6.419 3.511-6.419 5.446 0 4.023 10.289 8.328 25.601 8.328 15.311 0 25.6-4.305 25.6-8.328 0-1.948-2.396-3.96-6.56-5.497l.448-1.205c4.844 1.794 7.406 4.101 7.406 6.702-.013 5.368-11.826 9.597-26.894 9.597z" fill="#231F20"/><path d="M227.6 257.528c-14.479 0-26.882-6.714-26.882-12.198h1.281c0 4.292 10.994 10.917 25.601 10.917s25.6-6.625 25.6-10.917h1.281c0 5.497-12.403 12.198-26.881 12.198z" fill="#231F20"/><path d="M227.497 250.494c-4.151 0-8.29-.359-12.416-1.077-4.202-.73-7.342-4.356-7.47-8.61l-.948-31.917 1.281-.039.949 31.917c.102 3.652 2.806 6.766 6.406 7.394a70.854 70.854 0 0024.383 0c3.601-.628 6.292-3.742 6.407-7.394l.948-31.917 1.281.039-.948 31.917c-.128 4.267-3.267 7.88-7.47 8.61a73.456 73.456 0 01-12.403 1.077z" fill="#231F20"/><path d="M247.088 236.271l-.474-1.191c4.011-1.589 9.969-8.534 9.969-14.876 0-6.804-2.268-10.699-6.215-10.699-.807 0-1.614.218-2.396.653l-.627-1.114c.973-.538 1.998-.82 3.023-.82 4.767 0 7.496 4.369 7.496 11.98.013 7.085-6.483 14.363-10.776 16.067z" fill="#231F20"/><path d="M247.55 229.07l-.897-.91c2.101-2.076 3.613-4.421 4.125-6.445.654-2.575.487-4.6-.435-5.548-.59-.602-1.499-.756-2.691-.487l-.282-1.243c2.076-.474 3.268.192 3.895.846 1.269 1.294 1.538 3.69.756 6.752-.576 2.23-2.204 4.805-4.471 7.035zm-4.485-22.845a.66.66 0 01-.5-.23l-11.275-13.736a.644.644 0 01.09-.897.644.644 0 01.896.09l11.276 13.735a.645.645 0 01-.09.897.623.623 0 01-.397.141zM324.351 58.99a48.2 48.2 0 017.252 18.553c.141.807 1.371.461 1.23-.346a49.416 49.416 0 00-7.38-18.86c-.436-.68-1.55-.039-1.102.653zm-64.104 24.05a45.581 45.581 0 00-1.909 16.35c.051.819 1.333.819 1.281 0a44.59 44.59 0 011.858-16.017c.257-.782-.986-1.115-1.23-.333zm-6.419-6.446c-.91 2.999-1.832 6.01-2.742 9.008-.243.794.999 1.127 1.23.346.91-2.998 1.832-6.01 2.742-9.008.243-.794-.987-1.14-1.23-.346zm50.817-22.999c.627 4.498 1.588 8.572 3.792 12.57 2.191 3.998 4.088 7.931 4.78 12.493 1.268 8.482-1.73 17.438-8.701 22.679-.653.487-.012 1.601.641 1.102 6.727-5.061 10.161-13.377 9.559-21.731-.321-4.446-1.666-8.726-3.767-12.647-1.256-2.357-2.704-4.625-3.537-7.188-.807-2.473-1.179-5.061-1.537-7.636-.116-.795-1.346-.449-1.23.358zm13.838 36.928c.294 1.653-.167 3.37-1.166 4.715-.205.282-.052.718.23.871.321.193.667.052.872-.23 1.204-1.628 1.64-3.716 1.294-5.702-.064-.346-.474-.538-.795-.449-.346.103-.487.449-.435.795zm3.229 0c.371 2.268-.077 4.625-1.205 6.611-.41.718.705 1.371 1.102.641 1.307-2.32 1.755-4.984 1.333-7.598-.052-.346-.474-.538-.795-.449-.359.103-.487.449-.435.795zm-23.833-28.509a26.177 26.177 0 011.807 8.277c.038.82 1.32.82 1.281 0a27.2 27.2 0 00-1.858-8.61c-.128-.32-.435-.551-.794-.449-.282.077-.564.461-.436.782zm-3.664.626c.346 1.961.704 3.909 1.05 5.869.064.346.475.538.795.448.359-.102.512-.448.448-.794-.346-1.96-.704-3.908-1.05-5.868-.064-.346-.474-.538-.795-.449-.359.103-.512.449-.448.795zm-19.963-40.45a70.451 70.451 0 0024.665 9.866c.807.154 1.153-1.076.346-1.23a69.74 69.74 0 01-24.358-9.738c-.704-.448-1.345.654-.653 1.102zm14.338 1.385c1.486.486 2.985.973 4.472 1.46.333.103.704-.128.794-.448.09-.346-.115-.68-.448-.795-1.487-.487-2.986-.973-4.472-1.46-.333-.103-.705.128-.795.448-.102.359.116.692.449.795zm-25.319 72.124c-.576 1.281-.499 2.844.346 3.998.192.269.564.435.871.23.27-.166.449-.59.231-.871l-.231-.346c-.038-.064-.064-.128-.089-.18-.013-.025-.026-.064-.039-.09.026.078.039.078 0 .014a3.777 3.777 0 01-.128-.397l-.038-.206c0-.038-.013-.064-.013-.102.013.09.013.09 0 .013-.013-.141-.026-.282-.013-.41 0-.064 0-.141.013-.205 0-.039 0-.257.013-.09 0-.128.051-.282.089-.41.026-.064.039-.128.065-.192.012-.039.025-.064.038-.103-.026.077-.038.077 0 .013.141-.307.102-.704-.231-.871-.294-.18-.743-.128-.884.205zm-51.572 122.57c.82 0 .82-1.282 0-1.282-.833 0-.833 1.282 0 1.282zm5.612 3.601v-.116a.526.526 0 00-.051-.243.434.434 0 00-.129-.205.494.494 0 00-.205-.128.401.401 0 00-.243-.052c-.051.013-.115.013-.167.026a.643.643 0 00-.282.167c-.038.038-.064.089-.102.128a.578.578 0 00-.09.32v.115c0 .09.013.167.052.244a.424.424 0 00.128.205.505.505 0 00.205.128.4.4 0 00.243.051c.051-.013.115-.013.167-.025a.643.643 0 00.282-.167c.038-.038.064-.09.102-.128a.551.551 0 00.09-.32zm7.726-2.384h.115c.09 0 .167-.013.244-.051a.434.434 0 00.205-.129.505.505 0 00.128-.205.4.4 0 00.051-.243c-.013-.051-.013-.115-.025-.167a.643.643 0 00-.167-.282c-.038-.038-.09-.064-.128-.102a.58.58 0 00-.32-.09h-.116a.514.514 0 00-.243.052.424.424 0 00-.205.128.494.494 0 00-.128.205.401.401 0 00-.052.243c.013.051.013.115.026.167.026.102.09.205.167.282.038.038.089.064.128.102a.71.71 0 00.32.09zm7.56 3.485v-.115a.527.527 0 00-.051-.244.439.439 0 00-.129-.205.505.505 0 00-.205-.128.4.4 0 00-.243-.051c-.051.013-.115.013-.167.026a.632.632 0 00-.282.166c-.038.039-.064.09-.102.128a.58.58 0 00-.09.321v.115c0 .09.013.166.052.243a.424.424 0 00.128.205.494.494 0 00.205.128.394.394 0 00.243.052c.051-.013.115-.013.167-.026a.65.65 0 00.282-.166c.038-.039.064-.09.102-.129a.71.71 0 00.09-.32zm6.112-4.164l.115-.115a.505.505 0 00.128-.205.404.404 0 00.051-.244.526.526 0 00-.051-.243.432.432 0 00-.128-.205c-.039-.039-.09-.064-.128-.103a.58.58 0 00-.321-.089c-.051.012-.115.012-.166.025a.637.637 0 00-.282.167l-.115.115a.507.507 0 00-.129.205.404.404 0 00-.051.244c0 .089.013.166.051.243a.434.434 0 00.129.205c.038.038.089.064.128.102a.57.57 0 00.32.09c.051-.013.115-.013.167-.025a.578.578 0 00.282-.167zm5.586.795l-.115-.116a.505.505 0 00-.205-.128.404.404 0 00-.244-.051.526.526 0 00-.243.051.432.432 0 00-.205.128c-.039.039-.064.09-.103.129a.577.577 0 00-.089.32c.012.051.012.115.025.166.026.103.09.205.167.282l.115.116a.505.505 0 00.205.128.404.404 0 00.244.051.526.526 0 00.243-.051.432.432 0 00.205-.128c.039-.039.064-.09.103-.128a.58.58 0 00.089-.321c-.013-.051-.013-.115-.025-.166a.788.788 0 00-.167-.282zm-20.309 8.699v-.115a.515.515 0 00-.051-.244.442.442 0 00-.128-.205.505.505 0 00-.205-.128.404.404 0 00-.244-.051c-.051.013-.115.013-.166.026a.626.626 0 00-.282.166c-.038.039-.064.09-.102.128a.573.573 0 00-.09.321v.115c0 .09.013.167.051.243a.432.432 0 00.128.205.497.497 0 00.205.129.404.404 0 00.244.051c.051-.013.115-.013.166-.026a.626.626 0 00.282-.166c.039-.039.064-.09.103-.128a.673.673 0 00.089-.321zm-11.89-.73v-.116a.526.526 0 00-.051-.243.426.426 0 00-.129-.205.494.494 0 00-.205-.128.392.392 0 00-.243-.051c-.051.012-.115.012-.167.025a.634.634 0 00-.281.167c-.039.038-.064.089-.103.128a.578.578 0 00-.09.32v.116c0 .089.013.166.052.243a.424.424 0 00.128.205.505.505 0 00.205.128.395.395 0 00.243.051c.051-.012.116-.012.167-.025a.643.643 0 00.282-.167c.038-.038.064-.09.102-.128a.67.67 0 00.09-.32zm27.407.615v-.115a.527.527 0 00-.051-.244.432.432 0 00-.128-.205.511.511 0 00-.205-.128.404.404 0 00-.244-.051c-.051.013-.115.013-.166.025a.637.637 0 00-.282.167c-.039.038-.064.09-.103.128a.58.58 0 00-.09.32v.116c0 .089.013.166.052.243a.424.424 0 00.128.205.494.494 0 00.205.128.403.403 0 00.243.052c.052-.013.116-.013.167-.026a.643.643 0 00.282-.167c.038-.038.064-.089.102-.128a.578.578 0 00.09-.32zm-22.718 7.675c.82 0 .82-1.281 0-1.281s-.82 1.281 0 1.281zm14.287-.435l.115-.115a.494.494 0 00.128-.205.397.397 0 00.052-.244.514.514 0 00-.052-.243.424.424 0 00-.128-.205c-.038-.039-.089-.064-.128-.103a.577.577 0 00-.32-.089c-.051.012-.115.012-.167.025a.643.643 0 00-.282.167l-.115.115a.505.505 0 00-.128.205.404.404 0 00-.051.244c0 .089.013.166.051.243a.432.432 0 00.128.205c.039.039.09.064.128.103a.58.58 0 00.321.089c.051-.013.115-.013.166-.025a.637.637 0 00.282-.167zm12.8-.449v-.115a.527.527 0 00-.051-.244.432.432 0 00-.128-.205.505.505 0 00-.205-.128.404.404 0 00-.244-.051c-.051.013-.115.013-.166.025a.637.637 0 00-.282.167c-.038.038-.064.09-.103.128a.579.579 0 00-.089.32v.116c0 .089.013.166.051.243a.432.432 0 00.128.205.494.494 0 00.205.128.404.404 0 00.244.052c.051-.013.115-.013.166-.026a.637.637 0 00.282-.167c.038-.038.064-.089.103-.128a.577.577 0 00.089-.32zm-20.411 7.432c.82 0 .82-1.282 0-1.282s-.82 1.282 0 1.282zm14.223.205v-.116a.514.514 0 00-.052-.243.424.424 0 00-.128-.205.494.494 0 00-.205-.128.395.395 0 00-.243-.051c-.052.012-.116.012-.167.025a.643.643 0 00-.282.167c-.038.038-.064.089-.102.128a.578.578 0 00-.09.32v.115c0 .09.013.167.051.244a.432.432 0 00.128.205.511.511 0 00.205.128.397.397 0 00.244.051c.051-.012.115-.012.166-.025a.637.637 0 00.282-.167c.039-.038.064-.09.103-.128a.551.551 0 00.09-.32zm-26.716-1.666c.82 0 .82-1.281 0-1.281s-.833 1.281 0 1.281zm-86.347-113.255c1.179.371 1.691 1.627 2.306 2.588.872 1.358 1.833 2.665 2.755 3.998.91 1.332 1.832 2.652 2.742 3.985.91 1.319 1.909 2.639 2.46 4.164.282.769 1.525.435 1.23-.346-.576-1.589-1.55-2.96-2.498-4.344-1.064-1.537-2.114-3.062-3.178-4.6-.948-1.371-1.947-2.729-2.806-4.151-.666-1.102-1.384-2.127-2.678-2.537-.781-.244-1.115.999-.333 1.243z" fill="#231F20"/><path d="M90.41 129.193c1.538 3.472 4.895 5.855 8.021 7.803 3.754 2.345 7.842 4.408 12.237 5.202 7.572 1.358 16.541-1.73 18.374-9.994.179-.807-1.051-1.14-1.23-.346-1.833 8.277-11.173 10.596-18.438 8.738-3.742-.961-7.214-2.78-10.469-4.83-2.883-1.82-5.958-4.023-7.367-7.227-.359-.743-1.461-.089-1.128.654z" fill="#231F20"/><path d="M122.071 127.488c5.42.064 12.39 2.793 14.812 7.944 1.128 2.396 1.576 5.048 2.102 7.624.615 3.037 1.204 6.073 1.857 9.097 1.013 4.626 3.409 8.828 4.408 13.467.538 2.524.295 5.138-.064 7.675-.256 1.845-.692 3.69-1.55 5.343-.949 1.832-2.243 3.498-4.062 4.497-1.397.769-2.909 1.384-4.433 1.884-.782.256-.449 1.499.346 1.23 3.293-1.089 6.227-2.46 8.277-5.356 2.498-3.537 3.139-8.29 3.101-12.531-.052-5.369-3.088-10.225-4.472-15.286-.872-3.191-1.384-6.509-2.05-9.751-.577-2.806-1.051-5.689-2.255-8.316-2.627-5.702-10.046-8.738-16.03-8.802-.807-.013-.807 1.268.013 1.281z" fill="#231F20"/><path d="M142.687 156.177a2.721 2.721 0 00-3.421-1.717l-.922.307c-.013-.038-.013-.064-.026-.102a15.522 15.522 0 00-1.179-1.41 11.74 11.74 0 003.357-6.829 11.725 11.725 0 00-.845-6.125c-.013-.025 0-.064.025-.076a2.39 2.39 0 001.448-1.884 2.381 2.381 0 00-2.063-2.665 2.385 2.385 0 00-1.204.167 2.551 2.551 0 00-.935.512 11.7 11.7 0 00-8.495-3.28c-1.999 0-3.896.512-5.574 1.409a2.345 2.345 0 00-1.371-1.037 2.147 2.147 0 00-.564-.154 2.385 2.385 0 00-2.691 2.037 2.383 2.383 0 00.897 2.191c.026.013.026.051.013.077a11.687 11.687 0 00-2.422 5.689 11.723 11.723 0 001.461 7.47 14.12 14.12 0 00-1.525 1.063h-.012l-.808-.538a2.7 2.7 0 00-3.741.756c-.577.859-.577 1.922-.115 2.781.076-.026.166-.052.243-.077a6.4 6.4 0 01.692-.115c.243-.026.474-.039.717-.052.231-.013.449-.013.68 0 .192.013.384.026.576.052.141.025.282.051.41.115.192.077.372.179.525.32a.863.863 0 01.231.372.78.78 0 01-.013.423 1.639 1.639 0 01-.218.422 2.28 2.28 0 01-.371.423 6.713 6.713 0 01-.449.41c-.166.141-.346.269-.512.397a15.76 15.76 0 01-.513.346c-.153.103-.307.193-.461.295-.128.077-.243.154-.371.218-.18.102-.359.218-.539.32-.205.116-.397.244-.589.359-.115.41-.218.82-.295 1.243.116.307.167.641.218.961.051.346.115.717.295 1.025.064.115.166.243.295.295.128.064.281.064.422.064.372-.013.744-.128 1.089-.244.359-.115.718-.23 1.077-.359.538-.192 1.05-.422 1.576-.64.82-.346 1.653-.666 2.524-.871.756-.18 1.576-.257 2.306.051.372.154.705.423.948.743.231.295.398.641.398 1.025.012.705-.5 1.281-1.025 1.691-.577.449-1.243.756-1.935.974-.897.282-1.82.461-2.717.756-.153.051-.307.115-.448.167-.32.307-.589.589-.641.781-.051.205.013.359.141.5a72.984 72.984 0 004.062-.769c.628-.141 1.243-.295 1.858-.448.41-.103.82-.205 1.23-.282.448-.09.897-.154 1.358-.154.423-.013.846.026 1.243.179.372.141.705.385.923.718.153.243.281.512.358.782.09.294.128.589.154.896.013.141.013.282 0 .41l.013.013c.448.192 1.499 1.666 1.973 1.82.5.154 2.883 2.357 3.396 2.485a.15.15 0 00.128-.025c-.103-.218-.218-.436-.321-.654-.23-.538-.41-1.089-.602-1.64-.051-.141-.102-.269-.154-.41-.051-.128-.102-.269-.179-.384a4.725 4.725 0 00-.346-.538c-.256-.372-.538-.731-.692-1.166a1.685 1.685 0 01-.09-.615c.026-.205.09-.397.193-.564.179-.282.448-.487.756-.615.32-.128.666-.167 1.012-.141.359.026.705.115 1.038.256.115.052.23.128.346.192a22.42 22.42 0 011.794.487c-.026.308-.077.628.217.91.513.513.462 1.217.884 1.794.141.192 1.102 1.409 1.243 1.614 1.999-1.729 2.55-4.561 2.806-6.381a13.81 13.81 0 00-.282-5.202c-.012-.025.013-.064.039-.064l.41-.141c1.384-.448 2.153-1.986 1.678-3.395z" fill="#1380FF"/><path d="M133.501 148.771a1.779 1.779 0 01-1.09 1.807c-.973.397-2.511.858-4.138.64-1.627-.23-2.986-1.076-3.818-1.729a1.764 1.764 0 01-.564-2.025c.845-2.217 3.024-3.639 5.356-3.318 2.319.307 4.036 2.267 4.254 4.625z" fill="#fff"/><path d="M128.042 149.783c-.128 0-.256-.013-.41-.026a1.632 1.632 0 01-1.473-1.537.64.64 0 01.615-.654h.025c.346 0 .628.269.641.615.013.167.141.282.372.321.205.025.345.012.435 0l.256-1.845a.662.662 0 01.718-.551.654.654 0 01.551.717l-.359 2.319c-.077.103-.41.641-1.371.641z" fill="#231F20"/><path d="M130.028 150.065c-.09 0-.179-.013-.282-.026-1.281-.179-1.499-.935-1.537-1.089l-.026-.115.308-2.217a.662.662 0 01.717-.551c.346.051.59.372.551.718l-.256 1.87c.064.013.192.077.423.103.23.025.384-.039.448-.218.115-.32.487-.5.807-.384.321.115.5.448.398.781a1.596 1.596 0 01-1.551 1.128z" fill="#231F20"/><path d="M130.714 146.446c.066-.477-.558-.956-1.392-1.071-.834-.115-1.564.179-1.629.655-.066.477.557.957 1.392 1.071.834.115 1.563-.178 1.629-.655zm-7.458-3.083c.088-.638-.182-1.202-.602-1.26-.421-.058-.833.412-.921 1.05-.088.638.182 1.203.603 1.26.42.058.832-.412.92-1.05zm11.458 1.581c.088-.638-.182-1.202-.602-1.26-.421-.058-.833.412-.921 1.05-.088.638.182 1.202.603 1.26.421.058.833-.412.92-1.05zm-2.392-57.01c.833 4.626 1.729 9.38 2.05 14.069.295 4.408-.449 9.008-2.729 12.852-3.332 5.586-12.006 10.442-18.208 6.342-.692-.461-1.332.654-.64 1.102 4.497 2.973 10.737 1.435 14.85-1.371 6.266-4.267 8.598-12.083 7.982-19.373-.384-4.664-1.23-9.354-2.062-13.954-.154-.82-1.384-.474-1.243.333zm-18.31 6.42c.589-.27 1.294-.141 1.896.281.039-.5-.013-1.037-.256-1.563-.602-1.32-1.909-2.011-2.921-1.537-1.013.461-1.346 1.909-.731 3.229a2.99 2.99 0 001.038 1.255c.051-.743.372-1.384.974-1.665z" fill="#231F20"/><path d="M129.387 94.354c.59-.27 1.295-.141 1.897.281.038-.5-.013-1.037-.256-1.563-.603-1.32-1.91-2.011-2.922-1.537-1.012.461-1.345 1.909-.73 3.229.243.538.615.973 1.038 1.255.051-.743.371-1.384.973-1.665zm-5.548-.564l2.345 5.113c.141.32.602.397.872.23.32-.192.371-.563.23-.871l-2.345-5.112c-.141-.32-.602-.398-.871-.231-.333.18-.384.55-.231.871z" fill="#231F20"/><path d="M132.937 87.755s1.986-5.868-2.858-11.365c-4.83-5.496-13.517-7.354-19.834-6.368-6.317.987-14.76 5.087-19.463 10.789-4.254 5.15-4.959 10.365-4.715 13.646.243 3.28 2.075 6.816 2.075 6.816s1.282-3.229 3.64-3.344c2.357-.128 1.857 1.243 2.357-.128.5-1.358.743-2.73 3.472-6.817 1.602-2.396 2.64-3.856 3.229-4.664a9.418 9.418 0 001.012-1.69c.564-1.231 1.666-3.499 2.947-5.549 1.858-2.973 3.716-5.433 3.716-5.433s3.716 1.474 4.587 4.946c.705 2.793.615 3.178.615 3.178s2.204-2.55 2.358-5.369c.089-1.55-.128-2.755-.128-2.755s2.229-.064 3.844 2.755c1.614 2.806 2.242 5.907 2.242 5.907s.794-3.306.435-5.945c-.358-2.601-1.934-4.1-1.934-4.1s3.1 2.357 5.022 4.587c1.922 2.229 2.73 3.113 2.73 3.113l-1.551-3.575s2.486 1.576 4.228 4.549c1.73 2.973 1.974 6.817 1.974 6.817z" fill="#1380FF"/><path d="M93.19 97.698c-1.588-.435-3.305.154-4.394 1.371-1.192 1.333-1.474 3.191-1.18 4.908.321 1.819 1.385 3.421 2.59 4.779 1.178 1.332 2.626 2.639 4.394 3.101 1.743.461 3.665-.052 4.74-1.538.488-.666-.627-1.307-1.101-.641-.987 1.371-2.973 1.256-4.318.551-1.576-.833-2.96-2.345-3.92-3.831-.975-1.499-1.551-3.344-1-5.125.5-1.602 2.152-2.793 3.856-2.332.782.218 1.128-1.025.334-1.243zm21.924 10.161c1.358.077 2.652-.141 3.985-.294a69.586 69.586 0 013.28-.295 43.128 43.128 0 013.152-.141c1.115 0 2.101.32 3.241.602.808.192 1.141-1.038.346-1.23-1.101-.269-2.203-.628-3.344-.64-1.076-.013-2.14.051-3.216.128a75.872 75.872 0 00-3.383.307c-1.358.154-2.677.372-4.061.295-.82-.064-.82 1.217 0 1.268z" fill="#231F20"/><path d="M127.671 107.41c-.449 1.448-.756 3.306-1.781 4.472-1.025 1.166-2.883 1.038-4.267.743-1.358-.295-2.691-.961-3.562-2.063-.91-1.153-1.333-2.601-2.524-3.523-.641-.5-1.564.397-.91.909 1.345 1.051 1.755 2.858 2.985 4.037 1.205 1.166 2.819 1.806 4.459 2.024 1.615.218 3.46.128 4.651-1.128 1.269-1.332 1.653-3.421 2.179-5.112.243-.807-.987-1.14-1.23-.359zm-31.597 4.677c1.332 3.588 2.793 7.252 2.818 11.135.013.82 1.295.82 1.282 0-.026-4.011-1.487-7.778-2.87-11.481-.282-.769-1.512-.435-1.23.346zm27.112 9.802c-2.05 2.114-2.037 5.164-1.884 7.919.039.82 1.32.82 1.282 0-.128-2.371-.282-5.164 1.512-7.009.576-.602-.333-1.512-.91-.91z" fill="#231F20"/><path d="M98.982 119.942c-1.576 1.063-3.14 2.127-4.715 3.19-.769.513-1.525 1.025-2.294 1.55-.717.487-1.755.91-1.614 1.922.051.346.487.539.794.449.372-.103.5-.449.449-.795 0-.038-.013-.064-.013-.102v.346c.026-.128.679-.461.846-.577.358-.243.704-.474 1.063-.717.666-.449 1.333-.91 2.012-1.358 1.384-.936 2.755-1.858 4.138-2.794.654-.474.026-1.576-.666-1.114z" fill="#231F20"/><path d="M90.308 126.4a39.607 39.607 0 01-1.218 10.916c-.205.795 1.038 1.141 1.23.346a41.189 41.189 0 001.256-11.262c-.013-.82-1.294-.82-1.268 0zm-.282 14.042c.948 3.831.32 7.752-.41 11.57-.73 3.768-1.474 7.522-2.204 11.289-.154.807 1.076 1.153 1.23.346.794-4.049 1.614-8.098 2.37-12.147.705-3.767 1.18-7.611.244-11.378-.192-.82-1.422-.487-1.23.32z" fill="#231F20"/><path d="M80.75 164.07c7.982.525 15.977 1.038 23.96 1.563.82.051.82-1.23 0-1.281-7.983-.526-15.978-1.038-23.96-1.563-.82-.052-.82 1.23 0 1.281z" fill="#231F20"/><path d="M104.735 164.429c-2.639 2.088-1.717 6.368-1.883 9.277-.244 4.138-1.666 8.162-1.615 12.313 0 .282.192.538.474.615 1.192.32 1.858-.103 2.319-1.217a24.832 24.832 0 001.461-4.946c.154-.807-1.089-1.153-1.23-.346-.167.922-.987 5.599-2.204 5.279.154.205.308.41.474.615-.051-3.754 1.192-7.393 1.525-11.122.167-1.794.115-3.575.141-5.368.013-1.551.167-3.178 1.461-4.203.628-.5-.282-1.397-.923-.897z" fill="#231F20"/><path d="M102.044 185.404c-7.11-1.32-14.401-.705-21.513-1.948-3.113-.538-6.073-1.576-8.995-2.755-1.358-.551-2.882-1.204-3.882-2.332-.692-.781-.948-1.858-1.14-2.857-.974-4.869-.615-10.315.55-15.119 1.692-6.996 3.986-14.108 6.805-20.745.807-1.909 1.665-3.844 2.716-5.625 1.102-1.858 2.537-3.088 4.395-4.164 3.485-2.037 7.098-4.036 11.121-4.69.808-.128.462-1.371-.346-1.23-3.702.603-6.995 2.332-10.237 4.152-1.384.769-2.806 1.55-3.985 2.639-1.384 1.282-2.268 2.947-3.1 4.6-3.447 6.919-5.703 14.453-7.842 21.859-1.628 5.625-2.307 11.404-1.55 17.234.268 2.024.666 4.049 2.293 5.42 2.127 1.794 5.176 2.678 7.765 3.575 8.546 2.959 17.81 1.588 26.587 3.228.833.154 1.178-1.089.358-1.242zm2.345-18.131c.103-.141.205-.295.308-.436.064-.089.128-.166.192-.256.077-.102-.064.077.026-.038.038-.039.064-.09.102-.128l.884-1.115c.564-.705 1.141-1.397 1.653-2.14.192-.282.064-.717-.231-.871-.32-.167-.666-.064-.871.23-.102.141-.205.295-.307.436-.064.09-.128.167-.193.256-.076.103.065-.077-.025.039-.039.038-.064.089-.103.128l-.884 1.115c-.564.704-1.14 1.396-1.653 2.139-.192.282-.064.718.231.872.32.179.666.064.871-.231z" fill="#231F20"/><path d="M107.849 162.699c.025-.718.064-1.448.089-2.166.026-.64-.012-1.345.167-1.973.154-.564.615-.961 1.038-1.333a7.35 7.35 0 011.422-.935 7.794 7.794 0 013.344-.858c.308-.013 1.038-.116 1.166.269.128.41-.23.781-.512 1.012-.59.461-1.294.807-1.922 1.179-.718.423-1.435.858-2.153 1.281-.705.423-.064 1.538.641 1.102.781-.474 1.576-.948 2.357-1.422.667-.397 1.384-.769 1.986-1.269.526-.435.897-1.063.897-1.755-.012-.679-.384-1.294-1.025-1.525-.653-.243-1.499-.179-2.178-.102-.73.076-1.435.23-2.127.486-1.345.5-2.729 1.307-3.639 2.448-.564.704-.692 1.537-.73 2.409a252.49 252.49 0 00-.128 3.139c-.013.833 1.268.833 1.307.013z" fill="#231F20"/><path d="M111.065 159.533c-.282 1.32.333 2.537 1.012 3.639.179.282.577.423.871.231.282-.179.423-.577.231-.871-.141-.231-.282-.462-.397-.692-.064-.116-.128-.231-.18-.359-.038-.064-.064-.141-.089-.205.051.128-.026-.064-.026-.09a2.03 2.03 0 01-.115-.371c-.013-.064-.026-.128-.051-.192 0-.013-.039-.218-.026-.129.013.09-.013-.115-.013-.128v-.192c0-.064.013-.128.013-.192-.013.154.013-.077.026-.103.076-.32-.103-.704-.449-.794-.346-.077-.743.103-.807.448z" fill="#231F20"/><path d="M110.014 164.71a60.86 60.86 0 016.202-2.396c.999-.333 2.011-.64 3.036-.909.872-.231 2.102-.513 2.537.538.808 1.986-2.357 2.281-3.523 2.703-1.666.615-3.268 1.41-4.792 2.307-.705.423-.064 1.524.64 1.102 1.461-.859 2.986-1.628 4.575-2.204 1.46-.526 3.28-.59 4.113-2.102.768-1.383.179-3.228-1.371-3.728-.82-.269-1.717-.077-2.537.141a48.064 48.064 0 00-3.037.91c-2.217.717-4.382 1.576-6.509 2.524-.73.346-.077 1.448.666 1.114z" fill="#231F20"/><path d="M113.807 168.144c2.396-.205 4.779-.5 7.149-.91 1.205-.205 2.397-.448 3.588-.691.461-.09 1.051-.257 1.525-.09.551.192.769.858.756 1.409-.026 1.077-1.076 1.41-1.961 1.576-1.14.218-2.332.295-3.485.423-2.473.295-4.946.577-7.406.871-.807.09-.82 1.371 0 1.282 2.332-.269 4.677-.551 7.009-.82 1.128-.128 2.268-.257 3.396-.398.82-.102 1.665-.23 2.383-.653 1.525-.884 1.819-3.165.538-4.408-.641-.628-1.55-.679-2.383-.563-1.089.153-2.178.435-3.268.64a80.37 80.37 0 01-7.828 1.038c-.833.077-.833 1.358-.013 1.294z" fill="#231F20"/><path d="M124.506 171.104c.833 1.384-4.69 2.614-5.459 2.806-1.793.461-3.6 1.038-4.958 2.345-1.679 1.614-2.896 3.767-5.612 3.19-.974-.205-1.538-.705-2.55-.397-1.243.384-2.46 1.025-3.652 1.525-.743.32-.423 1.55.346 1.23l2.114-.884c.59-.244 1.422-.795 2.076-.718.487.064.999.423 1.499.513a5.717 5.717 0 001.614.064 5.242 5.242 0 002.858-1.23c1.05-.885 1.742-2.127 2.87-2.935 1.935-1.371 4.446-1.512 6.624-2.255 1.461-.499 4.575-1.883 3.344-3.921-.435-.691-1.55-.051-1.114.667zm-20.104 3.998c.141.846.5 1.679 1.012 2.37.103.141.205.244.385.295a.676.676 0 00.499-.064.635.635 0 00.295-.384c.039-.154.039-.359-.064-.5a5.195 5.195 0 01-.602-1.038c-.026-.051-.013-.025.025.064-.012-.025-.012-.051-.025-.077-.013-.051-.039-.089-.051-.141a1.835 1.835 0 01-.09-.294 9.885 9.885 0 01-.141-.59c-.026-.153-.167-.307-.295-.384-.141-.077-.346-.115-.5-.064-.371.141-.512.448-.448.807zm28.586 8.072c2.037-1.448 4.536-2.486 5.843-4.728 1.332-2.281.423-5.01-.423-7.317-.833-2.28-2.255-4.484-4.587-5.432-1.499-.602-3.613 0-3.46 1.922.052.64.41 1.102.756 1.627.397.628.679 1.307.961 1.999.526 1.281 1.012 2.575 1.551 3.856.307.756 1.55.423 1.23-.345-.884-2.153-1.564-4.523-2.845-6.471-.269-.397-.602-.948-.154-1.358.269-.244.756-.244 1.09-.18 1.204.218 2.306 1.294 2.985 2.243.794 1.114 1.281 2.396 1.666 3.69.384 1.281.922 2.767.576 4.113-.704 2.678-3.767 3.831-5.804 5.279-.705.474-.064 1.589.615 1.102z" fill="#231F20"/><path d="M135.435 175.371c-1.102-1.269-2.178-2.55-3.331-3.767a22.315 22.315 0 00-3.793-3.153c-.692-.461-1.332.654-.64 1.102a21.257 21.257 0 013.626 3.05c1.127 1.179 2.178 2.434 3.241 3.664.539.628 1.435-.281.897-.896zm-10.365-3.998c1.05 1.345 1.973 2.793 2.882 4.241.423.679.846 1.346 1.32 1.999.244.333.5.666.756.987.256.32.59.602.833.935-.026-.102-.064-.218-.09-.32v.102c.154-.205.308-.41.474-.615-.012 0-.025.013-.038.013.167.026.333.038.5.064l.166.167c-.077.294-.153.589-.23.871.012 0 .012-.013.025-.013.679-.461.039-1.576-.64-1.102-.013 0-.013.013-.026.013-.295.205-.397.538-.231.871.141.282.526.462.82.346.269-.115.462-.307.474-.615 0-.474-.358-.743-.653-1.076-.282-.32-.551-.641-.807-.987-.538-.717-1.012-1.473-1.487-2.229-.986-1.563-1.986-3.101-3.126-4.562-.218-.269-.679-.217-.91 0-.282.269-.217.641-.012.91zm-2.563 3.088c.807 1.282 1.576 2.601 2.46 3.832a18.318 18.318 0 002.896 3.152c.269.23.653.256.909 0 .231-.231.27-.68 0-.91a16.717 16.717 0 01-2.78-2.998c-.858-1.205-1.602-2.473-2.383-3.729-.436-.692-1.538-.051-1.102.653zm-3.062.308c1.14 2.319 2.242 4.625 3.69 6.791.499.743.999 1.512 1.614 2.165.666.705 1.487 1.23 2.383 1.627.744.333 1.397-.768.641-1.102-.82-.358-1.55-.82-2.165-1.473-.603-.641-1.064-1.397-1.551-2.127-1.384-2.063-2.421-4.305-3.51-6.522-.359-.743-1.461-.09-1.102.641z" fill="#231F20"/><path d="M122.404 179.497c-1.127.769-2.255 1.666-2.742 2.998-.422 1.192-.217 2.499.667 3.409 1.653 1.704 4.651 1.691 6.855 1.576 4.74-.231 10.135-2.102 12.518-6.535.718-1.333 1.153-2.883.846-4.395-.154-.769-.603-1.883-1.487-2.05-.807-.154-1.153 1.076-.346 1.23.782.154.667 2.153.564 2.717-.256 1.294-.974 2.524-1.845 3.51-1.589 1.769-3.767 2.896-6.035 3.55a19.014 19.014 0 01-7.162.627c-1.154-.128-2.742-.435-3.332-1.576-.845-1.665.936-3.126 2.127-3.946.692-.461.051-1.576-.628-1.115zm40.413 2.639a.628.628 0 01-.628-.576 95.49 95.49 0 00-3.421-17.695c-5.382-18.413-15.876-34.275-29.534-44.679a.623.623 0 01-.116-.885.623.623 0 01.885-.115c13.876 10.558 24.524 26.651 29.982 45.32a96.777 96.777 0 013.472 17.938.631.631 0 01-.576.692h-.064zM58.377 217c-3.792-6.547-6.829-13.658-9.02-21.141-5.612-19.194-5.15-38.913 1.281-55.532 6.471-16.683 18.182-28.253 32.981-32.584a43.309 43.309 0 015.869-1.294l.192 1.256a43.163 43.163 0 00-5.702 1.268c-14.415 4.216-25.831 15.517-32.148 31.828-6.342 16.362-6.79 35.8-1.256 54.725 2.153 7.38 5.151 14.402 8.893 20.859l-1.09.615z" fill="#231F20"/><path d="M120.662 183.507c.692-1.845.679-3.882 1.115-5.791.166-.718-.936-1.012-1.102-.308-.436 1.909-.423 3.947-1.115 5.792-.103.282.115.628.397.704.32.09.589-.115.705-.397zm-40.246.692c-.18 2.691-.205 5.369.013 8.06.115 1.435.256 2.857.423 4.292.153 1.371.41 2.704 1.153 3.895.435.705 1.537.051 1.102-.64-.743-1.192-.91-2.576-1.051-3.947-.14-1.358-.282-2.703-.384-4.062-.193-2.537-.154-5.048.025-7.585.052-.846-1.23-.833-1.281-.013z" fill="#231F20"/><path d="M196.643 188.043l-7.572-4.767a16.17 16.17 0 00-2.729-2.549c2.895-1.961 4.869-4.985 5.176-8.508.551-6.599-4.959-12.455-12.3-13.07-7.355-.615-13.762 4.229-14.313 10.827-.294 3.498 1.128 6.778 3.614 9.187a16.102 16.102 0 00-3.229 2.102l-8.265 3.434a2.252 2.252 0 00-1.217 2.947c.769 1.845 2.832 2.742 4.702 2.101-.038.256-.089.512-.102.769-.666 7.969 5.932 15.042 14.761 15.773 8.828.743 16.528-5.113 17.195-13.095.025-.257.013-.526.025-.782 1.73.935 3.921.397 4.985-1.294.64-1.012.32-2.409-.731-3.075z" fill="#1380FF"/><path d="M179.935 169.246l-.346 4.165-1.576-.128.423-4.946c.295-3.473-3.357-5.933-6.458-4.331-2.614 1.345-4.395 3.562-4.625 6.214-.398 4.69 4.266 8.905 10.404 9.418 6.137.512 11.442-2.857 11.839-7.547.167-1.999-.577-3.895-1.973-5.471-2.55-2.922-7.368-1.217-7.688 2.626zm6.846 26.504c.495-5.881-3.746-11.04-9.471-11.522-5.726-.482-10.77 3.895-11.265 9.776-.495 5.881 3.745 11.04 9.471 11.522 5.726.482 10.77-3.895 11.265-9.776z" fill="#fff"/><path d="M179.141 177.792c-.231 0-.462-.013-.692-.025-2.524-.218-4.331-1.461-4.216-2.896.064-.756.641-1.397 1.627-1.781.833-.333 1.91-.461 3.012-.372 1.114.09 2.139.397 2.908.872.91.55 1.371 1.268 1.307 2.024-.064.756-.641 1.397-1.627 1.781-.654.256-1.461.397-2.319.397zm-.949-3.844c-.691 0-1.358.103-1.857.308-.487.192-.808.461-.82.705-.039.512 1.127 1.358 3.049 1.524.897.077 1.794-.025 2.435-.282.486-.192.807-.461.82-.704.025-.244-.244-.564-.692-.833-.59-.359-1.448-.615-2.358-.692-.192-.013-.384-.026-.577-.026zm-5.011-2.327c.072-.853-.332-1.584-.904-1.632-.571-.048-1.092.605-1.164 1.458-.072.853.333 1.584.904 1.632.571.048 1.093-.605 1.164-1.458zm12.689 1.063c.072-.853-.333-1.584-.904-1.632-.571-.048-1.093.604-1.164 1.458-.072.853.332 1.584.904 1.632.571.048 1.092-.605 1.164-1.458z" fill="#231F20"/></svg>