<svg width="120" height="34" fill="none" xmlns="http://www.w3.org/2000/svg"><path d="M6.196 9.182l-.154.615c-.394.204-.858.305-1.392.305a3.156 3.156 0 01-1.048-.17 2.462 2.462 0 01-.844-.486 2.232 2.232 0 01-.556-.766A2.368 2.368 0 012 7.702c0-.449.073-.845.217-1.189a2.27 2.27 0 01.6-.851 2.51 2.51 0 01.89-.498 3.527 3.527 0 011.847-.074c.26.06.487.147.682.26l-.086.38-.037.194a2.1 2.1 0 01-.038.156H5.98a1.52 1.52 0 00-.84-.608 1.442 1.442 0 00-1.064.14 1.5 1.5 0 00-.515.501 2.298 2.298 0 00-.295.7 3.536 3.536 0 00-.071.39 2.99 2.99 0 00-.025.402c0 .404.066.763.196 1.08.13.315.321.56.573.732.252.172.555.259.908.259.213 0 .435-.05.666-.15a1.89 1.89 0 00.59-.385l.093.041h.001zm.078-4.054l.203.022.175.016.15.004.152-.007.175-.013.2-.022v1.859c0 .195.08.331.24.412.16.08.353.12.578.12.315 0 .697-.154 1.141-.462V5.128l.196.021.175.013.148.007.154-.003.178-.017.204-.02v4.873l-.264-.014-.272-.014-.257.015-.262.013V7.627a6.987 6.987 0 01-.532.288 2.39 2.39 0 01-.478.159 2.453 2.453 0 01-.567.063 1.73 1.73 0 01-.686-.14 1.383 1.383 0 01-.54-.407.946.946 0 01-.21-.603V5.128zm5.415 3.394l-.365 1.05-.13.424-.158-.011-.171-.01-.165.01-.172.01 2.014-4.93c.176.028.355.028.532 0l1.965 4.937-.31-.014-.305-.014-.302.015-.296.013c-.087-.283-.152-.49-.195-.622l-.165-.493a7.415 7.415 0 00-.138-.365h-1.64zm1.478-.434l-.625-1.656-.662 1.656h1.287zm5.564 1.095l-.153.614c-.394.204-.859.305-1.392.305-.373 0-.723-.056-1.05-.17a2.465 2.465 0 01-.842-.486 2.23 2.23 0 01-.557-.766c-.134-.3-.2-.625-.2-.977 0-.45.072-.846.217-1.19.144-.344.343-.628.6-.851.26-.226.563-.395.89-.498a3.535 3.535 0 011.847-.074c.26.06.487.147.681.26l-.085.38-.038.194c-.01.048-.022.1-.038.156h-.097a1.518 1.518 0 00-.84-.608 1.443 1.443 0 00-1.064.14 1.5 1.5 0 00-.515.502 2.297 2.297 0 00-.295.7 3.625 3.625 0 00-.071.388 3.122 3.122 0 00-.025.404c0 .403.066.762.196 1.079.13.315.321.56.574.733.252.172.554.258.907.258.214 0 .435-.05.666-.15.232-.099.43-.227.591-.384l.093.04z" fill="#F13F35"/><path d="M20.644 10.002l-.264-.015-.261-.013-.266.015-.263.012v-4.37c-.375 0-.812.034-1.309.102a2.65 2.65 0 00.034-.306c0-.04-.01-.139-.034-.299h3.623l-.02.115-.017.1-.004.084.003.09.017.104.022.112a11.525 11.525 0 00-1.261-.101v4.37zm2.484-4.853h.068l.082-.01.073-.007.078-.011c.074.204.148.406.224.608.085.231.151.41.2.535l.466 1.219.444 1.134.553 1.379-.235-.022-.208-.014-.176-.007-.174.007a1.051 1.051 0 00-.214.018l-.23.018a25.633 25.633 0 00-.54-1.616l-.34-.907-.366-1c-.576 1.407-1.012 2.582-1.31 3.523a2.547 2.547 0 00-.652 0l.546-1.293.485-1.157.466-1.178a43.724 43.724 0 00.465-1.248l.123.015c.066.01.123.014.172.014zm2.414-.021l.207.022.175.016.148.003.147-.003.179-.017.203-.02v3.338c.235-.255.464-.516.687-.782.24-.285.476-.571.705-.858.216-.272.44-.565.676-.882a39.319 39.319 0 00.605-.831h.533v4.888l-.262-.015-.27-.013-.259.015-.263.012V6.636a24.497 24.497 0 00-.622.736l-.722.886-.739.942-.598.802-.22-.007-.31.007V5.128zm4.965 0h1.817c.403 0 .737.084 1.002.251.264.169.396.445.396.83a.998.998 0 01-.158.555 1.148 1.148 0 01-.423.388c-.179.096-.372.16-.573.189v.062c.337.035.632.142.887.32.254.179.381.463.381.854 0 .314-.08.573-.243.78a1.45 1.45 0 01-.635.465 2.255 2.255 0 01-.826.153h-1.625V5.128zm1.05 2.092h.223c.26 0 .456-.06.591-.177.202-.17.303-.416.303-.741 0-.253-.066-.446-.197-.58-.133-.134-.317-.202-.555-.202a3.72 3.72 0 00-.364.022V7.22zm0 2.34h.358c.13 0 .26-.037.39-.112a.89.89 0 00.318-.323.967.967 0 00.124-.495c0-.67-.336-1.003-1.008-1.003h-.181V9.56zm3.79-2.333h.674c.49 0 .864.1 1.121.302.257.202.385.502.385.9 0 .579-.17.98-.51 1.206-.338.227-.775.34-1.311.34H34.29V5.1l.251.016.278.01.275-.01.254-.016v2.126zm2.815-2.1l.2.023.174.012.152.007.15-.003.175-.017.204-.021V10l-.264-.014-.265-.013-.262.015-.264.012V5.128zm-2.814 4.448c.2 0 .354-.017.464-.049a.75.75 0 00.473-.347c.102-.173.152-.38.152-.622 0-.28-.062-.506-.187-.68-.125-.171-.28-.258-.466-.258h-.436v1.956zm7.17-4.447a3.472 3.472 0 00-.034.306c0 .04.012.141.034.306a12.338 12.338 0 00-1.632-.097v1.535h.738c.209 0 .497-.023.867-.067a2.045 2.045 0 00-.035.3c0 .057.012.16.035.309a6.276 6.276 0 00-.867-.06h-.738v1.8c.602 0 1.146-.033 1.632-.098a3.458 3.458 0 00-.034.306l.034.306H39.83V5.128h2.687zM47.48 10l-.268-.014-.26-.013h-.142c-.04.006-.082.01-.123.015l-.265.012V5.128h1.732c.49 0 .863.1 1.12.302.257.202.385.502.385.899 0 .401-.09.715-.266.944-.179.228-.428.385-.753.472-.324.087-.71.13-1.16.13v2.127zm0-2.525c.103 0 .19-.004.26-.012s.138-.02.205-.037a.748.748 0 00.472-.35c.102-.176.153-.383.153-.619 0-.28-.062-.506-.188-.68-.124-.171-.28-.258-.466-.258h-.436v1.956z" fill="#F13F35"/><path d="M52.072 10.102c-.523 0-.979-.098-1.37-.296-.382-.19-.7-.494-.91-.87-.216-.382-.324-.841-.324-1.376a2.67 2.67 0 01.184-.994c.122-.311.31-.591.55-.822a2.53 2.53 0 01.877-.55A3.274 3.274 0 0152.24 5c.475 0 .883.077 1.225.231.343.154.613.353.81.599.194.24.341.517.432.813.09.288.137.587.138.889a2.58 2.58 0 01-.193.986c-.126.31-.314.59-.553.823a2.58 2.58 0 01-.877.559 3.13 3.13 0 01-1.15.202zM50.636 7.77c0 .326.05.634.152.924.102.29.264.525.486.71.22.182.498.273.832.273.342 0 .631-.105.868-.313.237-.208.413-.486.53-.835.115-.349.173-.726.173-1.131 0-.24-.028-.476-.085-.706a2.13 2.13 0 00-.266-.633 1.362 1.362 0 00-.469-.46 1.272 1.272 0 00-.665-.17c-.325 0-.605.085-.842.257-.226.163-.402.422-.526.774-.126.352-.188.788-.188 1.31zm4.14 1.691l.484-1.15.422-1.028c.158-.383.31-.77.454-1.158.132-.34.258-.677.375-1.01h.086l.075.015a.869.869 0 00.134.014h.083a.95.95 0 01.22-.029 123.936 123.936 0 001.67 4.346h.336l-.041.38c0 .117.014.246.04.385h-.106c-.082-.104-.227-.172-.438-.203a4.756 4.756 0 00-.712-.047h-2.079c-.312 0-.567.014-.768.041-.2.029-.346.097-.435.209h-.107c.012-.05.022-.11.029-.174a1.684 1.684 0 000-.375 5.037 5.037 0 00-.029-.216h.307zm2.813 0c-.142-.44-.294-.877-.456-1.31l-.622-1.684c-.525 1.3-.904 2.299-1.137 2.994l.48.017.58.011.63-.01.525-.018zm1.632-4.332l.206.022.175.016.147.004.148-.003.178-.017.203-.022v3.34a22.2 22.2 0 00.687-.783c.24-.285.476-.57.705-.857.216-.272.44-.566.677-.883.12-.16.228-.308.328-.443s.192-.265.277-.388h.532v4.888l-.262-.014-.27-.013-.258.014-.264.013V6.637c-.211.241-.419.487-.622.736l-.722.886-.739.941-.598.802-.22-.006-.309.006V5.128zm6.863 4.874l-.264-.014-.26-.013-.266.014-.264.013v-4.37a9.82 9.82 0 00-1.309.101c.024-.16.034-.262.034-.306 0-.039-.01-.139-.034-.299h3.624l-.021.115-.017.101-.003.083.003.09.017.105.021.111a11.57 11.57 0 00-1.26-.1v4.369zm4.12-4.874a3.543 3.543 0 00-.034.306c0 .04.012.141.034.306a12.338 12.338 0 00-1.632-.097v1.535h.739c.208 0 .497-.022.866-.066a2.056 2.056 0 00-.035.299c0 .057.012.16.035.309a6.27 6.27 0 00-.866-.06h-.739v1.8c.603 0 1.147-.032 1.632-.097a3.529 3.529 0 00-.034.306l.034.305h-2.686V5.128h2.686z" fill="#F13F35"/><path d="M72.357 5.15h.069l.082-.011.072-.007.079-.01c.073.203.147.406.224.608.084.23.15.41.2.535l.466 1.218.443 1.134.554 1.38-.235-.022-.208-.014-.176-.008-.175.008a1.042 1.042 0 00-.213.018l-.23.017a26.17 26.17 0 00-.54-1.616l-.34-.906-.367-1.001c-.576 1.408-1.011 2.583-1.31 3.523a2.543 2.543 0 00-.651 0l.546-1.293.484-1.157.467-1.177c.072-.182.149-.386.233-.614.086-.229.162-.44.231-.634l.124.014a1.2 1.2 0 00.171.015zm2.415-.022l.207.022.174.016.148.004.148-.003.179-.017.202-.021v3.339c.235-.256.465-.516.687-.783.24-.284.477-.57.705-.857.216-.272.441-.566.677-.882.12-.16.228-.309.328-.444s.192-.265.277-.388h.532v4.888l-.261-.014-.271-.013-.258.014-.264.013V6.637a25.729 25.729 0 00-.621.736l-.723.886-.739.942-.598.801-.219-.006-.31.006V5.128zm9.758 10.695c-.545-1.442-1.492-2.163-2.836-2.163-1.8 0-2.7.812-2.7 2.44 0 .714.241 1.248.72 1.6.456.328 1.365.846 2.726 1.563 1.36.716 2.377 1.454 3.04 2.216.664.759.996 1.774.996 3.047 0 1.044-.274 1.98-.828 2.813-.553.837-1.327 1.488-2.323 1.957-.996.468-2.119.704-3.369.704-1.528 0-2.848-.356-3.963-1.07.36-1.276.603-2.333.722-3.165h.467c.176.84.573 1.508 1.188 2.001.619.493 1.352.742 2.2.742.8 0 1.48-.228 2.041-.68.562-.451.84-1.09.84-1.906 0-.883-.258-1.517-.774-1.906-.516-.39-1.418-.89-2.705-1.513-1.282-.617-2.246-1.288-2.889-2.005-.64-.722-.958-1.758-.958-3.109 0-.72.118-1.4.36-2.034a4.52 4.52 0 011.086-1.662c.484-.477 1.086-.846 1.807-1.119.722-.27 1.529-.406 2.426-.406.84 0 1.615.12 2.328.365.713.24 1.23.522 1.55.837-.058.137-.14.385-.255.75a77.937 77.937 0 00-.529 1.703h-.368zm-54.883 4.803l.61.025c2.169 0 3.254-1.194 3.254-3.58 0-.179-.012-.378-.036-.602a8.012 8.012 0 00-.095-.65c-.127-.767-.45-1.268-.967-1.505-.516-.236-1.192-.352-2.032-.352h-.734v6.664zm-3.684-8.01h5.233c1.955 0 3.282.165 3.987.497 1.422.754 2.136 1.939 2.136 3.555 0 1.19-.34 2.168-1.025 2.935-.684.762-1.619 1.28-2.807 1.545l1.237 2.101 1.636 2.586 1.475 2.296.958 1.533a16.26 16.26 0 00-4.315.008h-.139l-2.918-5.22-.815-1.41-.791-1.347h-.168v7.974a11.786 11.786 0 00-3.684 0V12.616zm-7.29 10.343l-2.185-5.79-2.311 5.79h4.495zm-5.164 1.517l-.607 1.74-.668 1.927-.45 1.471a7.495 7.495 0 00-2.327.002l7.031-17.22c.63.1 1.23.095 1.86 0l6.869 17.276h-.026a14.965 14.965 0 00-4.2 0h-.011c-.722-2.37-1.304-4.102-1.742-5.196h-5.73zm-7.825-3.651c.369 0 .68-.013.93-.041a4.52 4.52 0 00.693-.129c.75-.203 1.303-.613 1.656-1.226.352-.618.529-1.335.529-2.164 0-.978-.218-1.773-.648-2.387-.434-.61-.98-.915-1.635-.915H5.685v6.862zM2 29.67V12.614h6.053c1.72 0 3.028.353 3.917 1.061.894.709 1.34 1.757 1.34 3.141 0 1.078-.18 1.969-.545 2.677a3.993 3.993 0 01-1.557 1.654c-.671.39-1.463.663-2.377.817a16.94 16.94 0 01-1.467.17c-.52.04-1.078.062-1.68.062v7.472a11.76 11.76 0 00-3.684 0zm84.87-1.817c0-.551.196-1.023.593-1.425.398-.402.86-.601 1.398-.601.352 0 .684.091.996.277.307.183.567.438.758.743.19.3.29.65.286 1.007 0 .559-.2 1.04-.598 1.446-.401.402-.88.605-1.442.605a1.861 1.861 0 01-1.402-.613 2.002 2.002 0 01-.59-1.439zm8.77-7.227l.61.025c2.168 0 3.254-1.194 3.254-3.58a7.968 7.968 0 00-.132-1.252c-.126-.767-.45-1.268-.966-1.505-.517-.236-1.193-.352-2.033-.352h-.734v6.664zm-3.685-8.01h5.234c1.954 0 3.282.165 3.987.497 1.422.754 2.135 1.939 2.135 3.555 0 1.19-.34 2.168-1.025 2.935-.684.762-1.618 1.28-2.807 1.545l1.238 2.101 1.635 2.586 1.475 2.296.958 1.533a16.26 16.26 0 00-4.315.008h-.139l-2.918-5.22-.815-1.41-.791-1.347h-.168v7.974a11.786 11.786 0 00-3.684 0V12.616zm-28.874-.011v16.984a40.798 40.798 0 00-4.319 0l-7.706-13.59v13.59a7.418 7.418 0 00-1.967 0v-16.97c1.352.096 2.69.092 4.042-.005l7.983 14.05V12.607c.665.113 1.3.107 1.965 0v-.002h.002z" fill="#F13F35"/><path d="M107.721 12.617v6.733c0 2.33.057 3.875.176 4.625.753 4.949 5.863 5.49 7.693 1.003.295-.733.443-2.449.443-5.155v-7.14a6.29 6.29 0 001.967.001v8.453c0 1.088-.047 2.083-.181 3.166-.813 6.93-11.74 7.082-13.398 1.19a11.575 11.575 0 01-.385-3.059v-9.819c1.247.199 2.438.19 3.685.002z" fill="#F13F35"/><path fill-rule="evenodd" clip-rule="evenodd" d="M48.4 29.1a5.59 5.59 0 01-.076-.782c0-.25.038-.52.077-.783l.033-.24.035-.249c0 .002-.247.037-.247.037-1.149.163-2.642.33-5.002.338V21.64h2.173c.943 0 1.864.065 2.739.193l.247.036-.035-.248-.034-.24c-.037-.262-.076-.534-.076-.783 0-.248.045-.555.085-.826l.06-.414-.242.029-.235.028c-.75.09-1.602.19-2.509.19h-2.172v-4.884c2.147-.034 3.593.142 5.001.342l.247.035-.035-.248-.033-.24a5.603 5.603 0 01-.077-.782c0-.25.038-.52.077-.782l.064-.456-.216.001h-8.775v16.963h8.99l-.03-.214-.033-.24zm27.418-14.03l-.032-.244c-.015-.115-.035-.229-.054-.34a3.977 3.977 0 01-.079-.682c0-.21.038-.424.077-.65.02-.113.04-.23.056-.348l.029-.215h-12.01l.031.215.037.26c.038.255.074.496.074.738 0 .263-.038.521-.075.772l-.036.25-.035.25c0-.002.248-.038.248-.038 1.04-.151 2.422-.323 3.967-.336V29.66l.196-.008c.228-.01.458-.028.68-.046.328-.025.668-.052.998-.052.314 0 .655.027.985.052.228.017.463.035.693.046l.196.008V14.702c1.295.015 2.574.177 3.813.336l.241.032z" fill="#F13F35"/></svg>