<svg width="120" height="34" fill="none" xmlns="http://www.w3.org/2000/svg"><path d="M19.915 10.338v14.324h-3.611v-7.23l-2.675 7.23h-3.277l-2.741-7.23v7.23H4V10.338h4.346l3.611 9.46 3.611-9.46h4.347zm13.306 1.824c1.404 1.351 2.073 3.176 2.073 5.338s-.736 3.919-2.073 5.338c-1.404 1.351-3.143 2.094-5.282 2.094-2.14 0-3.879-.675-5.283-2.094-1.404-1.42-2.073-3.176-2.073-5.27 0-2.163.736-3.92 2.073-5.27 1.404-1.42 3.143-2.095 5.283-2.095 2.072-.068 3.878.608 5.282 1.96zM31.75 17.5c0-1.216-.334-2.23-1.07-3.04-.735-.811-1.605-1.15-2.808-1.15-1.137 0-2.073.406-2.742 1.15-.669.81-1.07 1.824-1.07 3.04s.335 2.23 1.07 3.04c.736.811 1.605 1.15 2.742 1.15 1.136 0 2.073-.406 2.808-1.15.669-.81 1.07-1.824 1.07-3.04zm14.778 2.095l-.134.27a3.326 3.326 0 01-1.204 1.351c-.535.338-1.136.54-1.738.54-1.137 0-2.073-.405-2.875-1.215-.736-.811-1.137-1.825-1.137-3.041s.401-2.23 1.137-3.04c.735-.811 1.671-1.217 2.875-1.217.602 0 1.203.203 1.738.54.535.339.937.812 1.204 1.352l.134.27 3.009-1.486-.134-.27c-1.27-2.298-3.276-3.514-5.951-3.514-2.14 0-3.945.676-5.35 2.095-1.404 1.351-2.14 3.175-2.14 5.338 0 2.162.736 3.918 2.14 5.337 1.405 1.352 3.21 2.095 5.35 2.095 2.608 0 4.614-1.216 5.951-3.514l.134-.27-3.01-1.621zm10.699-2.5l5.616-6.757h-4.346l-4.346 5.608v-5.608h-3.478v14.324h3.478V20.27l.735-.946 4.012 5.338h4.28l-5.951-7.567zm18.722 3.58c0 1.15-.4 2.095-1.136 2.838-.736.744-1.806 1.15-3.143 1.15h-7.623V10.337h7.422c1.338 0 2.34.338 3.076 1.08.736.744 1.137 1.623 1.137 2.704 0 .878-.267 1.689-.736 2.297a2.966 2.966 0 01-1.003.81c.468.203.803.541 1.204.947a4.13 4.13 0 01.802 2.5zm-3.811-6.013c0-.338-.134-.676-.334-.878-.268-.203-.535-.338-.936-.338h-3.344v2.432h3.344c.4 0 .735-.135.936-.338.267-.27.334-.54.334-.878zm-4.614 6.892h3.41c.468 0 .803-.135 1.07-.338.268-.203.401-.54.401-.946 0-.405-.133-.675-.4-.946-.268-.27-.603-.405-1.07-.405h-3.41v2.635zm23.337 3.108h-3.945l-.803-2.297h-5.416l-.87 2.297h-3.945l5.484-14.324h4.012l5.483 14.324zm-5.75-5.473l-1.74-4.73-1.738 4.73h3.477zM115 18.65v3.175h-1.739v2.838h-3.477v-2.838h-6.486v-2.702l5.55-8.784h4.413v8.31H115zm-5.216 0v-4.46l-2.875 4.46h2.875zm-7.088 2.905v3.108H91.931V21.69l.133-.067c.067 0 3.879-2.77 6.019-4.325.869-.608 1.337-1.284 1.337-1.96 0-1.148-.936-2.094-2.14-2.094-1.337 0-2.14 1.149-2.407 1.757l-2.875-1.419C92.599 12.23 94.338 10 97.347 10c2.942 0 5.349 2.432 5.349 5.405 0 1.69-1.069 3.379-2.808 4.527-1.137.811-1.94 1.284-2.407 1.622h5.215z" fill="#313131"/></svg>