<svg width="120" height="34" fill="none" xmlns="http://www.w3.org/2000/svg"><path fill-rule="evenodd" clip-rule="evenodd" d="M41.19 8c2.512 0 4.55 1.87 4.55 4.177 0 2.306-2.038 4.177-4.55 4.177-2.511 0-4.548-1.87-4.548-4.177C36.642 9.871 38.679 8 41.19 8zm0 3.08c.62 0 1.123.49 1.123 1.097a1.11 1.11 0 01-1.123 1.098 1.11 1.11 0 01-1.122-1.098 1.11 1.11 0 011.122-1.098z" fill="#313131"/><path fill-rule="evenodd" clip-rule="evenodd" d="M33.77 16.354c-2.512 0-4.55-1.87-4.55-4.177C29.22 9.871 31.259 8 33.77 8c1.067 0 2.062.232 2.905.634l-1.281 2.811c-.37-.178-.871-.287-1.424-.287-.584 0-1.057.463-1.057 1.034s.473 1.034 1.057 1.034c.559 0 1.065-.111 1.435-.293l1.27 2.788a6.778 6.778 0 01-2.905.633zM13.578 8c2.511 0 4.548 1.87 4.548 4.177 0 2.306-2.037 4.177-4.548 4.177-2.512 0-4.549-1.87-4.549-4.177C9.029 9.871 11.066 8 13.578 8zm0 3.08c.62 0 1.122.49 1.122 1.097a1.11 1.11 0 01-1.122 1.098 1.11 1.11 0 01-1.123-1.098 1.11 1.11 0 011.123-1.098zm75.515 5.274c-2.511 0-4.549-1.87-4.549-4.177 0-2.306 2.038-4.177 4.55-4.177 1.066 0 2.062.232 2.905.634l-1.281 2.811c-.37-.178-.871-.287-1.424-.287-.584 0-1.058.463-1.058 1.034s.474 1.034 1.058 1.034c.558 0 1.064-.111 1.435-.293l1.27 2.788a6.778 6.778 0 01-2.906.633zM56.03 8.201h-2.767l-1.781 2.12-1.781-2.12h-3.152v7.952h3.24V12.2l1.36 1.564 1.38-1.588v3.977h3.5V8.2zm18.766 0h-7.689v3.971c0 .884-.154 1.766-.991 1.872v2.047c.326.137.679.211 1.046.211 2.623 0 3.088-1.97 3.088-3.942v-1.95h.927v5.742h3.62v-7.95zm4.677 0h-3.62v7.951h4.477c2.489 0 3.685-1.53 3.685-3.336 0-1.364-1.132-2.471-2.528-2.471-.768 0-1.466.21-2.014.554V8.2zm.488 4.243c.404 0 .732.323.732.722 0 .398-.163 1.02-.732 1.02-.213 0-.372-.024-.488-.064v-1.493c.13-.115.3-.184.488-.184zM120 8.201h-5.824c-1.299 0-2.353 1.03-2.353 2.3 0 .91.542 1.697 1.327 2.07-.951.843-1.842 2.252-1.842 3.581h3.383c.135-1.87.887-2.511 1.689-2.567v2.567H120v-7.95zm-3.62 1.806h-.314a.9.9 0 00-.91.89.9.9 0 00.91.89h.314v-1.78zM61.336 8c2.512 0 4.549 1.87 4.549 4.177 0 2.306-2.037 4.177-4.549 4.177-2.511 0-4.548-1.87-4.548-4.177C56.788 9.871 58.825 8 61.336 8zm0 3.08c.62 0 1.123.49 1.123 1.097a1.11 1.11 0 01-1.123 1.098 1.11 1.11 0 01-1.122-1.098 1.11 1.11 0 011.122-1.098zM3.62 13.015v3.138H0V8.202h3.62v2.52c1.127.028 1.676-1.016 1.688-2.52h3.337c-.015 1.68-.731 3.086-1.739 3.633 1.065.385 2.046 2.457 2.046 4.318H5.569c0-1.909-.717-3.187-1.95-3.138zm92.585 0v3.138h-3.62V8.202h3.62v2.52c1.127.028 1.676-1.016 1.689-2.52h3.337c-.015 1.68-.732 3.086-1.74 3.633 1.065.385 2.046 2.457 2.046 4.318h-3.383c0-1.909-.717-3.187-1.949-3.138zM28.431 8.201h-2.766l-1.78 2.12-1.782-2.12h-3.15v7.952h3.238V12.2l1.36 1.564 1.381-1.588v3.977h3.5V8.2z" fill="#313131"/><path fill-rule="evenodd" clip-rule="evenodd" d="M108.61 8.201l2.961 7.951h-3.617l-.583-1.567h-2.686l-.583 1.567h-2.829l2.961-7.95h4.376zm-1.883 4.655l-.699-1.877-.699 1.877h1.398zm-74.843 5.856h-7.946c-1.314 2.447-2.314 5.184-2.443 8.725h3.068c.064-.362.134-.72.211-1.074h2.721v1.074h4.389v-8.725zm-4.389 3.126v2.326h-2.118c.283-.838.618-1.62 1.012-2.326h1.106zm5.22-3.126v8.725h7.957c1.497 0 2.535-.68 2.52-2.19-.012-1.09-.779-1.982-1.755-2.585.86-.534 1.286-1.204 1.282-2.221-.005-1.224-1.01-1.638-2.544-1.729h-7.46zm4.122 6.488h1.318c.463 0 .857-.397.856-.77 0-.23-.167-.511-.345-.672-.552.163-1.162.33-1.828.51v.932zm0-4.181h.58c.657-.007 1.076.167 1.075.483-.002.43-.596.824-1.654 1.086v-1.57zm-25.4-2.307v8.725h4.389v-1.474c4.193-.864 6.182-2.468 6.182-4.368 0-1.916-1.417-2.883-3.73-2.883h-6.841zm4.389 4.873c.983-.241 1.546-.64 1.554-1.159.008-.536-.572-.744-1.25-.744h-.304v1.903zM4.389 21.838h1.795v5.599h4.388v-8.725H0v8.725h4.389v-5.6zm49.537-3.126h-7.48c-1.04 1.762-1.746 3.795-2.006 6.186h-.92V29h2.966c.336-1.428 1.584-1.686 2.868-1.661 1.19.022 2.315.384 2.456 1.661h2.98v-4.102h-.864v-6.186zm-4.388 3.126v3.06h-2.103c.246-1.361.656-2.446 1.24-3.06h.863zm15.958-3.126H57.55c-1.314 2.447-2.314 5.184-2.443 8.725h3.068c.064-.362.134-.72.211-1.074h2.721v1.074h4.389v-8.725zm-4.389 3.126v2.326H58.99c.283-.838.618-1.62 1.012-2.326h1.106z" fill="#313131"/></svg>