<svg width="120" height="34" fill="none" xmlns="http://www.w3.org/2000/svg"><path d="M27.45 16.507a4.974 4.974 0 01-.837 2.757 4.95 4.95 0 01-2.223 1.826 4.935 4.935 0 01-5.392-1.084 4.968 4.968 0 01-1.065-5.411 4.961 4.961 0 011.827-2.225 4.938 4.938 0 016.245.628 4.974 4.974 0 011.446 3.51zM22.51 0a16.415 16.415 0 00-7.433 1.753 16.47 16.47 0 00-5.844 4.929A16.556 16.556 0 006.73 21.37a16.518 16.518 0 003.88 6.597 16.45 16.45 0 006.432 4.129 16.407 16.407 0 0014.724-1.977l.049-.032-2.217-2.575-.038.026a13.04 13.04 0 01-15.973-1.45 13.148 13.148 0 01-2.551-15.883 13.088 13.088 0 016.26-5.733 13.035 13.035 0 018.45-.676 13.07 13.07 0 017.087 4.666 13.14 13.14 0 012.744 8.045c0 .949-.103 1.894-.303 2.821-.419 1.703-1.603 2.224-2.498 2.155-.895-.07-1.949-.716-1.954-2.285v-2.69a8.371 8.371 0 00-1.883-5.309 8.307 8.307 0 00-10.371-2.078 8.346 8.346 0 00-3.772 4.175 8.38 8.38 0 00-.272 5.628 8.353 8.353 0 003.353 4.52A8.31 8.31 0 0028.4 22.38a5.346 5.346 0 004.105 2.465 5.554 5.554 0 003.785-1.098 6.242 6.242 0 002.125-3.142c.063-.211.187-.692.187-.698v-.017c.254-1.11.376-2.245.364-3.383 0-4.378-1.734-8.576-4.82-11.672A16.43 16.43 0 0022.511 0z" fill="#FF9E00"/><path fill-rule="evenodd" clip-rule="evenodd" d="M58.071 21.262h-6.84c1.178-1.158 1.534-3.4 1.534-5.884v-3.284h5.306v9.168zM82.562 9.134h13.722v3.142h-5.292V24.22H87.86V12.276h-5.298V9.134zm20.288 15.088l8.107-9.939v9.94h3.095V9.136h-2.599l-8.104 9.939v-9.94h-3.092v15.086h2.593zM80.879 16.74c0-4.202-3.098-7.987-7.726-7.987a7.996 7.996 0 00-5.703 2.322 8.043 8.043 0 00-2.38 5.694c0 4.376 3.539 7.837 8.083 7.837a9.215 9.215 0 006.81-3.015l-2.035-2.027a6.185 6.185 0 01-4.605 1.937c-2.477 0-4.304-1.361-4.908-3.342H80.77c.058-.58.09-1.005.09-1.42h.02zm-7.795-5.03a4.63 4.63 0 012.957.993 4.656 4.656 0 011.662 2.647h-9.328a4.777 4.777 0 011.722-2.65 4.751 4.751 0 012.996-.99h-.01zm-9.655 9.556h-2.272V9.137h-11.49v6.791c0 1.39 0 5.323-2.858 5.323h-.335v6.4h3.097v-3.429h10.76v3.43h3.098v-6.39.003z" fill="#005FF9"/></svg>