<svg width="120" height="34" fill="none" xmlns="http://www.w3.org/2000/svg"><path fill-rule="evenodd" clip-rule="evenodd" d="M18 5v21.467L38.907 5H18z" fill="#92CFAE"/><path fill-rule="evenodd" clip-rule="evenodd" d="M19.493 28H40.4V6.533L19.493 28z" fill="#2A8288"/><path fill-rule="evenodd" clip-rule="evenodd" d="M52.144 16.001c2.43 0 3.723-1.222 3.723-3.506v-.129c0-2.444-1.354-3.41-3.723-3.41H49.62v7.045h2.524zM44.667 5h7.6c5.353 0 8.4 2.477 8.4 7.335v.128c0 4.857-3.231 7.174-8.247 7.174h-2.8V28h-4.953V5zm25.861 19.043c2.385 0 3.593-1.093 3.593-3.184v-.129c0-2.059-1.208-3.185-3.713-3.185H67.63v6.498h2.898zM70.71 28H62.8V5h14.068v4.053h-9.207l-.03 4.825h3.23c4.98 0 7.939 2.284 7.939 6.884v.129c0 4.503-2.747 7.109-8.09 7.109zM82.4 5.032h5.201v9.894L95.628 5h5.523l-9.087 10.89L101.6 28h-6.068l-7.93-10.311V28H82.4V5.032z" fill="#313131"/></svg>