<?xml version="1.0" encoding="utf-8"?><svg viewBox="0 0 66 66" xmlns="http://www.w3.org/2000/svg" xmlns:xlink="http://www.w3.org/1999/xlink"><style>:root>svg{display:none}:root>svg:target{display:block}</style><svg fill="none" viewBox="0 0 30 30" id="icon-check-blue" xmlns="http://www.w3.org/2000/svg"><path d="M19 12l-5.647 6L11 15.692" stroke="#1280FF" stroke-width="2" stroke-linecap="round" stroke-linejoin="round"/></svg><svg fill="none" viewBox="0 0 19 14" id="icon-email" xmlns="http://www.w3.org/2000/svg"><rect x="17.559" y="1.51" width="10.941" height="16.118" rx="1" transform="rotate(90 17.559 1.51)" stroke="currentColor" stroke-width="2"/><path d="M17.265 4.392l-6.423 3.212a3 3 0 01-2.684 0L1.735 4.392" stroke="currentColor" stroke-width="2"/></svg><svg fill="none" viewBox="0 0 19 19" id="icon-inst" xmlns="http://www.w3.org/2000/svg"><rect x="17.5" y="1.98" width="16" height="16" rx="4" transform="rotate(90 17.5 1.98)" stroke="currentColor" stroke-width="2"/><rect x="15.5" y="3.98" width="3" height="3" rx="1.5" transform="rotate(90 15.5 3.98)" fill="currentColor"/><rect x="12.5" y="6.98" width="6" height="6" rx="3" transform="rotate(90 12.5 6.98)" stroke="currentColor" stroke-width="2"/></svg><svg fill="none" viewBox="0 0 14 14" id="icon-location" xmlns="http://www.w3.org/2000/svg"><path d="M11 5.143c0 1.427-.993 2.892-2.208 4.108A15.58 15.58 0 017 10.783a15.869 15.869 0 01-1.792-1.532C3.993 8.035 3 6.57 3 5.143 3 2.828 4.817 1 7 1s4 1.828 4 4.143z" stroke="#FFA800" stroke-width="2"/></svg><svg fill="none" viewBox="0 0 26 26" id="icon-mark-blue" xmlns="http://www.w3.org/2000/svg"><path d="M9 12.341L12.409 16l5.59-6" stroke="#1280FF" stroke-width="2" stroke-linecap="round"/></svg><svg fill="none" viewBox="0 0 13 21" id="icon-phone" xmlns="http://www.w3.org/2000/svg"><rect x="1.029" y="1.922" width="10.941" height="17.412" rx="2" stroke="currentColor" stroke-width="2"/><rect x="4.882" y="1.892" width="3.235" height="1.941" rx=".971" stroke="currentColor" stroke-width="1.941"/></svg><svg fill="none" viewBox="0 0 34 35" id="icon-play" xmlns="http://www.w3.org/2000/svg"><circle cx="17" cy="17.02" r="17" fill="currentColor"/><path d="M22 17.04l-7.5 5.195V11.843l7.5 5.196z" fill="#fff"/></svg><svg fill="none" viewBox="0 0 66 66" id="icon-play-white" xmlns="http://www.w3.org/2000/svg"><circle cx="33" cy="33" r="33" fill="#fff"/><path d="M42 33l-13.5 9.526V23.474L42 33z" fill="currentColor"/></svg><svg fill="none" viewBox="0 0 14 14" id="icon-release" xmlns="http://www.w3.org/2000/svg"><path d="M6.5 2.335l1.27 2.68.904-.429-.904.428a2 2 0 00.74.835L11.126 7.5 8.51 9.151a2 2 0 00-.74.835l.862.409-.862-.41-1.27 2.68-1.27-2.68a2 2 0 00-.74-.834L1.874 7.5 4.49 5.849a2 2 0 00.74-.835l-.904-.428.904.428 1.27-2.68z" stroke="#7856FF" stroke-width="2"/></svg><svg fill="none" viewBox="0 0 20 17" id="icon-secured" xmlns="http://www.w3.org/2000/svg"><path fill="currentColor" d="M0 7h7v2H0zM0 11h7v2H0zM0 15h11v2H0z"/><path d="M14 15.5V11h-4a1.004 1.004 0 01-1.009-1c.012-1.163.191-2.456 1.52-2.867.528-.163.989-.58.989-1.133V4.5c0-.315-.15-.61-.394-.808C9.816 2.639 8.327 1 10.5 1H14" stroke="currentColor" stroke-width="2"/><path d="M13.99 17v-6h4c.553 0 1.015-.447 1.01-1-.012-1.163-.191-2.456-1.52-2.867-.528-.163-.99-.58-.99-1.133V4.5c0-.315.15-.61.394-.808C18.175 2.639 19.664 1 17.491 1h-3.5" stroke="currentColor" stroke-width="2"/></svg><svg fill="none" viewBox="0 0 21 17" id="icon-tg" xmlns="http://www.w3.org/2000/svg"><path d="M1.287 7.833l12.51-4.749c1.234-.494 5.422-2.078 5.422-2.078s1.932-.692 1.771.99c-.053.692-.483 3.116-.912 5.738l-1.342 7.767s-.108 1.138-1.02 1.336c-.913.198-2.416-.693-2.685-.89-.215-.15-4.026-2.375-5.422-3.464-.376-.296-.805-.89.054-1.583A199.097 199.097 0 0015.3 5.953c.644-.593 1.288-1.978-1.396-.296l-7.57 4.7s-.859.494-2.47.049c-1.61-.446-3.49-1.04-3.49-1.04s-1.288-.741.913-1.533z" fill="currentColor"/></svg></svg>