<?xml version="1.0" encoding="utf-8"?><svg viewBox="0 0 21 17" xmlns="http://www.w3.org/2000/svg" xmlns:xlink="http://www.w3.org/1999/xlink"><style>:root>svg{display:none}:root>svg:target{display:block}</style><svg fill="none" viewBox="0 0 21 17" id="icon-tg" xmlns="http://www.w3.org/2000/svg"><path d="M1.287 7.833l12.51-4.749c1.234-.494 5.422-2.078 5.422-2.078s1.932-.692 1.771.99c-.053.692-.483 3.116-.912 5.738l-1.342 7.767s-.108 1.138-1.02 1.336c-.913.198-2.416-.693-2.685-.89-.215-.15-4.026-2.375-5.422-3.464-.376-.296-.805-.89.054-1.583A199.097 199.097 0 0015.3 5.953c.644-.593 1.288-1.978-1.396-.296l-7.57 4.7s-.859.494-2.47.049c-1.61-.446-3.49-1.04-3.49-1.04s-1.288-.741.913-1.533z" fill="currentColor"/></svg></svg>