<svg width="264" height="168" fill="none" xmlns="http://www.w3.org/2000/svg"><g clip-path="url(#clip0_3202_4107)"><path d="M92.607 56.798c11.358 0 20.565-9.207 20.565-20.565s-9.207-20.566-20.565-20.566S72.04 24.875 72.04 36.233c0 11.358 9.208 20.565 20.566 20.565z" fill="#FFA800"/><path d="M100.714 22.454a5.009 5.009 0 004.235-.8 3.775 3.775 0 001.334-2.094 9.18 9.18 0 00.164-2.525c0-.438-.684-.438-.684 0a8.998 8.998 0 01-.123 2.265 3.143 3.143 0 01-1.109 1.813 4.316 4.316 0 01-3.639.684.353.353 0 10-.178.684v-.027z" fill="#313131"/><path d="M105.749 16.7c-.005.896.094 1.789.294 2.662a4.295 4.295 0 001.369 2.189 5.224 5.224 0 004.009 1.026c.431-.069.246-.732-.185-.684h-.287a7.249 7.249 0 01-.862 0 4.058 4.058 0 01-2.238-.896 3.748 3.748 0 01-1.183-1.978 11.07 11.07 0 01-.205-2.333c0-.437-.684-.437-.684 0l-.028.014zm-3.489 5.877a2.964 2.964 0 012.634 1.368c.313.436.545.925.684 1.444 0 .11.055.219.075.328.062.329 0-.04 0 .096v.267c.055.985.062 1.977.082 2.962a.341.341 0 10.685 0c0-1.06 0-2.141-.096-3.195-.178-2.052-1.902-4.105-4.064-3.961-.438 0-.445.684 0 .684v.007z" fill="#313131"/><path d="M106.42 29.063V26.51a3.643 3.643 0 01.444-1.772 3.585 3.585 0 011.827-1.724 9.68 9.68 0 012.381-.438c.431-.041.438-.725 0-.684a10.2 10.2 0 00-2.607.479 4.567 4.567 0 00-2.736 3.838c-.062.95 0 1.902 0 2.853a.342.342 0 10.684 0h.007zM51.729 53.706a5.044 5.044 0 004.241-.794 3.728 3.728 0 001.328-2.093c.173-.83.23-1.68.17-2.525a.342.342 0 00-.684 0 8.642 8.642 0 01-.116 2.265 3.175 3.175 0 01-1.108 1.813 4.325 4.325 0 01-3.64.684c-.424-.103-.609.554-.184.684l-.007-.034z" fill="#313131"/><path d="M56.785 47.959a11.63 11.63 0 00.246 2.668c.225.85.702 1.61 1.368 2.182a5.187 5.187 0 004.016 1.02c.438-.069.253-.725-.178-.684h-.287a5.13 5.13 0 01-.855 0 4.106 4.106 0 01-2.258-.876 3.75 3.75 0 01-1.19-1.984 11.027 11.027 0 01-.178-2.326c0-.438-.684-.445-.684 0zm-3.51 5.891a2.956 2.956 0 012.634 1.368c.314.438.546.929.684 1.45 0 .11.048.22.068.328.069.329 0-.04 0 .096v.267c.048.985.062 1.97.076 2.956a.342.342 0 10.684 0c0-1.06 0-2.135-.09-3.195-.177-2.019-1.901-4.105-4.07-3.955-.438.035-.438.719 0 .684h.014z" fill="#313131"/><path d="M57.469 60.315v-2.552a3.627 3.627 0 01.451-1.765 3.537 3.537 0 011.827-1.724 9.317 9.317 0 012.374-.438c.438-.041.438-.725 0-.684a9.902 9.902 0 00-2.607.479 4.61 4.61 0 00-2.73 3.838c-.054.944 0 1.902 0 2.846a.342.342 0 10.685 0zM94.632 32.84a4.55 4.55 0 003.838-.726 3.42 3.42 0 001.204-1.895 8.214 8.214 0 00.144-2.271.342.342 0 00-.685 0 7.97 7.97 0 01-.102 2.018 2.812 2.812 0 01-.985 1.614 3.81 3.81 0 01-3.23.596.354.354 0 10-.184.684v-.02z" fill="#313131"/><path d="M99.127 27.62c-.017.804.064 1.608.239 2.394a3.843 3.843 0 001.252 1.977 4.686 4.686 0 003.64.923.351.351 0 00.239-.424.356.356 0 00-.424-.24s.103 0 0 0h-.26a4.75 4.75 0 01-.773 0 3.608 3.608 0 01-1.991-.78 3.327 3.327 0 01-1.06-1.757 10.086 10.086 0 01-.178-2.053c0-.438-.684-.445-.684 0v-.04zm-3.1 5.315a2.634 2.634 0 012.333 1.218c.273.39.472.825.589 1.286 0 .103.048.198.068.294.055.301 0-.048 0 .082v.233c.048.89.062 1.772.075 2.661a.342.342 0 10.684 0c0-.958 0-1.922-.082-2.873-.164-1.827-1.724-3.742-3.687-3.585-.438.041-.438.725 0 .684h.02z" fill="#313131"/><path d="M99.797 38.71v-2.293a3.482 3.482 0 012.018-3.099 8.35 8.35 0 012.128-.39c.431-.04.438-.725 0-.684a8.81 8.81 0 00-2.353.431 3.706 3.706 0 00-1.868 1.642 3.755 3.755 0 00-.595 1.834c-.048.848 0 1.703 0 2.558a.342.342 0 10.684 0h-.014zm35.412 57.933c-.158-.11-15.811-11.76-28.516-56.784C101.699 22.18 98.196.554 98.162.335l.684-.11c.034.22 3.53 21.812 8.511 39.47 12.622 44.722 28.105 56.285 28.255 56.394l-.403.554zm-99.832-10.44l-.629-.26c4.885-11.952 8.422-27.202 10.522-45.325C47.384 22.372 47.391.499 47.391.281h.684c0 .218 0 22.132-2.128 40.399-2.127 18.266-5.657 33.496-10.57 45.523zM144.664 42.5a335.055 335.055 0 01-2.894-4.407C127.936 16.686 120.958 1.047 121.273 0l.684.198-.329-.095.336.04c0 .876 5.952 15.216 20.408 37.581.93 1.437 1.888 2.9 2.887 4.4l-.595.375zm-4.146-24.363a72.28 72.28 0 01-4.694-8.894c-2.736-5.904-3.667-8.06-3.906-8.894l.684-.198c.226.773 1.204 2.99 3.872 8.79a72.023 72.023 0 004.612 8.847l-.568.349z" fill="#313131"/><path d="M135.407 68.566h-62.45a1.123 1.123 0 01-1.1-1.369c.293-1.368 1.477-3.831 6.109-5.514a29.74 29.74 0 018.093-1.8 2.586 2.586 0 002.374-2.195c.493-3.01 2.176-7.396 7.396-11.193a23.547 23.547 0 0113.765-4.693 2.55 2.55 0 002.463-1.868c.725-2.614 2.826-7.731 8.812-12.588 9.297-7.526 18.301-7.287 22.837-6.459a2.868 2.868 0 003.174-1.813c1.184-3.1 4.187-7.34 11.747-9.94l.219.643c-7.307 2.517-10.194 6.581-11.329 9.578a3.557 3.557 0 01-3.934 2.244c-4.427-.814-13.198-1.068-22.283 6.314-5.836 4.741-7.882 9.702-8.586 12.233a3.236 3.236 0 01-3.12 2.374 22.919 22.919 0 00-13.368 4.563c-5.029 3.66-6.643 7.861-7.115 10.748a3.27 3.27 0 01-3.004 2.771 28.877 28.877 0 00-7.909 1.758c-4.323 1.574-5.411 3.818-5.678 5.022a.43.43 0 00.089.363.452.452 0 00.349.164h62.449v.657z" fill="#313131"/><path d="M57.086 140.011a6.51 6.51 0 01-3.722-1.087 4.327 4.327 0 00-4.735 0 6.95 6.95 0 01-7.464 0 4.315 4.315 0 00-4.727 0 6.938 6.938 0 01-7.457 0 3.957 3.957 0 00-2.368-.685v-2.695a6.51 6.51 0 013.73 1.088 4.335 4.335 0 004.733 0 6.938 6.938 0 017.458 0 4.323 4.323 0 004.727 0 6.94 6.94 0 017.464 0 3.956 3.956 0 002.367.684l-.006 2.695z" fill="#1280FF"/><path d="M49.3 160.885H34.4a8.145 8.145 0 01-8.135-8.128v-19.553a2.133 2.133 0 012.134-2.134h26.894a2.131 2.131 0 012.135 2.134v19.553a8.134 8.134 0 01-8.128 8.128zm-20.9-29.131a1.45 1.45 0 00-1.451 1.45v19.553a7.451 7.451 0 007.45 7.444h14.9a7.453 7.453 0 007.444-7.444v-19.553a1.449 1.449 0 00-1.45-1.45H28.399z" fill="#313131"/><path d="M41.959 131.501a39.085 39.085 0 0116.878-20.265 35.225 35.225 0 016.896-3.14c.417-.137.24-.794-.178-.684a39.096 39.096 0 00-20.907 16.843 38.137 38.137 0 00-3.346 7.013c-.15.417.513.595.684.185l-.027.048z" fill="#313131"/><path d="M49.054 119.309c9.879.91 19.361-3.688 25.518-11.289a38.23 38.23 0 004.338-6.663.355.355 0 00-.205-.506c-5.665-1.485-11.74-2.47-17.446-.637a16.697 16.697 0 00-10.434 9.934 25.91 25.91 0 00-1.75 8.265c0 .438.683.438.683 0 .267-4.714 1.642-9.578 4.844-13.191 3.558-3.975 8.935-5.473 14.128-5.33 3.319.161 6.608.703 9.804 1.615l-.206-.506a34.205 34.205 0 01-11.596 13.204 28.053 28.053 0 01-17.678 4.413c-.438-.041-.438.643 0 .684v.007zm-7.868 12.103a89.623 89.623 0 017.526-35.754 87.92 87.92 0 014.652-9.051.342.342 0 00-.589-.343 90.31 90.31 0 00-11.63 34.707 87.297 87.297 0 00-.63 10.441.342.342 0 00.684 0h-.013z" fill="#313131"/><path d="M42.595 115.43a12.424 12.424 0 009.496-6.554c.164-.329-.328-.623-.5-.294a11.83 11.83 0 01-8.996 6.273c-.362.034-.37.616 0 .575z" fill="#313131"/><path d="M60.725 101.042c3.94-8.524 4.105-18.944 0-27.455a.349.349 0 00-.39-.157c-3.763.978-6.958 3.243-9.975 5.61-3.188 2.504-6.232 5.124-8.668 8.388-4.536 6.088-7.785 14.62-4.878 22.077.684 1.82 1.731 3.961 3.311 5.186a2.953 2.953 0 002.354.725c.43-.102.246-.759-.185-.684-.814.198-1.73-.52-2.244-1.054a13.834 13.834 0 01-2.777-4.925 18.262 18.262 0 010-11.104 31.302 31.302 0 014.83-9.674 41.49 41.49 0 017.792-7.731c3.216-2.559 6.575-5.131 10.618-6.157l-.39-.158c3.968 8.265 3.845 18.472 0 26.764-.185.397.404.746.589.342l.013.007zM39.38 131.316a157.16 157.16 0 00-9.962-37.081 152.066 152.066 0 00-4.364-9.81c-.192-.398-.78-.049-.589.341a156.856 156.856 0 0112.404 36.26 148.825 148.825 0 011.84 10.488c.062.431.684.247.684-.184l-.013-.014z" fill="#313131"/><path d="M38.997 92.935c-.343-3.886-3.148-6.978-6.069-9.305a25.732 25.732 0 00-10.522-4.953.343.343 0 00-.431.329l.226 8.846c.075 2.928.048 5.89.376 8.812.54 4.884 2.415 9.721 6.02 13.17a16.108 16.108 0 006.753 3.885.355.355 0 00.434-.249.354.354 0 00-.25-.435c-6.157-1.724-10.261-7.19-11.719-13.21-.814-3.326-.8-6.767-.89-10.167l-.266-10.68-.438.329a25.13 25.13 0 019.838 4.522c2.908 2.21 5.89 5.275 6.233 9.1.041.437.725.437.684 0l.02.006z" fill="#313131"/><path d="M35.576 112.994c.44-.387.826-.831 1.15-1.32a6.858 6.858 0 00.745-1.587c.123-.356-.438-.507-.554-.151-.166.51-.396.998-.684 1.45a6.56 6.56 0 01-1.06 1.205c-.275.246.13.684.403.403zm.486 18.24a188.079 188.079 0 00-15.914-25.67c-.253-.355-.848 0-.588.343a187.779 187.779 0 0115.906 25.676c.206.39.794.048.596-.349z" fill="#313131"/><path d="M31.58 123.585a9.318 9.318 0 00.76-6.684 24.621 24.621 0 00-2.88-7.04.29.29 0 00-.385-.086.288.288 0 00-.108.38 24.924 24.924 0 012.736 6.424 8.97 8.97 0 01-.588 6.719.286.286 0 00.32.394.283.283 0 00.173-.107h-.028z" fill="#313131"/><path d="M25.587 105.065a17.025 17.025 0 00-10.61-1.806.34.34 0 00-.254.328 27.45 27.45 0 005.432 16.687 13.556 13.556 0 005.843 4.611c1.696.622 4.87 1.122 5.596-1.129.137-.417-.52-.595-.684-.178-.417 1.3-2.21 1.232-3.29 1.04a9.091 9.091 0 01-3.107-1.19 15.54 15.54 0 01-4.871-5.002 27.364 27.364 0 01-4.283-14.839l-.246.329a16.273 16.273 0 0110.084 1.744c.383.205.732-.383.342-.595h.048zM58.898 25.54a1.251 1.251 0 110-2.503 1.251 1.251 0 010 2.502zm0-1.82a.568.568 0 100 1.135.568.568 0 000-1.135z" fill="#313131"/><path d="M179.932 81.243a5.92 5.92 0 011.518-1.17 5.154 5.154 0 011.54-.205 15.17 15.17 0 00-3.291-4.906l-18.924-19.607c-.092.137-.2.264-.321.376a10.195 10.195 0 01-6.919 16.093 10.193 10.193 0 01-6.73-1.46 2.163 2.163 0 11-2.976-2.832 10.19 10.19 0 016.793-15.883c2.284-.358 4.622.07 6.63 1.215.119-.155.257-.295.41-.417a15.276 15.276 0 00-19.901 23.07l11.904 12.314a3.54 3.54 0 01.397-.068 11.151 11.151 0 004.604-1.211c1.68-.94 3.414-1.78 5.193-2.518.526-.52.937-.41 2.004-.308 1.252.13 3.01.28 4.584.363l-.116-.192c-2.176-.417-4.988-1.197-6.363-1.293a1.68 1.68 0 01-1.108-.37 1.148 1.148 0 01.362-1.649 3.298 3.298 0 011.861-.348c2.135 0 5.473.862 7.574 1-2.176-.39-5.795-1.643-7.991-1.82-.684-.055-.828-1.047-.328-1.609.287-.321 1.08-.369 1.518-.376 1.923 0 2.094.185 3.832.383 2.085.252 4.145.683 6.157 1.287l.848.273c-.369-.896-.944-2.052-1.368-2.9-.424-.849-.759-2.053-.281-2.669.685-.882 1.307-.15 1.553.103a47.343 47.343 0 014.051 4.789 11.06 11.06 0 003.694 3.003 4.98 4.98 0 012.155 2.737c-.356-1.656-2.565-3.195-2.565-3.195z" fill="#FFA800"/><path d="M75.14 83.405a3.857 3.857 0 003.277-.623 2.936 2.936 0 001.027-1.614c.13-.635.17-1.284.123-1.93 0-.438-.684-.438-.684 0a6.294 6.294 0 01-.09 1.683 2.25 2.25 0 01-.807 1.369 3.221 3.221 0 01-2.668.492c-.424-.11-.609.554-.178.684v-.061z" fill="#313131"/><path d="M78.876 78.985c-.012.69.057 1.379.205 2.053a3.338 3.338 0 001.067 1.683 4.025 4.025 0 003.113.745.348.348 0 00.24-.424.355.355 0 00-.425-.24h-.212a5.104 5.104 0 01-.684 0 2.997 2.997 0 01-1.628-.65 2.777 2.777 0 01-.876-1.457 8.204 8.204 0 01-.15-1.737c0-.438-.684-.438-.684 0l.034.027zm-2.552 4.529a2.148 2.148 0 011.916.992c.227.326.393.69.492 1.074 0 .082 0 .165.055.247.054.253 0-.062 0 .048v.205c0 .739.04 1.484.054 2.23a.342.342 0 10.685 0c0-.8 0-1.614-.069-2.408-.137-1.567-1.47-3.209-3.154-3.072-.43.034-.438.719 0 .684h.02z" fill="#313131"/><path d="M79.546 88.31v-1.922a2.58 2.58 0 01.329-1.293 2.627 2.627 0 011.327-1.266 7.092 7.092 0 011.772-.322c.43-.047.438-.732 0-.684a7.529 7.529 0 00-1.991.363 3.188 3.188 0 00-1.608 1.368 3.236 3.236 0 00-.5 1.574c-.047.684 0 1.436 0 2.148a.342.342 0 00.685 0l-.014.034zm-79.3-4.905a3.858 3.858 0 003.277-.623 2.935 2.935 0 001.027-1.614 7.02 7.02 0 00.123-1.93c0-.438-.684-.438-.684 0a6.294 6.294 0 01-.09 1.683 2.25 2.25 0 01-.807 1.369 3.221 3.221 0 01-2.668.492c-.424-.11-.609.554-.178.684v-.061z" fill="#313131"/><path d="M3.982 78.985c-.012.69.057 1.379.205 2.053a3.339 3.339 0 001.067 1.683 4.023 4.023 0 003.113.745.349.349 0 00.24-.424.356.356 0 00-.425-.24h-.218a5.036 5.036 0 01-.644 0 2.996 2.996 0 01-1.628-.65 2.777 2.777 0 01-.903-1.422 8.21 8.21 0 01-.15-1.738c0-.438-.685-.438-.685 0l.028-.007zM1.43 83.514a2.148 2.148 0 011.915.992c.225.328.391.69.493 1.074 0 .082 0 .165.055.247.048.253 0-.062 0 .048v.205c0 .739.04 1.484.055 2.23a.342.342 0 00.684 0c0-.8 0-1.614-.069-2.408-.137-1.567-1.47-3.209-3.154-3.072-.43.034-.437.719 0 .684h.02z" fill="#313131"/><path d="M4.652 88.31v-1.922a2.579 2.579 0 01.329-1.293 2.627 2.627 0 011.327-1.266 7.092 7.092 0 011.772-.322c.43-.047.438-.732 0-.684a7.528 7.528 0 00-1.991.363 3.188 3.188 0 00-1.608 1.368 3.318 3.318 0 00-.506 1.574c-.041.684 0 1.436 0 2.148a.342.342 0 00.684 0l-.007.034zm247.115-16.83a5.05 5.05 0 004.242-.794 3.793 3.793 0 001.327-2.093 9.22 9.22 0 00.165-2.525.342.342 0 10-.685 0 8.64 8.64 0 01-.123 2.265 3.17 3.17 0 01-1.101 1.813 4.326 4.326 0 01-3.64.684c-.431-.102-.609.554-.185.684v-.034z" fill="#313131"/><path d="M256.775 65.733a11.67 11.67 0 00.267 2.661c.225.85.702 1.61 1.368 2.183a5.187 5.187 0 004.016 1.02c.438-.069.254-.726-.177-.685h-.322a5.086 5.086 0 01-.855 0 4.105 4.105 0 01-2.244-.89 3.78 3.78 0 01-1.184-1.983 11.49 11.49 0 01-.205-2.326c0-.438-.684-.445-.684 0l.02.02zm-3.489 5.891a2.963 2.963 0 012.634 1.368c.312.44.543.93.684 1.45 0 .11.048.22.069.329.068.328 0-.041 0 .096v.266c.048.986.061 1.97.075 2.956a.342.342 0 10.684 0c0-1.06 0-2.135-.089-3.195-.185-2.053-1.902-4.105-4.07-3.954-.438 0-.438.684 0 .684h.013z" fill="#313131"/><path d="M257.446 78.089v-2.552a3.905 3.905 0 012.271-3.49 9.43 9.43 0 012.381-.437c.438-.041.438-.725 0-.684a9.916 9.916 0 00-2.607.479 4.573 4.573 0 00-2.736 3.838c-.062.944 0 1.902 0 2.846a.343.343 0 00.684 0h.007zm-23.371 27.366a4.109 4.109 0 003.476-.684c.546-.43.93-1.033 1.088-1.711a7.362 7.362 0 00.136-2.052c0-.438-.684-.438-.684 0 .044.604.012 1.21-.096 1.806a2.456 2.456 0 01-.875 1.43 3.43 3.43 0 01-2.867.527.354.354 0 10-.178.684z" fill="#313131"/><path d="M238.084 100.762a9.522 9.522 0 00.219 2.155 3.562 3.562 0 001.136 1.792 4.25 4.25 0 003.298.835.343.343 0 00.208-.158.353.353 0 00.042-.127.347.347 0 00-.011-.132.354.354 0 00-.424-.24h-.226c-.227.02-.456.02-.684 0a3.175 3.175 0 01-1.758-.684 2.971 2.971 0 01-.938-1.567 9.374 9.374 0 01-.164-1.854c0-.438-.684-.444-.684 0l-.014-.02zm-2.736 4.809a2.306 2.306 0 012.052 1.068c.24.35.418.739.527 1.149 0 .089.034.178.055.267.054.267 0-.062 0 .061.003.071.003.142 0 .212.041.794.054 1.588.068 2.381a.342.342 0 10.684 0c0-.855 0-1.717-.075-2.572-.15-1.656-1.56-3.421-3.345-3.25-.438.034-.438.718 0 .684h.034z" fill="#313131"/><path d="M238.769 110.709v-2.052a3.094 3.094 0 011.785-2.737 7.838 7.838 0 011.895-.349c.438-.041.438-.725 0-.684a7.89 7.89 0 00-2.114.39 3.417 3.417 0 00-1.703 1.492 3.413 3.413 0 00-.534 1.662c-.048.759 0 1.533 0 2.292a.342.342 0 10.684 0l-.013-.014zM23.863 21.428a5.007 5.007 0 004.235-.8 3.73 3.73 0 001.32-2.094c.175-.83.23-1.68.165-2.525 0-.438-.684-.438-.684 0 .06.757.021 1.518-.117 2.265a3.099 3.099 0 01-1.108 1.813 4.27 4.27 0 01-3.64.684.353.353 0 10-.178.684l.007-.027z" fill="#313131"/><path d="M28.898 15.674c-.013.894.075 1.787.26 2.661a4.301 4.301 0 001.369 2.19 5.2 5.2 0 004.016 1.019c.43-.069.246-.732-.185-.684h-.287a6.1 6.1 0 01-.855 0 4.057 4.057 0 01-2.238-.896 3.729 3.729 0 01-1.19-1.978 11.56 11.56 0 01-.198-2.333c0-.438-.685-.438-.685 0l-.007.02zm-3.496 5.89a2.976 2.976 0 012.634 1.369c.315.435.547.924.685 1.443 0 .11.047.22.068.329.069.328 0-.041 0 .096v.266c.048.985.062 1.977.075 2.963a.342.342 0 00.684 0c0-1.06 0-2.142-.088-3.195-.178-2.053-1.902-4.105-4.071-3.962-.431.035-.438.726 0 .685l.014.006z" fill="#313131"/><path d="M29.562 28.05v-2.552a3.65 3.65 0 01.452-1.772 3.564 3.564 0 011.826-1.724 9.631 9.631 0 012.368-.451c.437-.041.444-.725 0-.684a10.2 10.2 0 00-2.607.479 4.605 4.605 0 00-2.737 3.845c-.054.944 0 1.895 0 2.846a.342.342 0 10.684 0l.014.013zM142.55 150.588H57.14v.685h85.41v-.685zm91.252 16.023h-3.018l-20.394-42.807.623-.294 20.202 42.417h1.506l-20.374-42.814.615-.294 20.84 43.792zm-18.712-8.921h-3.024l-.089-.199-16.139-33.687.616-.294 16.043 33.496h1.505l-15.824-33.072.616-.294 16.296 34.05zm-46.427-34.056l-3.47 7.289.618.294 3.47-7.289-.618-.294zm2.344-.135l-4.87 10.229.617.294 4.871-10.229-.618-.294z" fill="#313131"/><path d="M141.961 157.69h-3.024l9.442-19.765.615.294-8.969 18.787h1.505l8.094-16.947.615.295-8.278 17.336z" fill="#313131"/><path d="M209.035 150.588h-64.33v.685h64.33v-.685zm14.901 0h-12.458v.685h12.458v-.685zm27.264 0h-25.239v.685H251.2v-.685z" fill="#313131"/><path d="M169.396 146.251s3.509 6.759 4.105 11.63c.595 4.872-2.415 6.76-16.831 8.621-4.05.526-8.743.958-11.835.499-2.525-.369-5.084-.807-5.084-3.496 0-3.968 10.55-5.795 12.999-8.175 4.105-3.969 2.648-7.28 2.648-7.28l13.998-1.799z" fill="#1280FF"/><path d="M178.262 48.52c.281.821.753 1.635.37 2.504s-1.259 1.06-2.053 1.368a45.578 45.578 0 00-4.365 2.053 21.766 21.766 0 00-7.19 5.952c-.267.349.328.684.588.342 2.114-2.86 5.186-4.85 8.326-6.424a44.64 44.64 0 012.402-1.115 9.546 9.546 0 002.223-.951c.489-.39.814-.95.91-1.567a4.902 4.902 0 00-.513-2.34c-.144-.417-.807-.24-.684.178h-.014zm-23.795 99.79a3.047 3.047 0 01-2.668-1.129 1.977 1.977 0 01-.301-1.58c.116-.46.352-.88.684-1.218-1.176-1.936-8.894-14.661-12.78-20.401-4.139-6.158-5.007-9.168-5.705-11.583l-.055-.185a11.371 11.371 0 011.635-9.776c1.649-2.285 4.988-5.056 11.521-5.302l.979.013v.684l-.945-.034c-6.232.233-9.407 2.86-10.946 5.022a10.684 10.684 0 00-1.526 9.181l.055.185c.684 2.374 1.533 5.323 5.617 11.391 4.18 6.205 12.862 20.525 12.944 20.682l.185.294-.301.178a1.83 1.83 0 00-.602.999 1.268 1.268 0 00.198 1.047c.588.855 1.752.841 2.374.821h1.765a55.666 55.666 0 009.284-1.006l.999-.164 2.538-.534a1.579 1.579 0 001.28-1.779c-.069-1.724-1.328-1.779-1.485-1.779h-.253l-.082-.239-3.948-11.959a75.224 75.224 0 00-4.837-11.022l-1.081-2.052 34.933 1.998c.795.055 1.593.055 2.388 0a15.248 15.248 0 0010.679-5.33 15.654 15.654 0 003.332-11.795l-.588-5.507.684-.069.588 5.508a16.277 16.277 0 01-3.475 12.315 15.866 15.866 0 01-11.152 5.541c-.824.059-1.652.059-2.477 0l-33.728-1.929.513.971a74.505 74.505 0 014.789 11.145l3.886 11.747c.561.089 1.847.5 1.922 2.415a2.243 2.243 0 01-1.819 2.477l-2.552.54-1.013.171a55.913 55.913 0 01-9.393 1.013h-2.053l-.007.034z" fill="#313131"/><path d="M182.319 88.53c.048-.11.09-.222.123-.336-.041.11-.075.219-.123.335zm-.04.095s-.035.062-.049.096l.035-.062s.007-.027.014-.034zm-1.417 2.032a1.623 1.623 0 00.93-1.13l.055-.095a5.334 5.334 0 01-.985 1.225zm-.39 1.963a1.577 1.577 0 01-.91-1.368c-2.44.362-4.928.21-7.307-.445a46.547 46.547 0 00-6.034-1.026c-2.052-.287-3.099-.479-4.317-.684-1.56-.267-1.621-1.033-1.546-1.368a1.034 1.034 0 01.561-.684c1.704-.822 5.179.321 7.225 0a51.66 51.66 0 01-7.102-.958c-.21.228-.439.438-.684.63-.753.608-1.485 1.135-2.189 1.805l.061.308.568.069c2.053.28 3.914.684 5.973 1.046 1.246.253 2.508.42 3.776.5a1.366 1.366 0 011.259.869 1.018 1.018 0 01-.149.901 1.022 1.022 0 01-.809.426 28.805 28.805 0 01-8.004-.684c1.998.752 4.481 1.02 5.747 1.293.684.15 2.846 0 3.195.54a1.254 1.254 0 01.097.953 1.223 1.223 0 01-.61.737 26.29 26.29 0 01-3.291.123c-1.632 0-3.262-.114-4.878-.342.855.137 2.6.431 3.913.684 1.115.24 3.517.165 3.783.856a1.17 1.17 0 01-.136 1.088c-.5.574-1.191.574-2.388.533-2.19.055-4.373-.26-6.458-.93 2.449 1.012 3.872.923 5.705 1.019a1.044 1.044 0 01.889.89c.021.148.009.3-.033.444-.117.315-.288.424-.685.629a1.15 1.15 0 01-.314.089 15.226 15.226 0 0016.878-7.525c-.604-.1-1.201-.239-1.786-.418z" fill="#FFA800"/><path d="M165.113 24.376c-.896 6.52-1.895 13.683 1.676 19.615a9.662 9.662 0 004.714 4.283 11.43 11.43 0 006.109.602 8.526 8.526 0 005.939-4.167.34.34 0 00-.14-.436.344.344 0 00-.449.094c-2.189 3.79-6.841 4.79-10.802 3.42-4.83-1.627-6.794-7.436-7.157-12.068-.287-3.735.26-7.47.774-11.158.054-.431-.603-.616-.685-.185h.021z" fill="#313131"/><path d="M187.101 38.525a60.643 60.643 0 004.105 8.025c2.012 2.969 3.777 2.025 7.882 3.393a41.848 41.848 0 0014.429 2.477c5.377-.076 10.44-12.212 10.44-12.212l-17.446-14.675-19.41 12.992z" fill="#1280FF"/><path d="M212.655 52.426c11.769 0 21.311-9.541 21.311-21.31 0-11.77-9.542-21.312-21.311-21.312-11.77 0-21.312 9.541-21.312 21.311s9.542 21.311 21.312 21.311zm37.402-5.876c7.701 0 13.943-6.243 13.943-13.943 0-7.7-6.242-13.943-13.943-13.943-7.7 0-13.943 6.242-13.943 13.943 0 7.7 6.243 13.943 13.943 13.943z" fill="#1280FF"/><path d="M164.039 22.652c.609-2.38 3.961-6.773 11.069-7.649 8.614-1.053 10.447 1.615 14.881 3.34 2.702 1.06 5.302.286 7.45-2.15l25.881-3.119s5.583 2.326 8.785 9.318c1.786 3.9 5.124 4.146 7.437 1.054 0 0-.561 17.637-.527 17.678.034.041-1.013-1.642-4.358-1.368-1.369.13-2.901 1.054-4.728 3.81-1.826 2.758-35.719-1.799-35.719-1.799a4.029 4.029 0 00-2.867-1.833 5.081 5.081 0 00-3.167.513l-1.369-2.477s2.456-.725 1.704-3.954c-.753-3.23-3.784-.431-3.784-.431a96.497 96.497 0 01-9.201-5.254c-5.371-3.455-6.534-5.159-6.534-5.159a47.671 47.671 0 01-3.701 4.105c-.199.15-.472.082-.684-.212-.212-.294-1.3-1.553-.568-4.413z" fill="#1280FF"/><path d="M169.266 42.096a2.627 2.627 0 004.72-.465.342.342 0 00-.498-.387.35.35 0 00-.165.202 1.928 1.928 0 01-3.462.3c-.233-.369-.828 0-.595.35zm.609-7.93l-1.068 2.49-.15.357a.357.357 0 00.123.465.349.349 0 00.472-.123l1.06-2.463.151-.356a.34.34 0 00-.14-.437.341.341 0 00-.448.095v-.028zm4.529.267a1.64 1.64 0 011.149-.349h.267c.107.025.212.057.315.096h.034c.03.008.057.022.082.041.048.023.094.05.137.082l.061.041a.735.735 0 01.137.123c.315.308.801-.177.486-.485a2.417 2.417 0 00-3.045-.226.36.36 0 00-.152.212.36.36 0 00.029.26.355.355 0 00.472.123l.028.082zm-6.253-.745a2.554 2.554 0 00-2.737.41.338.338 0 00-.101.243.349.349 0 00.101.243.348.348 0 00.479 0s.102-.082.068-.062l.13-.089c.076-.05.156-.093.24-.13h.095l.13-.04.288-.07c-.048 0 .055 0 0 0h.205c.098-.01.196-.01.294 0h.199l.15.049h.069c-.076 0 .054 0 0 0a.348.348 0 00.465-.123.331.331 0 00.044-.126.332.332 0 00-.167-.34l.048.035zm16.884.102a1.78 1.78 0 012.142-.684 1.961 1.961 0 011.115 2.1 3.424 3.424 0 01-3.133 3.01c-.438 0-.438.685 0 .685a4.148 4.148 0 003.591-2.689 3.292 3.292 0 000-2.538 2.434 2.434 0 00-3.338-1.087 2.436 2.436 0 00-.938.888c-.232.377.356.685.589.35l-.028-.035zm-8.285 19.26a7.287 7.287 0 005.713 5.041 10.95 10.95 0 006.363-1.218 12.75 12.75 0 005.356-4.556 8.498 8.498 0 001.321-3.168c.061-.43-.595-.615-.684-.184-.404 2.688-2.566 5.07-4.789 6.451-3.168 1.984-7.663 3.243-10.742.418a6.573 6.573 0 01-1.895-2.963.35.35 0 00-.431-.253.353.353 0 00-.253.431h.041z" fill="#313131"/><path d="M179.487 91.628c.137 1.218 1.279 1.588 2.34 1.806 1.06.22 2.134.274 3.202.438a19.96 19.96 0 012.668.684c1 .333 2.022.598 3.058.794 1.006.164 2.052.192 3.044.287 2.525.233 5.043.507 7.574.685 2.668.212 5.35.355 8.032.328 2.147.08 4.295-.14 6.383-.65a11.671 11.671 0 007.245-5.767c1.628-3.243 1.553-7.02.534-10.434-1.088-3.633-2.922-7.149-4.598-10.536a88.682 88.682 0 00-6.629-11.274 16.89 16.89 0 00-3.756-4.27 22.589 22.589 0 00-4.953-2.62 44.327 44.327 0 00-5.474-1.778c-1.833-.48-3.81-.685-5.377-1.813-1.567-1.13-2.217-2.737-2.983-4.359-.684-1.43-1.327-2.86-1.977-4.296-.123-.267-.246-.534-.363-.8-.184-.404-.773-.055-.595.342 1.006 2.244 2.011 4.488 3.113 6.684a7.76 7.76 0 003.51 3.653c1.477.684 3.222.91 4.789 1.327 3.489.93 7.135 2.128 10.057 4.317 1.655 1.239 2.736 2.963 3.906 4.66a71.897 71.897 0 013.311 5.233 113.088 113.088 0 015.439 10.81c1.471 3.318 2.867 6.76 2.614 10.46a10.833 10.833 0 01-4.7 8.354c-3.462 2.305-7.738 2.21-11.733 2.114-5.268-.123-10.591-.636-15.825-1.232-2.155-.253-4.105-1.279-6.253-1.587-1.081-.15-2.169-.219-3.236-.458-.629-.137-1.553-.335-1.642-1.102-.048-.438-.732-.438-.684 0h-.041z" fill="#313131"/><path d="M205.327 78.903c-1.601-3.503-3.126-7.17-3.605-11.022a14.074 14.074 0 013.003-10.946c.274-.335-.205-.821-.486-.486a14.655 14.655 0 00-3.229 11.158c.438 4.106 2.053 7.93 3.729 11.631.185.404.773.055.588-.342v.007zm-45.66 4.851c-1.881.786-3.653 1.737-5.473 2.661-1.12.527-2.325.851-3.558.958a6.2 6.2 0 00-2.818.841 6.084 6.084 0 00-2.737 4.447c-.151 1.478.089 3.236 1.3 4.228 2.634 2.162 6.315 2.655 9.578 3.195 1.649.274 3.304.541 4.96.753 1.411.251 2.849.31 4.276.178a1.776 1.776 0 001.587-1.013 1.415 1.415 0 00-.643-1.614c-.684-.37-1.744-.185-2.504-.247a12.725 12.725 0 01-3.653-.91c-.411-.164-.589.5-.185.685a14.14 14.14 0 004.591.985 7.9 7.9 0 01.985.04c.616.103 1.177.774.424 1.219a3.95 3.95 0 01-1.916.287 50.88 50.88 0 01-7.936-1.026c-2.935-.486-5.918-.985-8.49-2.593-1.368-.842-1.738-2.053-1.704-3.64a5.404 5.404 0 012.778-4.556c.978-.52 2.053-.513 3.127-.684a9.828 9.828 0 002.914-.91c1.758-.903 3.476-1.834 5.295-2.6.404-.164.226-.828-.177-.684h-.021z" fill="#313131"/><path d="M158.265 88.94c.485-.466 1.026-.876 1.559-1.293a8.875 8.875 0 001.369-1.184.349.349 0 000-.486.343.343 0 00-.479 0c-.415.44-.873.837-1.368 1.184-.534.417-1.068.828-1.56 1.293-.322.308.164.787.485.486h-.006z" fill="#313131"/><path d="M160.775 92.36c1.588.368 3.204.597 4.83.684a23.92 23.92 0 002.429.048 2.735 2.735 0 001.717-.417c1.205-.999 0-2.456-1.245-2.525a45.323 45.323 0 01-5.665-.855 59.67 59.67 0 00-7.525-1.033c-.445 0-.438.684 0 .684a59.69 59.69 0 017.218.979c1.882.427 3.79.729 5.712.903.493 0 1.074.054 1.266.63.192.574-.417.868-.91.923a16.99 16.99 0 01-2.36 0 27.359 27.359 0 01-5.275-.684c-.424-.103-.609.554-.185.684l-.007-.02z" fill="#313131"/><path d="M160.775 92.36c1.587.523 3.217.9 4.872 1.13.51.11 1.026.19 1.546.239.609.004 1.217.05 1.82.136.177.017.349.075.499.171.246.247.082.808-.109 1.027-.274.321-.849.24-1.225.253a51.853 51.853 0 01-3.571 0 28.834 28.834 0 01-3.914-.383c-.431-.076-.615.581-.178.684 2.628.425 5.294.56 7.95.403.491.05.981-.092 1.369-.396a1.606 1.606 0 00.26-1.895c-.295-.459-.965-.507-1.444-.561-.629-.069-1.273 0-1.895-.124a30.652 30.652 0 01-5.809-1.306c-.41-.15-.595.506-.184.684l.013-.062z" fill="#313131"/><path d="M160.543 95.549c1.963.307 3.913.786 5.89.978a9.66 9.66 0 011.615.226.989.989 0 01.458.198.736.736 0 01-.061.787 1.688 1.688 0 01-1.403.424c-.616 0-1.238 0-1.861-.041a16.698 16.698 0 01-5.22-.89c-.417-.15-.595.507-.184.685a16.9 16.9 0 005.213.91c.725 0 1.457.068 2.182.047a2.519 2.519 0 001.581-.451 1.467 1.467 0 00.437-1.621 1.361 1.361 0 00-1.046-.685 13.387 13.387 0 00-1.882-.253 19.195 19.195 0 01-1.861-.294 93.77 93.77 0 00-3.68-.636c-.431-.069-.616.588-.178.684v-.069zm19.71-14.217c.185-.513 1.204-.643 1.649-.732a17.683 17.683 0 012.47-.26 50.317 50.317 0 005.363-.377 59.857 59.857 0 017.677-.28c2.558 0 5.117-.103 7.676-.144a.342.342 0 100-.684c-2.737.048-5.535.117-8.306.158h-4.221a33.03 33.03 0 00-4.03.424c-1.874.26-3.769.11-5.651.321-1.012.11-2.873.22-3.284 1.369-.15.417.507.595.685.178l-.028.027zm-28.064-9.079a10.5 10.5 0 01-5.281-1.416 2.473 2.473 0 01-2.053 1.095 2.516 2.516 0 01-2.511-2.511 2.5 2.5 0 01.999-1.984 10.535 10.535 0 0113.82-15.01 2.468 2.468 0 013.573-.044c.463.468.724 1.101.724 1.76a2.464 2.464 0 01-.603 1.622 10.433 10.433 0 011.848 5.952 10.55 10.55 0 01-10.516 10.536zm-5.541-2.38l.321.205a9.853 9.853 0 0013.191-14.149l-.178-.246.226-.205a1.786 1.786 0 00.588-1.369 1.818 1.818 0 00-1.251-1.728 1.818 1.818 0 00-2.033.648l-.178.246-.267-.15a9.85 9.85 0 00-14.752 7.882 9.849 9.849 0 001.753 6.293l.212.315-.328.184a1.816 1.816 0 00-.945 1.361 1.822 1.822 0 001.287 1.99 1.82 1.82 0 002.162-.97l.192-.308z" fill="#313131"/><path d="M149.61 62.299a.384.384 0 000-.096.976.976 0 00-.597-.903.969.969 0 00-1.061.21.973.973 0 00.151 1.497c.161.106.35.162.542.16h.096a.966.966 0 01.869-.868zm6.876-7.095v-.102a.976.976 0 00-.968-.89.971.971 0 00-.968.89.972.972 0 00.599.922c.12.05.249.076.379.076h.096a.955.955 0 01.862-.896zm-3.92 3.811c0-.034.041-.055 0 0v-.041l.041-.082.061-.069.069-.061h.034l.157-.096h.041c-.082 0 .034 0 0 0h.219c-.089 0 .041 0 0 0h.287a.357.357 0 00.435-.25.356.356 0 00-.25-.434c-.34-.1-.705-.063-1.019.102a1.365 1.365 0 00-.684.76.338.338 0 00.119.364.33.33 0 00.12.06.354.354 0 00.417-.24l-.047-.013zm1.45 3.742a2.429 2.429 0 002.306-.465 2.396 2.396 0 00.752-2.23.342.342 0 00-.417-.24.356.356 0 00-.24.424 1.75 1.75 0 01-.082.855 1.669 1.669 0 01-2.134 1c-.424-.13-.602.526-.185.684v-.028zM141.749 79.58c4.851 3.88 12.034 6.055 18.185 4.79.431-.083.246-.746-.178-.685a20.05 20.05 0 01-9.181-.547 23.118 23.118 0 01-8.34-4.07c-.342-.274-.828.205-.486.478v.034zm29.624-12.321c1.833 1.69 2.86 4.337 3.503 6.69.234.851.417 1.715.547 2.587.074.335.111.677.11 1.02l.581-.24c-.294-.329-.773.157-.479.479a.342.342 0 00.582-.24 5.17 5.17 0 00-.13-1.163 22.224 22.224 0 00-.589-2.736c-.684-2.422-1.758-5.125-3.639-6.842-.322-.3-.808.185-.486.486v-.041zm37.977 56.873h-46.392v-.684h46.392c3.462 0 5.856-2.737 7.526-8.518.089-.301 8.839-29.418 9.845-32.941a5.117 5.117 0 00-.753-4.591 4.384 4.384 0 00-3.366-1.82h-1.211v-.684h1.225a5.092 5.092 0 013.913 2.093 5.803 5.803 0 01.862 5.193c-1.006 3.503-9.756 32.648-9.845 32.942-1.792 6.144-4.399 9.01-8.196 9.01zM146.709 97.15c-2.093-1.54-4.871-4.065-4.871-8.21a10.99 10.99 0 012.292-6.753l.547.417a10.267 10.267 0 00-2.155 6.336c0 2.935 1.416 5.288 4.598 7.635l-.411.574zm24.24-73.889l5.562 2.648c.397.191.746-.397.342-.589l-5.528-2.66c-.397-.192-.739.403-.342.594l-.034.007zm30.91 21.496a20.057 20.057 0 0023.596-3.872c.301-.322-.185-.807-.486-.486a19.366 19.366 0 01-22.768 3.77c-.383-.212-.732.383-.342.588zm40.33-5.624a9.294 9.294 0 007.608 2.55 9.3 9.3 0 006.759-4.322c.24-.369-.355-.684-.588-.342a8.6 8.6 0 01-13.286 1.628c-.322-.3-.807.178-.486.486h-.007z" fill="#313131"/><path d="M245.747 37.334a4.035 4.035 0 005.699 0c.301-.315-.185-.8-.486-.479a3.345 3.345 0 01-4.727 0c-.301-.321-.787.164-.486.486v-.007zm-42.732 4.468a10.622 10.622 0 005.651 1.69.341.341 0 100-.685 9.962 9.962 0 01-5.33-1.594c-.369-.24-.684.35-.342.589h.021zm-10.153-10.235l4.57.335c.438 0 .438-.684 0-.684l-4.57-.335c-.438 0-.438.684 0 .684zm4.912-2.647a18.472 18.472 0 008.21-3.148c.363-.246 0-.841-.342-.588a17.837 17.837 0 01-7.895 3.05c-.431.056-.438.74 0 .685h.027zm41.405.02a6.99 6.99 0 015.015-2.36c.438 0 .445-.685 0-.685a7.684 7.684 0 00-5.473 2.566c-.288.328.191.814.485.479h-.027zm-14.196-6.705l2.408 2.51a.349.349 0 00.243.102.345.345 0 00.243-.101.349.349 0 000-.486l-2.408-2.51a.35.35 0 00-.486 0 .354.354 0 000 .485zm-29.172 30.479a14.869 14.869 0 01-10.406 7.443c-.431.069-.253.732.178.685a15.486 15.486 0 0010.843-7.759c.213-.383-.376-.732-.588-.342l-.027-.027zm-20.073-30.37l2.887 1.369a.363.363 0 00.472-.123.358.358 0 00-.123-.473l-2.894-1.368a.349.349 0 00-.51.249.332.332 0 00.067.252.333.333 0 00.101.087v.007zm2.244 36.246a6.006 6.006 0 003.55 2.149.357.357 0 00.425-.24.342.342 0 00-.24-.417 5.534 5.534 0 01-3.256-1.977.343.343 0 00-.479 0 .35.35 0 000 .486zm26.579 20.956a14.644 14.644 0 016.842 1.683c.383.212.725-.376.342-.588a15.31 15.31 0 00-7.184-1.772.342.342 0 100 .684v-.007zm-20.956 1.929h2.32a.35.35 0 00.342-.341.342.342 0 00-.342-.343h-2.32a.34.34 0 00-.342.343.34.34 0 00.342.342zm1.41 3.921h2.278a.341.341 0 100-.684h-2.278a.342.342 0 100 .684zm-.116 1.861l2.394.061a.35.35 0 00.342-.342.343.343 0 00-.342-.342l-2.394-.062a.35.35 0 00-.343.342.341.341 0 00.343.342zm-.295 2.538h1.642a.341.341 0 100-.684h-1.642a.342.342 0 000 .684zm-9.133-34.645c.202.613.541 1.172.992 1.635a.35.35 0 00.243.1.337.337 0 00.338-.34.35.35 0 00-.095-.24l-.281-.32-.068-.097c-.041-.054-.075-.116-.117-.178a3.783 3.783 0 01-.191-.362.651.651 0 01-.048-.103v-.04l-.082-.206a.354.354 0 00-.684.178l-.007-.028zm29.863 41.589c.533 1.8.726 3.684.568 5.555 0 .438.684.438.684 0a15.602 15.602 0 00-.588-5.733.354.354 0 00-.684.178h.02zm-46.721 18.882l-4.426-4.501a.339.339 0 00-.235-.084.348.348 0 00-.23.098.345.345 0 00-.021.465l4.427 4.501a.339.339 0 00.464-.014.341.341 0 00.021-.465zm-.923 1.163h-2.921a.339.339 0 00-.242.101.338.338 0 000 .483.339.339 0 00.242.101h2.921a.342.342 0 000-.685zm30.787-21.906a2.777 2.777 0 01-.438 2.052.345.345 0 00-.001.402.344.344 0 00.382.125.347.347 0 00.207-.184 3.414 3.414 0 00.506-2.573.359.359 0 00-.165-.215.353.353 0 00-.484.13.357.357 0 00-.035.27l.028-.007zm-1.759-.841c.004.063.004.127 0 .191a.129.129 0 000 .048c0-.082 0 .041 0 0v.116c-.029.171-.067.34-.116.507a6.965 6.965 0 01-.164.478v.048a.43.43 0 00-.048.096c0 .055-.062.11-.096.164a.342.342 0 00.123.465.342.342 0 00.466-.123 4.657 4.657 0 00.574-1.97.349.349 0 00-.342-.342.35.35 0 00-.342.342l-.055-.02zm-29.705 50.141a17.6 17.6 0 005.794-2.162.344.344 0 10-.349-.595 16.934 16.934 0 01-5.63 2.1c-.431.075-.246.739.185.684v-.027zm-.452-3.626a30.877 30.877 0 005.795-1.266c.417-.13.239-.793-.178-.684a30.247 30.247 0 01-5.617 1.238c-.431.048-.431.732 0 .685v.027z" fill="#313131"/><path d="M123.831 150.821s-3.14 3.332-3.154 7.348c0 3.037-1.115 4.823-5.363 5.938-1.321.342-2.901-.034-4.892.199-1.991.232-3.79.752-7.156 1.231a36.57 36.57 0 01-11.836-.369c-2.49-.555-5.015-1.177-4.79-3.859.138-1.895 2.108-3.072 4.92-4.153 3.078-1.183 8.12-2.784 9.701-3.633a28.115 28.115 0 009.462-8.305l6.157 3.058 6.951 2.545z" fill="#1280FF"/><path d="M124.905 151.279c-1.963 0-4.741-1.197-8.935-3.003-5.596-2.408-7.689-4.105-7.231-5.85a1.972 1.972 0 011.006-1.258c.419-.226.893-.33 1.368-.301.985-2.381 8.641-21.011 10.481-27.77 1.957-7.163 3.667-9.783 5.042-11.891l.096-.157c3.236-4.967 6.712-5.09 15.106-5.391 1.238-.048 2.586-.096 4.057-.164l.034.684c-1.477.068-2.825.116-4.064.164-8.38.301-11.521.41-14.558 5.077l-.103.157c-1.368 2.052-3.024 4.638-4.946 11.699-1.971 7.231-10.529 27.893-10.611 28.105l-.124.294-.307-.103a1.836 1.836 0 00-1.15.199 1.28 1.28 0 00-.684.834c-.233.876.335 2.251 6.841 5.049 6.158 2.648 8.942 3.756 10.502 2.258 1.259-1.204.472-2.189.376-2.292l-.164-.191.13-.212 6.465-10.81a74.194 74.194 0 005.268-10.796l.623-1.587.636.246-.622 1.594a75.732 75.732 0 01-5.316 10.892l-6.356 10.625c.294.479.814 1.703-.568 3.024a3.128 3.128 0 01-2.292.875z" fill="#313131"/><path d="M115.409 143.227a19.551 19.551 0 005.248 3.229.336.336 0 00.262-.031.343.343 0 00.162-.208.357.357 0 00-.239-.418 18.857 18.857 0 01-4.954-3.051c-.328-.287-.814.198-.479.479zm2.128-1.813a35.557 35.557 0 004.598 3.681c.369.246.684-.349.348-.589a34.654 34.654 0 01-4.46-3.571c-.322-.301-.807.178-.486.479zm55.45-62.128a35.293 35.293 0 00-1.128-2.408 9.861 9.861 0 01-.589-1.314c-.13-.424-.438-2.291.746-1.683a7.806 7.806 0 011.669 1.752 51.78 51.78 0 011.854 2.23 19.38 19.38 0 001.704 2.094c.664.623 1.396 1.17 2.182 1.628a6.16 6.16 0 012.142 1.8c.564.894.861 1.931.855 2.989 0 1.587-.903 3.92-2.566 4.44a12.315 12.315 0 01-4.994.13c-2.052-.253-3.989-.89-6.014-1.177-1.902-.266-3.797-.506-5.685-.828-.684-.116-2.052-.116-2.388-.8-.465-.923 1.369-1.04 1.895-1.04 1.834 0 3.668.547 5.474.301.431-.055.431-.746 0-.684-2.053.274-4.105-.472-6.158-.274-.684.069-1.573.26-1.895.972a1.183 1.183 0 00.205 1.293c.548.623 1.485.684 2.251.828 1.033.178 2.053.342 3.1.492 1.368.199 2.777.35 4.159.582 1.382.233 2.559.616 3.852.848 1.963.35 4.214.589 6.157.062 1.731-.459 2.805-2.395 3.134-4.044a5.962 5.962 0 00-1.971-5.671c-.923-.732-2.018-1.204-2.921-1.97a17.849 17.849 0 01-2.258-2.662 48.398 48.398 0 00-2.736-3.174c-.493-.513-1.109-1.232-1.895-.842-.979.48-.883 1.731-.609 2.593.41 1.293 1.19 2.47 1.717 3.715.164.404.828.226.684-.178h.027z" fill="#313131"/><path d="M168.739 80.914c-1.834-.342-3.612-.923-5.425-1.368-.821-.198-1.663-.294-2.484-.465-.821-.171-.465-1.013.11-1.211.47-.113.955-.148 1.436-.103.783.026 1.563.111 2.333.254 1.136.177 2.278.294 3.421.513a43.092 43.092 0 016.937 2.052c.411.157.589-.506.178-.684a40.442 40.442 0 00-8.62-2.32c-1.026-.143-2.053-.32-3.093-.444a6.298 6.298 0 00-3.03.15 1.424 1.424 0 00-.684 1.8c.335.82 1.368.684 2.052.834 2.258.431 4.433 1.211 6.691 1.629.431.082.609-.575.178-.684v.047z" fill="#313131"/><path d="M168.65 80.9c-1.704-.122-3.38-.499-5.07-.752a20.157 20.157 0 00-2.319-.24 3.462 3.462 0 00-2.388.514 1.562 1.562 0 00-.485 1.724c.301.684 1.067.752 1.731.82a33.88 33.88 0 013.927.794 19.7 19.7 0 004.406.746.34.34 0 00.342-.342.34.34 0 00-.342-.342 14.951 14.951 0 01-3.243-.5c-1.245-.273-2.477-.58-3.729-.827a14.67 14.67 0 00-1.444-.22c-.348-.033-.868-.04-1.033-.416a.911.911 0 01.384-.972c.602-.43 1.559-.322 2.257-.28.698.04 1.478.157 2.21.273 1.594.253 3.181.589 4.789.684.438 0 .438-.684 0-.684l.007.02z" fill="#313131"/><path d="M168.452 83.822c-1.369 0-2.778-.103-4.153-.212-.684-.048-1.328-.11-1.984-.171a7.59 7.59 0 00-1.8-.11 1.667 1.667 0 00-1.197.856 1.411 1.411 0 00.082 1.368 1.83 1.83 0 001.184.821c.684.178 1.368.287 2.052.404 1.833.32 3.68.549 5.535.684.438 0 .438-.684 0-.684a54.05 54.05 0 01-4.29-.459 59.226 59.226 0 01-1.922-.321 5.022 5.022 0 01-1.683-.445.888.888 0 01-.37-.965 1.061 1.061 0 011.143-.527c1.156.069 2.306.226 3.462.315 1.307.096 2.62.185 3.941.192a.34.34 0 00.342-.342.341.341 0 00-.342-.342v-.062zm-49.259 37.122H32.347v.684h86.846v-.684zm132.013 0H214.55v.684h36.656v-.684z" fill="#313131"/><path d="M102.192 121.095h-9.4a5.17 5.17 0 01-5.173-5.166v-18.37h19.745v4.338h-.684v-3.653H88.303v17.692a4.488 4.488 0 004.488 4.481h9.401a4.49 4.49 0 004.488-4.481h.684a5.163 5.163 0 01-5.172 5.165v-.006z" fill="#313131"/><path d="M107.364 105.14h-.684v6.999h.684v-6.999z" fill="#313131"/><path d="M107.111 102.226a4.458 4.458 0 014.542 1.197c1.369 1.423 1.916 3.564 1.93 5.473a7.657 7.657 0 01-1.806 5.213c-1.191 1.369-2.901 2.19-4.666 1.465-.404-.165-.582.499-.178.684 1.902.78 3.838-.062 5.179-1.478a8.356 8.356 0 002.155-5.863c0-2.155-.63-4.516-2.203-6.062a5.17 5.17 0 00-5.131-1.3c-.418.137-.24.794.178.684v-.013z" fill="#313131"/><path d="M107.364 105.359c.041-1.19 1.471-1.081 2.052-.335.766.958.842 2.36.855 3.53a6.144 6.144 0 01-.595 3.14 2.189 2.189 0 01-1.156 1.061.84.84 0 01-.776-.063.839.839 0 01-.387-.676c0-.445-.684-.445-.684 0-.062 1.122 1.19 1.724 2.155 1.368a3.63 3.63 0 001.956-2.736 10.448 10.448 0 000-3.886c-.191-1.129-.684-2.463-1.86-2.894a1.86 1.86 0 00-.823-.1 1.863 1.863 0 00-.785.264 1.47 1.47 0 00-.684 1.368c0 .438.684.438.684 0l.048-.041z" fill="#313131"/><path d="M89.48 103.594h16.03v12.027a2.939 2.939 0 01-2.935 2.935h-10.16a2.936 2.936 0 01-2.935-2.935v-12.027z" fill="#FFA800"/><path d="M15.051 50.313a1.253 1.253 0 110-2.506 1.253 1.253 0 010 2.505zm0-1.82a.568.568 0 100 1.135.568.568 0 000-1.135zm93.777 31.744a1.254 1.254 0 01-1.236-1.492 1.254 1.254 0 011.707-.917 1.251 1.251 0 01-.471 2.41zm0-1.82a.57.57 0 000 1.136.567.567 0 000-1.136zM190.789 5.87a1.249 1.249 0 01-1.162-.768 1.263 1.263 0 01-.074-.724 1.253 1.253 0 111.236 1.492zm0-1.82a.565.565 0 00-.529.346.57.57 0 00.118.621.57.57 0 00.876-.083.565.565 0 00-.068-.715.568.568 0 00-.397-.169zm33.147 57.612a1.25 1.25 0 01-1.157-.772 1.258 1.258 0 01.913-1.707 1.25 1.25 0 011.129 2.113 1.25 1.25 0 01-.885.366zm0-1.82a.567.567 0 100 1.134.567.567 0 000-1.133zM99.16 92.107l-.553-.39c-.041 0-4.276-3.051-2.552-6.841a13.446 13.446 0 00.999-6.958l-.165-.992.74.684c.163.157 4.036 3.838 2.695 7.526a19.154 19.154 0 00-1.177 6.3l.014.671zm-1.326-13.272a13.915 13.915 0 01-1.15 6.321c-1.163 2.552.8 4.707 1.8 5.583.114-1.996.52-3.964 1.204-5.843.882-2.367-.849-4.85-1.855-6.061z" fill="#313131"/></g><defs><clipPath id="clip0_3202_4107"><path fill="#fff" d="M0 0h264v167.206H0z"/></clipPath></defs></svg>