<svg width="294" height="167" fill="none" xmlns="http://www.w3.org/2000/svg"><g clip-path="url(#clip0_5205_2457)"><path d="M208.286 10.767a28.168 28.168 0 0112.356 2.415 4.304 4.304 0 004.577-.868 19.64 19.64 0 0129.815 3.646c.164.246.322.5.472.76.814 1.183 2.668 3.38 5.508 3.865 3.42.588 5.528-2.99 5.528-2.99v.103a15.015 15.015 0 0124.247.432 15.017 15.017 0 01-24.487 17.39.167.167 0 000-.055 8.083 8.083 0 01-.438-.684 5.86 5.86 0 00-4.885-2.052c-3.345.061-5.473 3.934-5.473 3.934a19.655 19.655 0 01-31.847 2.736c-1.69-1.984-6.636-4.515-8.408-2.6l-3.455-3.229s3.126-3.633 1.368-6.061c-1.758-2.43-2.695-2.217-2.695-2.217l-2.593.376s-1.129 1.991-1.027 1.793c.103-.199-3.085.198-3.762-2.443-.999-3.893-8.032-4.303-9.51-4.672-.014.054-.014-8.84 14.709-9.579z" fill="#1280FF"/><path d="M193.331 20.16c-.883.918-.459 2.518-.254 3.627a38.68 38.68 0 001.499 4.926c.547 1.683.759 3.284-.144 4.864-.492.869-1.204 1.84-1.142 2.887.075 1.259 1.327 1.69 2.237 2.272 1.211.773 1.963 2.052 2.736 3.229a10.629 10.629 0 002.443 3.03 4.32 4.32 0 003.421.685c2.736-.507 5.144-2.97 5.897-5.624a.356.356 0 00-.388-.444.36.36 0 00-.235.135.359.359 0 00-.061.124 7.533 7.533 0 01-4.96 5.042 3.75 3.75 0 01-3.784-.903 15.96 15.96 0 01-2.052-2.887 10.434 10.434 0 00-1.991-2.483c-.787-.684-2.566-1.115-2.538-2.333 0-1.013.862-1.95 1.3-2.812a5.017 5.017 0 00.438-3.01c-.233-1.642-.958-3.154-1.437-4.728a18.7 18.7 0 01-.561-2.285c-.137-.746-.506-2.175.102-2.812.301-.314-.177-.8-.485-.479l-.041-.02z" fill="#313131"/><path d="M199.426 37.545c0 .082-.041.157-.068.24l-.041.123v.102l-.055.11c-.034.075-.082.143-.123.219l-.144.198a.185.185 0 01-.047.055.974.974 0 01-.076.096c-.118.123-.244.24-.376.348a.328.328 0 000 .48.342.342 0 00.479 0 3.349 3.349 0 001.177-1.848.356.356 0 00-.24-.424.347.347 0 00-.417.24l-.069.061zm-2.558-6.855l.15.465a.39.39 0 00.158.205.429.429 0 00.26.041.35.35 0 00.208-.162.36.36 0 00.042-.128.358.358 0 00-.011-.134l-.144-.465a.347.347 0 00-.157-.198.227.227 0 00-.13-.041.193.193 0 00-.137 0 .313.313 0 00-.205.157.335.335 0 00-.034.26zm1.792-4.14a4.241 4.241 0 00-3.051.206.333.333 0 00-.168.34.348.348 0 00.51.249 3.591 3.591 0 012.531-.137c.418.13.602-.527.178-.685v.028zm8.49 1.184a2.527 2.527 0 012.833-2.052 3.594 3.594 0 012.695 1.676 3.854 3.854 0 01.226 3.496c-.376 1.102-.889 2.32-2.004 2.846-.397.185-.048.773.349.588a4.32 4.32 0 001.997-2.414 5.83 5.83 0 00.568-3.585 4.275 4.275 0 00-4.707-3.243 3.064 3.064 0 00-2.6 2.504c-.054.43.602.615.685.184h-.042z" fill="#313131"/><path d="M209.429 26.804a1.913 1.913 0 00-1.28 1.498c-.14.801-.14 1.62 0 2.422a.355.355 0 00.684-.185 6.58 6.58 0 01-.047-1.936 1.293 1.293 0 01.827-1.136.355.355 0 00-.184-.684v.02zm1.286 2.873v.11a.097.097 0 000 .048c0-.055 0 .075 0 0a2.05 2.05 0 01-.048.219c0 .04 0 .082-.034.116v.055a.425.425 0 00-.048.095c0 .041 0 .076-.055.11l-.061.089a.868.868 0 00-.069.103s.034-.048 0 0l-.041.047-.082.09a.942.942 0 01-.171.15c.034 0 .041 0 0 0l-.055.034a.386.386 0 01-.102.069.34.34 0 00-.125.471.346.346 0 00.212.158.341.341 0 00.262-.041 2.282 2.282 0 001.115-1.909.343.343 0 00-.342-.342.347.347 0 00-.342.342l-.014-.014zm4.18 7.266a14.951 14.951 0 001.505 3.927c.26.479.541.958.814 1.43.103.178.212.349.308.534.096.184.158.3.178.355.157.404.821.226.684-.184a21.97 21.97 0 00-1.286-2.327 14.62 14.62 0 01-1.526-3.92c-.089-.424-.752-.246-.684.185h.007zM137.073 7.518a5.118 5.118 0 004.296-.808 3.85 3.85 0 001.369-2.12 9.195 9.195 0 00.164-2.56.343.343 0 10-.684 0c.062.767.02 1.538-.123 2.293a3.194 3.194 0 01-1.122 1.847 4.377 4.377 0 01-3.695.684c-.424-.103-.609.554-.185.684l-.02-.02z" fill="#313131"/><path d="M142.19 1.689c-.017.906.072 1.81.267 2.695a4.323 4.323 0 001.41 2.217 5.257 5.257 0 004.063 1.033c.438-.068.254-.732-.177-.684h-.295a5.275 5.275 0 01-.869 0 4.108 4.108 0 01-2.285-.89 3.843 3.843 0 01-1.211-2.004 11.46 11.46 0 01-.198-2.367c0-.438-.684-.438-.684 0h-.021zm-3.55 5.972a3.006 3.006 0 012.675 1.369c.318.443.55.942.684 1.47.032.11.057.223.075.336.068.328 0-.048 0 .096v.266c.048 1 .062 2.005.075 3.004a.341.341 0 10.684 0c0-1.074 0-2.169-.088-3.243-.185-2.052-1.93-4.18-4.105-4.002-.438.034-.438.718 0 .684v.02z" fill="#313131"/><path d="M142.854 14.222v-2.586c-.007-.63.151-1.25.458-1.799a3.616 3.616 0 011.854-1.751 9.643 9.643 0 012.416-.438c.431-.048.437-.732 0-.684a9.936 9.936 0 00-2.648.485c-.879.35-1.613.99-2.08 1.813a4.16 4.16 0 00-.684 2.053c-.062.958 0 1.93 0 2.887a.343.343 0 00.684 0v.02zm-37.799 95.261a3.931 3.931 0 003.325-.629 2.939 2.939 0 001.033-1.635 6.989 6.989 0 00.13-1.957c0-.438-.684-.438-.684 0a6.861 6.861 0 01-.089 1.711 2.297 2.297 0 01-.828 1.368 3.223 3.223 0 01-2.703.499c-.431-.102-.608.554-.184.684v-.041z" fill="#313131"/><path d="M108.852 105.043c-.011.69.058 1.379.205 2.053a3.352 3.352 0 001.081 1.71 4.063 4.063 0 003.154.801.345.345 0 00.226-.459.354.354 0 00-.164-.206.354.354 0 00-.261-.033h-.218a5.22 5.22 0 01-.685 0 2.98 2.98 0 01-1.655-.684 2.74 2.74 0 01-.89-1.478 8.365 8.365 0 01-.15-1.758c0-.438-.684-.438-.684 0l.041.054zm-2.593 4.55a2.214 2.214 0 011.95 1.012c.228.33.395.699.492 1.088 0 .082.041.164.055.253.055.254 0-.061 0 .048v.206c.041.752.048 1.512.062 2.264a.342.342 0 10.684 0c0-.814 0-1.635-.069-2.442-.137-1.588-1.491-3.25-3.195-3.113-.438.041-.438.725 0 .684h.021z" fill="#313131"/><path d="M109.522 114.464v-1.957c-.006-.457.11-.908.335-1.306a2.63 2.63 0 011.369-1.287 6.96 6.96 0 011.792-.328c.438-.041.445-.725 0-.684a7.443 7.443 0 00-2.011.369 3.24 3.24 0 00-1.628 1.423 3.328 3.328 0 00-.514 1.594c-.041.685 0 1.451 0 2.176a.341.341 0 10.685 0h-.028zM.88 40.966a3.92 3.92 0 003.317-.63 2.949 2.949 0 001.04-1.655 7.525 7.525 0 00.13-1.957c0-.438-.684-.438-.684 0a6.506 6.506 0 01-.096 1.71 2.319 2.319 0 01-.82 1.369 3.236 3.236 0 01-2.737.5c-.425-.11-.61.553-.178.683l.027-.02z" fill="#313131"/><path d="M4.67 36.492a8.97 8.97 0 00.205 2.052 3.373 3.373 0 001.087 1.71 4.044 4.044 0 003.147.8.335.335 0 00.24-.417.342.342 0 00-.417-.239s.109 0 0 0h-.22a5.277 5.277 0 01-.684 0 3.017 3.017 0 01-1.655-.684 2.846 2.846 0 01-.89-1.478 9.388 9.388 0 01-.13-1.744c0-.438-.684-.438-.684 0zm-2.594 4.583a2.203 2.203 0 011.978 1.026c.23.33.4.699.499 1.088 0 .082 0 .164.055.253.054.254 0-.061 0 .048v.206c0 .752.048 1.512.054 2.264 0 .438.685.438.685 0 0-.814 0-1.635-.069-2.442-.137-1.588-1.491-3.25-3.195-3.113-.43.04-.438.725 0 .684l-.007-.014z" fill="#313131"/><path d="M5.34 45.947V43.99a2.654 2.654 0 01.335-1.307 2.63 2.63 0 011.368-1.286 6.956 6.956 0 011.8-.328c.43-.042.437-.726 0-.685a7.525 7.525 0 00-2.053.35 3.27 3.27 0 00-1.628 1.422 3.243 3.243 0 00-.506 1.594c-.048.684 0 1.45 0 2.176a.342.342 0 10.684 0v.02zm274.98 23.521a5.078 5.078 0 004.297-.808 3.802 3.802 0 001.368-2.12 9.429 9.429 0 00.164-2.56c0-.437-.684-.437-.684 0a8.902 8.902 0 01-.123 2.3 3.151 3.151 0 01-1.142 1.82 4.376 4.376 0 01-3.695.683c-.431-.102-.609.555-.185.684z" fill="#313131"/><path d="M285.431 63.611c-.014.906.075 1.81.267 2.696a4.402 4.402 0 001.409 2.216 5.284 5.284 0 004.071 1.034c.431-.069.246-.733-.185-.685h-.321a6.3 6.3 0 01-.869 0 4.183 4.183 0 01-2.279-.91 3.856 3.856 0 01-1.204-2.011 11.827 11.827 0 01-.205-2.36c0-.438-.684-.445-.684 0v.02zm-3.544 5.966a3.015 3.015 0 012.675 1.368c.312.445.543.94.684 1.464 0 .117.048.226.076.336.061.335 0-.041 0 .102v.267c.054.999.061 2.005.082 3.004a.343.343 0 00.684 0c0-1.081 0-2.17-.096-3.243-.178-2.053-1.922-4.187-4.105-4.01-.438 0-.438.685 0 .685v.027z" fill="#313131"/><path d="M286.101 76.145v-2.593a3.964 3.964 0 012.313-3.544 9.841 9.841 0 012.408-.445c.438-.04.438-.725 0-.684-.898.045-1.786.209-2.641.486a4.64 4.64 0 00-2.736 3.893c-.062.958 0 1.922 0 2.887a.343.343 0 00.684 0h-.028zm-23.699 27.742c.602.156 1.23.176 1.84.058a4.17 4.17 0 001.684-.742 3.072 3.072 0 001.101-1.731 7.56 7.56 0 00.137-2.052c0-.438-.684-.445-.684 0a7.13 7.13 0 01-.096 1.833 2.496 2.496 0 01-.889 1.451 3.42 3.42 0 01-2.908.54c-.431-.109-.609.554-.185.684v-.041z" fill="#313131"/><path d="M266.473 99.132a9.429 9.429 0 00.219 2.19 3.562 3.562 0 001.149 1.813 4.32 4.32 0 003.339.848.343.343 0 00.24-.424.356.356 0 00-.425-.24s.11 0 0 0h-.232a6.003 6.003 0 01-.684 0 3.238 3.238 0 01-1.779-.684 3.018 3.018 0 01-.958-1.587 9.196 9.196 0 01-.157-1.888c0-.438-.684-.438-.684 0l-.028-.028zm-2.791 4.871a2.387 2.387 0 012.1 1.088c.245.356.426.752.534 1.17 0 .089.034.178.055.267.054.274 0-.055 0 .062v.218c.041.801.054 1.608.068 2.416a.341.341 0 00.684 0c0-.869 0-1.745-.075-2.607-.151-1.683-1.581-3.421-3.387-3.298-.438.035-.438.719 0 .684h.021z" fill="#313131"/><path d="M267.144 109.223v-2.086a2.91 2.91 0 01.362-1.41 2.854 2.854 0 011.451-1.368 7.714 7.714 0 011.929-.349c.431-.041.438-.732 0-.684a8.136 8.136 0 00-2.148.39 3.807 3.807 0 00-2.265 3.195c-.048.773 0 1.553 0 2.326a.342.342 0 10.684 0l-.013-.014zM49.208 18.676a5.084 5.084 0 004.29-.814 3.81 3.81 0 001.367-2.114 9.234 9.234 0 00.171-2.566c0-.437-.684-.437-.684 0a9.187 9.187 0 01-.123 2.3 3.256 3.256 0 01-1.122 1.846 4.384 4.384 0 01-3.701.685.353.353 0 10-.178.684l-.02-.02z" fill="#313131"/><path d="M54.332 12.847c-.015.906.075 1.81.267 2.696a4.4 4.4 0 001.409 2.216 5.276 5.276 0 004.105 1.034c.43-.069.246-.733-.185-.685h-.321c-.292.02-.585.02-.876 0a4.104 4.104 0 01-2.272-.91 3.81 3.81 0 01-1.204-2.004c-.15-.78-.219-1.573-.205-2.367 0-.438-.684-.438-.684 0l-.034.02zm-3.544 5.993a3.017 3.017 0 012.675 1.369c.313.446.544.944.684 1.47 0 .11.048.22.069.329.068.335 0-.041 0 .103v.266c.047 1 .061 2.005.082 3.004a.342.342 0 10.684 0c0-1.074 0-2.169-.096-3.243-.178-2.053-1.93-4.187-4.105-4.01-.438.042-.445.726 0 .685l.007.027z" fill="#313131"/><path d="M55.002 25.38v-2.585c0-.629.157-1.248.459-1.8a3.64 3.64 0 011.854-1.751 9.966 9.966 0 012.415-.445c.43-.04.438-.725 0-.684-.898.047-1.785.21-2.641.486a4.639 4.639 0 00-2.737 3.893c-.061.958 0 1.929 0 2.887a.342.342 0 10.684 0h-.034zm75.907-7.36a4.591 4.591 0 003.886-.733 3.47 3.47 0 001.218-1.915 8.15 8.15 0 00.15-2.306.343.343 0 00-.684 0 7.977 7.977 0 01-.11 2.053 2.807 2.807 0 01-.998 1.669 3.9 3.9 0 01-3.278.609c-.431-.11-.615.554-.184.684v-.062z" fill="#313131"/><path d="M135.472 12.758c-.017.817.064 1.632.239 2.43.21.782.654 1.481 1.273 2.004a4.786 4.786 0 003.681.964.351.351 0 00.239-.424.346.346 0 00-.417-.24l-.288-.02c-.259.02-.52.02-.779 0a3.673 3.673 0 01-2.053-.807 3.423 3.423 0 01-1.074-1.786 10.409 10.409 0 01-.178-2.114c0-.438-.684-.438-.684 0l.041-.007zm-3.147 5.398a2.685 2.685 0 012.367 1.232c.278.398.482.843.602 1.313l.062.294c.061.302 0-.047 0 .083v.24c.048.895.054 1.798.068 2.695 0 .438.684.438.684 0 0-.965 0-1.943-.082-2.908-.164-1.854-1.744-3.79-3.728-3.633-.438.034-.445.718 0 .684h.027z" fill="#313131"/><path d="M136.136 24.006V21.68a3.552 3.552 0 012.052-3.147 8.748 8.748 0 012.155-.397c.431-.041.438-.725 0-.684a9.326 9.326 0 00-2.381.438 3.773 3.773 0 00-1.867 1.635 3.786 3.786 0 00-.602 1.86c-.055.862 0 1.731 0 2.593a.343.343 0 00.684 0l-.041.028zm92.23 16.96a20.337 20.337 0 0023.945-3.927c.301-.322-.184-.808-.485-.486a19.63 19.63 0 01-23.091 3.825c-.39-.206-.738.383-.348.588h-.021z" fill="#313131"/><path d="M229.536 37.997a10.78 10.78 0 005.754 1.71.34.34 0 00.342-.342.341.341 0 00-.342-.342 10.096 10.096 0 01-5.405-1.615c-.376-.24-.684.35-.349.589zm-5.316-13.095a18.802 18.802 0 008.34-3.188c.362-.246 0-.842-.342-.589a18.158 18.158 0 01-8.012 3.093c-.431.055-.431.739 0 .684h.014zm27.599-6.746l2.442 2.552c.308.322.787-.164.486-.486l-2.443-2.545c-.301-.321-.786.165-.485.48zm-52.981 75.01c-3.53-.513-7.081-.923-10.625-1.293a143.422 143.422 0 00-18.999-1.06c-2.155.062-4.501.123-6.547.882-2.162.794-4.208 2.388-5.952 3.846-2.798 2.332-5.159 5.117-7.786 7.635-2.449 2.339-4.98 4.604-7.525 6.841a751.68 751.68 0 01-7.745 6.718c-1.471 1.259-3.099 2.429-4.467 3.797l-.233.192.417-.055c-.937-.684-1.621 2.114-1.662 2.518-.315 2.928 1.635 5.802 3.701 7.683a13.511 13.511 0 007.026 3.332c.808.123 1.93.39 2.689 0 1.368-.746 2.689-1.656 4.023-2.477l5.199-3.195a112.612 112.612 0 004.871-3.147 65.686 65.686 0 004.789-3.66c.71-.527 1.368-1.12 1.964-1.772l6.958-8.436-.329.089a804.196 804.196 0 009.921 2.963c5.042 1.471 10.098 2.983 15.249 4.029a41.008 41.008 0 0011.583.979 29.701 29.701 0 0011.07-3.277 24.096 24.096 0 008.394-6.842 32.086 32.086 0 004.317-8.661 47.617 47.617 0 002.429-13.122 97.18 97.18 0 00-.636-17.213 74.56 74.56 0 00-3.544-16.044c-1.471-4.105-3.613-7.922-6.958-10.803a2.738 2.738 0 00-2.826-.643 22.971 22.971 0 00-7.984 4.105 11.408 11.408 0 00-2.736 3.421c-1.677 3.065-2.737 6.424-4.242 9.578a13.381 13.381 0 00-1.553 5.289 11.044 11.044 0 001.245 4.857 49.056 49.056 0 002.778 4.83c.232.376.821 0 .588-.342-1.827-2.962-4.372-6.43-3.859-10.112.274-1.956 1.252-3.687 2.053-5.473.684-1.478 1.245-2.996 1.874-4.495a33.001 33.001 0 012.272-4.666 10.55 10.55 0 013.037-3.14 23.441 23.441 0 014.037-2.23 20.072 20.072 0 011.97-.746 5.363 5.363 0 011.745-.383c.636.048 1.218.684 1.642 1.101.424.418.999 1.088 1.498 1.629a16.79 16.79 0 011.676 2.011 26.066 26.066 0 012.771 5.473 68.224 68.224 0 013.619 14.935 99.957 99.957 0 01.951 16.591c-.123 4.597-.499 9.346-1.929 13.745a44.664 44.664 0 01-2.655 6.779 21.884 21.884 0 01-7.334 8.21 29.837 29.837 0 01-10.453 4.475 31.96 31.96 0 01-11.46.089 128.118 128.118 0 01-15.633-3.797c-4-1.15-7.993-2.333-11.979-3.551l-.684-.219a.33.33 0 00-.329.089l-5.863 7.108-1.163 1.409a14.356 14.356 0 01-2.053 1.793 74.494 74.494 0 01-8.031 5.74 2712.643 2712.643 0 01-8.21 5.042l-1.868 1.15c-.171.102-.342.198-.499.307-.048.035-.356.185-.158.124.199-.062-.123 0-.191 0h-.835a13.682 13.682 0 01-2.737-.5 12.575 12.575 0 01-7.758-6.41 6.16 6.16 0 01-.684-3.968c.078-.386.219-.756.417-1.095.048-.075.206-.226.226-.308.062-.226.226.11-.082-.116a.356.356 0 00.217.046.352.352 0 00.2-.094 676.16 676.16 0 0010.146-8.689c2.634-2.305 5.261-4.625 7.834-7.006 2.374-2.189 4.549-4.535 6.841-6.807a35.75 35.75 0 017.526-5.829c1.717-.971 3.681-1.177 5.624-1.307 6.157-.403 12.355.158 18.472.74 4.214.403 8.401.97 12.595 1.477h.205c.431.062.616-.595.178-.684l-.041.02zm31.204 60.452c-1.081 0-2.1-.8-3.537-2.148a11.08 11.08 0 01-1.84-2.244c-.732-1.095-1.492-2.231-4.502-4.331-5.747-4.002-17.856-9.537-17.979-9.578l.287-.623c.116.055 12.315 5.617 18.082 9.654 3.12 2.175 3.913 3.366 4.68 4.515.483.782 1.07 1.495 1.744 2.121 2.265 2.121 3.045 2.381 4.386 1.464 2.9-1.984 1.313-7.163-.746-10.214a23.145 23.145 0 00-3.366-3.77 14.723 14.723 0 01-2.21-2.429 12.081 12.081 0 01-1.101-3.249c-.445-1.779-.945-3.797-1.998-4.967-.753-.835-3.421-3.421-6.424-2.005-3.756 1.806-8.894.082-9.093 0l.226-.65c.048 0 5.07 1.711 8.566 0 3.496-1.71 6.403 1.239 7.231 2.162 1.17 1.3 1.697 3.421 2.155 5.261a11.717 11.717 0 001.02 3.052 13.997 13.997 0 002.1 2.291 23.637 23.637 0 013.462 3.893c2.216 3.277 3.851 8.894.561 11.159a3 3 0 01-1.704.636z" fill="#313131"/><path d="M109.625 152.934c-2.662 0-5.145-.821-5.966-3.099-.773-2.135.308-3.113 2.785-4.694.82-.524 1.705-.938 2.633-1.231 1.246-.431 2.532-.883 5.31-3.277 5.309-4.57 13.683-14.921 13.765-15.051l.533.431c-.082.102-8.497 10.501-13.854 15.112-2.873 2.477-4.228 2.949-5.528 3.421a10.15 10.15 0 00-2.49 1.163c-2.62 1.663-3.065 2.354-2.511 3.879 1.197 3.305 6.609 3.059 10.078 1.827a23.58 23.58 0 004.495-2.326 14.31 14.31 0 012.893-1.533 11.918 11.918 0 013.421-.26c1.834 0 3.914 0 5.316-.684.992-.52 4.187-2.463 3.537-5.719-.821-4.105 1.587-7.676 1.69-7.827l.568.383c0 .034-2.347 3.51-1.587 7.307.759 3.797-2.792 5.891-3.893 6.465-1.553.808-3.722.787-5.638.78a11.47 11.47 0 00-3.201.226 13.82 13.82 0 00-2.737 1.464 23.66 23.66 0 01-4.625 2.388 15.387 15.387 0 01-4.994.855zm52.987-34.03a57.544 57.544 0 006.725 3.27c1.697.685 3.367 1.369 5.015 2.115 4.399 2.052 8.723 4.228 12.999 6.451 3.193 1.651 6.386 3.323 9.578 5.015.426.275.912.444 1.416.492a6.84 6.84 0 004.865-1.628c4.269-3.592 4.447-10.768 2.292-15.551-.185-.403-.773-.054-.596.343 1.978 4.385 1.82 10.748-1.71 14.291a6.163 6.163 0 01-4.933 1.854 2.109 2.109 0 01-.362-.054h-.041c-.267-.117-.52-.281-.78-.418-7.122-3.803-14.278-7.58-21.585-11.001-1.738-.814-3.489-1.601-5.282-2.285a58.119 58.119 0 01-7.252-3.462c-.383-.212-.732.377-.342.589l-.007-.021zM40.313 47.965a1.265 1.265 0 111.266-1.266 1.26 1.26 0 01-1.266 1.266zm0-1.84a.582.582 0 10.127 1.156.582.582 0 00-.127-1.157zM218.507 2.893a1.263 1.263 0 01-1.174-.778 1.26 1.26 0 01.273-1.383 1.263 1.263 0 011.95.196 1.264 1.264 0 01-1.049 1.965zm0-1.84a.584.584 0 00-.578.69.585.585 0 00.456.46.578.578 0 00.599-.245.583.583 0 00-.477-.906zm33.613 58.419a1.264 1.264 0 01-.893-2.163 1.266 1.266 0 11.893 2.163zm0-1.84a.58.58 0 00-.571.695.588.588 0 00.457.456.58.58 0 10.114-1.151zM84.783 3.249a1.266 1.266 0 110-2.532 1.266 1.266 0 010 2.532zm0-1.84a.582.582 0 100 1.163.582.582 0 000-1.164zM207.185 43.51c.596 1.694.881 3.481.841 5.276a.342.342 0 10.684 0 15.375 15.375 0 00-.869-5.474c-.143-.417-.807-.239-.684.178l.028.02zm15.202 10.674c2.011 3.879 2.38 8.634 2.784 12.91.404 4.276.684 8.552-.335 12.677-1.936 7.806-9.065 12.958-16.837 13.902a23.393 23.393 0 01-11.453-1.28c-3.229-1.327-5.966-4.262-4.789-7.963a5.83 5.83 0 013.161-3.599c1.676-.684 3.571-.684 5.268-1.43a12.923 12.923 0 006.718-6.513c1.875-4.187.985-8.839 1.218-13.259.219-4.16 2.121-9.537 7.054-9.783.437 0 .437-.684 0-.684-3.709.185-6.295 3.366-7.198 6.739-1.204 4.495 0 9.181-.807 13.724a12.2 12.2 0 01-6.841 8.99c-1.813.848-3.859.82-5.679 1.607a6.448 6.448 0 00-3.195 3.216c-1.437 3.113-.226 6.383 2.484 8.312 3.099 2.203 7.341 2.792 11.049 2.792 7.867 0 15.865-3.88 19.334-11.213 2.141-4.53 2.052-9.681 1.696-14.573a92.15 92.15 0 00-.957-7.977 23.08 23.08 0 00-2.053-6.93c-.205-.39-.793-.048-.595.342l-.027-.007z" fill="#313131"/><path d="M200.863 94.268c3.955 2.976 8.641 4.495 13.396 5.671a95.514 95.514 0 0011.884 2.162c.738.089 1.477.171 2.223.219.438 0 .438-.684 0-.684a75.232 75.232 0 01-9.715-1.416c-6.082-1.225-12.397-2.737-17.446-6.547-.349-.26-.684.328-.342.595zm-25.532-14.114l-20.032-29.022-8.21 5.788 20.148 21.701-.506.466-20.374-21.989a.35.35 0 01-.096-.267.358.358 0 01.144-.24l8.818-6.218a.36.36 0 01.26-.062.37.37 0 01.219.144l20.224 29.309-.595.39zm1.238 9.38a.32.32 0 01-.253-.11l-1.929-2.052.506-.466 1.532 1.656.192-.568.643.212-.37 1.122a.325.325 0 01-.253.226l-.068-.02z" fill="#313131"/><path d="M173.374 79.046a8.294 8.294 0 01-1.368-1.656 3.65 3.65 0 00-1.718-1.231c-1.286-.48-2.107-1.65-2.791-2.778a2.734 2.734 0 00-.978-1.177 1.8 1.8 0 00-1.546.048c-1.02.568-.685 1.902-.418 2.791a11.269 11.269 0 002.217 4.071c.294.328.78-.157.479-.479a10.116 10.116 0 01-1.875-3.325c-.232-.622-.903-2.182.048-2.504a.946.946 0 011.204.459c.247.39.472.786.725 1.163a5.885 5.885 0 002.552 2.319c.384.112.745.29 1.068.527.269.246.51.521.718.82.374.582.835 1.1 1.368 1.54.356.26.684-.328.342-.588h-.027z" fill="#313131"/><path d="M160.806 72.888c-.8 2.798.178 5.549 1.957 7.745 1.245 1.54 2.784 2.394 4.508 3.318a91.537 91.537 0 0017.398 7.177 51.775 51.775 0 0012.534 2.216c.445 0 .445-.684 0-.684-7.348-.28-14.6-2.579-21.339-5.398a87.972 87.972 0 01-6.718-3.133c-1.635-.848-3.53-1.622-4.871-2.9-2.203-2.108-3.681-5.132-2.805-8.21a.357.357 0 00-.391-.439.352.352 0 00-.293.26l.02.048z" fill="#313131"/><path d="M173.264 79.73c6.158 1.73 12.685 2.114 19.02 3.03.431.069.616-.595.178-.684-6.335-.923-12.828-1.306-19.013-3.03a.353.353 0 00-.308.622.35.35 0 00.123.062zm69.633 58.385h-15.735v-.684h15.735a.683.683 0 00.719-.718v-14.922a.684.684 0 00-.719-.684v-.684a1.402 1.402 0 011.403 1.368v14.922a1.401 1.401 0 01-1.403 1.402zm-34.802 0h-62.949v-7.006h.684v6.322h62.265v.684zm-41.624-17.726h-5.781v.684h5.781v-.684z" fill="#313131"/><path d="M242.323 140.236h-13.184v-.684h13.163a5.16 5.16 0 005.152-5.159v-10.262a5.159 5.159 0 00-5.152-5.151h-32.866v-.685h32.887a5.843 5.843 0 015.835 5.836v10.262a5.848 5.848 0 01-5.835 5.843zm-30.069 0h-67.546a1.403 1.403 0 010-2.805h61.423a.342.342 0 110 .684h-61.423a.72.72 0 000 1.437h67.546a.342.342 0 01.342.342.345.345 0 01-.342.342z" fill="#313131"/><path d="M242.897 138.115h-15.879v-.684h15.879a.683.683 0 00.719-.718v-14.922a.684.684 0 00-.719-.684h-37.019v-.684h37.019a1.402 1.402 0 011.403 1.368v14.922a1.401 1.401 0 01-1.403 1.402z" fill="#313131"/><path d="M243.896 121.805h-37.43v.684h37.43v-.684zm-73.348 0h-11.575v.684h11.575v-.684zm73.348 1.58H206.35v.685h37.546v-.685zm-69.941 0h-17.028v.685h17.028v-.685zm69.934 1.588h-24.793v.684h24.793v-.684zm-28.043 0h-9.387v.684h9.387v-.684zm-38.764 0H154.71v.684h22.372v-.684zm66.807 1.58h-22.392v.684h22.392v-.684zm-63.331 0h-28.235v.684h28.235v-.684zm63.338 1.587h-21.072v.684h21.072v-.684zm-60.185 0h-34.002v.684h34.002v-.684zm60.185 1.588h-20.367v.684h20.367v-.684zm-57.078 0H147.39v.684h39.428v-.684zm57.071 1.58h-19.888v.684h19.888v-.684zm-54.013 0h-44.388v.684h44.388v-.684zm54.02 1.587h-19.491v.684h19.491v-.684zm-50.996 0h-47.412v.684H192.9v-.684zm50.989 1.587h-18.971v.684h18.971v-.684zm-48 0h-50.401v.684h50.401v-.684zm48 1.581h-18.164v.684h18.164v-.684zm-38.599 0h-59.802v.684h59.802v-.684zm46.098 26.504h-113.87v-20.525h79.108v.684h-78.424v19.157h113.186a.896.896 0 00.896-.897v-17.391a.898.898 0 00-.896-.889h-19.013v-.684h19.013a1.579 1.579 0 011.58 1.573v17.391a1.589 1.589 0 01-1.58 1.581z" fill="#313131"/><path d="M250.717 165.036H136.95a1.581 1.581 0 01-1.685-1.576 1.579 1.579 0 011.685-1.577h114.438a.896.896 0 00.896-.897v-17.391a.896.896 0 00-.896-.889h-20.142v-.684h20.142a1.579 1.579 0 011.58 1.573v17.391a1.589 1.589 0 01-1.58 1.581H136.95a.89.89 0 00-.684.232.89.89 0 00-.291.661.9.9 0 00.609.848.89.89 0 00.366.044h113.767a6.078 6.078 0 006.062-6.061v-11.993a6.07 6.07 0 00-6.062-6.062h-19.991v-.684h19.991a6.752 6.752 0 016.746 6.746v11.993a6.757 6.757 0 01-6.746 6.745zm-34.091-22.33H136.95a1.582 1.582 0 01-1.184-2.731 1.577 1.577 0 011.184-.423h75.304v.684H136.95a.89.89 0 00-.684.232.89.89 0 00-.291.661.9.9 0 00.975.893h79.676v.684z" fill="#313131"/><path d="M252.551 143.664H232.17v.684h20.381v-.684zm-33.175 0H137.86v.684h81.516v-.684zm33.175 1.847h-19.663v.684h19.663v-.684zm-30.63 0H137.86v.684h84.061v-.684zm30.63 1.847H233.23v.684h19.321v-.684zm-28.639 0H137.86v.684h86.052v-.684zm28.639 1.847h-19.184v.684h19.184v-.684zm-27.284 0H137.86v.684h87.407v-.684zm27.284 1.847h-19.889v.685h19.889v-.685zm-25.731 0h-88.96v.685h88.96v-.685zm25.731 1.848h-22.003v.684h22.003v-.684zm-22.899 0H137.86v.684h91.792v-.684zm22.899 1.847H137.86v.684h114.691v-.684zm0 1.847H137.86v.684h114.691v-.684zm0 1.847H137.86v.684h114.691v-.684zm0 1.848H137.86v.684h114.691v-.684z" fill="#313131"/><path d="M119.675 72.793a45.947 45.947 0 00-54.171 30.314c-2.271 6.719-3.1 13.834-3.38 20.894h2.313c.451-11.425 2.634-22.885 9.51-32.292A43.696 43.696 0 01119.1 74.996c1.41.355 2.025-1.868.575-2.203z" fill="#1280FF"/><path d="M118.991 58.932s-8.395-2.737-16.03 1.436c-7.635 4.174-1.464 4.44-2.627 12.41-1.163 7.971-9.044 13.246-4.604 17.488 4.44 4.241 10.501 2.401 10.501 2.401l2.402-5.172s.828 6.677 6.287 6.157c5.46-.52 11.904-5.172 11.904-5.172s-10.2-8.374-7.204-10.666c2.997-2.292 9.941 9.079 9.941 9.079s6.753-3.736 6.575-10.112c-.178-6.376-10.215-14.853-11.029-15.051-.814-.199-12.274 4.912-13.553 2.442-1.279-2.47 7.437-5.24 7.437-5.24zM70.97 112.637c-.089 3.77-.177 7.526 0 11.309.756-.061 1.514-.082 2.272-.061-.336-8.819.684-17.685-.322-26.477-1.115-9.455-4.789-18.903-13.177-24.116a19.293 19.293 0 00-14.052-2.737c-1.45.301-.835 2.518.609 2.217 8.477-1.758 16.59 4.18 20.429 11.35 4.624 8.661 4.474 18.93 4.241 28.515z" fill="#1280FF"/><path d="M57.91 72.97c-.753-.376-1.813-4.043-6.513-6.985a18.698 18.698 0 00-9.339-2.86s7.526 4.167 6.253 6.958c-1.272 2.792-13.628-6.711-13.628-6.711s-13.765-.561-14.867 8.21c-1.101 8.77 3.421 11.13 3.421 11.13s11.391-10.323 15.387-8.941c3.995 1.382 5.11 4.673-.87 5.576-5.979.903-12.65 5.288-12.65 5.288s1.875 3.695 9.285 6.684c7.41 2.99 10.994.93 12.52-1.867 1.525-2.799 2.237-10.851 4.276-9.982 2.038.869-4.16 14.435-4.16 14.435a10.399 10.399 0 009.578-.273c3.886-2.019 3.667-4.317 3.667-4.317s.534-1.683-.876-6.589c-1.409-4.905-.047-3.044 2.053.945 2.1 3.988 1.28 7.388 2.627 5.698 1.348-1.69 3.722-11.507-6.164-16.399zm29.904-43.737c-7.334 10.296-9.975 23-10.508 35.445-.602 13.998 1.539 27.893 2.052 41.85.254 5.796.068 11.603-.554 17.371.766 0 1.54 0 2.305.047 1.369-11.89.247-23.945-.684-35.863-1.02-12.882-1.765-26.038 1.163-38.743a52.682 52.682 0 018.21-18.924c.869-1.231-1.129-2.38-1.984-1.183z" fill="#1280FF"/><path d="M78.126 55.367s1.198 7.108 12.315 6.069c11.118-1.04 12.931-4.79 12.931-4.79s-16.68-.998-16.495-4.788c.184-3.79 4.42-1.369 10.372-.63s10.522.903 12.314-.103c1.793-1.005 7.266-11.021 6.199-10.98-1.068.04-9.49 4.42-13.328.568-3.838-3.852 9.414-2.053 13.033-4.967 3.62-2.915 7.061-9.134 3.168-13.588-3.893-4.453-15.824-3.318-15.824-3.318s-5.44 16.249-7.964 15.052c-2.524-1.198 2.538-12.924 2.538-12.924s-7.525 2.573-11.39 4.002a16.015 16.015 0 00-6.281 4.4s3.694 13.758.5 13.929c-3.196.17-3.066-4.167-2.867-7.779.198-3.612 1.416-7.786.595-7.697-.821.09-11.966 9.079-9.038 17.535 2.928 8.456 9.222 10.01 9.222 10.01z" fill="#1280FF"/><path d="M74.74 166.042h-4.72a18.38 18.38 0 01-18.356-18.356v-21.017a2.901 2.901 0 012.9-2.9h35.624a2.907 2.907 0 012.908 2.9v21.017a18.384 18.384 0 01-18.356 18.356zm-20.176-41.589a2.225 2.225 0 00-2.216 2.216v21.017a17.692 17.692 0 0017.671 17.672h4.721a17.69 17.69 0 0017.672-17.672v-21.017a2.222 2.222 0 00-2.224-2.216H54.564z" fill="#313131"/></g><defs><clipPath id="clip0_5205_2457"><path fill="#fff" transform="translate(.633 .368)" d="M0 0h292.878v165.674H0z"/></clipPath></defs></svg>