<svg width="292" height="170" fill="none" xmlns="http://www.w3.org/2000/svg"><path d="M114.007 119.597c-.078-.078-.165-.149-.251-.22-.071-.055-.15-.086-.228-.133-.166-.103-.362-.103-.543-.165-.086-.032-.157-.079-.236-.126a2.147 2.147 0 01-.566-.472c-.369-.48-.369-1.093-.102-1.62.157-.306.377-.558.629-.794.299-.275.621-.503.959-.723.692-.448 1.423-.826 2.092-1.313a33.078 33.078 0 012.256-1.502c.417-.252.834-.511 1.266-.739.338-.181.684-.362 1.022-.55.881-.488 1.761-1.007 2.563-1.628.346-.267.692-.558.967-.904.189-.236.378-.535.354-.849a.626.626 0 00-.157-.378c-.118-.149-.322-.173-.495-.181-.26-.007-.519.048-.771.11-.275.071-.55.158-.825.252-.228.079-.449.165-.677.244-.204.078-.409.141-.613.22-.684.267-1.337.605-2.028.841-.48.165-1.148.37-1.604.032-.37-.275-.401-.802-.346-1.219.031-.252.094-.503.173-.747.078-.22.173-.448.306-.645.157-.228.362-.424.566-.621a54.228 54.228 0 00-5.448 1.376c-10.041 3.098-17.314 8.397-16.252 11.833 1.006 3.263 9.183 3.672 18.602 1.046a3.376 3.376 0 01-.613-.425z" fill="#1380FF"/><path d="M290.6 169.603H.393A.39.39 0 010 169.21a.39.39 0 01.393-.393H290.6a.39.39 0 01.394.393.39.39 0 01-.394.393zm-30.538-20.002c-3.727 0-6.644-1.36-6.644-3.098a.39.39 0 01.393-.393.39.39 0 01.394.393c0 1.093 2.406 2.312 5.857 2.312 3.452 0 5.858-1.219 5.858-2.312a.39.39 0 01.393-.393.39.39 0 01.393.393c0 1.738-2.917 3.098-6.644 3.098z" fill="#231F20"/><path d="M260.062 151.071c-3.727 0-6.644-1.36-6.644-3.098v-.322a31.767 31.767 0 010-1.156c.008-.126.016-.22.024-.275.008-.031.016-.063.031-.094.04-.213.236-.315.456-.275.213.039.339.283.299.495-.008.023-.016.063-.031.086.015-.039.008.024.008.079-.016.299-.008.778 0 1.124v.338c0 1.093 2.406 2.312 5.857 2.312 3.452 0 5.858-1.219 5.858-2.312l-.008-1.383c0-.024.008-.079.008-.103l-.008-.086a.52.52 0 00-.016-.102c-.102-.189-.039-.456.15-.559.188-.11.424-.062.526.126a1.248 1.248 0 01.126.464c.008.087.008.126.008.165 0 .024-.008.095-.008.11l.008 1.361c0 1.745-2.917 3.105-6.644 3.105z" fill="#231F20"/><path d="M260.062 146.621c-3.727 0-6.644-1.36-6.644-3.098 0-1.737 2.917-3.098 6.644-3.098 3.727 0 6.644 1.361 6.644 3.098 0 1.738-2.917 3.098-6.644 3.098zm0-5.409c-3.451 0-5.857 1.218-5.857 2.311s2.406 2.312 5.857 2.312c3.452 0 5.858-1.219 5.858-2.312 0-1.093-2.406-2.311-5.858-2.311z" fill="#231F20"/><path d="M260.062 148.091c-3.727 0-6.644-1.36-6.644-3.097v-.323a31.769 31.769 0 010-1.156c.008-.125.016-.22.024-.275.008-.031.016-.071.031-.094.299-1.541 3.083-2.721 6.589-2.721 3.287 0 5.976 1.038 6.534 2.524.016.032.047.11.071.213.016.07.031.125.031.204.008.086.008.126.008.165 0 .024-.008.094-.008.11l.008 1.36c0 1.73-2.917 3.09-6.644 3.09zm-5.857-4.646c.007 0 .007.039 0 .086-.016.299-.008.779 0 1.124v.339c0 1.092 2.406 2.311 5.857 2.311 3.452 0 5.858-1.219 5.858-2.311l-.008-1.384c0-.016.008-.063.008-.095 0-.023-.008-.063-.008-.063v-.094a2.999 2.999 0 01-.055-.141c-.37-.991-2.642-2.013-5.795-2.013-3.341 0-5.637 1.116-5.842 2.154-.007.024-.015.063-.031.087.008.008.008 0 .016 0zm5.857 8.963c-3.727 0-6.644-1.36-6.644-3.098 0-.275.071-.542.205-.794a.405.405 0 01.534-.165.4.4 0 01.166.535.851.851 0 00-.111.424c0 1.093 2.406 2.312 5.858 2.312 3.452 0 5.858-1.219 5.858-2.312a.908.908 0 00-.142-.472.398.398 0 01.142-.542c.188-.118.424-.047.542.141a1.7 1.7 0 01.252.873c-.016 1.738-2.933 3.098-6.66 3.098z" fill="#231F20"/><path d="M260.062 153.878c-3.727 0-6.644-1.36-6.644-3.097v-.323a32.222 32.222 0 010-1.164c.008-.125.016-.22.024-.275.008-.031.016-.063.031-.094.04-.212.236-.315.456-.275.213.039.339.283.299.495-.008.024-.016.063-.031.087.015-.04.008.023.008.078-.016.299-.008.779 0 1.125v.338c0 1.093 2.406 2.311 5.857 2.311 3.452 0 5.858-1.218 5.858-2.311l-.008-1.384c0-.024.008-.079.008-.102l-.008-.087a.532.532 0 00-.016-.102c-.102-.189-.039-.456.15-.558.188-.11.424-.063.526.125a1.269 1.269 0 01.126.464c.008.087.008.126.008.165 0 .024-.008.095-.008.111l.008 1.36c0 1.753-2.917 3.113-6.644 3.113z" fill="#231F20"/><path d="M260.062 155.294c-3.727 0-6.644-1.361-6.644-3.098 0-.268.071-.543.205-.794a.398.398 0 01.534-.166.4.4 0 01.166.535.855.855 0 00-.111.425c0 1.093 2.406 2.311 5.858 2.311 3.452 0 5.858-1.218 5.858-2.311a.903.903 0 00-.142-.472.388.388 0 01.142-.535.387.387 0 01.534.142c.165.283.252.574.252.873-.008 1.729-2.925 3.09-6.652 3.09z" fill="#231F20"/><path d="M260.062 156.764c-3.727 0-6.644-1.36-6.644-3.098v-.322a31.767 31.767 0 010-1.156c.008-.126.016-.22.024-.275.008-.024.016-.063.024-.087.039-.212.235-.314.456-.275.212.039.338.283.298.495-.007.024-.015.063-.023.087.008-.024.015.015.008.078-.016.299-.008.779 0 1.125v.338c0 1.093 2.406 2.311 5.857 2.311 3.452 0 5.858-1.218 5.858-2.311l-.008-1.384c0-.024.008-.079.008-.094l-.008-.087c0-.008-.016-.086-.016-.102-.102-.189-.039-.456.15-.558.188-.103.424-.063.526.133.04.079.071.158.095.26.016.071.031.126.031.204.008.087.008.126.008.158 0 .023-.008.094-.008.11l.008 1.36c0 1.73-2.917 3.09-6.644 3.09z" fill="#231F20"/><path d="M260.062 158.203c-3.727 0-6.644-1.361-6.644-3.098 0-.275.071-.543.205-.794a.397.397 0 01.534-.165.398.398 0 01.166.534.855.855 0 00-.111.425c0 1.093 2.406 2.311 5.858 2.311 3.452 0 5.858-1.218 5.858-2.311a.906.906 0 00-.142-.472.397.397 0 01.684-.401c.165.275.252.574.252.873-.016 1.737-2.933 3.098-6.66 3.098z" fill="#231F20"/><path d="M260.062 159.673c-3.727 0-6.644-1.36-6.644-3.098v-.322a31.767 31.767 0 010-1.156c.008-.126.016-.22.024-.275.008-.032.016-.071.031-.095.04-.212.228-.314.449-.275.212.04.338.283.298.496-.007.023-.015.063-.031.086.008-.031.016.016.008.079-.016.299-.008.778 0 1.124v.338c0 1.093 2.406 2.312 5.857 2.312 3.452 0 5.858-1.219 5.858-2.312l-.008-1.384c0-.023.008-.078.008-.102l-.008-.086a.541.541 0 00-.016-.103c-.102-.188-.039-.456.15-.558.189-.102.417-.063.527.126.039.079.07.165.094.259a.788.788 0 01.031.205c.008.086.008.126.008.165 0 .024-.008.094-.008.11l.008 1.36c.008 1.746-2.909 3.106-6.636 3.106z" fill="#231F20"/><path d="M260.062 161.245c-3.727 0-6.644-1.36-6.644-3.097 0-.276.071-.543.205-.795a.399.399 0 01.534-.165.4.4 0 01.166.535.855.855 0 00-.111.425c0 1.093 2.406 2.311 5.858 2.311 3.452 0 5.858-1.218 5.858-2.311a.903.903 0 00-.142-.472.4.4 0 01.142-.543c.188-.118.424-.047.542.142.165.275.252.574.252.873-.016 1.737-2.933 3.097-6.66 3.097z" fill="#231F20"/><path d="M260.062 162.716c-3.727 0-6.644-1.36-6.644-3.098v-.322a31.767 31.767 0 010-1.156c.008-.126.016-.22.024-.275.008-.032.016-.071.031-.095.04-.212.228-.322.449-.275.212.039.338.283.298.495-.007.024-.015.063-.031.087.008-.032.016.016.008.078-.016.299-.008.779 0 1.125v.338c0 1.093 2.406 2.311 5.857 2.311 3.452 0 5.858-1.218 5.858-2.311l-.008-1.384c0-.024.008-.079.008-.094l-.008-.087a.532.532 0 00-.016-.102c-.102-.189-.039-.456.15-.558.189-.102.424-.063.527.133.039.079.07.158.094.26.016.071.031.126.031.204.008.087.008.126.008.165 0 .024-.008.095-.008.111l.008 1.36c.008 1.73-2.909 3.09-6.636 3.09z" fill="#231F20"/><path d="M260.062 164.155c-3.727 0-6.644-1.361-6.644-3.098a1.7 1.7 0 01.205-.794.397.397 0 01.534-.165.398.398 0 01.166.534.855.855 0 00-.111.425c0 1.093 2.406 2.311 5.858 2.311 3.452 0 5.858-1.218 5.858-2.311a.906.906 0 00-.142-.472.398.398 0 01.142-.542.397.397 0 01.542.141c.165.275.252.574.252.873-.016 1.737-2.933 3.098-6.66 3.098z" fill="#231F20"/><path d="M260.062 165.625c-3.727 0-6.644-1.36-6.644-3.098v-.322a32.222 32.222 0 010-1.164c.008-.126.016-.22.024-.275.008-.031.016-.063.031-.094.04-.213.236-.315.456-.276.213.04.339.283.299.496-.008.023-.016.063-.031.086.015-.039.008.024.008.079-.016.299-.008.778 0 1.124v.338c0 1.093 2.406 2.312 5.857 2.312 3.452 0 5.858-1.219 5.858-2.312l-.008-1.384c0-.023.008-.078.008-.102l-.008-.086c0-.008-.016-.087-.016-.102-.102-.189-.039-.456.15-.559.188-.102.424-.063.526.134.04.079.071.165.095.259.016.071.031.126.031.205.008.086.008.126.008.165 0 .024-.008.094-.008.11l.008 1.36c0 1.746-2.917 3.106-6.644 3.106zm-15.292-16.024c-3.727 0-6.644-1.36-6.644-3.098 0-1.737 2.917-3.098 6.644-3.098 3.726 0 6.643 1.361 6.643 3.098 0 1.738-2.917 3.098-6.643 3.098zm0-5.417c-3.452 0-5.858 1.218-5.858 2.311s2.406 2.312 5.858 2.312c3.451 0 5.857-1.219 5.857-2.312 0-1.093-2.406-2.311-5.857-2.311z" fill="#231F20"/><path d="M244.77 151.071c-3.727 0-6.644-1.36-6.644-3.097v-.323c0-.354-.008-.833 0-1.14v-.008c0-.031 0-.063.008-.094 0-.047.007-.149.015-.205l.024-.078c.299-1.549 3.082-2.721 6.589-2.721 3.286 0 5.975 1.038 6.533 2.524.024.024.048.11.071.213.016.07.032.125.032.204.008.086.008.126.008.165 0 .024-.008.094-.008.118l.008 1.352c.015 1.73-2.91 3.09-6.636 3.09zm-5.858-4.56a17.79 17.79 0 000 1.132v.331c0 1.092 2.406 2.311 5.858 2.311 3.451 0 5.857-1.219 5.857-2.311l-.008-1.376c0-.024.008-.071.008-.095a.43.43 0 00-.008-.063v-.094c-.008-.016-.047-.118-.055-.134-.369-.99-2.642-2.012-5.794-2.012-3.342 0-5.638 1.116-5.842 2.154l-.024.078c.024-.047.008.024.008.079z" fill="#231F20"/><path d="M244.77 152.408c-3.727 0-6.644-1.36-6.644-3.098 0-.275.07-.542.204-.794a.398.398 0 01.535-.157.396.396 0 01.157.534.853.853 0 00-.11.425c0 1.093 2.406 2.312 5.858 2.312 3.451 0 5.857-1.219 5.857-2.312a.916.916 0 00-.141-.472.387.387 0 01.141-.534.39.39 0 01.535.141c.165.283.251.574.251.873.008 1.722-2.917 3.082-6.643 3.082z" fill="#231F20"/><path d="M244.77 153.878c-3.727 0-6.644-1.36-6.644-3.098v-.322c0-.354-.008-.833 0-1.14v-.008c0-.023 0-.063.008-.086 0-.055.007-.15.023-.205l.024-.078a.384.384 0 01.487-.252.41.41 0 01.26.503.105.105 0 01-.016.047c.024-.039.008.032.008.087a17.79 17.79 0 000 1.132v.33c0 1.093 2.406 2.312 5.857 2.312 3.452 0 5.858-1.219 5.858-2.312l-.008-1.376c0-.023.008-.078.008-.102l-.008-.086c0-.008-.016-.087-.016-.103-.102-.188-.039-.456.15-.558.189-.11.417-.063.527.126.039.079.07.165.094.26.016.07.031.125.031.204.008.086.008.126.008.165 0 .024-.008.094-.008.118l.008 1.352c0 1.73-2.925 3.09-6.651 3.09z" fill="#231F20"/><path d="M244.77 155.294c-3.727 0-6.644-1.361-6.644-3.098 0-.275.07-.543.204-.794a.391.391 0 01.535-.158.397.397 0 01.157.535.853.853 0 00-.11.425c0 1.093 2.406 2.311 5.858 2.311 3.451 0 5.857-1.218 5.857-2.311a.91.91 0 00-.141-.472.388.388 0 01.141-.535.386.386 0 01.535.142c.165.283.244.574.244.872.015 1.722-2.91 3.083-6.636 3.083z" fill="#231F20"/><path d="M244.77 156.764c-3.727 0-6.644-1.36-6.644-3.098v-.322c0-.354-.008-.834 0-1.14v-.055c.008-.103.015-.197.023-.252l.386.071-.362-.142a.394.394 0 01.747.252.081.081 0 01-.016.039c.008-.023.008.032.008.087v.023c-.016.307-.008.779 0 1.117v.33c0 1.093 2.406 2.312 5.858 2.312 3.451 0 5.857-1.219 5.857-2.312l-.008-1.384c0-.023.008-.078.008-.102l-.008-.087c0-.007-.015-.094-.015-.102-.103-.188-.04-.456.149-.558.189-.102.417-.063.527.134.039.078.071.165.094.259.016.071.032.134.032.205.007.086.007.125.007.157 0 .023-.007.102-.007.118l.007 1.352c.008 1.738-2.917 3.098-6.643 3.098z" fill="#231F20"/><path d="M244.77 158.203c-3.727 0-6.644-1.36-6.644-3.098 0-.275.07-.543.204-.794a.391.391 0 01.535-.157.396.396 0 01.157.534.853.853 0 00-.11.425c0 1.093 2.406 2.311 5.858 2.311 3.451 0 5.857-1.218 5.857-2.311a.914.914 0 00-.141-.472.388.388 0 01.141-.535.39.39 0 01.535.142c.165.283.251.574.251.873.008 1.722-2.917 3.082-6.643 3.082z" fill="#231F20"/><path d="M244.77 159.673c-3.727 0-6.644-1.36-6.644-3.098v-.322c0-.354-.008-.834 0-1.14v-.008c0-.031.008-.071.015-.102a.57.57 0 01.016-.189c.008-.024.016-.063.024-.086a.384.384 0 01.487-.252.41.41 0 01.26.503c0 .016-.016.039-.016.047.016-.023.008.024.008.079v.024c-.016.306-.008.778 0 1.116v.33c0 1.093 2.406 2.312 5.857 2.312 3.452 0 5.858-1.219 5.858-2.312l-.008-1.376c0-.023.008-.078.008-.102l-.008-.086c0-.008-.016-.087-.016-.103-.102-.188-.039-.456.15-.558.189-.102.417-.063.527.126.039.079.07.165.094.259.016.071.031.126.031.205.008.086.008.126.008.165 0 .024-.008.094-.008.118l.008 1.352c0 1.738-2.925 3.098-6.651 3.098z" fill="#231F20"/><path d="M244.77 161.246c-3.727 0-6.644-1.361-6.644-3.098 0-.276.07-.543.204-.794a.391.391 0 01.535-.158.397.397 0 01.157.535.85.85 0 00-.11.425c0 1.092 2.406 2.311 5.858 2.311 3.451 0 5.857-1.219 5.857-2.311a.91.91 0 00-.141-.472.388.388 0 01.141-.535.39.39 0 01.535.142c.165.283.251.574.251.872.008 1.722-2.917 3.083-6.643 3.083z" fill="#231F20"/><path d="M244.77 162.716c-3.727 0-6.644-1.36-6.644-3.098v-.322c0-.354-.008-.834 0-1.141v-.007c0-.032.008-.071.015-.103a.566.566 0 01.016-.188c.008-.024.016-.063.024-.087.063-.204.275-.306.487-.251a.41.41 0 01.26.503c0 .016-.016.039-.016.047.016-.024.008.024.008.079v.023c-.016.307-.008.779 0 1.117v.33c0 1.093 2.406 2.312 5.857 2.312 3.452 0 5.858-1.219 5.858-2.312l-.008-1.384c0-.023.008-.079.008-.102l-.008-.087c0-.007-.016-.086-.016-.102-.102-.188-.039-.456.15-.558.189-.102.424-.063.527.134.039.078.07.165.094.259.016.071.031.134.031.205.008.086.008.125.008.165 0 .023-.008.102-.008.118l.008 1.352c0 1.738-2.925 3.098-6.651 3.098z" fill="#231F20"/><path d="M244.77 164.155c-3.727 0-6.644-1.361-6.644-3.098 0-.275.07-.543.204-.794a.391.391 0 01.535-.158.397.397 0 01.157.535.853.853 0 00-.11.425c0 1.093 2.406 2.311 5.858 2.311 3.451 0 5.857-1.218 5.857-2.311a.91.91 0 00-.141-.472.388.388 0 01.141-.535.39.39 0 01.535.142c.165.283.251.574.251.873.008 1.721-2.917 3.082-6.643 3.082z" fill="#231F20"/><path d="M244.77 165.625c-3.727 0-6.644-1.36-6.644-3.098v-.322c0-.354-.008-.834 0-1.14v-.055c.008-.103.015-.197.023-.252l.024-.079a.385.385 0 01.487-.251.41.41 0 01.26.503c0 .016-.008.031-.016.047.024-.039.008.032.008.087v.023a17.33 17.33 0 000 1.117v.33c0 1.093 2.406 2.312 5.858 2.312 3.451 0 5.857-1.219 5.857-2.312l-.008-1.376c0-.024.008-.079.008-.102l-.008-.087c0-.008-.015-.094-.015-.102-.103-.189-.04-.456.149-.558.189-.102.417-.063.527.134.039.078.071.165.094.259.016.071.032.126.032.204.007.087.007.126.007.166 0 .023-.007.094-.007.117l.007 1.353c.008 1.722-2.917 3.082-6.643 3.082zm45.83-42.93c-.77 0-1.399-.629-1.399-1.399 0-.771.629-1.4 1.399-1.4.771 0 1.4.629 1.4 1.4 0 .77-.629 1.399-1.4 1.399zm0-2.013a.615.615 0 000 1.227.614.614 0 100-1.227zM117.6 9.828c1.101.268 2.383.087 3.279-.629a2.918 2.918 0 001.022-1.612c.15-.62.15-1.273.126-1.91-.024-.503-.81-.511-.786 0 .023.542.031 1.108-.087 1.643-.118.52-.361.944-.786 1.282-.448.37-1.022.519-1.596.542-.37.016-.653 0-.967-.078-.488-.118-.7.636-.205.762z" fill="#231F20"/><path d="M121.225 5.433c.024.668.024 1.352.205 2.005a3.3 3.3 0 001.069 1.683c.849.7 2.036.959 3.113.794.213-.032.331-.299.276-.488-.063-.22-.276-.306-.488-.275-.031.008.134-.016.016 0a4.308 4.308 0 01-.849 0c-.559-.063-1.133-.252-1.557-.621a2.624 2.624 0 01-.841-1.407c-.134-.55-.126-1.125-.142-1.69-.031-.504-.818-.512-.802 0zm-2.445 4.505c.747-.063 1.407.346 1.832.952.22.314.377.668.479 1.037.024.08.032.166.055.244.055.244.008-.07.008.032 0 .063.008.133.016.196.039.732.047 1.463.055 2.194.008.503.794.511.786 0-.015-.786 0-1.58-.07-2.367-.134-1.564-1.471-3.208-3.153-3.074-.511.04-.511.826-.008.786z" fill="#231F20"/><path d="M122.003 14.593c0-.629-.015-1.258.008-1.895.016-.464.079-.825.315-1.242.299-.535.684-.999 1.266-1.211.55-.204 1.14-.26 1.722-.322.212-.024.393-.165.393-.393 0-.197-.181-.417-.393-.394-.661.063-1.345.126-1.966.362-.716.267-1.211.763-1.612 1.408a3.206 3.206 0 00-.503 1.572c-.047.7-.016 1.407-.016 2.107 0 .511.786.511.786.008zM1.91 42.245c1.636.401 3.554.142 4.883-.92a4.33 4.33 0 001.533-2.413c.228-.952.228-1.942.19-2.91-.024-.503-.81-.51-.787 0 .031.865.055 1.754-.142 2.61-.188.85-.597 1.542-1.273 2.092-1.117.912-2.807 1.117-4.191.779-.495-.118-.7.645-.212.762z" fill="#231F20"/><path d="M7.713 35.625c.04 1.022.032 2.068.307 3.059.267.975.818 1.871 1.604 2.516 1.25 1.03 3.035 1.423 4.623 1.171.495-.078.29-.833-.212-.762-.016 0 .102-.008-.04 0l-.33.023c-.33.016-.66.008-.99-.031-.928-.095-1.864-.417-2.58-1.03-.7-.606-1.147-1.384-1.368-2.28-.22-.873-.196-1.793-.235-2.681-.008-.488-.795-.496-.779.015zm-4.025 6.778c1.242-.102 2.343.582 3.034 1.58a5.01 5.01 0 01.763 1.667c.032.126.055.252.079.377.078.378 0-.047.015.11.008.103.016.205.016.307.055 1.132.071 2.272.087 3.412.008.504.794.511.786 0-.024-1.218 0-2.46-.102-3.68-.205-2.319-2.194-4.756-4.686-4.56-.488.048-.496.834.008.787z" fill="#231F20"/><path d="M8.484 49.856c0-.982-.024-1.957.008-2.94.023-.763.141-1.36.518-2.036.496-.881 1.14-1.628 2.1-1.99.88-.322 1.816-.416 2.736-.503.503-.047.503-.833 0-.786-1.007.094-2.052.188-3.004.55-1.053.401-1.784 1.132-2.374 2.084-.464.755-.7 1.462-.755 2.335-.07 1.093-.023 2.186-.023 3.279.007.51.794.519.794.008zM38.841 6.652a1.22 1.22 0 010-2.438 1.22 1.22 0 010 2.438zm0-1.651a.436.436 0 00-.432.432c0 .236.196.432.432.432a.436.436 0 00.432-.432.436.436 0 00-.432-.432zM157.133 89.24c-2.995 2.996-5.857 6.007-9.411 8.358-1.714 1.14-3.483 1.793-5.567 1.627-1.855-.149-3.428-.967-4.953-1.98-5.418-3.578-8.932-9.114-11.77-14.83-1.832-3.687-3.633-7.39-5.606-11.007-.244-.448-.92-.047-.677.393 3.625 6.644 6.361 13.98 11.063 19.97 3.577 4.553 10.056 10.505 16.291 7.47 4.403-2.146 7.792-6.038 11.197-9.443.345-.361-.213-.92-.567-.558z" fill="#231F20"/><path d="M116.342 113.929c-.589.353-1.179.715-1.753 1.093a63.51 63.51 0 00-.833.566 6.26 6.26 0 00-.771.605c-.134.126-.236.275-.354.425 2.807-1.518 4.844-2.933 5.756-3.869-.684.393-1.368.779-2.045 1.18z" fill="#1380FF"/><path d="M119.063 67.76s-1.958 2.138-4.175 2.948c-2.217.802-2.713.173-2.854-.165-.142-.346-.22-.967-.22-.967l-.071-1.038s-2.17.173-2.666-.598c-1.085-1.69.37-2.72.37-2.72s-2.068-.92-2.367-1.132l-.291-.212s-7.06 1.336-14.655 4.906c-4.31 1.965-6.51 4.261-6.51 4.261-1.125 1.125-1.03 1.55-1.03 1.55s-1.51-5.858 1.367-10.05c2.878-4.19 7.643-6.038 9.6-6.54 3.955-1.023 7.651-1.235 9.105-1.094 1.628.157 2.375.41 2.375.41l4.788-.819s-2.154-2.067-5.7-2.586c-2.493-.362-6.306-.59-11.99 1.297-8.744 2.901-15.325 11.44-12.541 20.285l2.783 8.846 2.83 8.546s-5.896-1.383-9.647-1.226c-3.742.157-7.328.99-7.328.99s-2.28-2.06-4.584-2.13c-2.311-.071-3.082.817-2.083 4.969.998 4.151 3.97 8.641 5.897 8.232 1.926-.417 2.72-3.853 2.752-4.395.031-.543-.079-1.722-.079-1.722s3.593.008 9.176 1.722c5.582 1.714 9.175 3.145 9.175 3.145s4.922 16.661 5.74 17.455a4.863 4.863 0 002.217 1.242c1.164.291 2.98.574 5.134.283l3.782-.503.669-.157s.055-1.785 3.742-3.696c.244-.126.48-.251.716-.385.228-.307.471-.598.778-.833a22.968 22.968 0 011.628-1.125 58.314 58.314 0 011.737-1.069c.59-.346 1.188-.684 1.785-1.022.047-.032.102-.055.15-.087.055-.063.125-.133.165-.188.731-.983 1.407-2.226 1.407-2.226s-1.478.111-4.434.983c-2.957.873-4.679 1.187-3.924-1.061.637-1.887 3.082-3.224 5.268-3.947.016-.016.024-.04.031-.055.268-.346.606-.637.975-.873a6.138 6.138 0 011.817-.794c.07-.047.141-.094.228-.157.707-.488 1.321-.48 2.13-.747 1.078-.354 2.178-.488 3.271-.787 1.117-.306 2.029-.251 3.169-.463.204-.04 1.203-.063 1.407-.095L119.063 67.76z" fill="#1380FF"/><path d="M117.121 107.599c.747-2.461 3.742-3.326 5.944-3.923 2.374-.637 4.969-1.203 7.438-1.117 2.068.071 3.601 1.675 5.7 1.628 2.139-.047 4.246-.834 6.29-1.392 5.536-1.525 10.976-3.444 16.402-5.307 2.217-.763 4.481-1.455 6.643-2.359.464-.189.26-.951-.212-.755-4.403 1.832-9.042 3.185-13.555 4.702-3.137 1.054-6.298 2.084-9.49 2.964-2.099.582-4.49 1.581-6.707 1.353-1.101-.11-2.02-.787-3.019-1.203-1.022-.425-2.076-.456-3.169-.393-2.665.165-5.362.707-7.902 1.517-2.091.661-4.434 1.809-5.126 4.073-.141.487.613.692.763.212z" fill="#231F20"/><path d="M116.366 107.387c-.22.653-.11 1.423.527 1.808.652.393 1.643.126 2.319-.078 1.62-.503 3.247-1.746 5.024-1.416l-.235-.574c-.606 1.29-1.487 2.422-2.642 3.263-.857.622-1.769 1.18-2.681 1.722-1.652.991-3.334 1.88-4.922 2.98-.802.559-1.722 1.227-2.013 2.21-.205.699.023 1.462.66 1.847.731.449 1.604.11 2.351-.118 1.164-.353 2.288-.833 3.389-1.36a40.578 40.578 0 004.403-2.437c.425-.275.031-.952-.393-.676a39.03 39.03 0 01-3.153 1.808c-.959.503-1.942.975-2.949 1.368-.495.197-.998.377-1.509.535-.417.126-.983.369-1.415.322-.787-.079-.755-.967-.433-1.478.511-.802 1.431-1.337 2.21-1.848 1.486-.975 3.05-1.785 4.568-2.712.88-.543 1.784-1.085 2.594-1.722a9.045 9.045 0 002.603-3.303c.094-.212.031-.526-.236-.573-1.337-.252-2.555.212-3.766.746-.669.291-4.215 1.848-3.546-.086.165-.495-.598-.7-.755-.228zM41.223 66.722a1.51 1.51 0 11.001-3.02 1.51 1.51 0 010 3.02zm0-2.233a.721.721 0 00-.723.723c0 .401.322.724.723.724a.722.722 0 00.724-.724.721.721 0 00-.724-.723zM3.357 130.857a1.453 1.453 0 01-1.446-1.447c0-.802.652-1.447 1.446-1.447a1.448 1.448 0 010 2.894zm0-2.107a.664.664 0 00-.66.66c0 .362.299.66.66.66a.659.659 0 100-1.32zM118.638 62.2a100.353 100.353 0 00-2.642-4.166c-.684-1.023-1.289-1.762-2.508-2.084-1.242-.33-2.492-.629-3.719-1.006-.676-.213-1.297-.449-1.84-.912-.526-.456-1.698-1.58-1.501-2.351.126-.48-.016-.244.346-.323.133-.031.298 0 .44.008.291.008.582.032.873.055.817.071 1.635.165 2.445.26 1.58.173 3.263.078 4.812.393 2.799.566 4.961 2.445 6.982 4.332 2.146 1.997 6.188 6.18 3.2 9.066-.362.353.189.912.558.558 2.587-2.5.527-6.337-1.478-8.484-1.934-2.068-4.183-4.246-6.785-5.456-1.777-.826-3.46-.873-5.363-1.007-1.792-.126-3.569-.456-5.362-.503-.511-.016-1.148-.07-1.502.377-.416.527-.039 1.195.236 1.69.786 1.44 1.942 2.485 3.499 2.989 1.447.471 3.043.66 4.45 1.218 1.109.44 1.761 1.91 2.383 2.87.613.952 1.203 1.91 1.792 2.878.268.432.944.031.684-.401z" fill="#231F20"/><path d="M105.704 59c1.046-1.187 2.626-1.375 4.089-1.682.818-.173 1.627-.377 2.453-.511.668-.102 1.69-.126 2.123.527.244.377.141 1.14-.118 1.494-.204.283-.582.353-.912.416-.385.087-.763.173-1.14.284-1.423.408-2.76 1.06-4.152 1.556-.668.236-1.281.464-1.879-.047-.589-.511-.841-1.454-.409-2.123.276-.424-.408-.818-.676-.4-.833 1.296.024 3.294 1.541 3.608.849.173 1.817-.338 2.587-.637.889-.346 1.761-.739 2.673-1.038a13.2 13.2 0 011.345-.377c.456-.102.928-.165 1.321-.44.558-.386.747-1.164.731-1.809-.016-.794-.456-1.344-1.179-1.65-.881-.37-1.84-.19-2.744 0-1.211.25-2.446.463-3.641.778-.967.251-1.895.723-2.563 1.486-.338.393.22.95.55.566z" fill="#231F20"/><path d="M106.577 61.666c-.432 1.148-.307 2.351.668 3.169.464.385.999.723 1.612.755.716.047 1.415-.37 2.052-.637 1.416-.582 2.886-1.109 4.27-1.77.983-.471 1.926-1.328 1.659-2.531a2.172 2.172 0 00-1.148-1.455c-.464-.22-.873-.15-1.353-.196.032.26.071.519.103.77.008 0 .015 0 .023-.008.496-.094.283-.857-.212-.762-.008 0-.016 0-.024.008-.471.094-.306.73.103.77.385.04.715-.047 1.077.157.503.283.825.936.613 1.494-.197.535-.763.842-1.25 1.07-.661.314-1.352.566-2.029.849-.684.283-1.368.566-2.052.841-.597.244-1.368.74-2.028.574-.574-.141-1.188-.645-1.431-1.18-.252-.558-.118-1.163.094-1.713.189-.464-.574-.669-.747-.205z" fill="#231F20"/><path d="M109.156 64.93c-.778.974-.833 2.405.008 3.372.786.904 2.28.708 3.279.354 1.281-.456 2.531-1.195 3.648-1.974.975-.676 2.217-1.478 2.044-2.83-.165-1.274-1.769-1.934-2.909-1.565-.48.157-.275.92.212.763.967-.314 2.414.487 1.793 1.62-.307.55-.975.951-1.478 1.297-.488.338-.991.66-1.51.951-1.124.63-2.351 1.353-3.695 1.235-1.258-.11-1.534-1.785-.842-2.65.323-.409-.235-.967-.55-.574z" fill="#231F20"/><path d="M111.397 68.334c-.362.77-.236 1.98.44 2.563.975.825 2.327.55 3.397.086 1.195-.519 2.366-1.21 3.341-2.068.802-.7 1.424-1.737 1.054-2.83-.189-.55-.613-.983-1.179-1.117-.724-.165-1.416.189-2.029.535-.44.252-.047.928.401.676.48-.275 1.203-.707 1.746-.322.361.251.448.778.369 1.187-.212 1.054-1.455 1.785-2.296 2.304-.951.59-2.178 1.36-3.349 1.29-.48-.032-.991-.229-1.172-.7-.133-.347-.204-.858-.039-1.211.212-.449-.472-.85-.684-.394zM89.138 77.65c-.66 0-1.266-.038-1.808-.11a.401.401 0 01-.338-.44.395.395 0 01.44-.338c3.113.425 8.381-.448 13.759-2.264 2.414-.818 4.671-1.754 6.699-2.784a.384.384 0 01.527.174.384.384 0 01-.173.526 51.647 51.647 0 01-6.809 2.83c-4.545 1.542-9.058 2.407-12.297 2.407zM66.203 92.212a11.705 11.705 0 013.617 6.817c.078.495.833.283.754-.212a12.42 12.42 0 00-3.82-7.163c-.363-.346-.92.212-.551.558z" fill="#231F20"/><path d="M59.19 92.92a.368.368 0 01-.063-.731 33.86 33.86 0 011.847-.307.365.365 0 01.417.314.361.361 0 01-.315.417c-.62.087-1.218.189-1.816.299-.023.008-.047.008-.07.008zm-26.293 25.773c-.031 0-.063 0-.094-.015a.372.372 0 01-.26-.456 46.15 46.15 0 011.195-3.743.369.369 0 01.48-.22.37.37 0 01.22.479 46.635 46.635 0 00-1.18 3.68.392.392 0 01-.361.275zm2.697-7.304a.28.28 0 01-.157-.039.375.375 0 01-.173-.496 40.375 40.375 0 011.87-3.459.379.379 0 01.512-.126.378.378 0 01.126.511 37.669 37.669 0 00-1.832 3.397.402.402 0 01-.346.212zm4.057-6.644a.36.36 0 01-.228-.079.366.366 0 01-.07-.518 32.262 32.262 0 012.586-2.972.372.372 0 11.535.518 32.082 32.082 0 00-2.524 2.902.372.372 0 01-.299.149zM45.1 99.21a.36.36 0 01-.291-.142.365.365 0 01.063-.519 31.646 31.646 0 013.24-2.24.38.38 0 01.51.125.38.38 0 01-.126.511 30.125 30.125 0 00-3.16 2.186.445.445 0 01-.236.079zm6.66-4.002a.366.366 0 01-.339-.22.363.363 0 01.189-.488 33.223 33.223 0 013.688-1.368.372.372 0 01.463.244.368.368 0 01-.243.464 32.364 32.364 0 00-3.61 1.336.364.364 0 01-.149.032zm-19.972 29.131h-.031a.371.371 0 01-.338-.401c0-.032.063-.708.26-1.864a.361.361 0 01.424-.299.36.36 0 01.299.425 21.969 21.969 0 00-.252 1.801.362.362 0 01-.362.338zm5.276 1.58a.39.39 0 01-.377-.385c0-.252.243-1.628.73-3.468a.372.372 0 01.715.197c-.486 1.808-.675 2.98-.706 3.231v.055a.358.358 0 01-.362.37zm1.8-6.935a.33.33 0 01-.117-.023.366.366 0 01-.228-.472 53.483 53.483 0 011.352-3.491.373.373 0 01.487-.197.373.373 0 01.197.488 49.937 49.937 0 00-1.329 3.436.384.384 0 01-.361.259zm2.933-6.817a.452.452 0 01-.173-.039.375.375 0 01-.157-.503 46.168 46.168 0 011.871-3.247.377.377 0 01.511-.118.37.37 0 01.118.511 44.4 44.4 0 00-1.84 3.192.369.369 0 01-.33.204zm3.987-6.258a.366.366 0 01-.228-.079.366.366 0 01-.063-.519c.243-.314.495-.621.747-.928a23.223 23.223 0 011.753-1.879.373.373 0 01.519.535 24.534 24.534 0 00-2.43 2.736.405.405 0 01-.298.134zm5.307-5.142a.371.371 0 01-.299-.15.374.374 0 01.079-.519 32.42 32.42 0 013.16-2.028.363.363 0 01.504.141.366.366 0 01-.142.504 32.467 32.467 0 00-3.09 1.981.33.33 0 01-.212.071zm6.447-3.664a.37.37 0 01-.15-.708c2.06-.904 3.468-1.305 3.531-1.32.197-.064.401.062.456.259a.372.372 0 01-.26.456c-.015 0-1.422.4-3.435 1.29-.04.007-.095.023-.142.023zm-12.666 27.236a.37.37 0 01-.37-.346s-.008-.079-.008-.236c0-.385.032-1.227.26-2.485a.379.379 0 01.432-.299.37.37 0 01.299.433c-.228 1.25-.244 2.06-.244 2.351v.189a.37.37 0 01-.346.393h-.023zm1.179-6.227c-.04 0-.079-.008-.118-.016a.373.373 0 01-.236-.472 37.32 37.32 0 011.36-3.491c.087-.189.307-.275.488-.189a.376.376 0 01.189.488 38.552 38.552 0 00-1.337 3.42.352.352 0 01-.346.26zm3.003-6.778a.375.375 0 01-.33-.55 61.047 61.047 0 011.903-3.216.369.369 0 01.511-.11c.173.11.22.338.11.511a59.709 59.709 0 00-1.879 3.168.345.345 0 01-.315.197zm4.01-6.235a.338.338 0 01-.235-.087.372.372 0 01-.056-.518 21.81 21.81 0 012.642-2.697.373.373 0 11.488.566 21.394 21.394 0 00-2.548 2.602.388.388 0 01-.29.134zm5.567-4.867a.383.383 0 01-.314-.173.369.369 0 01.11-.511c1.863-1.203 3.255-1.793 3.318-1.816a.373.373 0 01.487.196.373.373 0 01-.196.488c-.016.008-1.392.59-3.2 1.753a.332.332 0 01-.205.063zm-9.026 26.198a.369.369 0 01-.26-.11c-.117-.118-.11-.22-.102-.448a.371.371 0 01.37-.354h.016a.37.37 0 01.353.385v.142a.374.374 0 01-.11.275.402.402 0 01-.267.11zm.535-3.845c-.024 0-.056 0-.079-.008a.372.372 0 01-.283-.44c.252-1.164.59-2.382 1.006-3.617a.373.373 0 11.708.236 35.4 35.4 0 00-.983 3.538.392.392 0 01-.37.291zm2.327-7.037a.349.349 0 01-.15-.031c-.188-.079-.275-.299-.188-.488a44.248 44.248 0 011.635-3.365.366.366 0 01.503-.149.366.366 0 01.15.503 47.255 47.255 0 00-1.604 3.31.4.4 0 01-.346.22zm3.475-6.549a.37.37 0 01-.315-.566 52.987 52.987 0 012.084-3.082l.621.408c-.008.008-.008.016-.015.024a55.868 55.868 0 00-2.06 3.051.385.385 0 01-.315.165zm4.505-5.889a.372.372 0 01-.267-.629 54.493 54.493 0 012.69-2.603.374.374 0 01.494.558 49.777 49.777 0 00-2.65 2.564.358.358 0 01-.267.11zm-5.629 22.353h-.032a.374.374 0 01-.26-.142.377.377 0 01-.07-.29 36.71 36.71 0 01.472-2.32.373.373 0 01.723.173 41.869 41.869 0 00-.464 2.272.388.388 0 01-.37.307zm1.407-5.897a.376.376 0 01-.354-.48c.362-1.21.747-2.406 1.164-3.553a.365.365 0 01.472-.221c.196.071.29.283.22.472a61.05 61.05 0 00-1.148 3.507.375.375 0 01-.354.275zm2.556-6.974a.326.326 0 01-.15-.031c-.189-.087-.267-.307-.189-.496a41.293 41.293 0 011.69-3.341.367.367 0 01.504-.142c.18.102.244.33.142.503a42.583 42.583 0 00-1.66 3.287.367.367 0 01-.337.22zm3.648-6.455a.42.42 0 01-.212-.063.376.376 0 01-.095-.519c1.25-1.824 2.202-2.956 2.24-3.004a.38.38 0 01.528-.047c.157.134.18.362.047.527-.008.008-.967 1.156-2.194 2.949a.399.399 0 01-.314.157zm-3.452 20.749a.452.452 0 01-.102-.016.361.361 0 01-.252-.456l.3-1.03a.367.367 0 01.455-.251.367.367 0 01.252.456l-.3 1.03a.361.361 0 01-.353.267zm1.345-4.599a.376.376 0 01-.354-.48c.33-1.109.7-2.327 1.077-3.562a.366.366 0 01.464-.244.369.369 0 01.244.464 529.807 529.807 0 00-1.078 3.562.364.364 0 01-.353.26zm2.193-7.116a.367.367 0 01-.346-.48 90.913 90.913 0 011.203-3.538.375.375 0 01.48-.22c.189.071.29.283.22.48a85.658 85.658 0 00-1.187 3.506.414.414 0 01-.37.252zm2.69-6.919a.37.37 0 01-.33-.535c.99-1.997 1.768-3.239 1.8-3.294a.37.37 0 11.629.393c-.008.016-.787 1.266-1.762 3.224a.39.39 0 01-.338.212z" fill="#1380FF"/><path d="M72.454 33.353c-1.243.448-2.454-.047-2.933-1.368l-.598-1.651c-.48-1.321.142-2.477 1.384-2.925 1.25-.448 2.445.055 2.925 1.376l.597 1.651c.48 1.313-.125 2.461-1.375 2.917zm-2.029-1.738c.315.865.865 1.25 1.738.936.872-.314 1.045-.96.73-1.832l-.565-1.572c-.315-.865-.857-1.258-1.738-.936-.873.314-1.053.967-.739 1.832l.574 1.572zm5.166 6.424c-.024.228-.063.33-.134.425a.343.343 0 01-.18.126c-.064.023-.135.031-.213.023a.416.416 0 01-.346-.244c-.047-.11-.055-.212-.032-.44l1.424-12.148c.031-.228.063-.33.133-.424a.344.344 0 01.181-.126.467.467 0 01.212-.024.416.416 0 01.346.244c.048.11.055.212.032.44L75.59 38.04zm5.779-1.612c-1.243.449-2.453-.047-2.933-1.368l-.598-1.65c-.48-1.322.142-2.478 1.384-2.926 1.25-.448 2.445.055 2.925 1.376l.598 1.651c.48 1.313-.126 2.47-1.376 2.917zm-2.03-1.737c.315.865.865 1.25 1.738.935.873-.314 1.046-.959.731-1.832l-.566-1.572c-.315-.865-.857-1.258-1.738-.944-.873.315-1.053.967-.739 1.832l.574 1.58z" fill="#231F20"/><path d="M92.362 146.252c-.96.338-1.887-.048-2.25-1.07l-.447-1.281c-.362-1.022.118-1.911 1.077-2.249.967-.338 1.887.055 2.249 1.069l.448 1.282c.354 1.022-.118 1.911-1.077 2.249zm-1.557-1.345c.236.668.66.967 1.336.731.677-.236.81-.739.574-1.407l-.432-1.219c-.236-.668-.653-.975-1.329-.731-.676.236-.817.739-.582 1.407l.433 1.219zm3.939 4.969c-.024.173-.047.252-.102.33a.329.329 0 01-.142.103c-.047.015-.102.023-.165.015a.324.324 0 01-.267-.188c-.04-.087-.04-.165-.024-.338l1.156-9.349c.024-.173.047-.252.102-.33a.328.328 0 01.307-.118.325.325 0 01.267.189.62.62 0 01.024.338l-1.156 9.348zm4.466-1.211c-.96.339-1.887-.047-2.249-1.069l-.448-1.281c-.362-1.023.118-1.911 1.077-2.249.967-.338 1.887.055 2.249 1.069l.448 1.282c.354 1.022-.11 1.91-1.077 2.248zm-1.557-1.344c.236.668.66.967 1.337.731.676-.236.81-.739.574-1.407l-.433-1.219c-.236-.668-.652-.975-1.329-.731-.676.236-.817.739-.581 1.407l.432 1.219z" fill="#231F20" stroke="#231F20" stroke-width=".2" stroke-miterlimit="10"/><path d="M143.751 80.843c3.656-4.537 6.314-9.765 9.585-14.57 2.988-4.379 6.762-9.065 12.281-10.048 1.423-.251 2.941-.66 4.026-1.682 1.266-1.196 1.022-2.524.542-4.034-.149-.48-.912-.275-.755.212.276.857.645 1.707.205 2.571-.315.63-.936 1.062-1.549 1.376-1.258.645-2.634.708-3.963 1.085-2.264.645-4.261 1.95-5.991 3.523-4.049 3.687-6.833 8.625-9.679 13.24-1.643 2.658-3.294 5.331-5.252 7.769-.322.393.236.951.55.558z" fill="#231F20"/><path d="M153.996 25.113c-1.187 6.707-1.965 14.278 1.793 20.34 1.447 2.336 3.184 4.191 5.802 5.166 2.328.873 4.946.983 7.36.433 2.618-.598 5.016-2.037 6.494-4.301.276-.425-.401-.818-.676-.393-2.555 3.915-8.028 5.04-12.305 3.727-5.362-1.636-8.035-7.604-8.491-12.809-.354-4.033.086-7.988.786-11.959.079-.487-.676-.7-.763-.204zm-27.228 38.314a110.797 110.797 0 005.787 7.202c3.129 3.594 6.778 6.629 10.001 10.127a114.536 114.536 0 013.169 3.578c.33.385.88-.173.558-.558-2.272-2.69-4.647-5.363-7.273-7.713-3.444-3.083-6.479-6.526-9.341-10.143a99.172 99.172 0 01-2.217-2.886c-.299-.409-.983-.015-.684.393zm41.381-8.295c-.252 2.736-.606 6.628 2.885 7.313 1.911.377 4.183-.087 5.96-.787 2.178-.857 4.144-2.217 5.858-3.805 1.981-1.832 3.68-4.042 4.741-6.534.197-.464-.48-.865-.676-.393-1.054 2.484-2.744 4.662-4.726 6.479-2.012 1.84-4.536 3.546-7.265 4.057-2.005.377-5.205.88-5.936-1.714-.401-1.423-.181-3.145-.047-4.608.039-.51-.747-.51-.794-.008zm32.244 28.534c-1.132 5.016-4.269 9.663-4.293 14.907-.031 5.913 4.042 10.544 5.889 15.898.165.472.92.275.755-.212-1.816-5.268-5.889-9.891-5.857-15.694.023-5.15 3.152-9.765 4.269-14.703.102-.48-.653-.684-.763-.196zm-40.366 12.792c-2.744-8.185-5.197-16.755-1.698-25.121.196-.464-.567-.668-.755-.212-3.554 8.484-1.085 17.234 1.698 25.537.157.48.92.276.755-.204z" fill="#231F20"/><path d="M201.982 114.479c2.405 6.211 3.428 12.926 3.954 19.531.598 7.532.488 15.119-.149 22.644a136.217 136.217 0 01-1.612 12.352c-.086.495.668.708.755.212 1.321-7.367 2.013-14.86 2.154-22.337.142-7.399-.228-14.861-1.525-22.157-.637-3.554-1.51-7.076-2.815-10.449-.181-.472-.943-.268-.762.204zm-15.073-46.594c-1.439 2.406-2.988 4.75-4.411 7.171-1.195 2.029-2.304 4.104-3.507 6.125-2.437 4.112-5.362 7.973-9.694 10.23-1.541.801-3.593 1.422-4.671 2.9-.298.41.386.802.677.394.896-1.227 3.113-1.942 4.521-2.69 2.005-1.06 3.797-2.492 5.33-4.15 3.145-3.397 5.229-7.58 7.517-11.559 1.565-2.72 3.302-5.338 4.914-8.035.26-.425-.417-.818-.676-.386zm-45.768 11.157c-.008 2.917-.747 5.638-2.61 7.934-1.054 1.297-2.32 2.579-3.916 3.168-1.415.527-2.972.582-4.45.354-.496-.079-.708.676-.212.755 1.596.251 3.255.22 4.788-.322 1.722-.606 3.074-1.88 4.222-3.255 2.076-2.485 2.948-5.434 2.964-8.642.008-.503-.778-.503-.786.008zm20.128-34.265c.637.873 1.769 1.109 2.783.841.975-.251 1.848-1.14 2.131-2.099.15-.487-.613-.692-.755-.212-.204.684-.841 1.329-1.533 1.533-.652.189-1.525.118-1.95-.464-.126-.173-.338-.26-.534-.141-.165.102-.268.37-.142.542zm-4.573-9.751c.079-.695-.288-1.306-.819-1.366-.531-.06-1.024.455-1.103 1.15-.078.694.288 1.306.819 1.366.531.06 1.025-.455 1.103-1.15zm10.078-.002c.078-.695-.288-1.306-.819-1.366-.531-.06-1.025.454-1.103 1.15-.078.694.288 1.306.819 1.365.531.06 1.025-.454 1.103-1.149zm-7.447 1.128c-.134 1.219-.275 2.445-.409 3.664-.023.212.197.393.393.393.236 0 .37-.18.393-.393.134-1.219.276-2.445.409-3.664.024-.212-.196-.393-.393-.393-.236 0-.369.189-.393.393z" fill="#231F20"/><path d="M179.785 38.983l1.652 2.877s8.405-1.556 12.918 4.057c5.346 6.652 14.805 10.002 22.345 9.522 15.151-.951 20.812-9.388 20.812-9.388L209.86 26.93l-30.075 12.054z" fill="#1380FF"/><path d="M216.779 55.384c15.294 0 27.692-12.398 27.692-27.692S232.073 0 216.779 0s-27.692 12.398-27.692 27.692 12.398 27.692 27.692 27.692zm48.386-4.615c10.009 0 18.123-8.114 18.123-18.124 0-10.009-8.114-18.123-18.123-18.123s-18.123 8.114-18.123 18.123c0 10.01 8.114 18.123 18.123 18.123z" fill="#1380FF"/><path d="M153.092 18.996c1.478-3.452 5.378-8.72 14.113-10.615 7.635-1.65 13.147.928 20.459 3.515 3.554 1.258 6.628 1.093 9.608-1.895l34.8-4.843s7.052 3.467 10.638 12.792c1.997 5.197 6.313 5.795 9.56 1.966 0 0-2.154 22.825-2.107 22.88.04.055-1.187-2.21-5.543-2.084-1.792.055-3.845 1.133-6.447 4.56-2.579 3.397-58.293-6.085-58.293-6.085s4.348-4.348 1.313-6.148c-.912-.543-1.84-.543-1.84-.543l-1.981 1.219s-1.376-2.587-6.055-4.789c-8.601-4.065-10.142-6.903-10.142-6.903s-1.549 2.791-4.6 5.339c-2.138 1.777-2.822 2.044-3.286 2.264-.464.22-.763.173-.999-.228-.244-.393-1.926-4.018.802-10.402z" fill="#1380FF"/><path d="M159.752 111.271c-3.373.252-6.754.503-10.12.857-1.831.197-3.656.417-5.48.676-1.612.228-3.554.252-5.055.897-1.596.684-3.145 1.525-4.741 2.233-1.73.762-3.452 1.58-5.221 2.264a25.225 25.225 0 01-5.3 1.407 25.258 25.258 0 01-3.176.268c-1.022.023-2.131.086-3.043-.464-.432-.26-.833.417-.393.676 1.407.849 3.334.621 4.898.495a25.519 25.519 0 005.496-1.038c1.62-.495 3.153-1.187 4.694-1.863 1.832-.81 3.719-1.549 5.52-2.437.817-.409 1.549-.905 2.461-1.093.967-.197 1.965-.291 2.933-.433 2.004-.298 4.009-.558 6.022-.77 3.491-.378 6.998-.637 10.505-.897.503-.031.503-.817 0-.778zm19.656-72.186a88.403 88.403 0 003.114 6.738c.424.818.849 1.628 1.336 2.406.488.77.952 1.683 1.636 2.296 1.022.912 2.555 1.384 3.821 1.824 1.203.417 2.429.731 3.656 1.093 3.884 1.148 7.918 2.783 10.559 5.983 1.353 1.644 1.942 3.523 2.076 5.622.354 5.638-1.753 11.4-4.238 16.362-3.719 7.414-9.058 13.964-15.182 19.515-4.12 3.735-8.476 6.84-13.784 8.657-3.215 1.1-6.651.99-9.985 1.454-.495.071-.283.826.212.755 2.87-.393 5.842-.314 8.657-1.046 4.592-1.187 8.782-3.672 12.423-6.651 6.714-5.496 12.627-12.109 16.936-19.665 2.98-5.228 5.441-11.165 5.755-17.242.102-1.966-.031-4.034-.786-5.882-1.234-3.027-4.183-5.189-7.029-6.58-3.381-1.66-7.1-2.257-10.552-3.696-.747-.314-1.619-.66-2.186-1.258-.707-.755-1.265-1.816-1.776-2.72-1.486-2.619-2.745-5.394-3.9-8.177-.197-.456-.96-.26-.763.212zm23.281 7.587c9.75 6.047 23.242 4.655 31.568-3.215.425-.401-.22-1.046-.644-.645-8.036 7.603-21.072 8.908-30.468 3.074-.503-.307-.959.48-.456.786zm53.717-4.316c2.532 2.704 6.235 4.245 9.954 3.978 3.68-.267 7.045-2.217 9.207-5.181.346-.472-.44-.928-.786-.456-2.021 2.767-5.276 4.584-8.712 4.74-3.396.158-6.714-1.257-9.026-3.726-.393-.425-1.038.22-.637.645zm3.994-4.749c1.824 2.209 5.473 2.39 7.548.44.425-.401-.212-1.046-.644-.645-1.738 1.628-4.757 1.376-6.259-.44-.369-.456-1.014.196-.645.645zm-2.358-11.912c1.8-1.8 4.3-2.784 6.848-2.697.582.024.582-.888 0-.912a10.215 10.215 0 00-7.493 2.956c-.417.417.228 1.062.645.653zm-22.346-5.818c.991 1.179 1.989 2.35 2.98 3.53.157.189.48.165.645 0 .189-.189.157-.456 0-.645-.991-1.18-1.989-2.35-2.98-3.53-.157-.189-.48-.165-.645 0-.181.189-.157.456 0 .645zM207.501 40.5a14.067 14.067 0 007.383 2.689c.582.04.582-.865 0-.912a13.221 13.221 0 01-6.919-2.563c-.472-.338-.928.448-.464.786z" fill="#231F20"/><path d="M177.922 33.793c.59-.833 1.777-1.163 2.697-.668.936.503 1.274 1.502 1.132 2.508-.267 1.91-2.052 3.468-3.978 3.46-.504 0-.504.786 0 .786 1.942.016 3.719-1.282 4.458-3.05.369-.897.487-1.99.11-2.902-.37-.896-1.203-1.604-2.162-1.777-1.141-.197-2.273.315-2.933 1.242-.299.417.385.81.676.401zm-13.02 61.03c.684.4 1.148 1.313 1.525 1.973a22.88 22.88 0 011.785 3.947c.511 1.478.833 2.996 1.156 4.521.361 1.698.668 3.405.762 5.142.024.503.81.503.786 0-.094-1.753-.393-3.483-.754-5.205-.37-1.753-.747-3.507-1.376-5.189-.504-1.345-1.101-2.658-1.84-3.884-.425-.7-.92-1.557-1.651-1.99-.433-.259-.826.425-.393.685zm-51.838 24.601c.605.747 1.501 1.18 2.469 1.078.927-.095 1.871-.354 2.775-.574 1.942-.464 3.923-.999 5.732-1.864.456-.22.055-.896-.393-.676-1.604.771-3.358 1.242-5.079 1.675-.818.204-1.644.393-2.469.558-.999.197-1.801.094-2.477-.739-.322-.409-.873.149-.558.542zm47.104-6.966c-1.273 4.317-2.044 8.728-2.649 13.178-.071.495.692.708.754.212.606-4.45 1.376-8.869 2.65-13.177.15-.496-.613-.7-.755-.213zm105.414 57.145h-26.135c-5.504 0-8.673-2.28-9.962-7.17a10.597 10.597 0 01-.645-4.561 31.449 31.449 0 01-.047-1.784c0-18.069 6.211-25.609 6.479-25.915a.41.41 0 01.298-.142h33.888c.118 0 .228.047.299.142.267.314 6.479 7.846 6.479 25.915 0 .629-.016 1.226-.048 1.808.11 1.58-.11 3.121-.66 4.576-1.274 4.851-4.442 7.131-9.946 7.131zm-29.823-38.793c-.833 1.108-6.18 8.821-6.18 25.27 0 .621.016 1.219.047 1.792-.11 1.518.102 2.957.614 4.317 1.21 4.592 4.049 6.628 9.214 6.628h26.136c5.165 0 8.004-2.028 9.207-6.589a9.993 9.993 0 00.621-4.308v-.048a33.21 33.21 0 00.047-1.792c0-16.441-5.347-24.162-6.18-25.27h-33.526z" fill="#231F20"/><path d="M268.971 130.81h-33.236c-.77 0-1.399-.629-1.399-1.4 0-.77.629-1.4 1.399-1.4h33.236c.77 0 1.399.63 1.399 1.4 0 .771-.629 1.4-1.399 1.4zm-33.236-2.013a.614.614 0 000 1.226h33.236a.614.614 0 000-1.226h-33.236z" fill="#231F20"/><path d="M250.242 73.727c1.226.181 2.367.747 3.381 1.44.503.337 1.014.691 1.439 1.123.401.417.77.873 1.258 1.188.008-.079.008-.157.015-.228.095-.818.472-1.565.967-2.21.543-.7 1.227-1.281 1.943-1.8a18.099 18.099 0 012.288-1.376c.353-.181.707-.354 1.069-.527.086-.04.181-.07.275-.11.032-.29.055-.59.055-.889a7.584 7.584 0 00-7.579-7.579 7.584 7.584 0 00-7.58 7.58c0 1.179.275 2.295.755 3.286.566.047 1.148.016 1.714.102zm20.348 14.137c.15.315.283.637.433.952.149.322.322.629.479.95.362.716.621 1.48.802 2.257.181.81.291 1.636.393 2.454.095.77.189 1.596-.047 2.35l.126-.125c.684-.63 1.51-1.101 2.343-1.494.841-.401 1.714-.731 2.587-1.07a8.762 8.762 0 013.208-.597 8.28 8.28 0 011.643.189c.212.047.401.126.598.212a7.65 7.65 0 00.574-2.878 7.584 7.584 0 00-7.58-7.58 7.57 7.57 0 00-6.243 3.287c.283.323.503.708.684 1.093zm-46.2 2.862c1.313-.18 2.665-.008 3.947.283.589.134 1.179.283 1.73.52.676.274 1.383.534 1.965.99a9.377 9.377 0 01.582-3.248c.157-.424.346-.84.605-1.21.236-.338.527-.637.834-.912.645-.582 1.384-1.062 2.138-1.494.229-.134.464-.26.7-.386-.794-3.333-3.789-5.818-7.367-5.818a7.583 7.583 0 00-7.579 7.58c0 1.486.432 2.87 1.179 4.041a5.034 5.034 0 011.266-.346z" fill="#FBDA00"/><path d="M236.443 127.806c-1.51-2.956-4.12-5.126-5.567-8.122-.11.197-.228.393-.338.59 1.817-.048 3.633.07 5.433-.189 1.777-.252 3.153-1.03 4.718-1.856.857-.448 1.73-.888 2.712-.951.913-.063 1.754.197 2.603.503 1.753.637 3.263.771 5.126.543a18.36 18.36 0 002.611-.488c.888-.228 1.682-.629 2.547-.912 1.353-.448 2.729.102 3.932.716 1.085.55 2.162 1.281 3.365 1.549 1.155.251 1.84-.15 2.704-.842 1.007-.81 2.925.299 3.908.724 1.172.503 2.508 1.25 3.829 1.14l-.377-.496c-1.172 3.067-3.57 5.276-5.355 7.957-.283.425.401.818.677.393 1.832-2.751 4.23-4.992 5.433-8.145.086-.228-.142-.519-.378-.496-1.274.103-2.618-.691-3.75-1.171-1.03-.44-2.194-1.014-3.342-.967-1.085.047-1.517 1.171-2.594 1.203-1.251.031-2.485-.881-3.547-1.431-1.108-.574-2.319-1.132-3.593-1.093a4.167 4.167 0 00-1.541.362c-.896.377-1.792.684-2.744.896-1.95.432-4.065.715-5.991.055-1.541-.527-2.98-1.077-4.623-.613-1.848.519-3.326 1.879-5.174 2.382-2.138.59-4.395.37-6.589.433-.314.007-.471.322-.338.589 1.447 2.996 4.057 5.166 5.567 8.122.228.464.904.071.676-.385z" fill="#231F20"/><path d="M259.701 128.404c.228-1.227.699-2.304 1.321-3.373.629-1.078 1.202-2.155 1.564-3.35.15-.487-.613-.692-.755-.212-.361 1.195-.951 2.241-1.572 3.31-.621 1.077-1.085 2.186-1.313 3.412-.102.496.66.708.755.213zm-22.275-7.981c1.25 2.579 2.665 5.134 3.491 7.886.141.488.904.275.755-.212-.842-2.815-2.296-5.433-3.57-8.075-.22-.456-.896-.055-.676.401zm11.833 7.58a21.756 21.756 0 00-1.879-5.04c-.236-.448-.912-.055-.676.393a20.453 20.453 0 011.8 4.851c.11.495.865.291.755-.204zm2.257-9.954c.825-3.145 1.321-6.283 1.722-9.522 1.069-8.68 1.91-17.384 2.979-26.064.126-1.03.26-2.068.394-3.098.031-.26.07-.52.102-.786.023-.158.023-.15.023-.181.071-.496-.692-.708-.754-.213-.567 4.191-1.054 8.39-1.534 12.596-.597 5.166-1.124 10.347-1.729 15.513-.338 2.878-.653 5.779-1.211 8.625-.197.991-.503 1.942-.755 2.917-.126.488.629.7.763.213z" fill="#231F20"/><path d="M256.626 78.854c.213-.11.543-.032.763-.024.212.008.425 0 .637-.008a9.934 9.934 0 001.517-.212 8.954 8.954 0 002.65-1.077 8.875 8.875 0 003.53-4.136c.338-.81.629-1.746.653-2.634.008-.33-.094-.676-.44-.794-.417-.142-1.038.197-1.424.33a22.769 22.769 0 00-5.527 2.815c-1.753 1.227-3.389 2.98-3.011 5.284.078.495.841.283.754-.213-.306-1.847 1.141-3.326 2.517-4.3a21.449 21.449 0 014.67-2.532c.393-.157.794-.3 1.203-.433.078-.023.535-.212.566-.18-.102-.118-.173.558-.181.59a8.226 8.226 0 01-.739 2.264 7.988 7.988 0 01-3.318 3.451c-.802.44-1.683.74-2.587.889-.487.078-.983.11-1.47.102-.417-.008-.778-.063-1.164.134-.448.235-.047.912.401.684z" fill="#231F20"/><path d="M256.862 78.319c-1.942-3.231-5.527-5.22-9.309-5.064-.488.024-.975.08-1.463.166-.314.055-.715.102-.904.408-.354.574.158 1.62.464 2.108.983 1.58 2.768 2.311 4.529 2.61 1.172.204 2.382.33 3.57.354.566.008 1.124-.016 1.682-.094.464-.071.92-.126 1.187-.543.276-.425-.408-.826-.676-.393-.094.141-.471.141-.613.165-.315.047-.629.07-.944.079a15.109 15.109 0 01-1.69-.055c-1.022-.08-2.06-.181-3.066-.425-.983-.236-1.942-.637-2.681-1.352a3.793 3.793 0 01-.732-.96 3.33 3.33 0 01-.259-.652c-.079-.307-.15-.37.157-.456.928-.268 2.044-.228 2.996-.11a9.48 9.48 0 013.09.92 9.677 9.677 0 013.986 3.703c.259.424.936.023.676-.409zm-13.413 38.503c-.606-2.343-1.361-4.663-2.123-6.958-1.62-4.899-3.13-9.923-6.337-14.05-.724-.936-1.51-1.864-2.399-2.65-.377-.33-.935.22-.558.558 3.774 3.31 5.653 8.035 7.273 12.643 1.235 3.506 2.453 7.052 3.389 10.661.118.488.88.283.755-.204z" fill="#231F20"/><path d="M232.331 93.73c2.021-.283 3.837-1.447 5.063-3.059 1.353-1.777 1.935-4.041 1.88-6.259a.396.396 0 00-.496-.377c-1.006.228-1.918.716-2.767 1.297-.818.567-1.659 1.18-2.383 1.872-1.564 1.494-1.957 3.805-2.036 5.881-.016.503.77.503.786 0 .079-1.934.433-4.065 1.919-5.425.668-.614 1.423-1.172 2.17-1.683.778-.527 1.596-.967 2.516-1.18-.165-.125-.331-.25-.496-.377.048 2.037-.464 4.105-1.69 5.748-1.124 1.51-2.815 2.547-4.678 2.807-.496.063-.283.818.212.755z" fill="#231F20"/><path d="M232.284 92.826c-3.004-2.532-7.305-3.13-10.89-1.518-.204.094-.228.362-.141.535 1.03 2.083 3.325 2.9 5.503 3.097 2.053.19 4.278-.039 5.874-1.462.377-.338-.181-.888-.558-.558-1.384 1.234-3.35 1.384-5.119 1.25-1.981-.15-4.081-.834-5.024-2.728l-.142.534c3.24-1.454 7.226-.888 9.939 1.392.385.338.943-.212.558-.542zm30.436 25.608c.762-4.435 2.28-8.846 4.34-12.832 1.439-2.791 3.184-6.007 5.661-8.051.393-.323-.165-.873-.558-.558-2.516 2.083-4.317 5.37-5.787 8.208-2.092 4.049-3.648 8.515-4.419 13.021-.078.495.676.707.763.212z" fill="#231F20"/><path d="M272.933 97.118c.291-1.98.566-4.057-.259-5.944-.802-1.84-2.076-3.719-3.413-5.22-.338-.378-.919-1.156-1.493-.637-.441.4-.394 1.58-.472 2.138-.275 2.076.369 4.05 1.156 5.96.699 1.706 1.706 3.232 3.278 4.246 1.533.99 3.421 1.431 5.237 1.376 2.013-.063 3.97-.716 5.739-1.643.708-.37 1.683-.787 2.226-1.392.471-.519.031-1.164-.346-1.604-1.463-1.738-4.057-1.368-5.952-.684-1.125.401-2.225.888-3.311 1.376-1.092.487-2.201.96-3.105 1.761-.378.338.181.897.558.558 1.258-1.124 3.09-1.73 4.631-2.366 1.541-.637 3.208-1.353 4.906-1.038.543.102 2.391.802 1.769 1.651-.188.252-.731.472-.998.629a16.8 16.8 0 01-1.172.637c-1.454.723-3.058 1.234-4.686 1.329-3.113.173-6.038-1.195-7.524-3.995a16.773 16.773 0 01-1.604-4.52c-.157-.826-.11-1.597.008-2.422.047-.315.039-.723.157-1.022.016-.047.023-.205.039-.213.032-.007.338.37.401.44 1.18 1.33 2.202 2.95 3.027 4.53.967 1.855.732 3.891.441 5.88-.063.48.692.693.762.19zm-12.949 34.006a9.551 9.551 0 002.445 3.798c.369.346.928-.205.558-.559a8.858 8.858 0 01-2.249-3.451c-.07-.197-.267-.331-.487-.276-.189.056-.338.284-.267.488zm-17.919-.354a5.118 5.118 0 01-.519 1.368 4.78 4.78 0 01-.896 1.156.402.402 0 000 .558c.149.15.401.15.558 0a5.863 5.863 0 001.62-2.869.41.41 0 00-.276-.488c-.196-.055-.44.063-.487.275zm7.115-.228a10.47 10.47 0 01-.841 4.207c-.086.196-.055.424.142.534.165.095.456.055.534-.141.629-1.455.96-3.012.952-4.6-.008-.511-.794-.511-.787 0z" fill="#231F20"/><path d="M40.508 107.371s-2.084 3.122-.637 6.833c1.447 3.711 4.552 3.003 4.552 3.003s1.762-3.632.488-6.447-4.403-3.389-4.403-3.389z" fill="#FBDA00"/><path d="M45.1 126.116c-1.211-1.195-.747-2.972-.346-4.411.424-1.533.802-3.247-.079-4.694-.26-.433-.943-.039-.676.401.96 1.572.102 3.444-.26 5.063-.33 1.471-.33 3.075.81 4.207.354.346.912-.212.55-.566z" fill="#231F20"/><path d="M44.636 117.404c1.242-1.903 1.494-4.38.59-6.471-.85-1.966-2.634-3.436-4.71-3.947a.408.408 0 00-.448.181c-1.235 2.131-1.541 4.812-.676 7.131.754 2.037 2.783 3.586 5 3.279.503-.071.283-.826-.212-.763-1.99.275-3.664-1.407-4.183-3.184a7.772 7.772 0 01.747-6.07c-.15.063-.299.118-.448.181 1.832.448 3.412 1.722 4.183 3.451.833 1.88.581 4.105-.535 5.811-.267.432.417.825.692.401zm14.192 20.812h-26.89a1.211 1.211 0 010-2.422h26.89a1.211 1.211 0 010 2.422zm-26.89-1.627a.427.427 0 00-.425.424c0 .236.189.425.425.425h26.89a.428.428 0 00.424-.425.422.422 0 00-.424-.424h-26.89z" fill="#231F20"/><path d="M32.991 135.928c-1.855-2.005-3.443-4.301-4.867-6.628-.11.197-.228.393-.338.59a11.061 11.061 0 004.105-1.015c1.407-.668 2.107-2.248 3.593-2.728 1.494-.479 2.036.802 3.216 1.305.833.362 1.706.205 2.547-.047 1.077-.322 2.139-.715 3.287-.542.81.118 1.525.495 2.209.935.362.236.708.433 1.148.472 1.91.181 3.279-1.879 5.229-1.832 1.588.039 2.98 1.36 4.403 1.974 1.4.605 3.019 1.21 4.568 1.077l-.378-.496c-.967 2.422-1.722 5.032-3.585 6.935-.354.362.204.92.558.558 1.966-2.012 2.768-4.733 3.782-7.28.094-.228-.141-.519-.377-.496-1.541.134-3.193-.511-4.568-1.14-1.235-.566-2.344-1.557-3.696-1.824-.96-.189-1.895 0-2.767.409-.842.385-1.62 1.061-2.524 1.289-1.117.291-2.076-.841-3.106-1.163-1.085-.338-2.194-.26-3.27.039-.905.252-1.935.779-2.886.519-1.093-.299-1.589-1.439-2.815-1.565-1.612-.165-2.69 1.023-3.688 2.084-1.163 1.234-3.357 1.683-4.977 1.761-.29.016-.503.323-.338.59 1.455 2.382 3.082 4.733 4.985 6.785.338.362.888-.196.55-.566z" fill="#231F20"/><path d="M53.442 136.117l.023-.268c0-.023.008-.047.008-.078-.008.039-.008.039 0-.008a.615.615 0 00.016-.11 6.23 6.23 0 01.118-.527 3.84 3.84 0 01.173-.511c.016-.039.031-.071.04-.11-.024.063.03-.071.039-.079.039-.078.078-.165.117-.243.095-.181.056-.433-.141-.535-.18-.094-.44-.055-.535.141a6.065 6.065 0 00-.644 2.336c-.016.204.188.401.393.393a.412.412 0 00.393-.401zm-7.037-.165v-2.626c0-.205-.18-.401-.393-.394a.4.4 0 00-.393.394v2.626c0 .204.18.401.393.393.212-.008.393-.165.393-.393zm-6.911.141a16.04 16.04 0 00-1.596-4.529c-.236-.448-.912-.047-.677.401a15.484 15.484 0 011.518 4.341c.04.212.29.33.487.275.213-.063.307-.275.268-.488zm-1.124 1.879a12.794 12.794 0 00-.85 3.9c-.016.212.189.393.393.393.228 0 .378-.181.394-.393a12.12 12.12 0 01.825-3.687c.079-.197-.087-.433-.275-.488-.228-.063-.417.071-.488.275zm14.569.339a15.4 15.4 0 012.193 4.568c.142.487.904.275.763-.213a16.16 16.16 0 00-2.272-4.756c-.291-.409-.975-.016-.684.401z" fill="#231F20"/><path d="M55.942 169.603H34.808c-4.498 0-7.077-1.863-8.13-5.857a8.665 8.665 0 01-.527-3.719 26.35 26.35 0 01-.04-1.439c0-14.648 5.048-20.765 5.26-21.017a.416.416 0 01.3-.141h27.416c.118 0 .228.047.299.141.212.252 5.26 6.369 5.26 21.017 0 .511-.016.991-.04 1.462a8.988 8.988 0 01-.534 3.735c-1.046 3.955-3.633 5.818-8.13 5.818zM31.86 138.216c-.739.983-4.961 7.226-4.961 20.364 0 .503.016.983.04 1.447a8.105 8.105 0 00.487 3.467c.975 3.688 3.247 5.315 7.383 5.315H55.95c4.136 0 6.408-1.627 7.375-5.275a8.048 8.048 0 00.503-3.46v-.047c.024-.464.04-.944.04-1.447 0-13.146-4.23-19.381-4.962-20.364H31.86z" fill="#231F20"/><path d="M58.694 138.216h-26.89a1.211 1.211 0 010-2.422h26.89c.668 0 1.203.543 1.203 1.211a1.21 1.21 0 01-1.203 1.211zm-26.89-1.627a.427.427 0 00-.424.424c0 .236.188.425.424.425h26.89a.421.421 0 00.417-.425.42.42 0 00-.417-.424h-26.89zm20.969 24.759c-3.726 0-6.643-1.361-6.643-3.098 0-1.738 2.917-3.098 6.643-3.098 3.727 0 6.644 1.36 6.644 3.098 0 1.737-2.917 3.098-6.644 3.098zm0-5.418c-3.451 0-5.857 1.219-5.857 2.312 0 1.093 2.406 2.312 5.858 2.312 3.451 0 5.857-1.219 5.857-2.312 0-1.093-2.406-2.312-5.858-2.312z" fill="#231F20"/><path d="M52.773 162.818c-3.726 0-6.643-1.36-6.643-3.098v-.322a28.551 28.551 0 010-1.164c.008-.126.015-.22.023-.275.008-.031.016-.063.032-.094.298-1.549 3.082-2.721 6.588-2.721 3.287 0 5.976 1.038 6.534 2.524.024.031.047.11.071.212.016.071.032.126.032.205.007.086.007.126.007.165 0 .023-.007.094-.007.11l.007 1.36c0 1.73-2.917 3.098-6.644 3.098zm-5.865-4.655c.008 0 .008.04 0 .095-.016.299-.008.778 0 1.124v.338c0 1.093 2.406 2.312 5.858 2.312 3.451 0 5.857-1.219 5.857-2.312l-.008-1.384c0-.015.008-.063.008-.094 0-.024-.008-.063-.008-.063v-.094c-.007-.016-.047-.118-.055-.134-.37-.991-2.641-2.013-5.794-2.013-3.342 0-5.638 1.117-5.842 2.155-.008.023-.016.063-.032.086.016-.008.016-.016.016-.016z" fill="#231F20"/><path d="M52.773 164.155c-3.726 0-6.643-1.361-6.643-3.098 0-.267.07-.535.204-.794a.398.398 0 01.535-.165.398.398 0 01.165.534.87.87 0 00-.118.425c0 1.093 2.406 2.311 5.858 2.311 3.451 0 5.857-1.218 5.857-2.311a.911.911 0 00-.141-.472.398.398 0 01.141-.542.398.398 0 01.543.141c.165.275.251.574.251.873-.008 1.737-2.925 3.098-6.651 3.098z" fill="#231F20"/><path d="M52.773 165.625c-3.726 0-6.643-1.36-6.643-3.098v-.322a28.551 28.551 0 010-1.164c.008-.126.015-.22.023-.275.008-.031.016-.063.032-.094.039-.213.236-.315.456-.276.212.04.338.283.299.496-.008.023-.016.063-.032.086.016-.039.016.024.008.079-.016.299-.008.778 0 1.124v.338c0 1.093 2.406 2.312 5.858 2.312 3.451 0 5.857-1.219 5.857-2.312l-.008-1.384c0-.023.008-.078.008-.102l-.008-.086c0-.008-.015-.087-.015-.102-.103-.189-.04-.456.149-.559.189-.102.425-.063.527.134.04.079.07.165.094.259.016.071.032.126.032.205.007.086.007.126.007.165 0 .024-.007.094-.007.11l.007 1.36c0 1.746-2.917 3.106-6.644 3.106zM38 155.553c-3.727 0-6.644-1.36-6.644-3.098 0-1.737 2.917-3.098 6.644-3.098 3.727 0 6.644 1.361 6.644 3.098 0 1.738-2.917 3.098-6.644 3.098zm0-5.409c-3.452 0-5.858 1.218-5.858 2.311s2.406 2.312 5.858 2.312c3.451 0 5.857-1.219 5.857-2.312 0-1.093-2.406-2.311-5.857-2.311z" fill="#231F20"/><path d="M38 157.023c-3.727 0-6.644-1.36-6.644-3.097v-.323c0-.354-.008-.833 0-1.14v-.063c.008-.11.016-.196.023-.244.008-.023.016-.062.024-.086.299-1.549 3.082-2.721 6.589-2.721 3.287 0 5.976 1.038 6.534 2.524a.815.815 0 01.07.213c.016.07.032.133.032.204.008.087.008.126.008.157 0 .024-.008.095-.008.11l.008 1.361c.008 1.745-2.91 3.105-6.636 3.105zm-5.866-4.544c-.015.306-.008.778 0 1.116v.331c0 1.092 2.406 2.311 5.858 2.311 3.452 0 5.858-1.219 5.858-2.311l-.008-1.384c0-.016.008-.063.008-.095 0-.023-.008-.063-.008-.063v-.094c-.008-.016-.047-.126-.055-.141-.37-.991-2.642-2.013-5.795-2.013-3.342 0-5.637 1.116-5.842 2.154-.008.024-.016.063-.024.087.008-.024.008.023.008.078.008.016.008.016 0 .024z" fill="#231F20"/><path d="M38 158.368c-3.727 0-6.644-1.36-6.644-3.098 0-.267.07-.535.204-.794a.398.398 0 01.535-.165.398.398 0 01.165.534.87.87 0 00-.118.425c0 1.093 2.406 2.312 5.858 2.312 3.451 0 5.857-1.219 5.857-2.312a.911.911 0 00-.141-.472.387.387 0 01.141-.534.387.387 0 01.535.141c.165.283.252.574.252.873 0 1.73-2.917 3.09-6.644 3.09z" fill="#231F20"/><path d="M38 159.838c-3.727 0-6.644-1.36-6.644-3.098v-.322c0-.354-.008-.834 0-1.14v-.063c.008-.11.016-.197.023-.244.008-.023.016-.063.024-.086.047-.213.236-.315.456-.276.212.04.338.284.299.496-.008.023-.016.063-.024.086.008-.015.008.024.008.079v.016c-.016.306-.008.778 0 1.116v.33c0 1.093 2.406 2.312 5.858 2.312 3.451 0 5.857-1.219 5.857-2.312l-.008-1.383c0-.024.008-.079.008-.095l-.008-.086c0-.008-.015-.095-.015-.103-.102-.196-.04-.456.157-.558.189-.102.425-.055.519.134.04.079.07.157.087.252.015.07.03.133.03.204.009.086.009.126.009.157 0 .024-.008.095-.008.11l.008 1.36c.008 1.754-2.91 3.114-6.636 3.114z" fill="#231F20"/><path d="M38 161.245c-3.727 0-6.644-1.36-6.644-3.097 0-.268.07-.535.204-.795a.4.4 0 01.535-.165.4.4 0 01.165.535.893.893 0 00-.118.425c0 1.093 2.406 2.311 5.858 2.311 3.451 0 5.857-1.218 5.857-2.311a.909.909 0 00-.141-.472.4.4 0 01.141-.543c.19-.118.425-.047.543.142.165.275.252.574.252.873-.008 1.737-2.925 3.097-6.652 3.097z" fill="#231F20"/><path d="M38 162.716c-3.727 0-6.644-1.36-6.644-3.098v-.322c0-.354-.008-.834 0-1.141v-.062c.008-.111.016-.197.023-.244.008-.024.016-.063.032-.087.04-.212.228-.322.448-.275.212.039.338.283.299.495-.008.024-.016.063-.024.087.008-.016.008.024.008.079a17.79 17.79 0 000 1.132v.33c0 1.093 2.406 2.312 5.858 2.312 3.451 0 5.857-1.219 5.857-2.312l-.008-1.384c0-.023.008-.078.008-.094l-.008-.087c0-.007-.015-.086-.015-.102-.102-.196-.04-.464.157-.558.197-.102.425-.055.519.134.04.078.07.157.087.251.015.071.03.134.03.205.009.086.009.125.009.165 0 .023-.008.094-.008.11l.008 1.36c.008 1.746-2.91 3.106-6.636 3.106z" fill="#231F20"/><path d="M38 164.155c-3.727 0-6.644-1.361-6.644-3.098 0-.267.07-.535.204-.794a.398.398 0 01.535-.165.398.398 0 01.165.534.87.87 0 00-.118.425c0 1.093 2.406 2.311 5.858 2.311 3.451 0 5.857-1.218 5.857-2.311a.911.911 0 00-.141-.472.398.398 0 01.141-.542.398.398 0 01.543.141c.165.275.252.574.252.873-.008 1.737-2.925 3.098-6.652 3.098z" fill="#231F20"/><path d="M38 165.625c-3.727 0-6.644-1.36-6.644-3.098v-.322c0-.354-.008-.834 0-1.14v-.063c.008-.11.016-.197.023-.244.008-.024.016-.063.024-.086.047-.213.236-.315.456-.276.212.04.338.283.299.496-.008.023-.016.063-.024.086.008-.023.008.024.008.079v.016c-.016.314-.008.778 0 1.116v.33c0 1.093 2.406 2.312 5.858 2.312 3.451 0 5.857-1.219 5.857-2.312l-.008-1.384c0-.023.008-.078.008-.102l-.008-.086c0-.008-.015-.095-.015-.102-.102-.197-.04-.456.157-.559.189-.102.425-.055.519.134a.94.94 0 01.087.259c.015.071.03.126.03.205.009.086.009.126.009.165 0 .024-.008.094-.008.11l.008 1.36c.008 1.746-2.91 3.106-6.636 3.106zm102.701-10.072c-3.727 0-6.644-1.36-6.644-3.098 0-1.737 2.917-3.098 6.644-3.098 3.726 0 6.644 1.361 6.644 3.098 0 1.738-2.918 3.098-6.644 3.098zm0-5.409c-3.452 0-5.858 1.218-5.858 2.311s2.406 2.312 5.858 2.312c3.451 0 5.857-1.219 5.857-2.312 0-1.093-2.406-2.311-5.857-2.311z" fill="#231F20"/><path d="M140.701 157.023c-3.727 0-6.644-1.36-6.644-3.098v-.322a27.797 27.797 0 010-1.156c.008-.126.015-.22.023-.275.008-.031.016-.063.032-.094.299-1.549 3.082-2.721 6.589-2.721 3.286 0 5.975 1.038 6.533 2.524.016.032.048.11.071.212.016.071.032.126.032.205.007.086.007.126.007.157 0 .024-.007.094-.007.11l.007 1.36c0 1.738-2.917 3.098-6.643 3.098zm-5.866-4.646c.008 0 .008.039 0 .094-.016.299-.008.778 0 1.124v.338c0 1.093 2.406 2.312 5.858 2.312 3.451 0 5.857-1.219 5.857-2.312l-.008-1.384c0-.015.008-.062.008-.094a.43.43 0 00-.008-.063v-.094a3.944 3.944 0 01-.055-.142c-.369-.99-2.641-2.012-5.794-2.012-3.342 0-5.638 1.116-5.842 2.154-.008.023-.016.063-.032.086l.016-.007z" fill="#231F20"/><path d="M140.701 158.368c-3.727 0-6.644-1.36-6.644-3.098 0-.267.071-.543.204-.794a.398.398 0 01.535-.165.398.398 0 01.165.534.853.853 0 00-.11.425c0 1.093 2.406 2.312 5.857 2.312 3.452 0 5.858-1.219 5.858-2.312a.914.914 0 00-.141-.472.387.387 0 01.141-.534.387.387 0 01.535.141c.165.283.251.574.251.873-.007 1.73-2.925 3.09-6.651 3.09z" fill="#231F20"/><path d="M140.701 159.838c-3.727 0-6.644-1.36-6.644-3.098v-.322a27.797 27.797 0 010-1.156c.008-.126.015-.22.023-.275a.443.443 0 01.032-.095c.039-.212.236-.314.456-.275.212.04.338.283.299.496-.008.023-.016.063-.032.086.016-.039.016.024.008.079-.016.299-.008.778 0 1.124v.338c0 1.093 2.406 2.312 5.858 2.312 3.451 0 5.857-1.219 5.857-2.312l-.008-1.384c0-.023.008-.078.008-.094l-.008-.086c0-.008-.015-.087-.015-.103-.103-.188-.04-.456.149-.558.189-.102.425-.063.527.134.039.078.071.157.094.259.016.071.032.126.032.205.007.086.007.125.007.157 0 .023-.007.094-.007.11l.007 1.36c0 1.738-2.917 3.098-6.643 3.098z" fill="#231F20"/><path d="M140.701 161.246c-3.727 0-6.644-1.361-6.644-3.098 0-.276.071-.543.204-.794a.4.4 0 01.535-.166.4.4 0 01.165.535.853.853 0 00-.11.425c0 1.093 2.406 2.311 5.857 2.311 3.452 0 5.858-1.218 5.858-2.311a.91.91 0 00-.141-.472.399.399 0 01.141-.543.4.4 0 01.543.142c.165.275.251.574.251.873-.016 1.737-2.933 3.098-6.659 3.098z" fill="#231F20"/><path d="M140.701 162.716c-3.727 0-6.644-1.36-6.644-3.098v-.322a27.797 27.797 0 010-1.156c.008-.126.015-.22.023-.275.008-.032.016-.071.032-.095.039-.212.228-.322.448-.275.212.039.338.283.299.495-.008.024-.016.063-.032.087.008-.032.016.016.008.079-.016.298-.008.778 0 1.124v.338c0 1.093 2.406 2.312 5.858 2.312 3.451 0 5.857-1.219 5.857-2.312l-.008-1.384c0-.023.008-.078.008-.094l-.008-.087a.524.524 0 00-.015-.102c-.102-.189-.04-.456.149-.558.189-.102.425-.063.527.134.039.078.071.157.094.259.016.071.032.126.032.204.008.087.008.126.008.166 0 .023-.008.094-.008.11l.008 1.36c.007 1.73-2.91 3.09-6.636 3.09z" fill="#231F20"/><path d="M140.701 164.155c-3.727 0-6.644-1.361-6.644-3.098 0-.267.071-.543.204-.794a.398.398 0 01.535-.165.398.398 0 01.165.534.853.853 0 00-.11.425c0 1.093 2.406 2.311 5.857 2.311 3.452 0 5.858-1.218 5.858-2.311a.914.914 0 00-.141-.472.398.398 0 01.141-.542.398.398 0 01.543.141c.165.275.251.574.251.873-.016 1.737-2.933 3.098-6.659 3.098z" fill="#231F20"/><path d="M140.701 165.625c-3.727 0-6.644-1.36-6.644-3.098v-.322a28.195 28.195 0 010-1.164c.008-.126.015-.22.023-.275.008-.031.016-.063.032-.094.039-.213.236-.315.456-.276.212.04.338.283.299.496-.008.023-.016.063-.032.086.016-.039.016.024.008.079-.016.299-.008.778 0 1.124v.338c0 1.093 2.406 2.312 5.858 2.312 3.451 0 5.857-1.219 5.857-2.312l-.008-1.384c0-.023.008-.078.008-.102l-.008-.086c0-.008-.015-.087-.015-.102-.103-.189-.04-.456.149-.559.189-.102.425-.063.527.134.039.079.071.165.094.259.016.071.032.126.032.205.007.086.007.126.007.165 0 .024-.007.094-.007.11l.007 1.36c0 1.746-2.917 3.106-6.643 3.106zm14.773-10.072c-3.726 0-6.643-1.36-6.643-3.098 0-1.737 2.917-3.098 6.643-3.098 3.727 0 6.644 1.361 6.644 3.098 0 1.738-2.917 3.098-6.644 3.098zm0-5.409c-3.451 0-5.857 1.218-5.857 2.311s2.406 2.312 5.857 2.312c3.452 0 5.858-1.219 5.858-2.312 0-1.093-2.398-2.311-5.858-2.311z" fill="#231F20"/><path d="M155.474 157.023c-3.726 0-6.643-1.36-6.643-3.098v-.322a27.797 27.797 0 010-1.156v-.023c.007-.103.015-.197.023-.252.008-.031.016-.063.032-.094.298-1.549 3.082-2.721 6.588-2.721 3.287 0 5.976 1.038 6.534 2.524.024.032.047.11.071.212.016.071.031.134.031.205 0 .023.008.141.008.157 0 .016-.008.094-.008.118l.008 1.352c.008 1.738-2.917 3.098-6.644 3.098zm-5.857-4.529c-.016.315-.008.763 0 1.093v.338c0 1.093 2.406 2.312 5.857 2.312 3.452 0 5.858-1.219 5.858-2.312l-.008-1.383c0-.016.008-.063.008-.095a.43.43 0 00-.008-.063v-.094a2.999 2.999 0 01-.055-.141c-.369-.991-2.642-2.013-5.795-2.013-3.341 0-5.637 1.116-5.842 2.154-.007.024-.015.063-.031.087.016-.04.016.023.008.078a.085.085 0 01.008.039z" fill="#231F20"/><path d="M155.474 158.368c-3.726 0-6.643-1.361-6.643-3.098 0-.275.07-.543.204-.794a.388.388 0 01.535-.157.396.396 0 01.157.534.853.853 0 00-.11.425c0 1.093 2.406 2.311 5.857 2.311 3.452 0 5.858-1.218 5.858-2.311a.903.903 0 00-.142-.472.388.388 0 01.142-.535.388.388 0 01.535.142c.165.283.251.574.251.873.008 1.721-2.917 3.082-6.644 3.082z" fill="#231F20"/><path d="M155.474 159.838c-3.726 0-6.643-1.36-6.643-3.098v-.322a27.797 27.797 0 010-1.156v-.024a3.93 3.93 0 01.023-.251.443.443 0 01.032-.095c.039-.212.235-.314.456-.275.212.04.338.283.298.496-.008.023-.015.062-.031.086.016-.039.016.024.008.079v.031c-.016.315-.008.763 0 1.093v.338c0 1.093 2.406 2.312 5.857 2.312 3.452 0 5.858-1.219 5.858-2.312l-.008-1.384c0-.023.008-.078.008-.102l-.008-.055v-.094c-.102-.189-.047-.472.142-.574.188-.102.409-.079.519.118.039.078.07.165.094.259.016.071.031.134.031.205 0 .023.008.141.008.157 0 .039-.008.078-.008.118l.008 1.352c.008 1.738-2.917 3.098-6.644 3.098z" fill="#231F20"/><path d="M155.474 161.245c-3.726 0-6.643-1.36-6.643-3.097 0-.276.07-.543.204-.795a.39.39 0 01.535-.157.397.397 0 01.157.535.85.85 0 00-.11.424c0 1.093 2.406 2.312 5.857 2.312 3.452 0 5.858-1.219 5.858-2.312a.902.902 0 00-.142-.471.4.4 0 01.142-.543.4.4 0 01.543.142c.165.283.251.574.251.872 0 1.73-2.925 3.09-6.652 3.09z" fill="#231F20"/><path d="M155.474 162.716c-3.726 0-6.643-1.36-6.643-3.098v-.322a27.797 27.797 0 010-1.156c0-.024.007-.063.015-.095a.498.498 0 01.016-.18c.008-.032.016-.071.031-.095.04-.212.228-.322.449-.275.212.039.338.283.298.495-.008.024-.015.063-.031.087.016-.032.016.023.008.078v.032c-.016.314-.008.763 0 1.093v.338c0 1.093 2.406 2.311 5.857 2.311 3.452 0 5.858-1.218 5.858-2.311l-.008-1.384c0-.024.008-.079.008-.102l-.008-.079c0-.015-.016-.094-.016-.11-.102-.189-.039-.456.15-.558.196-.102.424-.055.527.134.039.078.07.165.094.259.016.071.031.134.031.204 0 .024.008.142.008.166 0 .039-.008.078-.008.118l.008 1.352c.008 1.738-2.917 3.098-6.644 3.098z" fill="#231F20"/><path d="M155.474 164.155c-3.726 0-6.643-1.361-6.643-3.098 0-.275.07-.543.204-.794a.39.39 0 01.535-.158.397.397 0 01.157.535.853.853 0 00-.11.425c0 1.093 2.406 2.311 5.857 2.311 3.452 0 5.858-1.218 5.858-2.311a.903.903 0 00-.142-.472.4.4 0 01.142-.543.4.4 0 01.543.142c.165.283.251.574.251.873 0 1.729-2.925 3.09-6.652 3.09z" fill="#231F20"/><path d="M155.474 165.625c-3.726 0-6.643-1.36-6.643-3.098v-.322a28.195 28.195 0 010-1.164v-.023c.007-.103.015-.197.023-.252.008-.031.016-.063.032-.094.039-.213.235-.315.456-.276.212.04.338.283.298.496-.008.023-.015.063-.031.086.016-.039.016.024.008.079v.031c-.016.315-.008.763 0 1.093v.338c0 1.093 2.406 2.312 5.857 2.312 3.452 0 5.858-1.219 5.858-2.312l-.008-1.384c0-.023.008-.078.008-.102l-.008-.055v-.094c-.102-.189-.047-.472.142-.574.188-.102.416-.079.519.118.039.078.07.165.094.259.016.071.031.134.031.205 0 .023.008.141.008.165 0 .039-.008.079-.008.118l.008 1.352c.008 1.738-2.917 3.098-6.644 3.098z" fill="#231F20"/><path d="M133.671 93.116s-2.775 3.814-2.445 7.902c.33 4.089 3.515 6.487 6.275 5.748 2.767-.747 2.618-.692 2.618-.692s2.547-4.049 2.217-5.85c-.33-1.8-1.738-4.796-2.886-6.14-1.147-1.353-1.745-1.652-1.745-1.652s-1.407 2.933-1.958 3.916l-2.076-3.232zm25.499 5.905s-2.139 1.832-2.949 4.128c-.809 2.296-1.627 3.129-.534 5.291 1.093 2.163 3.31 4.482 3.31 4.482s2.524-.299 3.687-1.627c1.164-1.329 2.43-3.499 2.414-4.687-.016-1.187-.487-5.299-.487-5.299l-2.658 2.681-2.783-4.969z" fill="#FBDA00"/><path d="M159.987 169.603h-23.1c-4.89 0-7.705-2.028-8.853-6.376a9.464 9.464 0 01-.574-4.049 31.296 31.296 0 01-.039-1.573c0-15.985 5.504-22.66 5.732-22.935a.41.41 0 01.298-.142h29.957c.118 0 .228.048.298.142.236.275 5.732 6.95 5.732 22.935 0 .558-.015 1.085-.039 1.596a9.63 9.63 0 01-.59 4.065c-1.116 4.309-3.931 6.337-8.822 6.337zm-26.339-34.296c-.778 1.038-5.441 7.855-5.441 22.29 0 .551.016 1.077.039 1.581a8.894 8.894 0 00.535 3.797c1.069 4.042 3.562 5.826 8.106 5.826h23.1c4.537 0 7.037-1.784 8.091-5.786a8.839 8.839 0 00.55-3.798v-.047c.024-.503.04-1.03.04-1.581 0-14.435-4.663-21.26-5.441-22.29h-29.579v.008z" fill="#231F20"/><path d="M162.983 135.307h-29.382a1.282 1.282 0 010-2.563h29.382a1.282 1.282 0 110 2.563zm-29.374-1.777a.493.493 0 00-.496.495c0 .275.22.496.496.496h29.382a.494.494 0 00.495-.496.493.493 0 00-.495-.495h-29.382z" fill="#231F20"/><path d="M133.947 132.94c-1.211-2.358-3.436-3.852-4.6-6.243l-.236.582c.731-.22 1.471-.416 2.233-.424.653-.008 1.282.102 1.942.023 1.415-.165 2.296-1.069 3.562-1.564.833-.323 1.714-.409 2.571-.103.488.173.912.323 1.431.386 1.164.149 1.95-.386 3.074-.598.849-.157 1.754-.149 2.587.079.723.196 1.321.597 2.084.676 1.383.149 2.13-.708 3.357-1.085 1.337-.409 2.807-.126 4.026.503.935.488 1.604 1.423 2.704 1.502 1.125.078 2.28-.323 3.381-.496 1.895-.298 3.696-.125 5.37.865-.063-.149-.118-.298-.18-.448-.629 1.502-1.534 2.351-2.768 3.318-1.054.818-1.683 1.879-2.178 3.106-.189.472.574.676.763.212.605-1.502 1.478-2.343 2.712-3.302 1.062-.826 1.714-1.887 2.233-3.122.063-.157-.047-.361-.181-.448-2.524-1.494-5.055-1.1-7.791-.605-.472.086-1.015.204-1.494.11-.621-.126-1.101-.731-1.628-1.061-1.053-.669-2.28-1.086-3.53-1.109-1.172-.024-2.052.362-3.043.912-1.659.92-3.106-.354-4.788-.48a6.798 6.798 0 00-1.997.15c-.661.133-1.321.542-1.982.589-1.211.095-2.241-.699-3.459-.636-.7.039-1.384.243-2.013.55-.818.401-1.455.998-2.367 1.219-.81.196-1.572.055-2.39.063-.833.007-1.651.212-2.445.456-.26.078-.346.346-.236.581 1.164 2.398 3.389 3.884 4.6 6.243.228.448.904.047.676-.401z" fill="#231F20"/><path d="M138.161 132.924a65.09 65.09 0 01-2.477-6.974c-.141-.487-.904-.275-.762.213a64.018 64.018 0 002.476 6.974c.197.464.96.259.763-.213zm9.695-.149a24.33 24.33 0 01.786-4.938c.133-.487-.629-.699-.763-.212a25.437 25.437 0 00-.81 5.142c-.023.519.763.519.787.008zm9.694.299a26.155 26.155 0 013.035-4.615c.134-.166.157-.394 0-.559-.141-.141-.417-.165-.558 0a26.2 26.2 0 00-3.161 4.773c-.228.456.448.857.684.401zm.912-20.529c-2.327 3.286-3.294 7.383-4.56 11.149-.165.479.597.684.763.212 1.242-3.703 2.193-7.721 4.473-10.96.291-.425-.385-.818-.676-.401zm-20.961-5.142c-.111-.134.023.031.047.07.086.126.173.252.259.386.315.495.598 1.014.857 1.541 1.022 2.036 1.746 4.222 2.328 6.423.778 2.957 1.061 6.055 1.375 9.082.056.495.842.503.787 0-.338-3.208-.645-6.495-1.494-9.616-.771-2.831-1.746-6.094-3.609-8.445-.307-.393-.865.166-.55.559z" fill="#231F20"/><path d="M160.404 110.87c1.549-1.455 2.202-3.499 2.005-5.598-.204-2.162-1.203-4.12-2.319-5.944-.165-.268-.33-.669-.692-.7-.338-.031-.59.306-.794.519a16.01 16.01 0 00-1.903 2.335c-1.077 1.628-1.808 3.585-1.58 5.559.267 2.319 1.792 4.371 3.404 5.968.362.353.92-.197.558-.559-1.556-1.541-3.105-3.577-3.215-5.849-.103-2.202 1.022-4.262 2.39-5.905.33-.401.731-.755 1.053-1.156.22-.205.213-.212-.031-.024.039.071.086.134.126.205.063.26.354.589.495.825.582 1.007 1.093 2.052 1.415 3.177.676 2.343.378 4.859-1.462 6.581-.378.354.181.912.55.566zm-22.023-3.758c2.713-.81 4.207-3.719 4.049-6.432-.102-1.69-.715-3.302-1.549-4.757a20.253 20.253 0 00-1.462-2.186c-.432-.566-.873-1.053-1.565-1.289-.204-.07-.424.079-.487.275-.684 2.383-2.61 4.215-3.122 6.66-.448 2.154.291 4.426 1.864 5.952.362.354.92-.205.558-.558a5.706 5.706 0 01-1.423-6.023c.731-2.06 2.28-3.704 2.886-5.819-.166.095-.323.181-.488.276.684.236 1.117.943 1.518 1.502.393.55.762 1.124 1.1 1.714.739 1.305 1.298 2.743 1.384 4.253.142 2.351-1.085 4.961-3.467 5.669-.488.149-.283.904.204.763z" fill="#231F20"/><path d="M158.698 113.134c2.28.024 4.45-1.47 5.59-3.396 1.416-2.398 1.164-5.488.975-8.146-.008-.126-.063-.283-.196-.338-.834-.362-1.431.299-1.966.873a10.806 10.806 0 00-1.494 2.028c-.251.441.425.842.676.401.291-.503.606-.99.983-1.438.22-.26 1.014-1.345 1.4-1.18l-.197-.338c.173 2.422.448 5.237-.707 7.469-.952 1.832-2.957 3.303-5.064 3.287-.503-.016-.503.771 0 .778zm-19.546-7.257c-1.125.928-2.98.826-4.223.213-1.273-.637-2.24-1.817-2.775-3.122-1.274-3.145.149-6.58 1.895-9.238h-.676c.676 1.053 1.352 2.099 2.028 3.152.275.425.952.032.676-.4-.676-1.054-1.352-2.1-2.028-3.153a.397.397 0 00-.676 0c-2.029 3.082-3.468 7.115-1.612 10.622.739 1.392 1.95 2.579 3.459 3.098 1.447.503 3.287.369 4.498-.621.377-.315-.181-.873-.566-.551zm62.161-88.297c1.227-2.767 3.2-5.236 5.614-7.068 2.327-1.769 5.244-3.043 8.209-2.626.495.07.707-.692.212-.763-6.369-.888-12.297 4.616-14.711 10.057-.204.456.472.857.676.4zm-35.004-3.836c4.332-1.683 9.734-2.013 13.728.715.417.283.81-.393.401-.676-4.151-2.838-9.828-2.547-14.333-.794-.472.173-.268.936.204.755zm7.477 10.614a11.506 11.506 0 014.301 5.174c.087.196.37.236.535.141.204-.118.22-.346.141-.534-.943-2.225-2.563-4.128-4.584-5.45-.424-.29-.817.394-.393.67z" fill="#231F20"/></svg>