<svg width="274" height="171" fill="none" xmlns="http://www.w3.org/2000/svg"><path d="M73.42 66.076s-5.397 3.243-8.032 5.974c-2.635 2.731-6.299 3.642-3.109 20.902 3.19 17.261 3.701 12.428 2.806 21.532a59.82 59.82 0 01-4.271 16.98c-.585 1.436-1.2 1.569-.37 2.398a14.413 14.413 0 003.397 2.346 97.282 97.282 0 0010.925 2.628c2.273.237 2.583 0 2.583 0s6.063.97 8.29 1.066c2.228.096 4.33 1.169 6.1.888a14.306 14.306 0 002.908-.74l.274-15.647s3.701.991 5.048 1.251c1.347.259 2.85.54 2.85.54s.148 3.294.37 6.624c.222 3.331.259 5.811.259 5.811l6.921-1.717s-1.806-4.863-2.006-5.367c-.2-.503-1.562-4.692-1.562-4.692l9.889 1.028a15.95 15.95 0 011.162-1.843c-.044.245-1.48-.096-2.265-.74-.785-.644-2.568-1.65-2.287-1.584 1.331.071 2.666.002 3.982-.207.955-.244 1.591-.444 1.591-.444s1.222-3.76 1.407-4.959c.185-1.199.355-2.961.355-2.961s-7.831-2.361-10.266-3.257a47.217 47.217 0 01-4.797-1.976c-.503-.244.889-3.997 1.481-6.373.592-2.376 1.562-6.462 1.562-6.462s3.19 2.013 10.288 3.597a66.54 66.54 0 0017.853 1.266c3.701-.237 9.289-.74 9.289-.74l.6-7.402s0-4.493-.289-4.5c-.288-.008-2.709.111-5.336-.089-2.628-.2-9.082-1.835-10.726-1.991-1.643-.155-4.737-1.362-6.373-2.043-1.635-.68-11.931-8.823-13.323-9.807-1.391-.985-5.344-3.797-5.595-3.938-.252-.14-6.47-3.22-7.469-3.553a24.27 24.27 0 01-2.45-1.132s4.382 10.17 5.019 12.85c.636 2.679 1.791 9.621 1.82 12.382.03 2.761-.266 10.851-.695 12.28a15.973 15.973 0 00-.496 3.368s-6.595-3.871-6.877-4.086a8.58 8.58 0 01-1.006-1.443s-1.991-9.534-2.916-11.843a80.18 80.18 0 00-4.197-8.446c-1-1.569-5.07-8.142-6.536-8.993-1.466-.851-5.78-6.736-5.78-6.736zm152.542-2.353c-1.332-1.755 0-2.96.393-5.181.266-1.48.74-5.81-.563-8.609a9.974 9.974 0 00-4.833-5.114c-.289-.134-.57-.274-.851-.43a5.383 5.383 0 01-2.606-3.227 5.042 5.042 0 01-.163-.895c-.281-3.176.467-9.275-5.366-15.011a19.606 19.606 0 00-9.326-5.034 28.923 28.923 0 01-5.433-1.983 21.391 21.391 0 00-9.785-1.991c-7.128 0-11.31 3.56-12.879 6.173-.185.126-.378.259-.578.414-1.384 1.074-2.738 1.429-4.53 4.123-3.478 5.233-.74 10.118.741 12.169 1.11 1.48.636 2.02.185 2.768a6.83 6.83 0 00-.829 2.457c-.533 3.701.925 5.411 2.857 6.973a3.99 3.99 0 011.48 3.012c.074 3.375-1.162 4.353 1.754 6.44.889.636 1.481.4 2.791-.363 2.672-1.192 3.523-1.569 3.967-2.457.444-.888.111-2.532-.059-3.627 0-.23-2.709-2.028-3.842-2.569-.385-.185-1.48-1.176-1.828-1.376a42.48 42.48 0 01-2.294-4.323c-.533-1.74-.519-3.656-1.385-5.263-.199-.37-.347-.385 0-1.813 0-.06-.088-.459-.199-3.323a17.865 17.865 0 01.17-3.79 9.797 9.797 0 011.229-3.59 8.687 8.687 0 012.413-2.465 7.14 7.14 0 011.547-.821 7.9 7.9 0 011.398-.326s-.666 4.308 5.877 7.328a47.585 47.585 0 0110.437 6.32s3.738-2.745 4.182.963c.444 3.708-2.406 4.22-2.406 4.22l-2.22.377c-.2.695-1.888 5.64-1.888 5.64.63 3.449.511 7.853 5.034 9.866.34.156.681.319 1.014.504.784.436 3.034.903 3.863 1.25a24.317 24.317 0 013.761 2.036c.74.459 1.058.873 1.843 1.295.377.2 1.806 1.414 2.168 1.644 1.399.858 4.19 6.224 4.478 6.817.785 1.613 1.954 3.412 2.65 5.07.361.833.667 1.688.918 2.56.118.43 1.48 3.383 1.643 3.79.311.807 1.599 4.064 1.599 4.064s3.212.526 5.314-.829c1.792-1.155 2.169-2.272 2.221-3.7.044-2.11-.74-3.065-.925-4.916-.259-3.13 1.095-9.681-3.139-15.247z" fill="#1280FF"/><path d="M160.686 84.951c1.91-5.544 3.775-11.273 7.291-16.032a21.307 21.307 0 016.476-6.018 46.948 46.948 0 014.301-2.22 14.57 14.57 0 003.146-1.54 2.38 2.38 0 001.006-2.398 27.675 27.675 0 00-.237-2.96c-.088-.467-.799-.267-.74.2.121.878.19 1.762.208 2.649.055.35.055.708 0 1.058-.171.615-.985 1.051-1.481 1.333-1.095.6-2.309.97-3.434 1.48a38.097 38.097 0 00-4.086 2.22c-4.16 2.71-7.365 7.21-9.319 11.725-1.48 3.338-2.687 6.773-3.878 10.215-.156.451.562.644.74.2l.007.088zm-21.332 23.908c4.256-2.383 8.372-5.018 12.583-7.468a11.575 11.575 0 004.323-4.02 22.793 22.793 0 002.22-5.38.382.382 0 10-.74-.193 21.223 21.223 0 01-2.22 5.314c-1.192 1.91-2.902 3.035-4.834 4.116-3.974 2.22-7.764 4.759-11.746 6.987-.415.237 0 .873.377.644h.037z" fill="#313131"/><path d="M172.61 38.527c.319 4.293 1.037 8.675 3.908 12.065 2.872 3.39 7.698 5.011 11.762 3.212.948-.392 1.792-1 2.465-1.776.288-.377-.23-.903-.526-.526-1.525 1.94-4.441 2.51-6.728 2.177-4.722-.689-7.905-4.442-9.178-8.883a30.98 30.98 0 01-.962-6.284c0-.473-.741-.48-.741 0v.015z" fill="#313131"/><path d="M182.336 47.12a2.42 2.42 0 002.598.822 3.036 3.036 0 002.014-1.976.384.384 0 00-.741-.2 2.259 2.259 0 01-1.391 1.436 1.717 1.717 0 01-1.843-.437.372.372 0 00-.503-.133.372.372 0 00-.134.503v-.014zm13.775-8.548a2.035 2.035 0 012.539-.578 2.18 2.18 0 011.006 2.428 3.875 3.875 0 01-3.952 3.08c-.481 0-.474.74 0 .74a4.625 4.625 0 004.323-2.591 3.7 3.7 0 00.273-2.761 2.717 2.717 0 00-4.707-.83c-.296.37.222.896.518.526v-.014zm9.748 85.964a24.789 24.789 0 001.288-5.855 82.437 82.437 0 00.119-18.571 151.048 151.048 0 00-2.524-16.565c-.089-.43-.741-.252-.659.185a127.695 127.695 0 012.96 26.402 53.065 53.065 0 01-1.31 12.472c-.134.594-.31 1.177-.525 1.747-.163.407.496.584.659.185h-.008zm-24.107-99.539l5.862 3.7c.399.252.74-.384.37-.643l-5.855-3.701c-.407-.26-.777.385-.377.636v.008zm29.829 26.328a12.041 12.041 0 006.21 2.642c.474.06.474-.68 0-.74a11.184 11.184 0 01-5.692-2.428c-.363-.296-.888.222-.518.526zM187.229 24.56l3.064 1.917c.407.252.777-.385.378-.637l-3.065-1.894a.37.37 0 00-.377.636v-.022zm26.572 106.719c-2.139 1.614-3.449 3.93-4.996 6.077a13.453 13.453 0 01-2.813 3.02 5.834 5.834 0 01-2.065 1.088c-.318.074-.74.126-.999-.17a2.189 2.189 0 01-.207-.844c-.059-.43-.74-.244-.659.185.082.57.2 1.177.74 1.428a2.307 2.307 0 001.762-.096 9.754 9.754 0 003.701-2.85c2.02-2.361 3.323-5.344 5.855-7.253.347-.259 0-.852-.348-.585h.029z" fill="#313131"/><path d="M199.546 130.146a50.06 50.06 0 01-3.798.104c-1.006 0-2.694.104-3.264-.888-.377-.652-.259-1.133.504-1.34a20.37 20.37 0 012.612-.192 13.957 13.957 0 004.56-1.621 29.15 29.15 0 012.805-1.421 4.386 4.386 0 012.472 0c.43.081.615-.578.185-.659a5.804 5.804 0 00-2.287-.148c-.93.28-1.819.683-2.642 1.199-1.932 1.014-3.879 2.035-6.114 2.057-1.229 0-3.59.156-2.894 2.014.474 1.28 1.65 1.547 2.916 1.665 1.648.1 3.3.078 4.945-.066.436 0 .444-.741 0-.689v-.015z" fill="#313131"/><path d="M198.213 136.327a2.954 2.954 0 01-2.598.429 1.666 1.666 0 01-1.029-1.228 1.56 1.56 0 01.052-1.155.556.556 0 01.607-.259c.333.049.67.069 1.007.059.442-.049.86-.229 1.199-.518a18.567 18.567 0 002.339-2.961c.274-.34-.207-.821-.481-.481-.741.955-1.362 2.147-2.347 2.961a1.634 1.634 0 01-1.251.311 2.744 2.744 0 00-1.014 0c-.947.296-.962 1.48-.74 2.265a2.291 2.291 0 001.273 1.576 3.531 3.531 0 003.338-.4c.378-.229.037-.821-.34-.592l-.015-.007z" fill="#313131"/><path d="M201.492 134.055c-.681.547-1.48 1.043-2.22 1.539l-1.081.74a2.144 2.144 0 00-.533.393 1.768 1.768 0 00-.348 1.28 1.712 1.712 0 001.273 1.34 2.83 2.83 0 001.902-.378c.593-.275 1.16-.602 1.695-.977a14.069 14.069 0 002.006-1.687c.304-.319-.177-.8-.481-.481-.418.425-.866.821-1.339 1.184a8.548 8.548 0 01-3.094 1.687 1.068 1.068 0 01-1.127-.432 1.065 1.065 0 01-.169-.389c-.006-.221.05-.439.163-.629 0-.045.089-.111.096-.156.008-.044-.177.119-.088.096.198-.098.382-.222.547-.37l1.014-.673c.74-.511 1.525-1.014 2.221-1.592.34-.273-.148-.74-.489-.481l.052-.014z" fill="#313131"/><path d="M203.224 136.297c-.659.533-1.384.992-2.08 1.481-.399.266-.925.488-1.154.925a1.649 1.649 0 00-.082 1.48 1.858 1.858 0 001.392.955 3.454 3.454 0 001.702-.422c.494-.205.97-.453 1.421-.74a7.827 7.827 0 001.481-1.184c.296-.319-.185-.807-.482-.481a8.087 8.087 0 01-3.493 2.102 1.165 1.165 0 01-1.295-.356.944.944 0 010-1.117s.066-.082.066-.104c0-.022-.17.141-.103.111.066-.037.131-.08.192-.126l.785-.518a27.73 27.73 0 002.116-1.48c.341-.281-.14-.74-.481-.489l.015-.037zm-65.099-26.542a.346.346 0 00-.002.351.35.35 0 00.306.174.643.643 0 00.252-.081c.327-.167.646-.35.954-.548.452-.274.903-.563 1.348-.844a.339.339 0 00.166-.343.337.337 0 00-.133-.227.339.339 0 00-.255-.066.339.339 0 00-.126.044c-.6.378-1.207.74-1.821 1.125-.126.074-.252.148-.385.215l-.096.052c-.082.037.096 0 0 0a.282.282 0 01.177 0 .356.356 0 01.221.203.346.346 0 01-.021.3.35.35 0 00.037-.26.359.359 0 00-.159-.21.339.339 0 00-.26-.036.339.339 0 00-.21.158l.007-.007zm7.676 7.69c-1.051.429-2.154.799-3.175 1.295a3.577 3.577 0 00-.822.74 22.28 22.28 0 01-2.117 1.91 13.466 13.466 0 01-3.701 2.161c-.414.156-.229.822.185.667a16.636 16.636 0 005.641-3.79c.261-.242.508-.489.74-.74.059-.067.333-.274.348-.378 0 0-.23.089-.074.052.098-.033.195-.073.288-.118l1.014-.415 1.821-.74c.407-.163.23-.829-.177-.659l.029.015zm32.242-79.495c.074-.653-.271-1.23-.771-1.286-.5-.056-.964.428-1.038 1.082-.074.654.271 1.23.771 1.287.499.056.964-.428 1.038-1.082zm9.487.001c.074-.654-.272-1.23-.771-1.286-.5-.056-.965.428-1.039 1.082-.073.654.272 1.23.771 1.286.5.057.965-.428 1.039-1.082zM84.55 43.122c.074-.654-.271-1.23-.77-1.286-.5-.056-.965.428-1.04 1.082-.073.654.272 1.23.772 1.286.5.057.964-.428 1.038-1.082zm9.488.001c.074-.654-.272-1.23-.771-1.286-.5-.057-.965.428-1.039 1.082-.073.654.272 1.23.771 1.286.5.056.965-.428 1.039-1.082zm86.455-4.115l-.385 3.45a.368.368 0 00.63.26.378.378 0 00.111-.26l.384-3.45a.371.371 0 00-.37-.37.377.377 0 00-.37.37z" fill="#313131"/><path d="M138.422 110.295a.366.366 0 00.261-.109.366.366 0 000-.523.37.37 0 10-.261.632z" fill="#313131"/><path d="M138.792 109.747c0-.969 1.154-1.228 1.887-.895.718.402 1.306 1 1.695 1.724a31.516 31.516 0 012.221 4.641c.325.8.621 1.606.88 2.428.126.414.252.822.363 1.243.059.237.267.741.156.992-.111.252-.141.141-.348.045-.208-.097-.141-.074-.304-.23a3.968 3.968 0 01-.74-1.073c-.207-.429-.844-.059-.637.37.348.74 1.044 1.799 1.992 1.754 1.265-.059.636-1.917.451-2.576a37.564 37.564 0 00-2.087-5.41c-.74-1.481-1.429-3.272-2.813-4.264a2.406 2.406 0 00-2.28-.399c-.347.114-.65.335-.864.631a1.735 1.735 0 00-.327 1.019.372.372 0 00.37.37.37.37 0 00.37-.37h.015z" fill="#313131"/><path d="M146.119 120.68c3.909-1.436 7.957-2.399 11.962-3.524a28.099 28.099 0 004.441-1.65c.681-.319 1.902-.74 2.339-1.377.266-.4-.378-.74-.637-.378-.133.208-.636.393-.851.504-.555.303-1.125.577-1.695.829a31.899 31.899 0 01-4.841 1.643c-3.701.999-7.365 1.924-10.94 3.235-.444.162-.251.88.2.74l.022-.022z" fill="#313131"/><path d="M169.072 80.414c-1.85 4.737-1.961 9.815-1.088 14.803.348 1.962.844 3.894 1.355 5.818.422 1.263.688 2.573.792 3.901.037 2.864-1.155 5.847-2.095 8.497-1.273 3.597-2.739 7.113-4.175 10.644-1.295 3.168-2.76 6.38-3.567 9.719a.38.38 0 00.274.466.383.383 0 00.466-.274c.804-2.882 1.82-5.7 3.042-8.431 1.429-3.538 2.902-7.054 4.227-10.629 1.058-2.872 2.176-5.862 2.524-8.882.318-2.805-.948-5.677-1.577-8.364-1.318-5.662-1.599-11.495.548-17.024.177-.444-.541-.636-.74-.192l.014-.052zm43.175 53.433a3.115 3.115 0 002.317.452.355.355 0 00.259-.259c.503-2.606-1.296-4.819-2.828-6.714-1.532-1.894-3.582-3.93-6.276-3.789-.474 0-.474.74 0 .74 2.427-.126 4.226 1.702 5.647 3.442 1.421 1.739 3.19 3.782 2.746 6.121l.259-.259a2.343 2.343 0 01-1.754-.37c-.4-.259-.74.385-.37.636zm-14.648-74.802c-7.187 11.591-11.406 24.751-13.812 38.097-.844 4.722-1.821 9.541-1.369 14.345.555 5.847 1.31 11.687 2.05 17.52.341 2.649.526 5.395 1.073 8.016.319 1.524 1.399 1.761 2.761 1.695a22.362 22.362 0 006.854-1.584c.407-.156.23-.814-.185-.659a22.541 22.541 0 01-6.262 1.532 5.371 5.371 0 01-1.621 0c-.851-.207-.895-1.177-.999-1.902-.333-2.369-.636-4.737-.94-7.098-.74-5.692-1.48-11.384-2.006-17.091a24.323 24.323 0 01-.148-4.441c.244-2.961.74-5.922 1.221-8.801a118.34 118.34 0 016.255-23.523 98.73 98.73 0 017.72-15.736c.229-.377-.363-.74-.592-.348v-.022z" fill="#313131"/><path d="M179.539 59.785c-2.221 7.676-5.019 15.433-5.374 23.486-.311 7.032 1.147 13.975 1.303 20.984.111 5.263-.341 10.562-.637 15.81-.259 4.493-.518 8.986-.859 13.471-.044.526-.088 1.059-.14 1.584-.119 1.103.111 2.798-1.377 2.798a17.75 17.75 0 01-5.781-1.347 26.598 26.598 0 01-5.84-2.997c-.37-.245-.74.347-.348.592a27.202 27.202 0 0010.296 4.219c.903.17 2.221.525 3.013-.185.636-.593.584-1.718.658-2.502.356-3.701.57-7.469.8-11.206.318-5.234.622-10.467.836-15.7a79.234 79.234 0 00-.318-10.695c-.333-3.56-.799-7.113-.933-10.688a49.067 49.067 0 011.377-13.324c1.14-4.744 2.62-9.415 3.982-14.107a.34.34 0 00-.499-.385.337.337 0 00-.159.207v-.015z" fill="#313131"/><path d="M165.86 137.134c0 10.917 2.864 21.694 2.517 32.634 0 .437.666.437.681 0 .347-10.94-2.51-21.717-2.517-32.634a.34.34 0 10-.681 0zm45.284 9.089c-.133 7.365-.429 14.878-1.651 22.154-.066.429.593.614.659.185 1.229-7.343 1.54-14.907 1.68-22.339a.345.345 0 00-.344-.297.347.347 0 00-.344.297zM97.112 39.8c.045 1.97 0 3.946-.148 5.922a36.449 36.449 0 01-.74 6.077c-.6 2.531-1.658 5.063-3.982 6.461-2.147 1.288-4.76 1.48-7.202 1.244-.474 0-.466.74 0 .74a12.799 12.799 0 007.372-1.199c2.258-1.25 3.538-3.494 4.256-5.921a30.64 30.64 0 001.014-6.61c.156-2.22.252-4.478.2-6.714 0-.473-.74-.473-.74 0h-.03z" fill="#313131"/><path d="M85.787 51.295a2.323 2.323 0 003.746.985c.333-.34-.193-.866-.526-.526a.935.935 0 01-.31.237l-.097.044-.215.06h-.548l-.229-.052-.2-.06s-.103-.044-.044 0l-.111-.051a1.672 1.672 0 01-.192-.119l-.09-.059h-.036l-.156-.155s-.081-.104-.044-.045a.618.618 0 00-.06-.089c0-.059-.066-.118-.096-.177-.03-.06 0 0 0-.045l-.044-.133a.382.382 0 00-.74.193l-.008-.008zm3.664-7.32a22.005 22.005 0 00.57 5.07c.104.466.814.267.74-.192a21.298 21.298 0 01-.54-4.878.37.37 0 00-.74 0h-.03zM75.64 42.65a3.162 3.162 0 00-.74.081 2.324 2.324 0 00-1.03.666 3.42 3.42 0 00-.902 2.029 4.915 4.915 0 00.318 2.22 2.419 2.419 0 001.31 1.429 2.518 2.518 0 002.161.103c.422-.207.052-.851-.377-.636a1.917 1.917 0 01-1.762-.304 2.383 2.383 0 01-.88-1.747 3.219 3.219 0 01.318-2.131c.196-.364.495-.662.858-.859.236-.09.488-.13.74-.118.474 0 .482-.74 0-.74l-.014.007zM90.68 59.4c.06 1.125.074 2.22.237 3.375.133.985.363 2.221 1.243 2.843.393.274.74-.37.378-.637a1.79 1.79 0 01-.585-.94 7.74 7.74 0 01-.34-1.584c-.126-1.014-.141-2.035-.193-3.057 0-.474-.74-.474-.74 0zm-17.446 6.358a61.023 61.023 0 00-9.519 7.276c-2.339 2.22-3.064 5.596-3.234 8.705-.304 5.67 1.48 11.006 2.672 16.469.925 4.137 1.828 8.371 1.924 12.62a.368.368 0 00.37.37.368.368 0 00.37-.37c-.155-6.743-2.087-13.405-3.656-19.926a33.39 33.39 0 01-.962-6.898c-.09-3.16.2-6.743 2.102-9.386 1.206-1.665 3.086-2.96 4.685-4.211a66.135 66.135 0 015.618-4.005c.407-.259 0-.895-.37-.644z" fill="#313131"/><path d="M92.16 65.618c2.428 1.428 5.115 2.48 7.669 3.656 1.362.63 2.731 1.258 4.071 1.94a27.02 27.02 0 013.538 2.323c1.576 1.126 3.182 2.221 4.737 3.368 1.998 1.48 3.893 3.08 5.832 4.634a33.735 33.735 0 005.722 3.886 26.775 26.775 0 006.958 2.176c2.272.459 4.53 1.029 6.824 1.436a37.09 37.09 0 007.942.533c.474 0 .474-.74 0-.74-4.53.177-8.763-.74-13.16-1.651-2.495-.54-5.033-.94-7.402-1.999a29.196 29.196 0 01-6.032-3.878c-3.368-2.665-6.699-5.322-10.215-7.794a37.566 37.566 0 00-3.804-2.62c-1.199-.644-2.436-1.207-3.664-1.777-2.872-1.34-5.922-2.502-8.638-4.108a.37.37 0 00-.378.637v-.022zm-15.129 18.97c2.524 3.302 5.1 6.558 7.86 9.667 2.488 2.813 4.871 5.877 7.72 8.327 5.922 5.063 13.443 8.209 20.726 10.681 2.368.799 4.767 1.48 7.18 2.154a.385.385 0 00.47-.27.384.384 0 00-.271-.47 102.425 102.425 0 01-15.987-5.611 51.626 51.626 0 01-10.54-6.166c-2.961-2.339-5.345-5.344-7.861-8.142-3.042-3.397-5.922-6.935-8.675-10.562-.289-.37-.933 0-.637.378l.015.014z" fill="#313131"/><path d="M120.265 115.062a25.071 25.071 0 01-.57 3.997 39.39 39.39 0 01-1.177 3.856c-.155.451.555.644.74.192a37.08 37.08 0 001.207-3.967c.293-1.343.483-2.707.57-4.078 0-.482-.74-.474-.74 0h-.03z" fill="#313131"/><path d="M113.3 124.033a13.705 13.705 0 005.677-.667c.444-.148.252-.866-.2-.74-1.76.599-3.627.816-5.477.637-.474-.045-.466.696 0 .74v.03z" fill="#313131"/><path d="M112.945 123.988a10.49 10.49 0 004.803 2.369c.467.103.667-.615.2-.74a9.894 9.894 0 01-4.485-2.177c-.348-.318-.874.2-.518.519v.029z" fill="#313131"/><path d="M117.911 125.765l.133.133v.266a.292.292 0 01-.125.163c-.089.059-.171.022-.245-.111-.148 0-.207-.059-.177-.178 0 0-.082.141-.096.171l-.193.288c-.043.067-.09.132-.141.193v.044c0 .037.067-.081 0 0l-.059.067c-.231.291-.446.595-.644.91a.373.373 0 00.134.504.375.375 0 00.51-.134 9.528 9.528 0 01.437-.651v-.037l.111-.141c.118-.148.229-.296.333-.451.185-.274.459-.6.274-.94a.425.425 0 00-.251-.221.422.422 0 00-.334.021.45.45 0 00-.207.274.417.417 0 00.024.256c.034.081.093.15.168.195a.35.35 0 00.28.04.36.36 0 00.224-.173.37.37 0 00-.134-.503l-.022.015zM106.92 79.607a43.671 43.671 0 011.191 15.707 81.433 81.433 0 01-3.16 14.344.384.384 0 10.74.2 82.954 82.954 0 003.183-14.544 44.42 44.42 0 00-1.214-15.9.386.386 0 00-.47-.27.384.384 0 00-.27.47v-.007zm-41.813 30.607a95.802 95.802 0 01-1.258 10.362 49.117 49.117 0 01-1.044 4.996 39.324 39.324 0 01-2.45 6.01c-.54 1.163-.74 2.036.237 3.013a12.499 12.499 0 004.996 2.657 56.945 56.945 0 0012.901 2.302c2.905.134 5.796.473 8.653 1.014 2.398.518 4.907.977 7.254 0 .436-.177.244-.895-.2-.74-2.169.903-4.441.511-6.662 0a50.258 50.258 0 00-6.735-.91c-2.48-.185-4.974-.311-7.402-.741a69.611 69.611 0 01-5.751-1.221 17.478 17.478 0 01-5.374-2.117c-.548-.362-1.614-1.006-1.636-1.776-.022-.77.681-1.74.977-2.406a36.065 36.065 0 001.999-5.181c.429-1.577.74-3.183 1.014-4.782a96.024 96.024 0 001.288-10.584c0-.474-.74-.474-.74 0l-.067.104zm41.243 16.764c.562 1.799 1.28 3.553 1.946 5.307a35.739 35.739 0 011.71 4.871c.104.459.822.266.74-.2a37.986 37.986 0 00-1.709-4.863c-.667-1.762-1.392-3.516-1.955-5.307-.14-.452-.851-.259-.74.192h.008zM73.1 66.27c2.014 2.656 4.398 5.003 6.492 7.593a77.414 77.414 0 015.966 8.38 47.096 47.096 0 015.544 13.167c.548 2.22.955 4.441 1.355 6.699.08.473.799.273.74-.193a65.628 65.628 0 00-3.035-12.124 59.391 59.391 0 00-8.734-14.804c-2.428-3.13-5.27-5.921-7.661-9.067-.281-.377-.925 0-.637.378l-.03-.03zm21.688.784c1.096 3.397 2.731 6.58 4.004 9.903a40.431 40.431 0 012.221 10.762 66.83 66.83 0 01.074 14.848c-.193 1.577-.496 3.131-.807 4.686-.096.466.622.666.74.199a56.22 56.22 0 001.199-10.014 78.87 78.87 0 00-.318-8.475c-.311-3.523-.629-7.12-1.754-10.496-1.318-3.952-3.338-7.638-4.626-11.606-.14-.451-.859-.259-.74.193h.007z" fill="#313131"/><path d="M94.684 124.521c.119 2.583.2 5.181.111 7.757-.088 2.576-.318 5.181-.518 7.75 0 .474.74.474.74 0 .2-2.576.43-5.181.519-7.75.088-2.568 0-5.181-.111-7.757 0-.474-.74-.474-.74 0zm12.532 13.338a205.84 205.84 0 011.48 21.228c.059 3.124.037 6.255-.118 9.378 0 .482.74.474.74 0a181.52 181.52 0 00-1.118-28.356c-.074-.74-.155-1.48-.252-2.22-.059-.467-.799-.467-.74 0l.008-.03zm-43.73-1.754c-2.96 10.71-2.324 21.754.289 32.464.11.459.821.267.74-.2-2.576-10.584-3.198-21.465-.289-32.064a.386.386 0 00-.136-.404.375.375 0 00-.283-.076.378.378 0 00-.32.28zm75.121-26.499c-1.148-.851-2.791-.74-4.138-.629-1.739.171-3.442.57-5.181.74-1.481.178-3.509-.362-3.923 1.533a16.022 16.022 0 00-.259 3.316c0 .888.74 1.14 1.48 1.036a4.153 4.153 0 002.568-1.717.966.966 0 01.941-.422c.37 0 .74.044 1.125.052.74 0 1.48 0 2.265-.045.466 0 .473-.74 0-.74-1.09.067-2.183.067-3.272 0a1.958 1.958 0 00-.925.059 2.442 2.442 0 00-.844.807c-.296.372-.654.69-1.059.94-.34.207-1.147.577-1.48.215-.333-.363 0-1.007 0-1.355 0-.533.052-1.073.111-1.599.059-.525.156-.977.644-1.177a3.439 3.439 0 011.258-.074c.59.001 1.18-.046 1.762-.14 1.48-.193 2.894-.503 4.352-.681 1.333-.156 3.042-.37 4.19.488.377.282.74-.362.37-.644l.015.037z" fill="#313131"/><path d="M133.507 113.507a3.098 3.098 0 011.976.503 7.036 7.036 0 011.962 1.614 8.762 8.762 0 011.154 2.554c.158.476.206.982.141 1.48-.037.2-.274.74-.563.637a.384.384 0 00-.432.561.386.386 0 00.232.179 1.175 1.175 0 001.096-.4c.32-.378.477-.868.437-1.362a7.868 7.868 0 00-1.103-3.457 6.566 6.566 0 00-2.369-2.287 3.917 3.917 0 00-2.531-.74c-.481 0-.481.74 0 .74v-.022z" fill="#313131"/><path d="M135.55 117.645l1.184 1.643a7.002 7.002 0 011.029 1.569 1.442 1.442 0 01-.23 1.384 1.121 1.121 0 01-1.339.415c-.445-.17-.637.548-.2.74 1.325.503 2.642-.74 2.598-2.095a3.701 3.701 0 00-.925-1.954l-1.481-2.05c-.274-.385-.918 0-.636.377v-.029z" fill="#313131"/><path d="M134.025 120.842l1.095 1.481c.259.355.8.895.519 1.354a3.81 3.81 0 01-.489.592c-.159.189-.349.35-.563.474a1.482 1.482 0 01-1.073 0 .38.38 0 00-.503.133.37.37 0 00.126.504c.522.224 1.11.24 1.643.044a3.596 3.596 0 001.406-1.28 1.484 1.484 0 00-.155-1.858c-.444-.637-.911-1.259-1.362-1.888a.395.395 0 00-.511-.133.386.386 0 00-.133.511v.066zm-11.169 5.034a1.325 1.325 0 01.592-1.192 1.025 1.025 0 011.251.074c.02.028.037.058.051.089a.31.31 0 010 .096.38.38 0 010 .126 2.11 2.11 0 010 .318c-.011.363.004.727.045 1.088.052.274.118.548-.163.74-.24.121-.515.155-.777.097a1.35 1.35 0 01-1.088-1.429c0-.474-.74-.474-.74 0a2.094 2.094 0 001.347 2.065c.74.289 2.028.104 2.22-.858a2.031 2.031 0 00-.044-.741 3.39 3.39 0 010-.621 2.672 2.672 0 00-.178-1.229 1.613 1.613 0 00-2.013-.6 2.053 2.053 0 00-.954.785 2.05 2.05 0 00-.327 1.192c0 .098.039.192.109.261a.367.367 0 00.523 0 .366.366 0 00.109-.261h.037z" fill="#313131"/><path d="M125.579 125.439a1.106 1.106 0 01.178-.637 1.16 1.16 0 01.681-.407.744.744 0 01.688.215c.053.046.103.095.148.148l.052.059c0-.052.074.089 0 0a.114.114 0 010 .052s0 .059 0 0v-.052.141c0 .282.023.565.067.844 0 .155.059.31.089.459.025.153.062.304.111.451 0-.126 0 0 0 0v.096c0-.089 0 .03 0 0v.059a.375.375 0 010 .082c0-.037 0 .074 0 0a.538.538 0 01-.193.222 1.62 1.62 0 01-.503.222 1.255 1.255 0 01-.644 0l-.059-.037a1.301 1.301 0 01-.17-.178 1.818 1.818 0 01-.326-.644.23.23 0 010-.074c0-.051 0-.051 0 0v-.066a.368.368 0 00-.37-.37.372.372 0 00-.37.37c.026.41.173.804.422 1.132.117.18.265.337.436.467.222.138.479.207.74.199a1.752 1.752 0 001.91-1.391 2.967 2.967 0 00-.155-.881 3.967 3.967 0 01-.104-.94.92.92 0 00-.081-.488 1.811 1.811 0 00-.319-.4 1.622 1.622 0 00-1.102-.526 1.93 1.93 0 00-1.355.637 1.824 1.824 0 00-.415 1.184.37.37 0 00.741 0l-.097.052z" fill="#313131"/><path d="M128.237 126.001c0-.34-.082-.673-.111-1.014a1.388 1.388 0 01.096-.836 1.084 1.084 0 01.74-.511.845.845 0 01.74.385c.449.673.686 1.464.681 2.273a.612.612 0 01-.103.407c-.097.138-.227.25-.378.325-.31.153-.654.225-.999.208-.059 0 .059 0 0 0h-.082l-.088-.052a.883.883 0 01-.171-.185 2.704 2.704 0 01-.325-1.074.386.386 0 00-.47-.27.384.384 0 00-.27.47c.103.696.37 1.621 1.147 1.836.427.084.87.04 1.273-.126a1.827 1.827 0 001.073-.873 2.64 2.64 0 000-1.621 4.671 4.671 0 00-.525-1.481 1.905 1.905 0 00-1.051-.91 1.558 1.558 0 00-1.348.296 1.688 1.688 0 00-.74 1.303c.015.495.057.989.126 1.48 0 .474.74.481.74 0l.045-.03z" fill="#313131"/><path d="M130.679 124.292a.923.923 0 011.584-.829c.153.199.261.429.319.673.096.311.17.637.236.955.111.295.154.611.126.925a.533.533 0 01-.392.311 1.551 1.551 0 01-1.547-.133.369.369 0 00-.518.518 2.131 2.131 0 002.102.37c.325-.063.623-.226.851-.466a1.417 1.417 0 00.193-1.229 16.378 16.378 0 00-.304-1.325 2.897 2.897 0 00-.481-1.051 1.667 1.667 0 00-2.788.388 1.67 1.67 0 00-.099 1.092.393.393 0 00.065.135.394.394 0 00.253.148.376.376 0 00.283-.074.375.375 0 00.148-.252.375.375 0 00-.009-.149l-.022-.007zm-5.107-13.834a8.88 8.88 0 00-2.694 2.035 9 9 0 00-1.007 1.325 2.032 2.032 0 01-.466.622 1.44 1.44 0 01-.74.222c-.474 0-.481.74 0 .74a2.021 2.021 0 001.569-.74c.348-.467.607-.985.984-1.436a8.419 8.419 0 012.761-2.169c.429-.207.052-.844-.377-.636l-.03.037zm-7.72 15.943c.851 0 1.702 0 2.561-.037h1.628a.37.37 0 100-.74c-.851 0-1.709 0-2.561.044h-1.628a.37.37 0 000 .741v-.008zM108.267 97.4a59.282 59.282 0 0011.843 3.739c2.884.588 5.804.981 8.741 1.177 2.726.121 5.457.086 8.179-.104 3.005-.163 6.003-.422 8.993-.74.474-.044.474-.785 0-.74-5.219.619-10.472.913-15.729.881a58.273 58.273 0 01-16.01-2.732c-1.887-.607-3.797-1.347-5.647-2.087-.43-.185-.807.452-.37.636v-.03z" fill="#313131"/><path d="M146.386 101.117c.185-1.984.437-3.968.548-5.922a32.56 32.56 0 00-.237-5.921.386.386 0 00-.37-.37h-.874a.368.368 0 00-.37.37.368.368 0 00.37.37h.874l-.37-.37c.258 1.962.338 3.944.236 5.921-.111 1.991-.362 3.975-.547 5.922-.045.473.695.473.74 0z" fill="#313131"/><path d="M146.482 99.192c1.229-.192 2.45-.4 3.701-.614a40.946 40.946 0 005.766-1.229c.451-.148.259-.859-.192-.74-1.89.547-3.817.955-5.766 1.221-1.222.222-2.45.43-3.701.615-.467.074-.267.784.199.74l-.007.007zm71.923-33.804a5.622 5.622 0 011.392 1.799c.317.715.565 1.458.74 2.22.414 1.385 1.614 2.598 1.614 4.086a.372.372 0 00.37.37.368.368 0 00.37-.37c0-1.65-1.273-2.872-1.673-4.396a7.573 7.573 0 00-2.265-4.197c-.363-.304-.896.222-.526.525l-.022-.037zm-21.916-17.675a9.058 9.058 0 003.848 5.588c.4.267.741-.377.371-.636a8.32 8.32 0 01-3.502-5.182c-.103-.466-.821-.266-.74.2l.023.03z" fill="#313131"/><path d="M186.607 108.689a1.732 1.732 0 100-3.464 1.732 1.732 0 000 3.464z" stroke="#313131" stroke-linecap="round" stroke-linejoin="round"/><path d="M83.093 32.287c.985 1.318 1.48 2.961 2.694 4.1a7.72 7.72 0 003.494 1.696c2.776.674 6.04.496 8.401 2.339.37.289.903-.237.526-.526-2.22-1.746-5.115-1.828-7.802-2.324a8.55 8.55 0 01-3.915-1.525c-1.325-1.08-1.792-2.797-2.784-4.13-.28-.385-.925 0-.643.37h.03z" fill="#313131"/><path d="M98.267 40.348a9.452 9.452 0 00-2.65-11.103c-3.42-2.642-8.216-2.96-12.36-2.48-4.664.534-9.201 2.354-12.036 6.248-2.302 3.16-3.331 7.083-2.169 10.873a12.419 12.419 0 007.535 8.305c.452.163.644-.548.2-.74a11.377 11.377 0 01-6.706-6.87 11.162 11.162 0 01.74-9.548c2.124-3.915 5.847-6.225 10.126-7.165 3.923-.858 8.497-.947 12.227.74a8.386 8.386 0 014.516 4.442 9.312 9.312 0 01-.052 6.846c-.185.437.451.815.644.378l-.015.074z" fill="#313131"/><path d="M74.093 30.296a8.883 8.883 0 00-13.59 8.542c.2 1.584 1.177 3.101 1.058 4.708-.177 2.302-2.531 3.797-3.996 5.307-1.348 1.391-2.325 3.138-1.555 5.092.77 1.954 2.872 3.205 3.797 5.181.674 1.414-.163 2.428-.54 3.768a2.11 2.11 0 001.317 2.605 6.506 6.506 0 006.447-1.103c1-.78 1.742-1.842 2.132-3.05.196-.883.337-1.778.422-2.679.185-1.021.873-2.598 2.22-2.28.74.178 1.192.815 1.984.83a3.353 3.353 0 001.925-.66 3.864 3.864 0 001.524-3.263c-.059-.467-.799-.474-.74 0a3.02 3.02 0 01-2.28 3.13c-1.25.26-2.065-1.184-3.412-.68-2.553.947-1.68 4.36-2.716 6.299a6.107 6.107 0 01-6.092 3.086 3.035 3.035 0 01-1.82-.74c-.66-.74 0-1.762.288-2.524a3.57 3.57 0 00.215-2.502c-.57-1.82-2.287-3.02-3.36-4.515-1.348-1.887-.896-3.7.614-5.292 1.258-1.332 2.842-2.435 3.76-4.056 1.302-2.325-.185-4.367-.474-6.728a8.068 8.068 0 0112.502-7.854c.4.252.74-.385.37-.644v.022zm73.04 60.266c2.961-.526 5.655-1.614 7.513-4.042a25.738 25.738 0 011.673-2.22c1.369-1.48 3.464-2.117 5.329-2.613a.382.382 0 10-.192-.74 12.868 12.868 0 00-5.389 2.524c-.638.64-1.202 1.35-1.68 2.117a9.323 9.323 0 01-2.354 2.405 13.355 13.355 0 01-5.107 1.836c-.474.089-.274.8.193.74l.014-.007zm6.211 3.871a7.72 7.72 0 004.663-1.903 7.513 7.513 0 001.636-2.065 5.515 5.515 0 011.746-2.302c1.214-.74 3.701-1.931 3.324-3.7a1.332 1.332 0 00-1.481-1.14 4.122 4.122 0 00-1.125.414c-.436.193-.881.363-1.317.54a10.36 10.36 0 00-4.308 2.887c-.311.363.215.888.518.526a8.505 8.505 0 013.101-2.332c.622-.274 1.266-.51 1.895-.74.629-.23 1.821-1.036 1.962.096.096.822-.844 1.48-1.414 1.895-.681.503-1.48.844-2.124 1.384-1.125.97-1.481 2.561-2.502 3.635a6.93 6.93 0 01-4.611 2.139c-.474 0-.474.74 0 .74l.037-.074zm-89.532 6.876a52.086 52.086 0 006.957 8.342 61.984 61.984 0 009.919 8.653c7.564 5.07 16.483 7.535 25.425 8.741 3.486.474 7.002.681 10.481 1.155.466.066.666-.644.2-.74-2.88-.393-5.774-.585-8.653-.926a82.707 82.707 0 01-12.169-2.272 51.806 51.806 0 01-13.086-5.47 54.48 54.48 0 01-10.459-8.475c-2.857-2.864-5.862-5.921-8.009-9.385a.368.368 0 00-.503-.124.367.367 0 00-.133.501h.03zm39.703 37.675c1.162-.214 2.331-.392 3.493-.614a20.995 20.995 0 003.427-.836c.445-.171.252-.881-.199-.741-1.117.378-2.263.66-3.427.844-1.163.215-2.325.4-3.487.607-.466.089-.274.799.193.74z" fill="#313131"/><path d="M102.464 126.268c.304 1.938.428 3.901.37 5.862-.045 2.147-.378 4.493.259 6.573.141.451.851.259.74-.2a11.583 11.583 0 01-.296-3.701c0-1.021.059-2.043.074-3.057a31.989 31.989 0 00-.407-5.699c-.074-.474-.792-.274-.74.192v.03zm92.981-82.596a9.398 9.398 0 00-1.207 2.642 11.9 11.9 0 00-1.051 3.109c-.004 1.14.133 2.276.408 3.382a12.181 12.181 0 001.902 4.797c2.006 2.82 5.692 2.864 8.601 4.27a24.49 24.49 0 018.223 6.055c2.369 2.776 3.938 6.144 5.315 9.49 1.554 3.752 3.212 7.475 4.603 11.294a37.015 37.015 0 012.221 9.09 59.14 59.14 0 01-.304 11.732c-.466 4.441-.984 9.022-2.427 13.323a23.464 23.464 0 01-7.498 10.866c-.363.303.163.821.525.525a23.678 23.678 0 006.847-8.986 41.816 41.816 0 002.731-10.969c.985-7.217 1.799-14.752-.118-21.887a76.616 76.616 0 00-3.561-9.682c-1.569-3.76-2.96-7.646-4.974-11.206a23.134 23.134 0 00-6.002-7.113 28.47 28.47 0 00-9.105-4.537 14.78 14.78 0 01-2.775-1.051 5.802 5.802 0 01-2.176-2.391 14.419 14.419 0 01-1.562-5.522 6.73 6.73 0 01-.119-1.532 7.897 7.897 0 01.533-1.621c.267-.74.541-1.429.829-2.14.156-.52.38-1.018.666-1.48.311-.355-.214-.88-.525-.518v.06z" fill="#313131"/><path d="M179.013 61.62c-.281 1.962.614 4.442 2.339 5.537 2.095 1.288 4.937.903 7.172.245a16.892 16.892 0 008.076-5.226c.273-.34-.208-.83-.482-.489a16.28 16.28 0 01-6.38 4.567c-2.08.844-4.604 1.421-6.817.83a4.834 4.834 0 01-3.249-5.278c.059-.43-.6-.622-.659-.185zm27.142 35.862c-.444 3.161-1.066 6.351-1.228 9.549a11.315 11.315 0 001.931 7.342c.252.355.844 0 .593-.348a10.918 10.918 0 01-1.821-7.29c.192-3.035.74-6.063 1.184-9.075.059-.43-.599-.614-.659-.178z" fill="#313131"/><path d="M220.063 127.422l6.899 5.478a1.67 1.67 0 01.266 2.346l-10.399 13.087a1.676 1.676 0 01-2.347.273l-9.141-7.261m-9.578-7.712l-6.854-5.344a1.675 1.675 0 01-.266-2.347l10.399-13.086a1.671 1.671 0 012.347-.274l5.469 4.345" stroke="#313131" stroke-linecap="round" stroke-linejoin="round"/><path d="M75.825 49.215c1.11 5.455 1.79 12.398-2.665 16.603-.348.325.178.85.526.525 4.663-4.441 4.019-11.606 2.857-17.328-.097-.466-.807-.266-.74.2h.022zm.251-6.38c.208-2.072 1.829-3.96 3.146-5.463a40.13 40.13 0 014.811-4.5c.37-.303-.163-.821-.525-.525a38.074 38.074 0 00-5.181 4.907c-1.34 1.599-2.798 3.434-3.013 5.581-.052.474.688.466.74 0h.022zm5.5 33.53a16.506 16.506 0 0016.528-2.324c.363-.304-.163-.822-.525-.526a15.72 15.72 0 01-15.633 2.22c-.43-.184-.807.452-.37.645v-.015zm186.68-54.98l.126-3.48c0-.473-.74-.473-.74 0l-.126 3.48c0 .48.74.48.74 0zm1.51 1.628l3.864.126a.372.372 0 00.37-.37.371.371 0 00-.37-.37l-3.864-.126c-.473 0-.473.74 0 .74zm-2.398 1.369v3.19a.372.372 0 00.37.37.372.372 0 00.37-.37v-3.19a.372.372 0 00-.37-.37.372.372 0 00-.37.37zm-4.663-1.11a24.092 24.092 0 013.101-.06.37.37 0 00.37-.37.378.378 0 00-.37-.37 24.056 24.056 0 00-3.101.06.372.372 0 00-.37.37.371.371 0 00.37.37zm-238.16 3.605l.126-3.48c0-.48-.74-.473-.74 0l-.126 3.48c0 .48.74.48.74 0zm1.51 1.628l3.864.126c.48 0 .473-.74 0-.74l-3.864-.126c-.474 0-.474.74 0 .74zm-2.398 1.37v3.19a.37.37 0 00.74 0v-3.19a.37.37 0 10-.74 0zm-4.663-1.111a22.737 22.737 0 013.101-.066.37.37 0 00.37-.37.378.378 0 00-.37-.37 22.74 22.74 0 00-3.094.059.37.37 0 100 .74l-.007.007zm237.686 104.18l.126-3.486c0-.474-.741-.474-.741 0l-.125 3.486c0 .474.74.474.74 0zm1.532 1.599l3.864.119a.37.37 0 000-.741l-3.864-.118c-.474 0-.474.74 0 .74zm-2.42 1.392v3.19a.372.372 0 00.74 0v-3.19a.368.368 0 00-.37-.37.372.372 0 00-.37.37zm-4.664-1.111a24.145 24.145 0 013.102-.051.366.366 0 00.261-.109.367.367 0 000-.523.366.366 0 00-.261-.109 24.145 24.145 0 00-3.102.052.382.382 0 00-.257.113.382.382 0 00-.113.257.368.368 0 00.37.37zm-222.29-3.242l.126-3.479c0-.473-.74-.473-.74 0l-.126 3.479c0 .481.74.481.74 0zm1.51 1.621l3.864.126a.371.371 0 00.37-.37.372.372 0 00-.37-.37l-3.864-.126c-.474 0-.474.74 0 .74zm-2.398 1.34v3.19a.37.37 0 10.74 0v-3.19a.372.372 0 00-.37-.37.372.372 0 00-.37.37zm-4.663-1.081a24.134 24.134 0 013.101-.059.371.371 0 00.37-.37.377.377 0 00-.37-.37 24.134 24.134 0 00-3.101.059.368.368 0 00-.37.37.369.369 0 00.37.37z" fill="#313131"/><path d="M255.266 76.506a.999.999 0 100-1.998.999.999 0 000 1.998zM2 86.765a1 1 0 100-1.999 1 1 0 000 1.999zm127.243-23.412a1 1 0 100-2 1 1 0 000 2z" stroke="#313131" stroke-miterlimit="10"/><path d="M226.547 31.999l7.824-3.235a2.016 2.016 0 001.103-.851c.25-.432.319-.946.192-1.429-.281-.858-1.317-1.687-2.28-1.288l-7.816 3.235a2.02 2.02 0 00-1.11.851 1.9 1.9 0 00-.185 1.421c.274.859 1.317 1.688 2.272 1.296zm-9.926-16.062l3.346-4.367a1.85 1.85 0 00.192-1.421 1.909 1.909 0 00-.851-1.11 1.886 1.886 0 00-1.428-.186l-.444.186a1.83 1.83 0 00-.659.666l-3.353 4.367a1.832 1.832 0 00-.185 1.42c.133.465.437.862.851 1.111.43.248.942.314 1.421.185l.444-.185a1.97 1.97 0 00.666-.666zm19.845 34.403h7.742a1.849 1.849 0 001.85-1.85 1.85 1.85 0 00-1.85-1.85h-7.742a1.851 1.851 0 100 3.7zm-85.58-11.14l6.025 1.71a1.864 1.864 0 002.273-1.287 1.9 1.9 0 00-1.296-2.28l-6.017-1.71a1.868 1.868 0 00-2.273 1.288 1.886 1.886 0 001.288 2.28zm7.439 19.49l2.576-1.725c.408-.252.711-.644.851-1.103a1.408 1.408 0 000-.74 1.37 1.37 0 00-.215-.688 1.91 1.91 0 00-1.11-.852 1.834 1.834 0 00-1.421.193l-2.583 1.717a1.976 1.976 0 00-.852 1.103 1.496 1.496 0 000 .74c.008.246.085.484.223.688a1.85 1.85 0 002.531.667z" fill="#1280FF"/><path d="M125.446 1a16.621 16.621 0 00-14.989 9.381 16.626 16.626 0 001.94 17.576l-4.019 6.122 7.794-2.598a16.648 16.648 0 0025.663-16.666 16.64 16.64 0 00-8.906-12.03A16.647 16.647 0 00125.446 1z" stroke="#313131" stroke-width="1.16" stroke-linecap="round" stroke-linejoin="round"/><path d="M118.229 19.179l5.33 4.87a1.886 1.886 0 002.909-.37 97.095 97.095 0 016.728-8.549 1.901 1.901 0 000-2.62 1.872 1.872 0 00-2.62 0 107.667 107.667 0 00-7.306 9.296l2.909-.37-5.337-4.87a1.88 1.88 0 00-2.613 0 1.861 1.861 0 000 2.613z" fill="#1280FF"/></svg>